<svg class="social-media-icon" width="24" height="24" viewBox="0 0 24 24" xmlns="http://www.w3.org/2000/svg">
  <path fill-rule="evenodd" clip-rule="evenodd" d="M19.6031 2.19847H4.39695C3.1145 2.19847 2.19847 3.1145 2.19847 4.39695V19.6031C2.19847 20.7023 3.1145 21.6183 4.39695 21.6183H10.2595V15.0229H7.51145V11.9084H10.2595V9.52672C10.2595 6.96183 11.9084 5.49618 14.2901 5.49618C15.5725 5.49618 16.855 5.67939 16.855 5.67939V8.24428H15.3893C14.1069 8.24428 13.7405 9.16031 13.7405 9.89313V11.9084H16.6718L16.1221 15.0229H13.7405V21.6183H19.6031C20.7023 21.6183 21.6183 20.7023 21.6183 19.6031V4.39695C21.6183 3.1145 20.7023 2.19847 19.6031 2.19847ZM4.39695 0H19.6031C20.7023 0 21.8015 0.549618 22.7176 1.28244C23.4504 2.01527 24 3.1145 24 4.39695V19.6031C24 20.8855 23.4504 21.9847 22.7176 22.7176C21.9847 23.4504 20.8855 24 19.6031 24H4.39695C3.1145 24 2.01527 23.4504 1.28244 22.7176C0.549618 21.8015 0 20.7023 0 19.6031V4.39695C0 3.1145 0.549618 2.01527 1.28244 1.28244C2.01527 0.549618 3.1145 0 4.39695 0Z" />
</svg>
