<?xml version="1.0" standalone="no"?>
<!DOCTYPE svg PUBLIC "-//W3C//DTD SVG 20010904//EN"
 "http://www.w3.org/TR/2001/REC-SVG-20010904/DTD/svg10.dtd">
<svg version="1.0" xmlns="http://www.w3.org/2000/svg"
 width="700.000000pt" height="700.000000pt" viewBox="0 0 700.000000 700.000000"
 preserveAspectRatio="xMidYMid meet">
<metadata>
Created by potrace 1.14, written by Peter Selinger 2001-2017
</metadata>
<g transform="translate(0.000000,700.000000) scale(0.100000,-0.100000)"
fill="#000" stroke="none">
<path d="M915 6993 c-431 -54 -779 -366 -888 -793 l-22 -85 0 -2615 0 -2615
24 -89 c110 -418 431 -714 846 -781 77 -13 445 -15 2620 -15 1631 0 2555 4
2600 10 479 69 833 426 895 904 7 56 10 886 8 2646 l-3 2565 -24 85 c-109 388
-380 659 -766 763 l-80 22 -2590 1 c-1424 1 -2603 -1 -2620 -3z m2929 -1546
c168 -49 263 -105 377 -218 72 -71 94 -101 133 -180 71 -144 76 -180 76 -580
0 -199 -4 -370 -11 -405 -33 -189 -150 -347 -326 -442 l-54 -28 87 -43 c153
-76 254 -207 288 -373 23 -109 23 -1017 1 -1122 -44 -207 -202 -398 -411 -497
-160 -76 -134 -73 -770 -77 l-570 -3 -20 22 c-19 21 -19 57 -22 1946 -1 1269
1 1938 8 1963 6 22 19 41 32 48 16 8 184 10 573 9 488 -3 557 -5 609 -20z"/>
<path d="M3350 4376 l0 -486 115 0 c127 0 164 10 205 55 l25 27 3 391 c2 375
1 393 -17 424 -37 59 -61 68 -203 72 l-128 3 0 -486z"/>
<path d="M3358 3264 c-5 -4 -8 -270 -8 -591 l0 -583 123 0 c140 0 178 13 209
71 17 31 18 68 18 519 0 463 -1 486 -20 517 -32 53 -70 67 -200 71 -63 2 -118
0 -122 -4z"/>
</g>
</svg>
