<svg width="228" height="80" viewBox="0 0 228 80" fill="none" xmlns="http://www.w3.org/2000/svg">
<path d="M96.6413 64.2176L95.704 61.6172L94.75 64.2176H96.6413ZM95.8881 61.0803L98.1309 67.2878H97.7627L96.7752 64.5699H94.6329L93.6286 67.2878H93.2437L95.5199 61.0803H95.8881Z" fill="black"/>
<path d="M101.562 61.0803C102.583 61.0971 103.37 61.3823 103.922 61.936C104.541 62.5735 104.859 63.3117 104.859 64.1841C104.859 65.0733 104.541 65.8282 103.922 66.4322C103.37 67.0026 102.583 67.2878 101.562 67.2878H100.407V61.0803H101.562ZM100.759 61.4494V66.9355H101.562C102.449 66.9355 103.152 66.6839 103.654 66.1805C104.207 65.6437 104.491 64.9726 104.491 64.1841C104.491 63.4123 104.207 62.7412 103.654 62.1876C103.152 61.7011 102.449 61.4494 101.562 61.4494H100.759Z" fill="black"/>
<path d="M111.203 61.0803H111.571L109.345 67.2878H109.127L106.918 61.0803H107.286L109.244 66.6503L111.203 61.0803Z" fill="black"/>
<path d="M116.793 60.9966C117.68 60.9966 118.433 61.3153 119.052 61.9361C119.672 62.5568 119.973 63.3118 119.973 64.1842C119.973 65.0566 119.672 65.8116 119.052 66.4323C118.433 67.0531 117.68 67.3719 116.793 67.3719C115.922 67.3719 115.169 67.0531 114.55 66.4323C113.931 65.8116 113.629 65.0566 113.629 64.1842C113.629 63.3118 113.931 62.5568 114.55 61.9361C115.169 61.3153 115.922 60.9966 116.793 60.9966ZM116.793 61.3489C116.023 61.3489 115.353 61.6341 114.801 62.1877C114.265 62.7414 113.981 63.3957 113.981 64.1842C113.981 64.956 114.265 65.627 114.801 66.1807C115.353 66.7343 116.023 67.0028 116.793 67.0028C117.579 67.0028 118.249 66.7343 118.801 66.1807C119.354 65.627 119.621 64.956 119.621 64.1842C119.621 63.3957 119.354 62.7414 118.801 62.1877C118.249 61.6341 117.579 61.3489 116.793 61.3489Z" fill="black"/>
<path d="M127.622 66.5161C127.036 67.0865 126.333 67.3717 125.53 67.3717C124.643 67.3717 123.906 67.0529 123.287 66.4322C122.668 65.8114 122.35 65.0732 122.35 64.184C122.35 63.3116 122.668 62.5734 123.287 61.9527C123.906 61.3319 124.643 61.0132 125.53 61.0132C126.333 61.0132 127.053 61.2816 127.655 61.8353L127.388 62.0869C126.852 61.6004 126.233 61.3655 125.53 61.3655C124.743 61.3655 124.09 61.6507 123.538 62.2044C122.986 62.7412 122.718 63.4123 122.718 64.184C122.718 64.9726 122.986 65.6436 123.538 66.1805C124.09 66.7342 124.743 67.0026 125.53 67.0026C126.182 67.0026 126.768 66.8013 127.287 66.3986V64.5028H127.622V66.5161Z" fill="black"/>
<path d="M133.145 64.2176L132.208 61.6172L131.271 64.2176H133.145ZM132.392 61.0803L134.635 67.2878H134.266L133.279 64.5699H131.137L130.132 67.2878H129.764L132.024 61.0803H132.392Z" fill="black"/>
<path d="M138.066 61.0803C139.087 61.0971 139.874 61.3823 140.443 61.936C141.045 62.5735 141.363 63.3117 141.363 64.1841C141.363 65.0733 141.045 65.8282 140.443 66.4322C139.874 67.0026 139.087 67.2878 138.066 67.2878H136.928V61.0803H138.066ZM137.279 61.4494V66.9355H138.066C138.953 66.9355 139.656 66.6839 140.175 66.1805C140.71 65.6437 140.995 64.9726 140.995 64.1841C140.995 63.4123 140.71 62.7412 140.175 62.1876C139.656 61.7011 138.953 61.4494 138.066 61.4494H137.279Z" fill="black"/>
<path d="M146.853 60.9966C147.74 60.9966 148.493 61.3153 149.112 61.9361C149.732 62.5568 150.033 63.3118 150.033 64.1842C150.033 65.0566 149.732 65.8116 149.112 66.4323C148.493 67.0531 147.74 67.3719 146.853 67.3719C145.982 67.3719 145.229 67.0531 144.61 66.4323C143.991 65.8116 143.689 65.0566 143.689 64.1842C143.689 63.3118 143.991 62.5568 144.61 61.9361C145.229 61.3153 145.982 60.9966 146.853 60.9966ZM146.853 61.3489C146.083 61.3489 145.413 61.6341 144.878 62.1877C144.325 62.7414 144.041 63.3957 144.041 64.1842C144.041 64.956 144.325 65.627 144.878 66.1807C145.413 66.7343 146.083 67.0028 146.853 67.0028C147.639 67.0028 148.309 66.7343 148.861 66.1807C149.414 65.627 149.681 64.956 149.681 64.1842C149.681 63.3957 149.414 62.7414 148.861 62.1877C148.309 61.6341 147.639 61.3489 146.853 61.3489Z" fill="black"/>
<path d="M154.251 63.8485C153.816 63.7143 153.464 63.513 153.213 63.2445C152.962 62.9929 152.828 62.6909 152.828 62.3218C152.828 61.9695 152.962 61.6507 153.213 61.3991C153.464 61.1474 153.782 61.0132 154.151 61.0132C154.502 61.0132 154.82 61.1474 155.071 61.3991C155.205 61.5333 155.305 61.6843 155.372 61.852L155.054 61.9863C155.004 61.852 154.92 61.7346 154.82 61.6339C154.636 61.4494 154.418 61.3487 154.151 61.3487C153.883 61.3487 153.648 61.4494 153.464 61.6339C153.28 61.8185 153.18 62.0534 153.18 62.3218C153.18 62.5902 153.28 62.8083 153.464 63.0097C153.632 63.1774 153.883 63.3284 154.184 63.4794C154.686 63.6304 155.105 63.8821 155.439 64.2344C155.791 64.5867 155.975 65.0229 155.975 65.5262C155.975 66.0295 155.791 66.4657 155.439 66.818C155.088 67.1871 154.653 67.3717 154.151 67.3717C153.632 67.3717 153.213 67.1871 152.845 66.818C152.56 66.5328 152.393 66.1973 152.326 65.8282L152.661 65.694C152.694 66.0463 152.845 66.3315 153.096 66.5832C153.381 66.8684 153.732 67.0194 154.151 67.0194C154.552 67.0194 154.904 66.8684 155.205 66.5832C155.49 66.2812 155.64 65.9289 155.64 65.5262C155.64 65.1068 155.49 64.7545 155.205 64.4693C154.937 64.2176 154.636 64.0163 154.251 63.8485Z" fill="black"/>
<path d="M165.833 64.2176L164.896 61.6172L163.942 64.2176H165.833ZM165.063 61.0803L167.323 67.2878H166.955L165.967 64.5699H163.825L162.804 67.2878H162.436L164.712 61.0803H165.063Z" fill="black"/>
<path d="M171.524 63.8485C171.089 63.7143 170.737 63.513 170.486 63.2445C170.235 62.9929 170.101 62.6909 170.101 62.3218C170.101 61.9695 170.235 61.6507 170.486 61.3991C170.737 61.1474 171.055 61.0132 171.407 61.0132C171.775 61.0132 172.076 61.1474 172.344 61.3991C172.478 61.5333 172.578 61.6843 172.629 61.852L172.327 61.9863C172.277 61.852 172.193 61.7346 172.093 61.6339C171.909 61.4494 171.675 61.3487 171.407 61.3487C171.156 61.3487 170.921 61.4494 170.737 61.6339C170.553 61.8185 170.453 62.0534 170.453 62.3218C170.453 62.5902 170.553 62.8083 170.737 63.0097C170.905 63.1774 171.156 63.3284 171.457 63.4794C171.959 63.6304 172.378 63.8821 172.712 64.2344C173.064 64.5867 173.248 65.0229 173.248 65.5262C173.248 66.0295 173.064 66.4657 172.712 66.818C172.344 67.1871 171.926 67.3717 171.407 67.3717C170.905 67.3717 170.469 67.1871 170.118 66.818C169.833 66.5328 169.666 66.1973 169.599 65.8282L169.934 65.694C169.967 66.0463 170.101 66.3315 170.352 66.5832C170.654 66.8684 171.005 67.0194 171.407 67.0194C171.825 67.0194 172.177 66.8684 172.461 66.5832C172.762 66.2812 172.913 65.9289 172.913 65.5262C172.913 65.1068 172.762 64.7545 172.461 64.4693C172.21 64.2176 171.892 64.0163 171.524 63.8485Z" fill="black"/>
<path d="M177.432 63.8485C176.997 63.7143 176.645 63.513 176.394 63.2445C176.143 62.9929 176.009 62.6909 176.009 62.3218C176.009 61.9695 176.143 61.6507 176.394 61.3991C176.645 61.1474 176.963 61.0132 177.315 61.0132C177.683 61.0132 177.984 61.1474 178.252 61.3991C178.386 61.5333 178.487 61.6843 178.537 61.852L178.219 61.9863C178.185 61.852 178.102 61.7346 178.001 61.6339C177.817 61.4494 177.583 61.3487 177.315 61.3487C177.047 61.3487 176.83 61.4494 176.645 61.6339C176.445 61.8185 176.361 62.0534 176.361 62.3218C176.361 62.5902 176.445 62.8083 176.645 63.0097C176.813 63.1774 177.047 63.3284 177.365 63.4794C177.867 63.6304 178.286 63.8821 178.62 64.2344C178.972 64.5867 179.156 65.0229 179.156 65.5262C179.156 66.0295 178.972 66.4657 178.62 66.818C178.252 67.1871 177.834 67.3717 177.315 67.3717C176.813 67.3717 176.378 67.1871 176.026 66.818C175.742 66.5328 175.558 66.1973 175.507 65.8282L175.842 65.694C175.876 66.0463 176.009 66.3315 176.26 66.5832C176.562 66.8684 176.913 67.0194 177.315 67.0194C177.733 67.0194 178.085 66.8684 178.369 66.5832C178.671 66.2812 178.821 65.9289 178.821 65.5262C178.821 65.1068 178.671 64.7545 178.369 64.4693C178.118 64.2176 177.8 64.0163 177.432 63.8485Z" fill="black"/>
<path d="M184.612 60.9966C185.499 60.9966 186.252 61.3153 186.872 61.9361C187.491 62.5568 187.792 63.3118 187.792 64.1842C187.792 65.0566 187.491 65.8116 186.872 66.4323C186.252 67.0531 185.499 67.3719 184.612 67.3719C183.742 67.3719 182.989 67.0531 182.369 66.4323C181.75 65.8116 181.449 65.0566 181.449 64.1842C181.449 63.3118 181.75 62.5568 182.369 61.9361C182.989 61.3153 183.742 60.9966 184.612 60.9966ZM184.612 61.3489C183.842 61.3489 183.173 61.6341 182.62 62.1877C182.085 62.7414 181.8 63.3957 181.8 64.1842C181.8 64.956 182.085 65.627 182.62 66.1807C183.173 66.7343 183.842 67.0028 184.612 67.0028C185.399 67.0028 186.068 66.7343 186.621 66.1807C187.173 65.627 187.441 64.956 187.441 64.1842C187.441 63.3957 187.173 62.7414 186.621 62.1877C186.068 61.6341 185.399 61.3489 184.612 61.3489Z" fill="black"/>
<path d="M195.207 66.2979L195.475 66.5328C194.872 67.0865 194.152 67.3717 193.349 67.3717C192.462 67.3717 191.726 67.0529 191.106 66.4322C190.487 65.8114 190.169 65.0732 190.169 64.184C190.169 63.3116 190.487 62.5734 191.106 61.9527C191.726 61.3319 192.462 61.0132 193.349 61.0132C194.152 61.0132 194.872 61.2816 195.475 61.8353L195.207 62.0869C194.671 61.6004 194.052 61.3655 193.349 61.3655C192.562 61.3655 191.91 61.6507 191.357 62.2044C190.805 62.7412 190.537 63.4123 190.537 64.184C190.537 64.9726 190.805 65.6436 191.357 66.1805C191.91 66.7342 192.562 67.0026 193.349 67.0026C194.052 67.0026 194.671 66.7677 195.207 66.2979Z" fill="black"/>
<path d="M198.42 61.0803V67.2878H198.069V61.0803H198.42Z" fill="black"/>
<path d="M204.111 64.2176L203.174 61.6172L202.237 64.2176H204.111ZM203.358 61.0803L205.601 67.2878H205.233L204.245 64.5699H202.103L201.099 67.2878H200.73L202.99 61.0803H203.358Z" fill="black"/>
<path d="M209.032 61.0803C210.053 61.0971 210.84 61.3823 211.409 61.936C212.028 62.5735 212.329 63.3117 212.329 64.1841C212.329 65.0733 212.028 65.8282 211.409 66.4322C210.84 67.0026 210.053 67.2878 209.032 67.2878H207.894V61.0803H209.032ZM208.246 61.4494V66.9355H209.032C209.919 66.9355 210.622 66.6839 211.141 66.1805C211.677 65.6437 211.961 64.9726 211.961 64.1841C211.961 63.4123 211.677 62.7412 211.141 62.1876C210.622 61.7011 209.919 61.4494 209.032 61.4494H208.246Z" fill="black"/>
<path d="M217.836 60.9966C218.706 60.9966 219.459 61.3153 220.079 61.9361C220.698 62.5568 220.999 63.3118 220.999 64.1842C220.999 65.0566 220.698 65.8116 220.079 66.4323C219.459 67.0531 218.706 67.3719 217.836 67.3719C216.949 67.3719 216.212 67.0531 215.593 66.4323C214.974 65.8116 214.656 65.0566 214.656 64.1842C214.656 63.3118 214.974 62.5568 215.593 61.9361C216.212 61.3153 216.949 60.9966 217.836 60.9966ZM217.836 61.3489C217.049 61.3489 216.396 61.6341 215.844 62.1877C215.292 62.7414 215.007 63.3957 215.007 64.1842C215.007 64.956 215.292 65.627 215.844 66.1807C216.396 66.7343 217.049 67.0028 217.836 67.0028C218.606 67.0028 219.275 66.7343 219.828 66.1807C220.38 65.627 220.648 64.956 220.648 64.1842C220.648 63.3957 220.38 62.7414 219.828 62.1877C219.275 61.6341 218.606 61.3489 217.836 61.3489Z" fill="black"/>
<path d="M225.234 63.8485C224.782 63.7143 224.43 63.513 224.179 63.2445C223.928 62.9929 223.794 62.6909 223.794 62.3218C223.794 61.9695 223.928 61.6507 224.179 61.3991C224.43 61.1474 224.748 61.0132 225.117 61.0132C225.468 61.0132 225.786 61.1474 226.037 61.3991C226.188 61.5333 226.272 61.6843 226.339 61.852L226.021 61.9863C225.97 61.852 225.903 61.7346 225.786 61.6339C225.602 61.4494 225.385 61.3487 225.117 61.3487C224.849 61.3487 224.615 61.4494 224.43 61.6339C224.246 61.8185 224.146 62.0534 224.146 62.3218C224.146 62.5902 224.246 62.8083 224.43 63.0097C224.598 63.1774 224.849 63.3284 225.15 63.4794C225.652 63.6304 226.071 63.8821 226.405 64.2344C226.774 64.5867 226.941 65.0229 226.941 65.5262C226.941 66.0295 226.757 66.4657 226.405 66.818C226.054 67.1871 225.619 67.3717 225.117 67.3717C224.598 67.3717 224.179 67.1871 223.811 66.818C223.527 66.5328 223.359 66.1973 223.309 65.8282L223.627 65.694C223.661 66.0463 223.811 66.3315 224.062 66.5832C224.347 66.8684 224.698 67.0194 225.117 67.0194C225.518 67.0194 225.87 66.8684 226.171 66.5832C226.456 66.2812 226.606 65.9289 226.606 65.5262C226.606 65.1068 226.456 64.7545 226.171 64.4693C225.903 64.2176 225.602 64.0163 225.234 63.8485Z" fill="black"/>
<path d="M96.6413 64.2176L95.704 61.6172L94.75 64.2176H96.6413ZM95.8881 61.0803L98.1309 67.2878H97.7627L96.7752 64.5699H94.6329L93.6286 67.2878H93.2437L95.5199 61.0803H95.8881Z" stroke="black" stroke-width="0.900507" stroke-miterlimit="22.9256"/>
<path d="M101.562 61.0803C102.583 61.0971 103.37 61.3823 103.922 61.936C104.541 62.5735 104.859 63.3117 104.859 64.1841C104.859 65.0733 104.541 65.8282 103.922 66.4322C103.37 67.0026 102.583 67.2878 101.562 67.2878H100.407V61.0803H101.562ZM100.759 61.4494V66.9355H101.562C102.449 66.9355 103.152 66.6839 103.654 66.1805C104.207 65.6437 104.491 64.9726 104.491 64.1841C104.491 63.4123 104.207 62.7412 103.654 62.1876C103.152 61.7011 102.449 61.4494 101.562 61.4494H100.759Z" stroke="black" stroke-width="0.900507" stroke-miterlimit="22.9256"/>
<path d="M111.203 61.0803H111.571L109.345 67.2878H109.127L106.918 61.0803H107.286L109.244 66.6503L111.203 61.0803Z" stroke="black" stroke-width="0.900507" stroke-miterlimit="22.9256"/>
<path d="M116.793 60.9966C117.68 60.9966 118.433 61.3153 119.052 61.9361C119.672 62.5568 119.973 63.3118 119.973 64.1842C119.973 65.0566 119.672 65.8116 119.052 66.4323C118.433 67.0531 117.68 67.3719 116.793 67.3719C115.922 67.3719 115.169 67.0531 114.55 66.4323C113.931 65.8116 113.629 65.0566 113.629 64.1842C113.629 63.3118 113.931 62.5568 114.55 61.9361C115.169 61.3153 115.922 60.9966 116.793 60.9966ZM116.793 61.3489C116.023 61.3489 115.353 61.6341 114.801 62.1877C114.265 62.7414 113.981 63.3957 113.981 64.1842C113.981 64.956 114.265 65.627 114.801 66.1807C115.353 66.7343 116.023 67.0028 116.793 67.0028C117.579 67.0028 118.249 66.7343 118.801 66.1807C119.354 65.627 119.621 64.956 119.621 64.1842C119.621 63.3957 119.354 62.7414 118.801 62.1877C118.249 61.6341 117.579 61.3489 116.793 61.3489Z" stroke="black" stroke-width="0.900507" stroke-miterlimit="22.9256"/>
<path d="M127.622 66.5161C127.036 67.0865 126.333 67.3717 125.53 67.3717C124.643 67.3717 123.906 67.0529 123.287 66.4322C122.668 65.8114 122.35 65.0732 122.35 64.184C122.35 63.3116 122.668 62.5734 123.287 61.9527C123.906 61.3319 124.643 61.0132 125.53 61.0132C126.333 61.0132 127.053 61.2816 127.655 61.8353L127.388 62.0869C126.852 61.6004 126.233 61.3655 125.53 61.3655C124.743 61.3655 124.09 61.6507 123.538 62.2044C122.986 62.7412 122.718 63.4123 122.718 64.184C122.718 64.9726 122.986 65.6436 123.538 66.1805C124.09 66.7342 124.743 67.0026 125.53 67.0026C126.182 67.0026 126.768 66.8013 127.287 66.3986V64.5028H127.622V66.5161Z" stroke="black" stroke-width="0.900507" stroke-miterlimit="22.9256"/>
<path d="M133.145 64.2176L132.208 61.6172L131.271 64.2176H133.145ZM132.392 61.0803L134.635 67.2878H134.266L133.279 64.5699H131.137L130.132 67.2878H129.764L132.024 61.0803H132.392Z" stroke="black" stroke-width="0.900507" stroke-miterlimit="22.9256"/>
<path d="M138.066 61.0803C139.087 61.0971 139.874 61.3823 140.443 61.936C141.045 62.5735 141.363 63.3117 141.363 64.1841C141.363 65.0733 141.045 65.8282 140.443 66.4322C139.874 67.0026 139.087 67.2878 138.066 67.2878H136.928V61.0803H138.066ZM137.279 61.4494V66.9355H138.066C138.953 66.9355 139.656 66.6839 140.175 66.1805C140.71 65.6437 140.995 64.9726 140.995 64.1841C140.995 63.4123 140.71 62.7412 140.175 62.1876C139.656 61.7011 138.953 61.4494 138.066 61.4494H137.279Z" stroke="black" stroke-width="0.900507" stroke-miterlimit="22.9256"/>
<path d="M146.853 60.9966C147.74 60.9966 148.493 61.3153 149.112 61.9361C149.732 62.5568 150.033 63.3118 150.033 64.1842C150.033 65.0566 149.732 65.8116 149.112 66.4323C148.493 67.0531 147.74 67.3719 146.853 67.3719C145.982 67.3719 145.229 67.0531 144.61 66.4323C143.991 65.8116 143.689 65.0566 143.689 64.1842C143.689 63.3118 143.991 62.5568 144.61 61.9361C145.229 61.3153 145.982 60.9966 146.853 60.9966ZM146.853 61.3489C146.083 61.3489 145.413 61.6341 144.878 62.1877C144.325 62.7414 144.041 63.3957 144.041 64.1842C144.041 64.956 144.325 65.627 144.878 66.1807C145.413 66.7343 146.083 67.0028 146.853 67.0028C147.639 67.0028 148.309 66.7343 148.861 66.1807C149.414 65.627 149.681 64.956 149.681 64.1842C149.681 63.3957 149.414 62.7414 148.861 62.1877C148.309 61.6341 147.639 61.3489 146.853 61.3489Z" stroke="black" stroke-width="0.900507" stroke-miterlimit="22.9256"/>
<path d="M154.251 63.8485C153.816 63.7143 153.464 63.513 153.213 63.2445C152.962 62.9929 152.828 62.6909 152.828 62.3218C152.828 61.9695 152.962 61.6507 153.213 61.3991C153.464 61.1474 153.782 61.0132 154.151 61.0132C154.502 61.0132 154.82 61.1474 155.071 61.3991C155.205 61.5333 155.305 61.6843 155.372 61.852L155.054 61.9863C155.004 61.852 154.92 61.7346 154.82 61.6339C154.636 61.4494 154.418 61.3487 154.151 61.3487C153.883 61.3487 153.648 61.4494 153.464 61.6339C153.28 61.8185 153.18 62.0534 153.18 62.3218C153.18 62.5902 153.28 62.8083 153.464 63.0097C153.632 63.1774 153.883 63.3284 154.184 63.4794C154.686 63.6304 155.105 63.8821 155.439 64.2344C155.791 64.5867 155.975 65.0229 155.975 65.5262C155.975 66.0295 155.791 66.4657 155.439 66.818C155.088 67.1871 154.653 67.3717 154.151 67.3717C153.632 67.3717 153.213 67.1871 152.845 66.818C152.56 66.5328 152.393 66.1973 152.326 65.8282L152.661 65.694C152.694 66.0463 152.845 66.3315 153.096 66.5832C153.381 66.8684 153.732 67.0194 154.151 67.0194C154.552 67.0194 154.904 66.8684 155.205 66.5832C155.49 66.2812 155.64 65.9289 155.64 65.5262C155.64 65.1068 155.49 64.7545 155.205 64.4693C154.937 64.2176 154.636 64.0163 154.251 63.8485Z" stroke="black" stroke-width="0.900507" stroke-miterlimit="22.9256"/>
<path d="M165.833 64.2176L164.896 61.6172L163.942 64.2176H165.833ZM165.063 61.0803L167.323 67.2878H166.955L165.967 64.5699H163.825L162.804 67.2878H162.436L164.712 61.0803H165.063Z" stroke="black" stroke-width="0.900507" stroke-miterlimit="22.9256"/>
<path d="M171.524 63.8485C171.089 63.7143 170.737 63.513 170.486 63.2445C170.235 62.9929 170.101 62.6909 170.101 62.3218C170.101 61.9695 170.235 61.6507 170.486 61.3991C170.737 61.1474 171.055 61.0132 171.407 61.0132C171.775 61.0132 172.076 61.1474 172.344 61.3991C172.478 61.5333 172.578 61.6843 172.629 61.852L172.327 61.9863C172.277 61.852 172.193 61.7346 172.093 61.6339C171.909 61.4494 171.675 61.3487 171.407 61.3487C171.156 61.3487 170.921 61.4494 170.737 61.6339C170.553 61.8185 170.453 62.0534 170.453 62.3218C170.453 62.5902 170.553 62.8083 170.737 63.0097C170.905 63.1774 171.156 63.3284 171.457 63.4794C171.959 63.6304 172.378 63.8821 172.712 64.2344C173.064 64.5867 173.248 65.0229 173.248 65.5262C173.248 66.0295 173.064 66.4657 172.712 66.818C172.344 67.1871 171.926 67.3717 171.407 67.3717C170.905 67.3717 170.469 67.1871 170.118 66.818C169.833 66.5328 169.666 66.1973 169.599 65.8282L169.934 65.694C169.967 66.0463 170.101 66.3315 170.352 66.5832C170.654 66.8684 171.005 67.0194 171.407 67.0194C171.825 67.0194 172.177 66.8684 172.461 66.5832C172.762 66.2812 172.913 65.9289 172.913 65.5262C172.913 65.1068 172.762 64.7545 172.461 64.4693C172.21 64.2176 171.892 64.0163 171.524 63.8485Z" stroke="black" stroke-width="0.900507" stroke-miterlimit="22.9256"/>
<path d="M177.432 63.8485C176.997 63.7143 176.645 63.513 176.394 63.2445C176.143 62.9929 176.009 62.6909 176.009 62.3218C176.009 61.9695 176.143 61.6507 176.394 61.3991C176.645 61.1474 176.963 61.0132 177.315 61.0132C177.683 61.0132 177.984 61.1474 178.252 61.3991C178.386 61.5333 178.487 61.6843 178.537 61.852L178.219 61.9863C178.185 61.852 178.102 61.7346 178.001 61.6339C177.817 61.4494 177.583 61.3487 177.315 61.3487C177.047 61.3487 176.83 61.4494 176.645 61.6339C176.445 61.8185 176.361 62.0534 176.361 62.3218C176.361 62.5902 176.445 62.8083 176.645 63.0097C176.813 63.1774 177.047 63.3284 177.365 63.4794C177.867 63.6304 178.286 63.8821 178.62 64.2344C178.972 64.5867 179.156 65.0229 179.156 65.5262C179.156 66.0295 178.972 66.4657 178.62 66.818C178.252 67.1871 177.834 67.3717 177.315 67.3717C176.813 67.3717 176.378 67.1871 176.026 66.818C175.742 66.5328 175.558 66.1973 175.507 65.8282L175.842 65.694C175.876 66.0463 176.009 66.3315 176.26 66.5832C176.562 66.8684 176.913 67.0194 177.315 67.0194C177.733 67.0194 178.085 66.8684 178.369 66.5832C178.671 66.2812 178.821 65.9289 178.821 65.5262C178.821 65.1068 178.671 64.7545 178.369 64.4693C178.118 64.2176 177.8 64.0163 177.432 63.8485Z" stroke="black" stroke-width="0.900507" stroke-miterlimit="22.9256"/>
<path d="M184.612 60.9966C185.499 60.9966 186.252 61.3153 186.872 61.9361C187.491 62.5568 187.792 63.3118 187.792 64.1842C187.792 65.0566 187.491 65.8116 186.872 66.4323C186.252 67.0531 185.499 67.3719 184.612 67.3719C183.742 67.3719 182.989 67.0531 182.369 66.4323C181.75 65.8116 181.449 65.0566 181.449 64.1842C181.449 63.3118 181.75 62.5568 182.369 61.9361C182.989 61.3153 183.742 60.9966 184.612 60.9966ZM184.612 61.3489C183.842 61.3489 183.173 61.6341 182.62 62.1877C182.085 62.7414 181.8 63.3957 181.8 64.1842C181.8 64.956 182.085 65.627 182.62 66.1807C183.173 66.7343 183.842 67.0028 184.612 67.0028C185.399 67.0028 186.068 66.7343 186.621 66.1807C187.173 65.627 187.441 64.956 187.441 64.1842C187.441 63.3957 187.173 62.7414 186.621 62.1877C186.068 61.6341 185.399 61.3489 184.612 61.3489Z" stroke="black" stroke-width="0.900507" stroke-miterlimit="22.9256"/>
<path d="M195.207 66.2979L195.475 66.5328C194.872 67.0865 194.152 67.3717 193.349 67.3717C192.462 67.3717 191.726 67.0529 191.106 66.4322C190.487 65.8114 190.169 65.0732 190.169 64.184C190.169 63.3116 190.487 62.5734 191.106 61.9527C191.726 61.3319 192.462 61.0132 193.349 61.0132C194.152 61.0132 194.872 61.2816 195.475 61.8353L195.207 62.0869C194.671 61.6004 194.052 61.3655 193.349 61.3655C192.562 61.3655 191.91 61.6507 191.357 62.2044C190.805 62.7412 190.537 63.4123 190.537 64.184C190.537 64.9726 190.805 65.6436 191.357 66.1805C191.91 66.7342 192.562 67.0026 193.349 67.0026C194.052 67.0026 194.671 66.7677 195.207 66.2979Z" stroke="black" stroke-width="0.900507" stroke-miterlimit="22.9256"/>
<path d="M198.42 61.0803V67.2878H198.069V61.0803H198.42Z" stroke="black" stroke-width="0.900507" stroke-miterlimit="22.9256"/>
<path d="M204.111 64.2176L203.174 61.6172L202.237 64.2176H204.111ZM203.358 61.0803L205.601 67.2878H205.233L204.245 64.5699H202.103L201.099 67.2878H200.73L202.99 61.0803H203.358Z" stroke="black" stroke-width="0.900507" stroke-miterlimit="22.9256"/>
<path d="M209.032 61.0803C210.053 61.0971 210.84 61.3823 211.409 61.936C212.028 62.5735 212.329 63.3117 212.329 64.1841C212.329 65.0733 212.028 65.8282 211.409 66.4322C210.84 67.0026 210.053 67.2878 209.032 67.2878H207.894V61.0803H209.032ZM208.246 61.4494V66.9355H209.032C209.919 66.9355 210.622 66.6839 211.141 66.1805C211.677 65.6437 211.961 64.9726 211.961 64.1841C211.961 63.4123 211.677 62.7412 211.141 62.1876C210.622 61.7011 209.919 61.4494 209.032 61.4494H208.246Z" stroke="black" stroke-width="0.900507" stroke-miterlimit="22.9256"/>
<path d="M217.836 60.9966C218.706 60.9966 219.459 61.3153 220.079 61.9361C220.698 62.5568 220.999 63.3118 220.999 64.1842C220.999 65.0566 220.698 65.8116 220.079 66.4323C219.459 67.0531 218.706 67.3719 217.836 67.3719C216.949 67.3719 216.212 67.0531 215.593 66.4323C214.974 65.8116 214.656 65.0566 214.656 64.1842C214.656 63.3118 214.974 62.5568 215.593 61.9361C216.212 61.3153 216.949 60.9966 217.836 60.9966ZM217.836 61.3489C217.049 61.3489 216.396 61.6341 215.844 62.1877C215.292 62.7414 215.007 63.3957 215.007 64.1842C215.007 64.956 215.292 65.627 215.844 66.1807C216.396 66.7343 217.049 67.0028 217.836 67.0028C218.606 67.0028 219.275 66.7343 219.828 66.1807C220.38 65.627 220.648 64.956 220.648 64.1842C220.648 63.3957 220.38 62.7414 219.828 62.1877C219.275 61.6341 218.606 61.3489 217.836 61.3489Z" stroke="black" stroke-width="0.900507" stroke-miterlimit="22.9256"/>
<path d="M225.234 63.8485C224.782 63.7143 224.43 63.513 224.179 63.2445C223.928 62.9929 223.794 62.6909 223.794 62.3218C223.794 61.9695 223.928 61.6507 224.179 61.3991C224.43 61.1474 224.748 61.0132 225.117 61.0132C225.468 61.0132 225.786 61.1474 226.037 61.3991C226.188 61.5333 226.272 61.6843 226.339 61.852L226.021 61.9863C225.97 61.852 225.903 61.7346 225.786 61.6339C225.602 61.4494 225.385 61.3487 225.117 61.3487C224.849 61.3487 224.615 61.4494 224.43 61.6339C224.246 61.8185 224.146 62.0534 224.146 62.3218C224.146 62.5902 224.246 62.8083 224.43 63.0097C224.598 63.1774 224.849 63.3284 225.15 63.4794C225.652 63.6304 226.071 63.8821 226.405 64.2344C226.774 64.5867 226.941 65.0229 226.941 65.5262C226.941 66.0295 226.757 66.4657 226.405 66.818C226.054 67.1871 225.619 67.3717 225.117 67.3717C224.598 67.3717 224.179 67.1871 223.811 66.818C223.527 66.5328 223.359 66.1973 223.309 65.8282L223.627 65.694C223.661 66.0463 223.811 66.3315 224.062 66.5832C224.347 66.8684 224.698 67.0194 225.117 67.0194C225.518 67.0194 225.87 66.8684 226.171 66.5832C226.456 66.2812 226.606 65.9289 226.606 65.5262C226.606 65.1068 226.456 64.7545 226.171 64.4693C225.903 64.2176 225.602 64.0163 225.234 63.8485Z" stroke="black" stroke-width="0.900507" stroke-miterlimit="22.9256"/>
<path d="M39.8349 0.0288086C42.5296 0.0288086 45.0737 0.548897 47.4336 1.5723C49.7936 2.61247 51.8522 4.00497 53.6097 5.78333C55.3671 7.5617 56.7563 9.62527 57.7773 11.9908C58.815 14.3732 59.3171 16.8897 59.3171 19.574C59.3171 22.2919 58.815 24.8253 57.7773 27.1908C56.7563 29.5732 55.3671 31.6367 53.6097 33.3815C51.8522 35.1431 49.7936 36.5356 47.4336 37.559C45.0737 38.5992 42.5296 39.1025 39.8349 39.1025C37.1234 39.1025 34.5794 38.5992 32.2194 37.559C29.8595 36.5356 27.8008 35.1431 26.0434 33.3815C24.3027 31.6367 22.8967 29.5732 21.8758 27.1908C20.8548 24.8253 20.3359 22.2919 20.3359 19.574C20.3359 16.8897 20.8548 14.3732 21.8758 11.9908C22.8967 9.62527 24.3027 7.5617 26.0434 5.78333C27.8008 4.00497 29.8595 2.61247 32.2194 1.5723C34.5794 0.548897 37.1234 0.0288086 39.8349 0.0288086ZM39.8349 1.60585C37.5921 1.60585 35.4832 2.07561 33.4914 3.01512C31.4997 3.95463 29.7758 5.24646 28.2861 6.87384C26.8133 8.50121 25.6417 10.397 24.8048 12.5612C23.9512 14.7423 23.5328 17.0743 23.5328 19.574C23.5328 22.0738 23.9512 24.4058 24.8048 26.6036C25.6417 28.7846 26.8133 30.6972 28.2861 32.3246C29.7758 33.952 31.4997 35.2438 33.4914 36.1833C35.4832 37.1228 37.5921 37.5926 39.8349 37.5926C42.0609 37.5926 44.1698 37.1228 46.1616 36.1833C48.1533 35.2438 49.8773 33.952 51.3669 32.3246C52.8398 30.6972 54.0114 28.7846 54.8482 26.6036C55.7018 24.4058 56.1203 22.0738 56.1203 19.574C56.1203 17.0743 55.7018 14.7423 54.8482 12.5612C54.0114 10.397 52.8398 8.50121 51.3669 6.87384C49.8773 5.24646 48.1533 3.95463 46.1616 3.01512C44.1698 2.07561 42.0609 1.60585 39.8349 1.60585Z" fill="black"/>
<path d="M60.2543 20.5137C62.9658 20.5137 65.4931 21.017 67.8698 22.0572C70.2297 23.0806 72.2884 24.4898 74.0291 26.2514C75.7865 28.0298 77.1757 30.1101 78.2134 32.4757C79.2344 34.8413 79.7533 37.3746 79.7533 40.0421C79.7533 42.76 79.2344 45.3101 78.2134 47.6757C77.1757 50.0412 75.7865 52.1048 74.0291 53.8664C72.2884 55.6112 70.2297 57.0037 67.8698 58.0439C65.4931 59.0673 62.9658 59.5874 60.2543 59.5874C57.5429 59.5874 55.0155 59.0673 52.6388 58.0439C50.2789 57.0037 48.2202 55.6112 46.4795 53.8664C44.7221 52.1048 43.3329 50.0412 42.3119 47.6757C41.2742 45.3101 40.7554 42.76 40.7554 40.0421C40.7554 39.7234 40.7721 39.4046 40.7888 39.0858C41.8768 39.0355 42.9647 38.9013 44.0024 38.6664C43.9689 39.1194 43.9522 39.5892 43.9522 40.0421C43.9522 42.5419 44.3874 44.8907 45.2242 47.0717C46.0778 49.2695 47.2327 51.1821 48.7223 52.8095C50.1952 54.4368 51.9359 55.7119 53.9276 56.6514C55.9026 57.5909 58.0115 58.0607 60.2543 58.0607C62.4971 58.0607 64.606 57.5909 66.5977 56.6514C68.5727 55.7119 70.3134 54.4368 71.7863 52.8095C73.2759 51.1821 74.4308 49.2695 75.2844 47.0717C76.138 44.8907 76.5564 42.5419 76.5564 40.0421C76.5564 37.5424 76.138 35.2104 75.2844 33.0461C74.4308 30.8651 73.2759 28.9693 71.7863 27.3419C70.3134 25.7146 68.5727 24.4395 66.5977 23.4832C64.606 22.5437 62.4971 22.0739 60.2543 22.0739C59.8861 22.0739 59.5179 22.0907 59.1664 22.1243C58.045 22.1914 56.9403 22.3927 55.8859 22.7282C55.2164 22.9296 54.5636 23.1812 53.9276 23.4832C51.9359 24.4395 50.1952 25.7146 48.7223 27.3419C47.2327 28.9693 46.0778 30.8651 45.2242 33.0461C44.7388 34.2876 44.3874 35.5962 44.1865 36.9552C43.1321 37.2739 42.0441 37.4753 40.9227 37.5591C41.1403 35.7808 41.5922 34.1031 42.3119 32.4757C43.3329 30.1101 44.7221 28.0298 46.4795 26.2514C48.2202 24.4898 50.2789 23.0806 52.6388 22.0572C53.7602 21.5706 54.8984 21.2015 56.0867 20.9499C57.1244 20.715 58.1956 20.5808 59.3003 20.5304C59.6183 20.5137 59.9363 20.5137 60.2543 20.5137Z" fill="black"/>
<path d="M35.5498 43.1123C35.6502 42.5251 35.7172 41.9212 35.7507 41.3172C36.7884 41.0991 37.8596 40.9649 38.9642 40.9146C38.9475 41.4514 38.8973 41.9715 38.8303 42.4916C37.7089 42.5755 36.621 42.7768 35.5498 43.1123Z" fill="black"/>
<path d="M19.4989 20.4128C19.7835 20.4128 20.068 20.4128 20.3525 20.4296C20.3693 20.9665 20.4195 21.4866 20.4697 22.0067C20.1517 21.9899 19.8169 21.9899 19.4989 21.9899C17.2561 21.9899 15.1472 22.4596 13.1555 23.3992C11.1805 24.3387 9.43983 25.6137 7.96695 27.2411C6.47733 28.8852 5.32246 30.781 4.46886 32.9453C3.61525 35.1263 3.19682 37.4583 3.19682 39.9581C3.19682 42.4411 3.61525 44.7899 4.46886 46.9877C5.32246 49.1687 6.47733 51.0813 7.96695 52.7086C9.43983 54.336 11.1805 55.611 13.1555 56.5673C15.1472 57.5069 17.2561 57.9766 19.4989 57.9766C19.8672 57.9766 20.2186 57.9598 20.5869 57.9263H20.6873C20.7542 57.9263 20.8212 57.9095 20.8881 57.9095H20.9049H20.9383H20.9551L21.0053 57.8927C21.089 57.8927 21.1727 57.8759 21.2564 57.8759L21.3233 57.8592H21.3735H21.4237L21.4739 57.8424H21.5242L21.5744 57.8256H21.6246L21.6748 57.8088H21.725H21.7752L21.8254 57.7921H21.8756L21.9426 57.7753H21.9928L22.043 57.7585H22.0932L22.1434 57.7417H22.1769L22.1936 57.725H22.2439L22.2941 57.7082L22.3945 57.6914H22.4447L22.4949 57.6746L22.5451 57.6578H22.5953L22.6455 57.6411L22.6958 57.6243H22.746C22.8631 57.5907 22.9803 57.574 23.0975 57.5404H23.1142L23.1979 57.5069H23.2481V57.4901H23.2983L23.382 57.4565H23.4155C23.4657 57.4397 23.5159 57.423 23.5494 57.423L23.5996 57.4062H23.6163L23.6498 57.3894L23.7 57.3726H23.7167L23.7502 57.3559L23.8004 57.3391L23.8506 57.3223C24.5201 57.121 25.1896 56.8693 25.8256 56.5673C27.8174 55.611 29.5413 54.336 31.0309 52.7086C32.5038 51.0813 33.6754 49.1687 34.529 46.9877C35.3659 44.7899 35.8011 42.4411 35.8011 39.9581C35.8011 39.5219 35.7843 39.1025 35.7508 38.6998C35.7174 38.1126 35.6672 37.5422 35.5835 36.9885C35.3826 35.5793 35.0311 34.2371 34.529 32.9453C33.6754 30.781 32.5038 28.8852 31.0309 27.2411C29.5413 25.6137 27.8174 24.3387 25.8256 23.3992C25.1561 23.0804 24.4532 22.812 23.7502 22.5939C23.6665 22.0067 23.5996 21.4195 23.5661 20.8323C24.7879 21.0839 25.9595 21.453 27.0977 21.9563C29.4744 22.9797 31.533 24.389 33.2737 26.1674C35.0311 27.929 36.4203 30.0093 37.4413 32.3749C38.161 34.0358 38.6297 35.7638 38.8472 37.559C38.9142 38.0623 38.9477 38.5824 38.9644 39.0857C38.9811 39.3709 38.9811 39.6561 38.9811 39.9581C38.9811 42.6592 38.479 45.2093 37.4413 47.5749C36.4203 49.9404 35.0311 52.004 33.2737 53.7656C31.533 55.5272 29.4744 56.9197 27.0977 57.9431C25.993 58.4296 24.8549 58.7987 23.6665 59.0503L23.5661 59.0671L23.5494 59.0839H23.5326L23.4489 59.1007H23.4322H23.4155H23.3987L23.3318 59.1175L23.2816 59.1342L23.2314 59.151H23.1811L23.1309 59.1678H23.0807L23.0305 59.1846H22.9803L22.9301 59.2013H22.8799L22.8297 59.2181H22.7794L22.7292 59.2349H22.679L22.6288 59.2517L22.5451 59.2684H22.5284H22.4782L22.4447 59.2852H22.428H22.3778L22.2773 59.302H22.2271L22.1769 59.3188H22.1267L22.0765 59.3355H22.0263H21.9761L21.9258 59.3523H21.8756H21.8254L21.7752 59.3691C21.5409 59.3859 21.3066 59.4194 21.0722 59.4362H21.022H21.0053H20.9886H20.9718H20.9551H20.9383H20.9216H20.9049L20.8881 59.453H20.8714H20.8547H20.8379H20.8212H20.8044H20.7877H20.771H20.7542H20.7375H20.7208H20.704H20.6873H20.6705H20.6538H20.6371H20.6203V59.4698H20.6036H20.5869H20.5701H20.5534H20.5367H20.5199H20.5032H20.4864H20.4697H20.453C20.135 59.4865 19.8169 59.4865 19.4989 59.4865C16.7875 59.4865 14.2434 58.9832 11.8835 57.9431C9.52352 56.9197 7.46483 55.5272 5.70742 53.7656C3.96674 52.004 2.57754 49.9404 1.53983 47.5749C0.518856 45.2093 0 42.6592 0 39.9581C0 37.2738 0.518856 34.7404 1.53983 32.3749C2.57754 30.0093 3.96674 27.929 5.70742 26.1674C7.46483 24.389 9.52352 22.9965 11.8835 21.9563C14.2434 20.9329 16.7875 20.4128 19.4989 20.4128Z" fill="black"/>
<path d="M39.9182 40.8809C40.2028 40.8809 40.4873 40.8976 40.7718 40.8976C40.8053 41.4345 40.8388 41.9714 40.9057 42.4915C40.5877 42.4747 40.253 42.4579 39.9182 42.4579C37.6922 42.4579 35.5665 42.9277 33.5915 43.8672C31.5998 44.8067 29.8759 46.0985 28.3862 47.7259C26.9134 49.3533 25.7418 51.2491 24.8882 53.4301C24.4028 54.6716 24.068 55.9802 23.8504 57.3223L23.8002 57.3391L23.75 57.3559L23.7165 57.3727H23.6998L23.6496 57.3895L23.6161 57.4062H23.5994L23.5492 57.423C23.5157 57.423 23.4655 57.4398 23.4153 57.4566H23.3818L23.2981 57.4901H23.2479V57.5069H23.1977L23.114 57.5404H23.0973C22.9801 57.574 22.8629 57.5908 22.7458 57.6243H22.6956L22.6454 57.6411L22.5951 57.6579H22.5449L22.4947 57.6747L22.4445 57.6914H22.3943L22.2939 57.7082L22.2437 57.725H22.1935L22.1767 57.7418H22.1432L22.093 57.7585H22.0428L21.9926 57.7753H21.9424L21.8754 57.7921H21.8252L21.775 57.8089H21.7248H21.6746L21.6244 57.8257H21.5742L21.524 57.8424H21.4737L21.4235 57.8592H21.3733H21.3231L21.2562 57.876C21.1725 57.876 21.0888 57.8928 21.0051 57.8928L20.9549 57.9095H20.9382H20.9047H20.8879C20.821 57.9095 20.754 57.9263 20.6871 57.9263H20.5867C20.8043 56.1647 21.2729 54.4703 21.9759 52.8597C22.9968 50.4773 24.386 48.4137 26.1434 46.6354C27.8841 44.8738 29.9428 43.4645 32.3195 42.4411C34.6795 41.4009 37.2068 40.8809 39.9182 40.8809ZM23.6663 59.0504C23.6329 59.5034 23.6161 59.9563 23.6161 60.4261C23.6161 62.9259 24.0513 65.2747 24.8882 67.4557C25.7418 69.6535 26.9134 71.5493 28.3862 73.1766C29.8759 74.804 31.5998 76.0958 33.5915 77.0354C35.5665 77.9749 37.6922 78.4446 39.9182 78.4446C42.161 78.4446 44.2699 77.9749 46.2617 77.0354C48.2367 76.0958 49.9773 74.804 51.4502 73.1766C52.9398 71.5493 54.0947 69.6535 54.9483 67.4557C55.8019 65.2747 56.2204 62.9259 56.2204 60.4261C56.2204 60.0067 56.2036 59.5872 56.1869 59.1678C56.1534 58.5974 56.0865 58.027 56.0195 57.4566C55.8019 56.0641 55.4504 54.7051 54.9483 53.4301C54.0947 51.2491 52.9398 49.3533 51.4502 47.7259C49.9773 46.0985 48.2367 44.8067 46.2617 43.8672C45.5754 43.5484 44.8892 43.28 44.1695 43.0786C44.0858 42.4915 44.0356 41.9043 43.9854 41.3003C45.2072 41.5519 46.3956 41.9378 47.5337 42.4411C49.8937 43.4645 51.9523 44.8738 53.7098 46.6354C55.4504 48.4137 56.8396 50.4773 57.8773 52.8597C58.5971 54.5038 59.0657 56.2318 59.2833 58.0438C59.3335 58.5471 59.3837 59.0504 59.4004 59.5705C59.4172 59.8557 59.4172 60.1409 59.4172 60.4261C59.4172 63.144 58.8983 65.6773 57.8773 68.0596C56.8396 70.4252 55.4504 72.4888 53.7098 74.2336C51.9523 75.9952 49.8937 77.3877 47.5337 78.4278C45.1737 79.4512 42.6297 79.9713 39.9182 79.9713C37.2068 79.9713 34.6795 79.4512 32.3195 78.4278C29.9428 77.3877 27.8841 75.9952 26.1434 74.2336C24.386 72.4888 22.9968 70.4252 21.9759 68.0596C20.9382 65.6773 20.436 63.144 20.436 60.4261C20.436 60.1073 20.436 59.7886 20.4528 59.4698H20.4695H20.4862H20.503H20.5197H20.5365H20.5532H20.5699H20.5867H20.6034H20.6201V59.453H20.6369H20.6536H20.6704H20.6871H20.7038H20.7206H20.7373H20.754H20.7708H20.7875H20.8043H20.821H20.8377H20.8545H20.8712H20.8879L20.9047 59.4363H20.9214H20.9382H20.9549H20.9716H20.9884H21.0051H21.0218H21.0721C21.3064 59.4195 21.5407 59.3859 21.775 59.3691L21.8252 59.3524H21.8754H21.9257L21.9759 59.3356H22.0261H22.0763L22.1265 59.3188H22.1767L22.2269 59.302H22.2771L22.3776 59.2853H22.4278H22.4445L22.478 59.2685H22.5282H22.5449L22.6286 59.2517L22.6788 59.2349H22.729L22.7793 59.2181H22.8295L22.8797 59.2014H22.9299L22.9801 59.1846H23.0303L23.0805 59.1678H23.1307L23.181 59.151H23.2312L23.2814 59.1343L23.3316 59.1175L23.3985 59.1007H23.4153H23.432H23.4487L23.5324 59.0839H23.5492L23.5659 59.0672L23.6663 59.0504Z" fill="black"/>
<path d="M162.703 16.0005H174.135C175.457 16.0005 176.712 16.2521 177.884 16.7555C179.055 17.2588 180.093 17.9634 180.98 18.8526C181.867 19.7418 182.553 20.7652 183.056 21.9396C183.574 23.1139 183.826 24.3722 183.826 25.7144C183.826 27.023 183.574 28.2477 183.056 29.4389C182.553 30.6133 181.884 31.6367 181.03 32.4923C180.177 33.3647 179.173 34.0693 178.018 34.5894C176.863 35.1095 175.641 35.3947 174.335 35.4283C175.976 36.2336 177.449 37.2234 178.788 38.4146C180.127 39.6058 181.281 40.9647 182.252 42.4914C183.223 44.0013 183.976 45.6455 184.495 47.4239C185.014 49.1687 185.265 50.9806 185.282 52.8596C185.282 53.3797 185.131 53.4971 184.629 53.4971H182.738C182.235 53.4971 182.085 53.3797 182.085 52.8596C182.085 50.796 181.767 48.8331 181.164 46.9709C180.545 45.0583 179.708 43.347 178.62 41.8036C177.532 40.2768 176.26 38.9515 174.771 37.8442C173.298 36.7369 171.691 35.9316 169.95 35.4283H165.783V53.0274C165.783 53.5475 165.649 53.6649 165.13 53.6649H162.703C162.184 53.6649 162.05 53.5475 162.05 53.0274V16.638C162.05 16.1179 162.184 16.0005 162.703 16.0005ZM165.783 17.5775V33.8512H169.95H172.444C173.566 33.8512 174.62 33.6331 175.624 33.1969C176.612 32.7775 177.465 32.1903 178.185 31.4689C178.905 30.7475 179.491 29.8919 179.926 28.8852C180.361 27.8954 180.578 26.8384 180.578 25.7144C180.578 24.5903 180.361 23.5334 179.926 22.5435C179.491 21.5369 178.905 20.6813 178.185 19.9599C177.465 19.2385 176.612 18.6513 175.624 18.2151C174.62 17.7956 173.566 17.5775 172.444 17.5775H165.783Z" fill="black"/>
<path d="M208.279 14.5913C210.991 14.5913 213.535 15.0946 215.895 16.1348C218.255 17.1582 220.313 18.5675 222.071 20.3458C223.811 22.1074 225.2 24.1878 226.238 26.5533C227.259 28.9189 227.778 31.4522 227.778 34.1198C227.778 36.8376 227.259 39.3878 226.238 41.7533C225.2 44.1189 223.811 46.1825 222.071 47.944C220.313 49.6889 218.255 51.0813 215.895 52.1215C213.535 53.1449 210.991 53.665 208.279 53.665C205.568 53.665 203.04 53.1449 200.68 52.1215C198.304 51.0813 196.245 49.6889 194.504 47.944C192.747 46.1825 191.358 44.1189 190.337 41.7533C189.299 39.3878 188.797 36.8376 188.797 34.1198C188.797 31.4522 189.299 28.9189 190.337 26.5533C191.358 24.1878 192.747 22.1074 194.504 20.3458C196.245 18.5675 198.304 17.1582 200.68 16.1348C203.04 15.0946 205.568 14.5913 208.279 14.5913ZM208.279 16.1683C206.053 16.1683 203.927 16.6381 201.952 17.5776C199.961 18.5171 198.237 19.7922 196.747 21.4196C195.274 23.0469 194.103 24.9595 193.249 27.1237C192.412 29.288 191.977 31.6368 191.977 34.1198C191.977 36.6195 192.412 38.9683 193.249 41.1493C194.103 43.3471 195.274 45.2597 196.747 46.8871C198.237 48.5145 199.961 49.7895 201.952 50.729C203.927 51.6853 206.053 52.1551 208.279 52.1551C210.522 52.1551 212.631 51.6853 214.622 50.729C216.597 49.7895 218.338 48.5145 219.811 46.8871C221.301 45.2597 222.456 43.3471 223.309 41.1493C224.163 38.9683 224.581 36.6195 224.581 34.1198C224.581 31.6368 224.163 29.288 223.309 27.1237C222.456 24.9595 221.301 23.0469 219.811 21.4196C218.338 19.7922 216.597 18.5171 214.622 17.5776C212.631 16.6381 210.522 16.1683 208.279 16.1683Z" fill="black"/>
<path d="M123.387 53.5643H120.14C119.973 53.5475 119.855 53.4972 119.722 53.2791C117.629 47.9104 115.554 42.5753 113.512 37.2738L112.792 35.4451H101.311L94.0466 53.212C93.9127 53.4972 93.7955 53.5475 93.6114 53.5643H92.875H92.8415C92.7913 53.5643 92.7411 53.5643 92.6909 53.5475H92.6741C92.6574 53.5475 92.6407 53.5475 92.6407 53.5475H92.6239C92.3729 53.4804 92.3896 53.3126 92.49 53.0442L107.353 16.5374L107.369 16.5038L107.386 16.4871C107.587 15.967 107.621 15.9502 108.19 15.9502H108.223H108.257H108.625H108.642H108.675C109.227 15.9502 109.278 15.967 109.462 16.4367C111.822 22.5603 114.182 28.6672 116.542 34.7572C118.901 40.8641 121.295 47.0045 123.705 53.1784C123.739 53.2959 123.805 53.5475 123.387 53.5643ZM112.207 33.9184C110.533 29.6235 108.876 25.3286 107.219 20.9833L101.93 33.9184H112.207Z" fill="black"/>
<path d="M158.201 53.5643H154.954C154.787 53.5475 154.669 53.4972 154.536 53.2791C152.443 47.9104 150.385 42.5753 148.326 37.2738L147.606 35.4451H136.125L128.861 53.212C128.727 53.4972 128.61 53.5475 128.425 53.5643H127.689H127.655C127.605 53.5643 127.555 53.5643 127.505 53.5475C127.488 53.5475 127.471 53.5475 127.455 53.5475H127.438C127.187 53.4804 127.204 53.3126 127.304 53.0442L142.167 16.5374L142.183 16.5038L142.2 16.4871C142.418 15.967 142.435 15.9502 143.004 15.9502H143.037H143.071H143.439H143.455H143.489C144.041 15.9502 144.091 15.967 144.276 16.4367C146.636 22.5603 148.996 28.6672 151.355 34.7572C153.715 40.8641 156.109 47.0045 158.519 53.1784C158.553 53.2959 158.619 53.5475 158.201 53.5643ZM147.021 33.9184C145.364 29.6235 143.69 25.3286 142.033 20.9833L136.761 33.9184H147.021Z" fill="black"/>
</svg>
