<svg width="155" height="80" viewBox="0 0 155 80" fill="none" xmlns="http://www.w3.org/2000/svg">
<g clip-path="url(#clip0_198_3474)">
<path d="M12.9798 77.3194L13.5533 78.0248C12.0622 79.3511 10.2557 80.0001 8.16241 80.0001C6.0118 80.0001 4.26263 79.3229 2.88624 77.9966C1.48117 76.6703 0.792969 74.9772 0.792969 72.9737C0.792969 70.6033 1.56719 68.628 3.14431 67.0478C4.72143 65.4393 6.67132 64.6492 9.02266 64.6492C11.3453 64.6492 13.1805 65.3546 14.4996 66.7656L13.8114 67.3864C12.521 66.1448 10.9152 65.5239 9.02266 65.5239C6.95807 65.5239 5.23758 66.2294 3.86118 67.6403C2.45611 69.0513 1.76791 70.8291 1.76791 72.9737C1.76791 74.7515 2.37009 76.2188 3.57443 77.3758C4.7501 78.5328 6.29855 79.1254 8.16241 79.1254C10.0836 79.1254 11.6894 78.5328 12.9798 77.3194Z" fill="black"/>
<path d="M23.389 65.5239C21.4104 65.5239 19.7186 66.2294 18.3995 67.6403C17.0518 69.0513 16.3923 70.8291 16.3923 72.9737C16.3923 74.7515 16.9945 76.2188 18.2275 77.3758C19.4892 78.5328 21.0663 79.1254 22.9875 79.1254C24.9948 79.1254 26.6866 78.4199 28.0343 77.009C29.382 75.5698 30.0415 73.8202 30.0415 71.7321C30.0415 69.9261 29.4394 68.4305 28.2063 67.2735C26.9447 66.0883 25.3675 65.5239 23.389 65.5239ZM15.3887 72.9737C15.3887 70.6033 16.1629 68.628 17.7113 67.0478C19.2311 65.4393 21.1236 64.6492 23.389 64.6492C25.6543 64.6492 27.4895 65.2982 28.8945 66.5963C30.3283 67.9225 31.0452 69.6157 31.0452 71.7321C31.0452 74.046 30.2709 75.9931 28.6938 77.6016C27.1454 79.21 25.2528 80.0001 22.9875 80.0001C20.7795 80.0001 18.973 79.3229 17.5393 77.9966C16.1055 76.6703 15.3887 74.9772 15.3887 72.9737Z" fill="black"/>
<path d="M31.1885 79.7745L31.3605 78.8433L44.809 65.7498H34.4001L34.5721 64.875H46.0421L45.9274 65.8909L32.5649 78.8997H43.5473L43.3753 79.7745H31.1885Z" fill="black"/>
<path d="M46.2139 79.7745L49.1387 64.875H50.0563L47.1028 79.7745H46.2139Z" fill="black"/>
<path d="M50.8594 79.7745L53.8416 64.875H54.5584L62.8742 78.2224L65.4549 64.875H66.3725L63.4763 79.7745H62.7595L54.4151 66.5117L51.777 79.7745H50.8594Z" fill="black"/>
<path d="M67.2041 79.7745L70.1576 64.875H71.0752L69.8135 71.2242H80.1078L81.3695 64.875H82.2871L79.3336 79.7745H78.416L79.9358 72.099H69.6415L68.1217 79.7745H67.2041Z" fill="black"/>
<path d="M81.5127 79.7745L91.9217 64.875H92.4378L96.9971 79.7745H96.1082L95.1333 76.5293H84.839L82.5737 79.7745H81.5127ZM85.4125 75.6828H94.8752L91.979 66.1731L85.4125 75.6828Z" fill="black"/>
<path d="M104.022 78.166L105.6 75.9085C106.517 76.7833 107.693 77.2348 109.127 77.2348C110.188 77.2348 111.048 76.9526 111.65 76.4164C112.281 75.8521 112.596 75.2313 112.596 74.5258C112.596 73.905 112.338 73.397 111.851 72.9738C111.363 72.5787 110.646 72.353 109.729 72.353C109.069 72.353 108.295 72.5787 107.463 73.002L106.603 71.1113L111.163 67.584H105.858L106.402 64.875H116.152L115.693 67.1325L111.793 70.1801C111.908 70.1519 112.023 70.1237 112.137 70.1237C113.428 70.2648 114.403 70.7163 115.034 71.5064C115.636 72.2965 115.951 73.1995 115.951 74.2436C115.951 75.9649 115.32 77.3477 114.059 78.3918C112.797 79.4641 111.134 80.0002 109.127 80.0002C107.005 80.0002 105.284 79.3794 104.022 78.166Z" fill="black"/>
<path d="M118.217 74.8361C118.217 73.3687 118.676 72.0989 119.593 71.0266L125.5 64.0283L127.88 66.0036L124.583 69.531C124.869 69.5027 125.07 69.5027 125.156 69.5027C126.647 69.5027 127.852 69.9542 128.712 70.8572C129.572 71.7602 130.002 72.8043 130.002 73.9613C130.002 75.6826 129.457 77.1218 128.339 78.2788C127.221 79.4357 125.758 80.0001 123.952 80.0001C122.203 80.0001 120.798 79.5204 119.765 78.5609C118.733 77.6015 118.217 76.3599 118.217 74.8361ZM121.6 74.8361C121.6 75.4851 121.801 76.0777 122.231 76.5292C122.633 77.0089 123.235 77.2347 124.009 77.2347C124.783 77.2347 125.414 76.9525 125.902 76.3881C126.36 75.7955 126.619 75.1465 126.619 74.441C126.619 73.792 126.418 73.2276 125.988 72.7761C125.586 72.3246 124.984 72.0989 124.181 72.0989C123.378 72.0989 122.747 72.3811 122.289 72.9172C121.83 73.4816 121.6 74.1024 121.6 74.8361Z" fill="black"/>
<path d="M138.461 67.3864C137.83 67.3864 137.285 67.6121 136.827 68.0354C136.368 68.4587 135.995 68.9949 135.737 69.6439C135.508 70.3211 135.307 70.9702 135.192 71.591C135.077 72.24 135.02 72.8608 135.02 73.4534C135.02 74.6104 135.221 75.5416 135.594 76.2188C135.966 76.8961 136.511 77.2347 137.228 77.2347C137.83 77.2347 138.375 77.0372 138.834 76.5857C139.321 76.1624 139.694 75.6262 139.924 74.949C140.182 74.3 140.354 73.6509 140.497 73.0019C140.612 72.3529 140.669 71.7603 140.669 71.1959C140.669 70.0107 140.468 69.0795 140.096 68.4023C139.723 67.725 139.178 67.3864 138.461 67.3864ZM131.694 73.3123C131.694 72.5504 131.78 71.7885 131.952 70.9984C132.095 70.2365 132.353 69.4463 132.726 68.6844C133.07 67.9225 133.5 67.2453 134.017 66.6245C134.504 66.0319 135.164 65.5522 135.938 65.1853C136.683 64.8185 137.544 64.6492 138.432 64.6492C140.124 64.6492 141.501 65.2418 142.504 66.427C143.508 67.6121 143.995 69.2488 143.995 71.337C143.995 72.2682 143.852 73.2559 143.594 74.2435C143.307 75.2312 142.906 76.1624 142.361 77.0372C141.845 77.912 141.128 78.6174 140.239 79.1818C139.379 79.718 138.375 80.0001 137.285 80.0001C135.536 80.0001 134.16 79.4075 133.185 78.2224C132.21 77.0372 131.694 75.4005 131.694 73.3123Z" fill="black"/>
<path d="M145.859 68.7408C145.859 67.5274 146.289 66.5115 147.092 65.665C147.895 64.8466 148.899 64.4233 150.103 64.4233C151.308 64.4233 152.283 64.762 153.028 65.4392C153.802 66.1165 154.175 66.9912 154.175 68.0918C154.175 69.277 153.745 70.2928 152.942 71.1112C152.111 71.9295 151.107 72.3528 149.903 72.3528C148.727 72.3528 147.752 71.986 147.006 71.3087C146.261 70.6315 145.859 69.7849 145.859 68.7408ZM148.268 68.5433C148.268 68.9948 148.44 69.3898 148.756 69.672C149.042 69.9824 149.472 70.1235 149.96 70.1235C150.476 70.1235 150.906 69.9542 151.25 69.5874C151.594 69.2205 151.766 68.769 151.766 68.2329C151.766 67.7814 151.594 67.4145 151.279 67.1041C150.964 66.7937 150.562 66.6244 150.075 66.6244C149.558 66.6244 149.128 66.8219 148.784 67.1888C148.44 67.5274 148.268 68.0071 148.268 68.5433Z" fill="black"/>
<path fill-rule="evenodd" clip-rule="evenodd" d="M63.4189 26.7796C63.4189 28.6985 65.2255 28.9524 66.6305 28.9524C66.6305 41.933 65.2255 40.381 83.1759 40.381C89.6565 40.381 88.3661 35.6967 88.3661 28.9524C89.4271 28.9524 90.0866 29.0935 90.7748 28.4163C92.4379 26.7796 91.2336 24.3528 89.1116 24.3528H65.885C64.3365 24.3528 63.4189 25.6791 63.4189 26.7796Z" fill="black"/>
<path fill-rule="evenodd" clip-rule="evenodd" d="M74.516 17.7778C70.7022 17.7778 67.806 17.6932 66.6304 22.6314H88.3659C87.1903 17.6932 84.2941 17.7778 80.4517 17.7778C79.5054 13.7143 76.4085 14.702 75.4049 15.7179C74.7454 16.3669 74.7454 16.8748 74.516 17.7778Z" fill="black"/>
<path fill-rule="evenodd" clip-rule="evenodd" d="M78.9895 2.82198C77.7565 2.82198 76.7815 3.72498 76.7815 4.79729C76.7815 5.89782 77.7565 6.80081 78.9895 6.80081C90.0007 7.56272 98.7178 16.5927 98.7178 27.6262C98.7178 39.1677 89.1978 48.5363 77.4697 48.5363C65.7417 48.5363 56.2503 39.1677 56.2503 27.6262C56.2503 19.5839 60.8957 12.5856 67.6629 9.08653L66.2865 12.0213C65.7991 13.0089 66.2292 14.2505 67.2615 14.702C68.2938 15.1818 69.5268 14.7585 70.0143 13.7426L73.5413 6.40575C73.7994 5.89781 73.7994 5.33344 73.6273 4.8255C73.4266 4.34579 73.0825 3.92251 72.5663 3.66854L65.0822 0.197638C64.0499 -0.282079 62.8169 0.141201 62.3294 1.15707C61.8419 2.17295 62.3007 3.38635 63.333 3.86607L66.4012 5.30522C57.9995 9.3405 52.2358 17.8343 52.2358 27.6262C52.2358 41.3687 63.5337 52.4869 77.4697 52.4869C91.4344 52.4869 102.732 41.3687 102.732 27.6262C102.732 14.5327 92.4093 3.78141 79.3336 2.8502C79.2189 2.82198 79.1042 2.82198 78.9895 2.82198Z" fill="black"/>
</g>
<defs>
<clipPath id="clip0_198_3474">
<rect width="153.412" height="80" fill="white" transform="translate(0.777832)"/>
</clipPath>
</defs>
</svg>
