<svg width="296" height="52" viewBox="0 0 296 52" fill="none" xmlns="http://www.w3.org/2000/svg">
<path d="M62.3573 24.6875V10.6875H68.7173C70.2373 10.6875 71.5773 10.9808 72.7373 11.5675C73.8973 12.1408 74.8039 12.9475 75.4573 13.9875C76.1106 15.0275 76.4373 16.2608 76.4373 17.6875C76.4373 19.1008 76.1106 20.3342 75.4573 21.3875C74.8039 22.4275 73.8973 23.2408 72.7373 23.8275C71.5773 24.4008 70.2373 24.6875 68.7173 24.6875H62.3573ZM65.5973 22.0275H68.5573C69.4906 22.0275 70.2973 21.8542 70.9773 21.5075C71.6706 21.1475 72.2039 20.6408 72.5773 19.9875C72.9639 19.3342 73.1573 18.5675 73.1573 17.6875C73.1573 16.7942 72.9639 16.0275 72.5773 15.3875C72.2039 14.7342 71.6706 14.2342 70.9773 13.8875C70.2973 13.5275 69.4906 13.3475 68.5573 13.3475H65.5973V22.0275ZM84.0007 24.8475C82.774 24.8475 81.694 24.6075 80.7607 24.1275C79.8407 23.6475 79.1274 22.9942 78.6207 22.1675C78.114 21.3275 77.8607 20.3742 77.8607 19.3075C77.8607 18.2275 78.1074 17.2742 78.6007 16.4475C79.1074 15.6075 79.794 14.9542 80.6607 14.4875C81.5274 14.0075 82.5074 13.7675 83.6007 13.7675C84.654 13.7675 85.6007 13.9942 86.4407 14.4475C87.294 14.8875 87.9674 15.5275 88.4607 16.3675C88.954 17.1942 89.2007 18.1875 89.2007 19.3475C89.2007 19.4675 89.194 19.6075 89.1807 19.7675C89.1674 19.9142 89.154 20.0542 89.1407 20.1875H80.4007V18.3675H87.5007L86.3007 18.9075C86.3007 18.3475 86.1874 17.8608 85.9607 17.4475C85.734 17.0342 85.4207 16.7142 85.0207 16.4875C84.6207 16.2475 84.154 16.1275 83.6207 16.1275C83.0874 16.1275 82.614 16.2475 82.2007 16.4875C81.8007 16.7142 81.4874 17.0408 81.2607 17.4675C81.034 17.8808 80.9207 18.3742 80.9207 18.9475V19.4275C80.9207 20.0142 81.0474 20.5342 81.3007 20.9875C81.5674 21.4275 81.934 21.7675 82.4007 22.0075C82.8807 22.2342 83.4407 22.3475 84.0807 22.3475C84.654 22.3475 85.154 22.2608 85.5807 22.0875C86.0207 21.9142 86.4207 21.6542 86.7807 21.3075L88.4407 23.1075C87.9474 23.6675 87.3274 24.1008 86.5807 24.4075C85.834 24.7008 84.974 24.8475 84.0007 24.8475ZM81.7207 12.5475L84.4207 9.6675H87.7807L84.1607 12.5475H81.7207ZM97.6379 24.8475C96.6912 24.8475 95.8779 24.6475 95.1979 24.2475C94.5179 23.8475 93.9979 23.2408 93.6379 22.4275C93.2779 21.6008 93.0979 20.5608 93.0979 19.3075C93.0979 18.0408 93.2846 17.0008 93.6579 16.1875C94.0446 15.3742 94.5779 14.7675 95.2579 14.3675C95.9379 13.9675 96.7312 13.7675 97.6379 13.7675C98.6512 13.7675 99.5579 13.9942 100.358 14.4475C101.171 14.9008 101.811 15.5408 102.278 16.3675C102.758 17.1942 102.998 18.1742 102.998 19.3075C102.998 20.4275 102.758 21.4008 102.278 22.2275C101.811 23.0542 101.171 23.7008 100.358 24.1675C99.5579 24.6208 98.6512 24.8475 97.6379 24.8475ZM91.2779 24.6875V9.8475H94.3979V16.1075L94.1979 19.2875L94.2579 22.4875V24.6875H91.2779ZM97.0979 22.2875C97.6179 22.2875 98.0779 22.1675 98.4779 21.9275C98.8912 21.6875 99.2179 21.3475 99.4579 20.9075C99.7112 20.4542 99.8379 19.9208 99.8379 19.3075C99.8379 18.6808 99.7112 18.1475 99.4579 17.7075C99.2179 17.2675 98.8912 16.9275 98.4779 16.6875C98.0779 16.4475 97.6179 16.3275 97.0979 16.3275C96.5779 16.3275 96.1112 16.4475 95.6979 16.6875C95.2846 16.9275 94.9579 17.2675 94.7179 17.7075C94.4779 18.1475 94.3579 18.6808 94.3579 19.3075C94.3579 19.9208 94.4779 20.4542 94.7179 20.9075C94.9579 21.3475 95.2846 21.6875 95.6979 21.9275C96.1112 22.1675 96.5779 22.2875 97.0979 22.2875ZM110.206 24.8475C109.06 24.8475 108.04 24.6075 107.146 24.1275C106.266 23.6475 105.566 22.9942 105.046 22.1675C104.54 21.3275 104.286 20.3742 104.286 19.3075C104.286 18.2275 104.54 17.2742 105.046 16.4475C105.566 15.6075 106.266 14.9542 107.146 14.4875C108.04 14.0075 109.06 13.7675 110.206 13.7675C111.34 13.7675 112.353 14.0075 113.246 14.4875C114.14 14.9542 114.84 15.6008 115.346 16.4275C115.853 17.2542 116.106 18.2142 116.106 19.3075C116.106 20.3742 115.853 21.3275 115.346 22.1675C114.84 22.9942 114.14 23.6475 113.246 24.1275C112.353 24.6075 111.34 24.8475 110.206 24.8475ZM110.206 22.2875C110.726 22.2875 111.193 22.1675 111.606 21.9275C112.02 21.6875 112.346 21.3475 112.586 20.9075C112.826 20.4542 112.946 19.9208 112.946 19.3075C112.946 18.6808 112.826 18.1475 112.586 17.7075C112.346 17.2675 112.02 16.9275 111.606 16.6875C111.193 16.4475 110.726 16.3275 110.206 16.3275C109.686 16.3275 109.22 16.4475 108.806 16.6875C108.393 16.9275 108.06 17.2675 107.806 17.7075C107.566 18.1475 107.446 18.6808 107.446 19.3075C107.446 19.9208 107.566 20.4542 107.806 20.9075C108.06 21.3475 108.393 21.6875 108.806 21.9275C109.22 22.1675 109.686 22.2875 110.206 22.2875ZM118.192 24.6875V13.9275H121.172V16.9675L120.752 16.0875C121.072 15.3275 121.585 14.7542 122.292 14.3675C122.999 13.9675 123.859 13.7675 124.872 13.7675V16.6475C124.739 16.6342 124.619 16.6275 124.512 16.6275C124.405 16.6142 124.292 16.6075 124.172 16.6075C123.319 16.6075 122.625 16.8542 122.092 17.3475C121.572 17.8275 121.312 18.5808 121.312 19.6075V24.6875H118.192ZM132.624 24.6875V22.5875L132.424 22.1275V18.3675C132.424 17.7008 132.217 17.1808 131.804 16.8075C131.404 16.4342 130.784 16.2475 129.944 16.2475C129.371 16.2475 128.804 16.3408 128.244 16.5275C127.697 16.7008 127.231 16.9408 126.844 17.2475L125.724 15.0675C126.311 14.6542 127.017 14.3342 127.844 14.1075C128.671 13.8808 129.511 13.7675 130.364 13.7675C132.004 13.7675 133.277 14.1542 134.184 14.9275C135.091 15.7008 135.544 16.9075 135.544 18.5475V24.6875H132.624ZM129.344 24.8475C128.504 24.8475 127.784 24.7075 127.184 24.4275C126.584 24.1342 126.124 23.7408 125.804 23.2475C125.484 22.7542 125.324 22.2008 125.324 21.5875C125.324 20.9475 125.477 20.3875 125.784 19.9075C126.104 19.4275 126.604 19.0542 127.284 18.7875C127.964 18.5075 128.851 18.3675 129.944 18.3675H132.804V20.1875H130.284C129.551 20.1875 129.044 20.3075 128.764 20.5475C128.497 20.7875 128.364 21.0875 128.364 21.4475C128.364 21.8475 128.517 22.1675 128.824 22.4075C129.144 22.6342 129.577 22.7475 130.124 22.7475C130.644 22.7475 131.111 22.6275 131.524 22.3875C131.937 22.1342 132.237 21.7675 132.424 21.2875L132.904 22.7275C132.677 23.4208 132.264 23.9475 131.664 24.3075C131.064 24.6675 130.291 24.8475 129.344 24.8475ZM144.252 24.6875V10.6875H146.932L152.892 20.5675H151.472L157.332 10.6875H159.992L160.032 24.6875H156.992L156.972 15.3475H157.532L152.852 23.2075H151.392L146.612 15.3475H147.292V24.6875H144.252ZM169.733 24.6875V22.5875L169.533 22.1275V18.3675C169.533 17.7008 169.327 17.1808 168.913 16.8075C168.513 16.4342 167.893 16.2475 167.053 16.2475C166.48 16.2475 165.913 16.3408 165.353 16.5275C164.807 16.7008 164.34 16.9408 163.953 17.2475L162.833 15.0675C163.42 14.6542 164.127 14.3342 164.953 14.1075C165.78 13.8808 166.62 13.7675 167.473 13.7675C169.113 13.7675 170.387 14.1542 171.293 14.9275C172.2 15.7008 172.653 16.9075 172.653 18.5475V24.6875H169.733ZM166.453 24.8475C165.613 24.8475 164.893 24.7075 164.293 24.4275C163.693 24.1342 163.233 23.7408 162.913 23.2475C162.593 22.7542 162.433 22.2008 162.433 21.5875C162.433 20.9475 162.587 20.3875 162.893 19.9075C163.213 19.4275 163.713 19.0542 164.393 18.7875C165.073 18.5075 165.96 18.3675 167.053 18.3675H169.913V20.1875H167.393C166.66 20.1875 166.153 20.3075 165.873 20.5475C165.607 20.7875 165.473 21.0875 165.473 21.4475C165.473 21.8475 165.627 22.1675 165.933 22.4075C166.253 22.6342 166.687 22.7475 167.233 22.7475C167.753 22.7475 168.22 22.6275 168.633 22.3875C169.047 22.1342 169.347 21.7675 169.533 21.2875L170.013 22.7275C169.787 23.4208 169.373 23.9475 168.773 24.3075C168.173 24.6675 167.4 24.8475 166.453 24.8475ZM175.477 24.6875V13.9275H178.457V16.9675L178.037 16.0875C178.357 15.3275 178.87 14.7542 179.577 14.3675C180.284 13.9675 181.144 13.7675 182.157 13.7675V16.6475C182.024 16.6342 181.904 16.6275 181.797 16.6275C181.69 16.6142 181.577 16.6075 181.457 16.6075C180.604 16.6075 179.91 16.8542 179.377 17.3475C178.857 17.8275 178.597 18.5808 178.597 19.6075V24.6875H175.477ZM188.783 24.8475C187.517 24.8475 186.53 24.5275 185.823 23.8875C185.117 23.2342 184.763 22.2675 184.763 20.9875V11.5475H187.883V20.9475C187.883 21.4008 188.003 21.7542 188.243 22.0075C188.483 22.2475 188.81 22.3675 189.223 22.3675C189.717 22.3675 190.137 22.2342 190.483 21.9675L191.323 24.1675C191.003 24.3942 190.617 24.5675 190.163 24.6875C189.723 24.7942 189.263 24.8475 188.783 24.8475ZM183.103 16.5675V14.1675H190.563V16.5675H183.103ZM193.075 24.6875V13.9275H196.195V24.6875H193.075ZM194.635 12.4275C194.061 12.4275 193.595 12.2608 193.235 11.9275C192.875 11.5942 192.695 11.1808 192.695 10.6875C192.695 10.1942 192.875 9.78083 193.235 9.4475C193.595 9.11417 194.061 8.9475 194.635 8.9475C195.208 8.9475 195.675 9.1075 196.035 9.4275C196.395 9.73417 196.575 10.1342 196.575 10.6275C196.575 11.1475 196.395 11.5808 196.035 11.9275C195.688 12.2608 195.221 12.4275 194.635 12.4275ZM205.63 13.7675C206.484 13.7675 207.244 13.9408 207.91 14.2875C208.59 14.6208 209.124 15.1408 209.51 15.8475C209.897 16.5408 210.09 17.4342 210.09 18.5275V24.6875H206.97V19.0075C206.97 18.1408 206.777 17.5008 206.39 17.0875C206.017 16.6742 205.484 16.4675 204.79 16.4675C204.297 16.4675 203.85 16.5742 203.45 16.7875C203.064 16.9875 202.757 17.3008 202.53 17.7275C202.317 18.1542 202.21 18.7008 202.21 19.3675V24.6875H199.09V13.9275H202.07V16.9075L201.51 16.0075C201.897 15.2875 202.45 14.7342 203.17 14.3475C203.89 13.9608 204.71 13.7675 205.63 13.7675ZM216.539 24.8475C215.619 24.8475 214.732 24.7408 213.879 24.5275C213.039 24.3008 212.372 24.0208 211.879 23.6875L212.919 21.4475C213.412 21.7542 213.992 22.0075 214.659 22.2075C215.339 22.3942 216.005 22.4875 216.659 22.4875C217.379 22.4875 217.885 22.4008 218.179 22.2275C218.485 22.0542 218.639 21.8142 218.639 21.5075C218.639 21.2542 218.519 21.0675 218.279 20.9475C218.052 20.8142 217.745 20.7142 217.359 20.6475C216.972 20.5808 216.545 20.5142 216.079 20.4475C215.625 20.3808 215.165 20.2942 214.699 20.1875C214.232 20.0675 213.805 19.8942 213.419 19.6675C213.032 19.4408 212.719 19.1342 212.479 18.7475C212.252 18.3608 212.139 17.8608 212.139 17.2475C212.139 16.5675 212.332 15.9675 212.719 15.4475C213.119 14.9275 213.692 14.5208 214.439 14.2275C215.185 13.9208 216.079 13.7675 217.119 13.7675C217.852 13.7675 218.599 13.8475 219.359 14.0075C220.119 14.1675 220.752 14.4008 221.259 14.7075L220.219 16.9275C219.699 16.6208 219.172 16.4142 218.639 16.3075C218.119 16.1875 217.612 16.1275 217.119 16.1275C216.425 16.1275 215.919 16.2208 215.599 16.4075C215.279 16.5942 215.119 16.8342 215.119 17.1275C215.119 17.3942 215.232 17.5942 215.459 17.7275C215.699 17.8608 216.012 17.9675 216.399 18.0475C216.785 18.1275 217.205 18.2008 217.659 18.2675C218.125 18.3208 218.592 18.4075 219.059 18.5275C219.525 18.6475 219.945 18.8208 220.319 19.0475C220.705 19.2608 221.019 19.5608 221.259 19.9475C221.499 20.3208 221.619 20.8142 221.619 21.4275C221.619 22.0942 221.419 22.6875 221.019 23.2075C220.619 23.7142 220.039 24.1142 219.279 24.4075C218.532 24.7008 217.619 24.8475 216.539 24.8475ZM236.128 24.9275C235.048 24.9275 234.041 24.7542 233.108 24.4075C232.188 24.0475 231.388 23.5408 230.708 22.8875C230.028 22.2342 229.494 21.4675 229.108 20.5875C228.734 19.7075 228.548 18.7408 228.548 17.6875C228.548 16.6342 228.734 15.6675 229.108 14.7875C229.494 13.9075 230.028 13.1408 230.708 12.4875C231.401 11.8342 232.208 11.3342 233.128 10.9875C234.048 10.6275 235.054 10.4475 236.148 10.4475C237.361 10.4475 238.454 10.6608 239.428 11.0875C240.414 11.5008 241.241 12.1142 241.908 12.9275L239.828 14.8475C239.348 14.3008 238.814 13.8942 238.228 13.6275C237.641 13.3475 237.001 13.2075 236.308 13.2075C235.654 13.2075 235.054 13.3142 234.508 13.5275C233.961 13.7408 233.488 14.0475 233.088 14.4475C232.688 14.8475 232.374 15.3208 232.148 15.8675C231.934 16.4142 231.828 17.0208 231.828 17.6875C231.828 18.3542 231.934 18.9608 232.148 19.5075C232.374 20.0542 232.688 20.5275 233.088 20.9275C233.488 21.3275 233.961 21.6342 234.508 21.8475C235.054 22.0608 235.654 22.1675 236.308 22.1675C237.001 22.1675 237.641 22.0342 238.228 21.7675C238.814 21.4875 239.348 21.0675 239.828 20.5075L241.908 22.4275C241.241 23.2408 240.414 23.8608 239.428 24.2875C238.454 24.7142 237.354 24.9275 236.128 24.9275ZM248.624 24.8475C247.478 24.8475 246.458 24.6075 245.564 24.1275C244.684 23.6475 243.984 22.9942 243.464 22.1675C242.958 21.3275 242.704 20.3742 242.704 19.3075C242.704 18.2275 242.958 17.2742 243.464 16.4475C243.984 15.6075 244.684 14.9542 245.564 14.4875C246.458 14.0075 247.478 13.7675 248.624 13.7675C249.758 13.7675 250.771 14.0075 251.664 14.4875C252.558 14.9542 253.258 15.6008 253.764 16.4275C254.271 17.2542 254.524 18.2142 254.524 19.3075C254.524 20.3742 254.271 21.3275 253.764 22.1675C253.258 22.9942 252.558 23.6475 251.664 24.1275C250.771 24.6075 249.758 24.8475 248.624 24.8475ZM248.624 22.2875C249.144 22.2875 249.611 22.1675 250.024 21.9275C250.438 21.6875 250.764 21.3475 251.004 20.9075C251.244 20.4542 251.364 19.9208 251.364 19.3075C251.364 18.6808 251.244 18.1475 251.004 17.7075C250.764 17.2675 250.438 16.9275 250.024 16.6875C249.611 16.4475 249.144 16.3275 248.624 16.3275C248.104 16.3275 247.638 16.4475 247.224 16.6875C246.811 16.9275 246.478 17.2675 246.224 17.7075C245.984 18.1475 245.864 18.6808 245.864 19.3075C245.864 19.9208 245.984 20.4542 246.224 20.9075C246.478 21.3475 246.811 21.6875 247.224 21.9275C247.638 22.1675 248.104 22.2875 248.624 22.2875ZM256.61 24.6875V13.9275H259.59V16.9675L259.17 16.0875C259.49 15.3275 260.003 14.7542 260.71 14.3675C261.417 13.9675 262.277 13.7675 263.29 13.7675V16.6475C263.157 16.6342 263.037 16.6275 262.93 16.6275C262.823 16.6142 262.71 16.6075 262.59 16.6075C261.737 16.6075 261.043 16.8542 260.51 17.3475C259.99 17.8275 259.73 18.5808 259.73 19.6075V24.6875H256.61ZM265.165 24.6875V13.9275H268.145V16.9675L267.725 16.0875C268.045 15.3275 268.558 14.7542 269.265 14.3675C269.971 13.9675 270.831 13.7675 271.845 13.7675V16.6475C271.711 16.6342 271.591 16.6275 271.485 16.6275C271.378 16.6142 271.265 16.6075 271.145 16.6075C270.291 16.6075 269.598 16.8542 269.065 17.3475C268.545 17.8275 268.285 18.5808 268.285 19.6075V24.6875H265.165ZM278.962 24.8475C277.735 24.8475 276.655 24.6075 275.722 24.1275C274.802 23.6475 274.088 22.9942 273.582 22.1675C273.075 21.3275 272.822 20.3742 272.822 19.3075C272.822 18.2275 273.068 17.2742 273.562 16.4475C274.068 15.6075 274.755 14.9542 275.622 14.4875C276.488 14.0075 277.468 13.7675 278.562 13.7675C279.615 13.7675 280.562 13.9942 281.402 14.4475C282.255 14.8875 282.928 15.5275 283.422 16.3675C283.915 17.1942 284.162 18.1875 284.162 19.3475C284.162 19.4675 284.155 19.6075 284.142 19.7675C284.128 19.9142 284.115 20.0542 284.102 20.1875H275.362V18.3675H282.462L281.262 18.9075C281.262 18.3475 281.148 17.8608 280.922 17.4475C280.695 17.0342 280.382 16.7142 279.982 16.4875C279.582 16.2475 279.115 16.1275 278.582 16.1275C278.048 16.1275 277.575 16.2475 277.162 16.4875C276.762 16.7142 276.448 17.0408 276.222 17.4675C275.995 17.8808 275.882 18.3742 275.882 18.9475V19.4275C275.882 20.0142 276.008 20.5342 276.262 20.9875C276.528 21.4275 276.895 21.7675 277.362 22.0075C277.842 22.2342 278.402 22.3475 279.042 22.3475C279.615 22.3475 280.115 22.2608 280.542 22.0875C280.982 21.9142 281.382 21.6542 281.742 21.3075L283.402 23.1075C282.908 23.6675 282.288 24.1008 281.542 24.4075C280.795 24.7008 279.935 24.8475 278.962 24.8475ZM274.482 12.5475L277.122 9.6675H279.882L282.522 12.5475H280.242L277.482 10.1475H279.522L276.762 12.5475H274.482ZM292.546 24.6875V22.5875L292.346 22.1275V18.3675C292.346 17.7008 292.139 17.1808 291.726 16.8075C291.326 16.4342 290.706 16.2475 289.866 16.2475C289.293 16.2475 288.726 16.3408 288.166 16.5275C287.619 16.7008 287.153 16.9408 286.766 17.2475L285.646 15.0675C286.233 14.6542 286.939 14.3342 287.766 14.1075C288.593 13.8808 289.433 13.7675 290.286 13.7675C291.926 13.7675 293.199 14.1542 294.106 14.9275C295.013 15.7008 295.466 16.9075 295.466 18.5475V24.6875H292.546ZM289.266 24.8475C288.426 24.8475 287.706 24.7075 287.106 24.4275C286.506 24.1342 286.046 23.7408 285.726 23.2475C285.406 22.7542 285.246 22.2008 285.246 21.5875C285.246 20.9475 285.399 20.3875 285.706 19.9075C286.026 19.4275 286.526 19.0542 287.206 18.7875C287.886 18.5075 288.773 18.3675 289.866 18.3675H292.726V20.1875H290.206C289.473 20.1875 288.966 20.3075 288.686 20.5475C288.419 20.7875 288.286 21.0875 288.286 21.4475C288.286 21.8475 288.439 22.1675 288.746 22.4075C289.066 22.6342 289.499 22.7475 290.046 22.7475C290.566 22.7475 291.033 22.6275 291.446 22.3875C291.859 22.1342 292.159 21.7675 292.346 21.2875L292.826 22.7275C292.599 23.4208 292.186 23.9475 291.586 24.3075C290.986 24.6675 290.213 24.8475 289.266 24.8475Z" fill="black"/>
<path d="M131.104 41.6335H136.284V42.5295H131.104V41.6335ZM131.216 46.6875H130.18V36.8875H136.9V37.7835H131.216V46.6875ZM138.829 46.6875V39.3375H139.823V46.6875H138.829ZM139.333 37.7135C139.128 37.7135 138.955 37.6435 138.815 37.5035C138.675 37.3635 138.605 37.1955 138.605 36.9995C138.605 36.8035 138.675 36.6402 138.815 36.5095C138.955 36.3695 139.128 36.2995 139.333 36.2995C139.539 36.2995 139.711 36.3648 139.851 36.4955C139.991 36.6262 140.061 36.7895 140.061 36.9855C140.061 37.1908 139.991 37.3635 139.851 37.5035C139.721 37.6435 139.548 37.7135 139.333 37.7135ZM144.563 46.7575C143.956 46.7575 143.382 46.6735 142.841 46.5055C142.3 46.3282 141.875 46.1088 141.567 45.8475L142.015 45.0635C142.314 45.2875 142.696 45.4835 143.163 45.6515C143.63 45.8102 144.12 45.8895 144.633 45.8895C145.333 45.8895 145.837 45.7822 146.145 45.5675C146.453 45.3435 146.607 45.0495 146.607 44.6855C146.607 44.4148 146.518 44.2048 146.341 44.0555C146.173 43.8968 145.949 43.7802 145.669 43.7055C145.389 43.6215 145.076 43.5515 144.731 43.4955C144.386 43.4395 144.04 43.3742 143.695 43.2995C143.359 43.2248 143.051 43.1175 142.771 42.9775C142.491 42.8282 142.262 42.6275 142.085 42.3755C141.917 42.1235 141.833 41.7875 141.833 41.3675C141.833 40.9662 141.945 40.6068 142.169 40.2895C142.393 39.9722 142.72 39.7248 143.149 39.5475C143.588 39.3608 144.12 39.2675 144.745 39.2675C145.221 39.2675 145.697 39.3328 146.173 39.4635C146.649 39.5848 147.041 39.7482 147.349 39.9535L146.915 40.7515C146.588 40.5275 146.238 40.3688 145.865 40.2755C145.492 40.1728 145.118 40.1215 144.745 40.1215C144.082 40.1215 143.592 40.2382 143.275 40.4715C142.967 40.6955 142.813 40.9848 142.813 41.3395C142.813 41.6195 142.897 41.8388 143.065 41.9975C143.242 42.1562 143.471 42.2822 143.751 42.3755C144.04 42.4595 144.353 42.5295 144.689 42.5855C145.034 42.6415 145.375 42.7115 145.711 42.7955C146.056 42.8702 146.369 42.9775 146.649 43.1175C146.938 43.2482 147.167 43.4395 147.335 43.6915C147.512 43.9342 147.601 44.2562 147.601 44.6575C147.601 45.0868 147.48 45.4602 147.237 45.7775C147.004 46.0855 146.658 46.3282 146.201 46.5055C145.753 46.6735 145.207 46.7575 144.563 46.7575ZM149.425 46.6875V39.3375H150.419V46.6875H149.425ZM149.929 37.7135C149.724 37.7135 149.551 37.6435 149.411 37.5035C149.271 37.3635 149.201 37.1955 149.201 36.9995C149.201 36.8035 149.271 36.6402 149.411 36.5095C149.551 36.3695 149.724 36.2995 149.929 36.2995C150.134 36.2995 150.307 36.3648 150.447 36.4955C150.587 36.6262 150.657 36.7895 150.657 36.9855C150.657 37.1908 150.587 37.3635 150.447 37.5035C150.316 37.6435 150.144 37.7135 149.929 37.7135ZM156.181 46.7575C155.471 46.7575 154.832 46.5988 154.263 46.2815C153.703 45.9548 153.259 45.5115 152.933 44.9515C152.606 44.3822 152.443 43.7335 152.443 43.0055C152.443 42.2682 152.606 41.6195 152.933 41.0595C153.259 40.4995 153.703 40.0608 154.263 39.7435C154.823 39.4262 155.462 39.2675 156.181 39.2675C156.909 39.2675 157.553 39.4262 158.113 39.7435C158.682 40.0608 159.125 40.4995 159.443 41.0595C159.769 41.6195 159.933 42.2682 159.933 43.0055C159.933 43.7335 159.769 44.3822 159.443 44.9515C159.125 45.5115 158.682 45.9548 158.113 46.2815C157.543 46.5988 156.899 46.7575 156.181 46.7575ZM156.181 45.8755C156.713 45.8755 157.184 45.7588 157.595 45.5255C158.005 45.2828 158.327 44.9468 158.561 44.5175C158.803 44.0788 158.925 43.5748 158.925 43.0055C158.925 42.4268 158.803 41.9228 158.561 41.4935C158.327 41.0642 158.005 40.7328 157.595 40.4995C157.184 40.2568 156.717 40.1355 156.195 40.1355C155.672 40.1355 155.205 40.2568 154.795 40.4995C154.384 40.7328 154.057 41.0642 153.815 41.4935C153.572 41.9228 153.451 42.4268 153.451 43.0055C153.451 43.5748 153.572 44.0788 153.815 44.5175C154.057 44.9468 154.384 45.2828 154.795 45.5255C155.205 45.7588 155.667 45.8755 156.181 45.8755ZM164.286 46.7575C163.596 46.7575 163.064 46.5708 162.69 46.1975C162.317 45.8242 162.13 45.2968 162.13 44.6155V37.7135H163.124V44.5595C163.124 44.9888 163.232 45.3202 163.446 45.5535C163.67 45.7868 163.988 45.9035 164.398 45.9035C164.837 45.9035 165.201 45.7775 165.49 45.5255L165.84 46.2395C165.644 46.4168 165.406 46.5475 165.126 46.6315C164.856 46.7155 164.576 46.7575 164.286 46.7575ZM160.814 40.1635V39.3375H165.364V40.1635H160.814ZM170.512 46.7575C169.747 46.7575 169.075 46.5988 168.496 46.2815C167.917 45.9548 167.465 45.5115 167.138 44.9515C166.811 44.3822 166.648 43.7335 166.648 43.0055C166.648 42.2775 166.802 41.6335 167.11 41.0735C167.427 40.5135 167.857 40.0748 168.398 39.7575C168.949 39.4308 169.565 39.2675 170.246 39.2675C170.937 39.2675 171.548 39.4262 172.08 39.7435C172.621 40.0515 173.046 40.4902 173.354 41.0595C173.662 41.6195 173.816 42.2682 173.816 43.0055C173.816 43.0522 173.811 43.1035 173.802 43.1595C173.802 43.2062 173.802 43.2575 173.802 43.3135H167.404V42.5715H173.27L172.878 42.8655C172.878 42.3335 172.761 41.8622 172.528 41.4515C172.304 41.0315 171.996 40.7048 171.604 40.4715C171.212 40.2382 170.759 40.1215 170.246 40.1215C169.742 40.1215 169.289 40.2382 168.888 40.4715C168.487 40.7048 168.174 41.0315 167.95 41.4515C167.726 41.8715 167.614 42.3522 167.614 42.8935V43.0475C167.614 43.6075 167.735 44.1022 167.978 44.5315C168.23 44.9515 168.575 45.2828 169.014 45.5255C169.462 45.7588 169.971 45.8755 170.54 45.8755C170.988 45.8755 171.403 45.7962 171.786 45.6375C172.178 45.4788 172.514 45.2362 172.794 44.9095L173.354 45.5535C173.027 45.9455 172.617 46.2442 172.122 46.4495C171.637 46.6548 171.1 46.7575 170.512 46.7575ZM175.839 46.6875V39.3375H176.791V41.3395L176.693 40.9895C176.898 40.4295 177.244 40.0048 177.729 39.7155C178.214 39.4168 178.816 39.2675 179.535 39.2675V40.2335C179.498 40.2335 179.46 40.2335 179.423 40.2335C179.386 40.2242 179.348 40.2195 179.311 40.2195C178.536 40.2195 177.93 40.4575 177.491 40.9335C177.052 41.4002 176.833 42.0675 176.833 42.9355V46.6875H175.839ZM185.408 46.6875V45.0635L185.366 44.7975V42.0815C185.366 41.4562 185.189 40.9755 184.834 40.6395C184.489 40.3035 183.971 40.1355 183.28 40.1355C182.804 40.1355 182.351 40.2148 181.922 40.3735C181.493 40.5322 181.129 40.7422 180.83 41.0035L180.382 40.2615C180.755 39.9442 181.203 39.7015 181.726 39.5335C182.249 39.3562 182.799 39.2675 183.378 39.2675C184.33 39.2675 185.063 39.5055 185.576 39.9815C186.099 40.4482 186.36 41.1622 186.36 42.1235V46.6875H185.408ZM182.874 46.7575C182.323 46.7575 181.843 46.6688 181.432 46.4915C181.031 46.3048 180.723 46.0528 180.508 45.7355C180.293 45.4088 180.186 45.0355 180.186 44.6155C180.186 44.2328 180.275 43.8875 180.452 43.5795C180.639 43.2622 180.937 43.0102 181.348 42.8235C181.768 42.6275 182.328 42.5295 183.028 42.5295H185.562V43.2715H183.056C182.347 43.2715 181.852 43.3975 181.572 43.6495C181.301 43.9015 181.166 44.2142 181.166 44.5875C181.166 45.0075 181.329 45.3435 181.656 45.5955C181.983 45.8475 182.44 45.9735 183.028 45.9735C183.588 45.9735 184.069 45.8475 184.47 45.5955C184.881 45.3342 185.179 44.9608 185.366 44.4755L185.59 45.1615C185.403 45.6468 185.077 46.0342 184.61 46.3235C184.153 46.6128 183.574 46.7575 182.874 46.7575ZM192.854 46.7575C192.219 46.7575 191.645 46.6128 191.132 46.3235C190.618 46.0248 190.208 45.6002 189.9 45.0495C189.601 44.4895 189.452 43.8082 189.452 43.0055C189.452 42.2028 189.601 41.5262 189.9 40.9755C190.198 40.4155 190.604 39.9908 191.118 39.7015C191.631 39.4122 192.21 39.2675 192.854 39.2675C193.554 39.2675 194.179 39.4262 194.73 39.7435C195.29 40.0515 195.728 40.4902 196.046 41.0595C196.363 41.6195 196.522 42.2682 196.522 43.0055C196.522 43.7522 196.363 44.4055 196.046 44.9655C195.728 45.5255 195.29 45.9642 194.73 46.2815C194.179 46.5988 193.554 46.7575 192.854 46.7575ZM189.06 49.4035V39.3375H190.012V41.5495L189.914 43.0195L190.054 44.5035V49.4035H189.06ZM192.784 45.8755C193.306 45.8755 193.773 45.7588 194.184 45.5255C194.594 45.2828 194.921 44.9468 195.164 44.5175C195.406 44.0788 195.528 43.5748 195.528 43.0055C195.528 42.4362 195.406 41.9368 195.164 41.5075C194.921 41.0782 194.594 40.7422 194.184 40.4995C193.773 40.2568 193.306 40.1355 192.784 40.1355C192.261 40.1355 191.79 40.2568 191.37 40.4995C190.959 40.7422 190.632 41.0782 190.39 41.5075C190.156 41.9368 190.04 42.4362 190.04 43.0055C190.04 43.5748 190.156 44.0788 190.39 44.5175C190.632 44.9468 190.959 45.2828 191.37 45.5255C191.79 45.7588 192.261 45.8755 192.784 45.8755ZM201.67 46.7575C200.905 46.7575 200.233 46.5988 199.654 46.2815C199.075 45.9548 198.623 45.5115 198.296 44.9515C197.969 44.3822 197.806 43.7335 197.806 43.0055C197.806 42.2775 197.96 41.6335 198.268 41.0735C198.585 40.5135 199.015 40.0748 199.556 39.7575C200.107 39.4308 200.723 39.2675 201.404 39.2675C202.095 39.2675 202.706 39.4262 203.238 39.7435C203.779 40.0515 204.204 40.4902 204.512 41.0595C204.82 41.6195 204.974 42.2682 204.974 43.0055C204.974 43.0522 204.969 43.1035 204.96 43.1595C204.96 43.2062 204.96 43.2575 204.96 43.3135H198.562V42.5715H204.428L204.036 42.8655C204.036 42.3335 203.919 41.8622 203.686 41.4515C203.462 41.0315 203.154 40.7048 202.762 40.4715C202.37 40.2382 201.917 40.1215 201.404 40.1215C200.9 40.1215 200.447 40.2382 200.046 40.4715C199.645 40.7048 199.332 41.0315 199.108 41.4515C198.884 41.8715 198.772 42.3522 198.772 42.8935V43.0475C198.772 43.6075 198.893 44.1022 199.136 44.5315C199.388 44.9515 199.733 45.2828 200.172 45.5255C200.62 45.7588 201.129 45.8755 201.698 45.8755C202.146 45.8755 202.561 45.7962 202.944 45.6375C203.336 45.4788 203.672 45.2362 203.952 44.9095L204.512 45.5535C204.185 45.9455 203.775 46.2442 203.28 46.4495C202.795 46.6548 202.258 46.7575 201.67 46.7575ZM210.035 46.7575C209.41 46.7575 208.864 46.6408 208.397 46.4075C207.931 46.1742 207.567 45.8242 207.305 45.3575C207.053 44.8908 206.927 44.3075 206.927 43.6075V39.3375H207.921V43.4955C207.921 44.2795 208.113 44.8722 208.495 45.2735C208.887 45.6655 209.433 45.8615 210.133 45.8615C210.647 45.8615 211.09 45.7588 211.463 45.5535C211.846 45.3388 212.135 45.0308 212.331 44.6295C212.537 44.2282 212.639 43.7475 212.639 43.1875V39.3375H213.633V46.6875H212.681V44.6715L212.835 45.0355C212.602 45.5768 212.238 46.0015 211.743 46.3095C211.258 46.6082 210.689 46.7575 210.035 46.7575ZM218.728 46.7575C218.037 46.7575 217.505 46.5708 217.132 46.1975C216.758 45.8242 216.572 45.2968 216.572 44.6155V37.7135H217.566V44.5595C217.566 44.9888 217.673 45.3202 217.888 45.5535C218.112 45.7868 218.429 45.9035 218.84 45.9035C219.278 45.9035 219.642 45.7775 219.932 45.5255L220.282 46.2395C220.086 46.4168 219.848 46.5475 219.568 46.6315C219.297 46.7155 219.017 46.7575 218.728 46.7575ZM215.256 40.1635V39.3375H219.806V40.1635H215.256ZM226.697 46.6875V45.0635L226.655 44.7975V42.0815C226.655 41.4562 226.478 40.9755 226.123 40.6395C225.778 40.3035 225.26 40.1355 224.569 40.1355C224.093 40.1355 223.64 40.2148 223.211 40.3735C222.782 40.5322 222.418 40.7422 222.119 41.0035L221.671 40.2615C222.044 39.9442 222.492 39.7015 223.015 39.5335C223.538 39.3562 224.088 39.2675 224.667 39.2675C225.619 39.2675 226.352 39.5055 226.865 39.9815C227.388 40.4482 227.649 41.1622 227.649 42.1235V46.6875H226.697ZM224.163 46.7575C223.612 46.7575 223.132 46.6688 222.721 46.4915C222.32 46.3048 222.012 46.0528 221.797 45.7355C221.582 45.4088 221.475 45.0355 221.475 44.6155C221.475 44.2328 221.564 43.8875 221.741 43.5795C221.928 43.2622 222.226 43.0102 222.637 42.8235C223.057 42.6275 223.617 42.5295 224.317 42.5295H226.851V43.2715H224.345C223.636 43.2715 223.141 43.3975 222.861 43.6495C222.59 43.9015 222.455 44.2142 222.455 44.5875C222.455 45.0075 222.618 45.3435 222.945 45.5955C223.272 45.8475 223.729 45.9735 224.317 45.9735C224.877 45.9735 225.358 45.8475 225.759 45.5955C226.17 45.3342 226.468 44.9608 226.655 44.4755L226.879 45.1615C226.692 45.6468 226.366 46.0342 225.899 46.3235C225.442 46.6128 224.863 46.7575 224.163 46.7575Z" fill="black"/>
<path fill-rule="evenodd" clip-rule="evenodd" d="M43.1613 13.8081C39.7869 8.67026 34.604 5.15274 28.6641 3.96675C22.7601 2.78659 16.6052 4.06446 11.6072 7.50173C6.58449 10.9593 3.1435 16.2665 1.98002 22.3467C1.47077 24.9909 1.41768 27.6937 1.81237 30.3562C1.85363 30.6332 1.68036 30.8842 1.41125 30.9446C1.15015 30.9952 0.888259 30.8287 0.82142 30.5631C0.0727991 27.3801 0.0448816 24.1413 0.583456 20.906C1.87052 14.199 5.66302 8.34418 11.2034 4.52314C16.7109 0.732214 23.4998 -0.684168 30.0161 0.621997C36.5684 1.93399 42.2861 5.81083 46.0064 11.4789C52.1452 20.8226 51.6258 33.3273 44.6726 42.0649C40.4616 47.3689 34.4204 50.7099 27.7745 51.4162C27.0626 51.4712 26.3564 51.4895 25.6494 51.4987C23.0147 51.5184 20.8335 51.2528 18.3803 50.2874C18.1333 50.1919 18.0035 49.9139 18.0787 49.6536C18.1538 49.3934 18.4153 49.2431 18.6768 49.301C21.2406 49.9034 23.8826 50.0732 26.4917 49.8567C32.5062 49.2161 37.9813 46.1886 41.8011 41.3816C48.17 33.3665 48.8136 22.426 43.1533 13.8179L43.1613 13.8081Z" fill="black"/>
<path fill-rule="evenodd" clip-rule="evenodd" d="M26.5838 35.017C27.5268 34.8997 28.3905 35.5852 28.5051 36.5503C28.6196 37.5153 27.9498 38.3992 27.0068 38.5165C26.0638 38.6337 25.2001 37.9483 25.0855 36.9832C24.9709 36.0181 25.6407 35.1342 26.5838 35.017Z" fill="black"/>
<path fill-rule="evenodd" clip-rule="evenodd" d="M25.8527 29.8079C26.8574 29.6816 27.774 30.4122 27.8974 31.4404C28.0208 32.4686 27.3069 33.4066 26.3022 33.5329C25.2975 33.6592 24.3809 32.9286 24.2575 31.9004C24.1341 30.8722 24.848 29.9342 25.8527 29.8079Z" fill="black"/>
<path fill-rule="evenodd" clip-rule="evenodd" d="M24.3635 25.1218C25.3241 25.0045 26.1966 25.699 26.3112 26.6821C26.4258 27.6653 25.7472 28.5582 24.7865 28.6754C23.8259 28.7927 22.9534 28.0982 22.8388 27.1151C22.7242 26.132 23.4028 25.239 24.3635 25.1218Z" fill="black"/>
<path fill-rule="evenodd" clip-rule="evenodd" d="M22.3891 20.5879C23.2792 20.4796 24.0812 21.12 24.1958 22.0309C24.3015 22.9419 23.6758 23.7627 22.7857 23.8799C21.8955 23.9881 21.0935 23.3478 20.9789 22.4368C20.8732 21.5259 21.4989 20.7051 22.3891 20.5879Z" fill="black"/>
<path fill-rule="evenodd" clip-rule="evenodd" d="M20.9787 16.386C21.7543 16.2868 22.4594 16.855 22.5563 17.6487C22.6533 18.4424 22.098 19.164 21.3225 19.2632C20.5469 19.3624 19.8418 18.7942 19.7449 18.0005C19.6479 17.2068 20.2032 16.4852 20.9787 16.386Z" fill="black"/>
<path fill-rule="evenodd" clip-rule="evenodd" d="M19.6661 12.5417C20.3182 12.4605 20.9087 12.9386 20.988 13.597C21.0674 14.2644 20.6003 14.8687 19.9569 14.9499C19.3047 15.031 18.7142 14.562 18.6349 13.8946C18.5556 13.2272 19.0139 12.6229 19.6661 12.5417Z" fill="black"/>
<path fill-rule="evenodd" clip-rule="evenodd" d="M26.1085 40.0713C26.7342 39.9901 27.3071 40.4501 27.3864 41.0905C27.4657 41.7309 27.0163 42.3171 26.3905 42.3983C25.7648 42.4795 25.1919 42.0195 25.1126 41.3791C25.0333 40.7387 25.4828 40.1525 26.1085 40.0713Z" fill="black"/>
<path fill-rule="evenodd" clip-rule="evenodd" d="M19.3044 9.07767C19.8332 9.01454 20.318 9.39335 20.3796 9.93451C20.4413 10.4757 20.0712 10.9717 19.5424 11.0349C19.0136 11.098 18.5289 10.7192 18.4672 10.178C18.4055 9.63687 18.7756 9.14081 19.3044 9.07767Z" fill="black"/>
<path fill-rule="evenodd" clip-rule="evenodd" d="M20.0975 6.09159C20.547 6.03747 20.9524 6.36217 21.0053 6.81313C21.0582 7.27312 20.7409 7.68801 20.3002 7.74213C19.8508 7.79624 19.4454 7.47155 19.3925 7.02058C19.3396 6.56059 19.6569 6.1457 20.0975 6.09159Z" fill="black"/>
<path fill-rule="evenodd" clip-rule="evenodd" d="M25.0857 43.676C25.5969 43.6128 26.0552 43.9826 26.1257 44.5057C26.1874 45.0289 25.8261 45.4979 25.3149 45.57C24.8037 45.6332 24.3454 45.2634 24.2749 44.7402C24.2132 44.2171 24.5746 43.7481 25.0857 43.676Z" fill="black"/>
</svg>
