<svg width="181" height="50" viewBox="0 0 181 50" fill="none" xmlns="http://www.w3.org/2000/svg">
<g clip-path="url(#clip0_198_3683)">
<path d="M40.1947 7.52996L30.3773 16.9754C29.9365 17.4157 29.5358 17.5758 29.1752 17.5758C28.5741 17.5758 28.1734 17.1755 27.9329 16.4951L25.2081 7.20978C25.168 7.00966 25.128 6.80955 25.128 6.60943C25.128 5.88902 25.5687 5.40874 26.3702 5.40874H39.7139C40.2749 5.40874 40.7958 5.80897 40.7958 6.40932C40.7958 6.7295 40.5955 7.12973 40.1947 7.52996ZM45.8849 0.525916C44.6427 0.365823 34.4646 0.00561523 29.6159 0.00561523C19.7584 0.00561523 12.4254 0.0456383 6.73526 6.00909C0.764648 12.2127 0.764648 20.4174 0.764648 33.625V40.9493C0.764648 42.0299 1.36572 42.7903 2.56785 42.7903C3.28914 42.7903 3.85013 42.5902 4.85191 41.5897L26.1698 21.0178C26.5305 20.6576 27.0113 20.4574 27.3319 20.4574C28.0532 20.4574 28.6542 21.0178 28.6542 21.8182V41.3095C28.6542 42.19 29.2152 42.7903 30.0567 42.7903H30.7379C33.3025 42.7903 38.3114 41.7497 42.5189 37.3072C47.6079 31.9441 47.8484 26.1007 47.8484 15.0143V2.52707C47.8484 1.40642 47.087 0.645985 45.8849 0.525916Z" fill="black"/>
<path d="M63.5965 20.4575H60.1904C59.8298 20.4575 59.6294 20.6176 59.6294 21.0178V42.3102C59.6294 42.6704 59.8298 42.8705 60.1904 42.8705H63.5965C63.9972 42.8705 64.1574 42.6704 64.1574 42.3102V21.0178C64.1574 20.6176 63.9972 20.4575 63.5965 20.4575Z" fill="black"/>
<path d="M74.3356 39.7085C73.6143 39.7085 72.9732 39.5884 72.3321 39.4283V35.8262C72.3321 31.5838 74.3356 29.7827 76.6597 29.7827C78.9438 29.7827 80.0658 31.3436 80.0658 33.9051C80.0658 37.6273 77.5012 39.7085 74.3356 39.7085ZM77.7016 26.1006C74.8165 26.1006 72.7728 27.5814 71.8913 29.6226L71.2501 27.1412C71.1299 26.5809 70.9296 26.4608 70.5689 26.4608H68.6054C68.2448 26.4608 68.0444 26.6209 68.0444 27.0211V49.0739C68.0444 49.354 68.2849 49.5942 68.5654 49.5942H71.8512C72.1317 49.5942 72.3321 49.354 72.3321 49.0739V42.9904C73.0133 43.1504 73.8548 43.2305 74.4158 43.2305C80.5867 43.2305 84.5538 39.3482 84.5538 33.785C84.5538 29.1824 81.7889 26.1006 77.7016 26.1006Z" fill="black"/>
<path d="M135.885 26.1006C133.28 26.1006 131.156 27.3013 130.074 29.4225L129.513 27.1412C129.353 26.5809 129.153 26.4608 128.792 26.4608H126.869C126.468 26.4608 126.308 26.6209 126.308 27.0211V42.31C126.308 42.6702 126.468 42.8703 126.869 42.8703H130.074C130.435 42.8703 130.635 42.6702 130.635 42.31V34.4654C130.635 31.5037 132.519 29.8628 134.763 29.8628C136.486 29.8628 137.768 31.0234 137.768 32.9445V42.31C137.768 42.6702 137.968 42.8703 138.329 42.8703H141.535C141.935 42.8703 142.096 42.6702 142.096 42.31V32.7044C142.096 28.622 139.852 26.1006 135.885 26.1006Z" fill="black"/>
<path d="M176.477 33.1447C176.477 37.3871 174.714 39.5484 172.15 39.5484C170.026 39.5484 168.583 38.1075 168.583 35.466C168.583 32.064 171.028 29.6626 174.434 29.6626C175.075 29.6626 175.836 29.7427 176.477 29.9428V33.1447ZM180.284 27.2613C179.202 26.781 176.918 26.1006 174.514 26.1006C167.862 26.1006 164.095 30.3831 164.095 35.546C164.095 40.1487 167.101 43.2305 171.148 43.2305C173.953 43.2305 176.157 41.8297 177.078 39.5484L177.559 41.6696C177.76 42.7102 177.92 42.8703 178.601 42.8703H180.204C180.564 42.8703 180.765 42.6702 180.765 42.31V27.9817C180.765 27.6615 180.605 27.3813 180.284 27.2613Z" fill="black"/>
<path d="M152.875 39.0681C150.711 39.0681 149.229 37.4672 149.229 35.0257C149.229 31.9039 151.673 29.6626 155.119 29.6626C155.76 29.6626 156.522 29.7427 157.123 29.9428V32.8245C157.123 36.9869 155.36 39.0681 152.875 39.0681ZM160.97 27.2212C160.168 26.821 157.523 26.1006 154.879 26.1006C148.427 26.1006 144.741 30.1029 144.741 35.1458C144.741 40.1887 148.227 42.43 151.873 42.43C154.358 42.43 156.161 41.3494 157.083 39.7485V41.5495C157.083 44.6313 155.159 46.1122 151.994 46.1122C150.11 46.1122 148.467 45.5919 146.824 44.9915C146.504 44.8314 146.063 44.8714 146.063 45.3517V47.6731C146.063 48.0733 146.223 48.4735 146.784 48.7537C148.347 49.5542 150.511 49.9944 152.595 49.9944C158.966 49.9944 161.45 46.1922 161.45 41.3494V27.9817C161.45 27.7015 161.29 27.4213 160.97 27.2613V27.2212Z" fill="black"/>
<path d="M118.775 33.1447C118.775 37.3871 117.052 39.5484 114.487 39.5484C112.363 39.5484 110.881 38.1075 110.881 35.466C110.881 32.064 113.365 29.6626 116.731 29.6626C117.412 29.6626 118.174 29.7427 118.775 29.9428V33.1447ZM122.621 27.2613C121.499 26.781 119.255 26.1006 116.851 26.1006C110.199 26.1006 106.393 30.3831 106.393 35.546C106.393 40.1487 109.438 43.2305 113.485 43.2305C116.25 43.2305 118.494 41.8297 119.376 39.5484L119.857 41.6696C120.097 42.7102 120.257 42.8703 120.898 42.8703H122.621C122.942 42.8703 123.062 42.6301 123.062 42.39V27.9817C123.062 27.6615 122.942 27.3813 122.621 27.2613Z" fill="black"/>
<path d="M105.23 26.3007C104.91 26.1406 104.228 26.1006 103.707 26.1006C101.624 26.1006 99.2595 27.3813 98.4982 29.6626L97.8971 27.1412C97.7769 26.5809 97.5765 26.4608 97.1758 26.4608H95.2524C94.8918 26.4608 94.6914 26.6209 94.6914 27.0211V42.31C94.6914 42.6702 94.8918 42.8703 95.2524 42.8703H98.4581C98.8588 42.8703 99.0191 42.6702 99.0191 42.31V34.9057C99.0191 31.7038 100.462 30.1829 103.146 30.1829C103.627 30.1829 104.028 30.223 104.709 30.303C105.35 30.4231 105.631 30.343 105.631 29.7827V27.1012C105.631 26.741 105.631 26.5008 105.23 26.3007Z" fill="black"/>
<path d="M91.005 26.4609H87.7993C87.3986 26.4609 87.2383 26.621 87.2383 27.0213V42.3101C87.2383 42.6703 87.3986 42.8704 87.7993 42.8704H91.005C91.3656 42.8704 91.566 42.6703 91.566 42.3101V27.0213C91.566 26.621 91.3656 26.4609 91.005 26.4609Z" fill="black"/>
</g>
<defs>
<clipPath id="clip0_198_3683">
<rect width="180" height="50" fill="white" transform="translate(0.764648)"/>
</clipPath>
</defs>
</svg>
