<svg width="186" height="80" viewBox="0 0 186 80" fill="none" xmlns="http://www.w3.org/2000/svg">
<g clip-path="url(#clip0_198_3490)">
<path d="M0.765376 63.2068C1.0179 63.5603 1.37143 63.8633 1.82596 64.0653C2.2805 64.2674 2.78554 64.3684 3.24008 64.3684C3.59361 64.3684 3.94714 64.2674 4.30067 64.1158C4.6037 63.9138 4.90672 63.7118 5.15924 63.4088C5.36126 63.1563 5.56328 62.8027 5.71479 62.4492C5.8663 62.0957 5.91681 61.7422 5.91681 61.3381V50.4292H7.38143V60.5806C7.38143 61.1866 7.22992 61.6916 7.0279 62.1967C6.82588 62.7017 6.52286 63.1563 6.11882 63.5098C5.76529 63.9138 5.36126 64.1664 4.85622 64.4189C4.35118 64.6209 3.79563 64.7219 3.24008 64.7219C2.58353 64.7219 1.97748 64.6209 1.42193 64.3179C0.866384 64.0653 0.411846 63.6613 0.0078125 63.2068H0.765376ZM20.6135 64.7219H19.0984C18.2903 62.6512 17.4823 60.5806 16.6742 58.5604C15.8661 56.4897 15.1086 54.419 14.3005 52.3484L9.25009 64.7219H8.59353L14.452 50.4292H15.0581C16.0177 52.8534 16.9267 55.2271 17.8358 57.6008C18.7449 59.9745 19.7045 62.3482 20.6135 64.7219ZM22.5832 50.4292L30.9669 62.7017V50.4292H31.5224V63.5603V64.7219H30.7144L22.6337 52.9039V64.7219H22.0782V51.9948L21.0176 50.4292H22.5832ZM45.0576 64.7219H43.5425C42.7344 62.6512 41.9263 60.5806 41.1183 58.5604C40.3102 56.4897 39.5526 54.419 38.7446 52.3484L33.6436 64.7219H33.0376L38.8961 50.4292H39.5021C40.4112 52.8534 41.3708 55.2271 42.2799 57.6008C43.1889 59.9745 44.098 62.3482 45.0576 64.7219ZM47.3303 50.4292H48.7444V64.7219H47.3303V50.4292ZM51.8757 50.4292L60.2089 62.7017V50.4292H60.8149V63.5603V64.7219H60.0068L51.9262 52.9039V64.7219H51.3706V51.9948L50.2595 50.4292H51.8757ZM74.35 64.7219H72.7844C71.9763 62.6512 71.1683 60.5806 70.4107 58.5604C69.6026 56.4897 68.7946 54.419 67.9865 52.3484L62.9361 64.7219H62.33L68.138 50.4292H68.7946C69.7036 52.8534 70.6127 55.2271 71.5723 57.6008C72.4814 59.9745 73.3905 62.3482 74.35 64.7219Z" fill="black"/>
<path d="M84.1479 50.4796H88.7438C89.2489 50.4796 89.7539 50.5806 90.2085 50.7826C90.6125 50.9342 91.0165 51.2372 91.3701 51.5402C91.7236 51.8937 91.9761 52.2978 92.1781 52.7018C92.3296 53.1563 92.4306 53.6614 92.4306 54.1664C92.4306 54.6715 92.3296 55.126 92.1781 55.5805C91.9761 56.0351 91.7236 56.3886 91.3701 56.7421C91.067 57.0452 90.663 57.2977 90.259 57.4997C89.8044 57.7017 89.3499 57.8027 88.8448 57.8532C89.4509 58.1563 90.0064 58.5098 90.5115 58.9643C91.0165 59.4189 91.4711 59.9239 91.8246 60.53C92.2286 61.0855 92.4811 61.7421 92.6832 62.3986C92.8852 63.0552 92.9862 63.7622 92.9862 64.4693V64.6713H91.7741V64.4693C91.7741 63.7117 91.6731 62.9542 91.4206 62.1966C91.2185 61.4895 90.865 60.833 90.461 60.2774C90.0569 59.6714 89.5519 59.1663 88.9964 58.7623C88.4408 58.3583 87.8348 58.0553 87.1782 57.8532H85.6126V64.7723H84.1479V50.4796ZM85.6126 51.0857V57.2472H87.1782H88.1378C88.5418 57.2472 88.9459 57.1462 89.3499 56.9947C89.7034 56.8432 90.0064 56.5906 90.3095 56.3381C90.562 56.0856 90.8145 55.7321 90.966 55.3785C91.1175 54.9745 91.2185 54.5705 91.2185 54.1664C91.2185 53.7119 91.1175 53.3079 90.966 52.9543C90.8145 52.5503 90.562 52.2473 90.3095 51.9947C90.0064 51.6917 89.7034 51.4897 89.3499 51.3382C88.9459 51.1362 88.5418 51.0857 88.1378 51.0857H85.6126ZM101.168 49.9241C102.178 49.9241 103.138 50.1261 104.047 50.5301C104.956 50.9342 105.713 51.4392 106.37 52.0958C107.077 52.8028 107.582 53.5604 107.986 54.4695C108.39 55.3785 108.541 56.3381 108.541 57.3482C108.541 58.3583 108.39 59.3179 107.986 60.2269C107.582 61.136 107.077 61.9441 106.37 62.6006C105.713 63.2572 104.956 63.7622 104.047 64.1663C103.138 64.5703 102.178 64.7723 101.168 64.7723C100.107 64.7723 99.1477 64.5703 98.2386 64.1663C97.3801 63.7622 96.572 63.2572 95.9154 62.6006C95.2589 61.9441 94.7033 61.136 94.3498 60.2269C93.9458 59.3179 93.7438 58.3583 93.7438 57.3482C93.7438 56.3381 93.9458 55.3785 94.3498 54.4695C94.7033 53.5604 95.2589 52.8028 95.9154 52.0958C96.572 51.4392 97.3801 50.9342 98.2386 50.5301C99.1477 50.1261 100.107 49.9241 101.168 49.9241ZM101.168 50.5301C100.309 50.5301 99.5012 50.7321 98.7437 51.0857C97.9861 51.4392 97.3296 51.8937 96.774 52.5503C96.2185 53.1563 95.7639 53.8634 95.4609 54.6715C95.1074 55.53 94.9559 56.3886 94.9559 57.3482C94.9559 58.3078 95.1074 59.1663 95.4609 60.0249C95.7639 60.833 96.2185 61.5906 96.774 62.1966C97.3296 62.8027 97.9861 63.3077 98.7437 63.6612C99.5012 64.0148 100.309 64.1663 101.168 64.1663C102.026 64.1663 102.784 64.0148 103.542 63.6612C104.299 63.3077 104.956 62.8027 105.562 62.1966C106.117 61.5906 106.521 60.833 106.875 60.0249C107.178 59.1663 107.329 58.3078 107.329 57.3482C107.329 56.3886 107.178 55.53 106.875 54.6715C106.521 53.8634 106.117 53.1563 105.562 52.5503C104.956 51.8937 104.299 51.4392 103.542 51.0857C102.784 50.7321 102.026 50.5301 101.168 50.5301ZM110.107 50.4291H110.562H111.521H114.905C115.915 50.4291 116.824 50.6311 117.683 51.0352C118.541 51.3887 119.299 51.8937 119.955 52.5503C120.612 53.2068 121.117 53.9644 121.471 54.823C121.875 55.6816 122.026 56.5906 122.026 57.6007C122.026 58.5603 121.875 59.5199 121.471 60.3784C121.117 61.237 120.612 61.9946 119.955 62.6511C119.299 63.2572 118.541 63.8127 117.683 64.1663C116.824 64.5703 115.915 64.7218 114.905 64.7218H111.521H110.562H110.107V50.4291ZM111.521 51.0352V64.1663H114.097H114.248C115.158 64.1663 116.016 63.9642 116.774 63.6612C117.582 63.3077 118.289 62.8532 118.844 62.2471C119.45 61.6411 119.955 60.934 120.258 60.1259C120.612 59.3684 120.814 58.5098 120.814 57.6007C120.814 56.6916 120.612 55.8331 120.258 55.025C119.955 54.2674 119.45 53.5604 118.844 52.9543C118.289 52.3483 117.582 51.8937 116.774 51.5402C116.016 51.1867 115.158 51.0352 114.248 51.0352H114.097H111.521ZM123.642 50.4796H128.238C128.743 50.4796 129.198 50.5806 129.652 50.7826C130.107 50.9342 130.511 51.2372 130.814 51.5402C131.167 51.8937 131.42 52.2978 131.622 52.7018C131.824 53.1563 131.925 53.6614 131.925 54.1664C131.925 54.6715 131.824 55.126 131.622 55.5805C131.42 56.0351 131.167 56.3886 130.864 56.7421C130.511 57.0452 130.157 57.2977 129.703 57.4997C129.248 57.7017 128.794 57.8027 128.289 57.8532C128.945 58.1563 129.501 58.5098 130.006 58.9643C130.511 59.4189 130.965 59.9239 131.319 60.53C131.672 61.0855 131.975 61.7421 132.177 62.3986C132.379 63.0552 132.48 63.7622 132.48 64.4693V64.6713H131.268V64.4693C131.268 63.7117 131.117 62.9542 130.915 62.1966C130.662 61.4895 130.359 60.833 129.955 60.2774C129.501 59.6714 129.046 59.1663 128.491 58.7623C127.885 58.3583 127.279 58.0553 126.622 57.8532H125.056V64.7723H123.642V50.4796ZM125.056 51.0857V57.2472H126.622H127.582C128.036 57.2472 128.39 57.1462 128.794 56.9947C129.147 56.8432 129.501 56.5906 129.753 56.3381C130.056 56.0856 130.258 55.7321 130.41 55.3785C130.612 54.9745 130.662 54.5705 130.662 54.1664C130.662 53.7119 130.612 53.3079 130.41 52.9543C130.258 52.5503 130.056 52.2473 129.753 51.9947C129.501 51.6917 129.147 51.4897 128.794 51.3382C128.39 51.1362 128.036 51.0857 127.582 51.0857H125.056ZM134.854 50.4291H136.268V64.7218H134.854V50.4291ZM145.561 49.9241C146.622 49.9241 147.581 50.1261 148.44 50.5301C149.349 50.8837 150.157 51.4392 150.814 52.0958L150.207 52.8028C149.652 52.0958 148.945 51.5402 148.137 51.1362C147.379 50.7321 146.521 50.5301 145.561 50.5301C144.753 50.5301 143.945 50.6816 143.187 51.0352C142.43 51.3887 141.773 51.8937 141.218 52.4998C140.612 53.1058 140.208 53.8634 139.854 54.6715C139.551 55.53 139.4 56.3886 139.4 57.3482C139.4 58.3078 139.551 59.1663 139.854 60.0249C140.208 60.833 140.612 61.54 141.218 62.1461C141.773 62.8027 142.43 63.2572 143.187 63.6107C143.945 63.9642 144.753 64.1663 145.561 64.1663C146.42 64.1663 147.177 64.0148 147.884 63.6612C148.642 63.3077 149.298 62.8532 149.854 62.2976C150.41 61.6916 150.814 61.035 151.167 60.2269C151.521 59.4694 151.723 58.6108 151.773 57.7017H145.561V57.1462H151.773H152.783H152.985V57.3482C152.985 58.3583 152.783 59.3179 152.379 60.2269C152.026 61.136 151.47 61.8936 150.814 62.6006C150.157 63.2572 149.349 63.7622 148.49 64.1663C147.581 64.5703 146.622 64.7723 145.561 64.7723C144.551 64.7723 143.591 64.5703 142.682 64.1663C141.773 63.7622 141.016 63.2572 140.359 62.6006C139.652 61.8936 139.147 61.136 138.743 60.2269C138.339 59.3179 138.187 58.3583 138.187 57.3482C138.187 56.3381 138.339 55.328 138.743 54.4695C139.147 53.5604 139.652 52.7523 140.359 52.0958C141.016 51.4392 141.773 50.9342 142.682 50.5301C143.591 50.1261 144.551 49.9241 145.561 49.9241ZM154.601 50.4796H156.015V59.9744C156.015 60.5805 156.116 61.0855 156.369 61.5905C156.571 62.0956 156.874 62.5501 157.228 62.9542C157.632 63.3077 158.086 63.6107 158.591 63.8632C159.096 64.0653 159.652 64.1663 160.258 64.1663C160.813 64.1663 161.369 64.0653 161.874 63.8632C162.379 63.6107 162.834 63.3077 163.187 62.9542C163.591 62.5501 163.894 62.0956 164.096 61.5905C164.349 61.0855 164.45 60.5805 164.45 59.9744V50.4796H165.864V59.1158C165.864 59.9239 165.712 60.631 165.409 61.338C165.106 61.9946 164.702 62.6006 164.197 63.1057C163.692 63.6107 163.086 64.0653 162.43 64.3178C161.722 64.6208 161.015 64.7723 160.258 64.7723C159.45 64.7723 158.743 64.6208 158.036 64.3178C157.379 64.0653 156.773 63.6107 156.268 63.1057C155.763 62.6006 155.359 61.9946 155.056 61.338C154.753 60.631 154.601 59.9239 154.601 59.1158V50.4796ZM168.136 50.4291H168.339H175.813V51.0352H169.551V57.2977H174.146V57.9037H169.551V64.1663H175.813V64.7218H169.551H168.136V50.4291ZM183.692 52.7523C183.641 52.6008 183.591 52.4493 183.439 52.2473C183.338 52.0453 183.187 51.8937 182.985 51.6917C182.783 51.5402 182.53 51.3887 182.227 51.2877C181.975 51.1362 181.621 51.0857 181.268 51.0857C180.914 51.0857 180.611 51.1362 180.308 51.2372C180.055 51.3887 179.803 51.5402 179.651 51.7422C179.449 51.8937 179.298 52.1463 179.197 52.3483C179.146 52.6008 179.096 52.8028 179.096 53.0048C179.096 53.2068 179.096 53.4089 179.146 53.6109C179.247 53.8634 179.399 54.0654 179.601 54.3684C179.853 54.621 180.156 54.924 180.611 55.2775C181.066 55.631 181.672 56.0351 182.429 56.5401C183.187 56.9442 183.793 57.4492 184.197 58.0553C184.601 58.6108 184.904 59.2169 185.055 59.8229C185.207 60.429 185.207 61.035 185.106 61.6411C184.954 62.2471 184.702 62.7521 184.348 63.2572C183.995 63.7117 183.54 64.0653 182.985 64.3683C182.429 64.6208 181.773 64.7723 181.066 64.7723C180.712 64.7723 180.409 64.7218 180.005 64.6208C179.601 64.5198 179.247 64.3178 178.843 64.0653C178.439 63.8127 178.086 63.5097 177.732 63.1057C177.379 62.7016 177.076 62.2471 176.874 61.6411H177.48C177.48 61.7421 177.53 61.8936 177.682 62.1461C177.884 62.3986 178.086 62.7016 178.389 63.0047C178.692 63.3077 179.045 63.5602 179.5 63.8127C179.904 64.0653 180.409 64.1663 180.965 64.1663C181.672 64.2168 182.328 64.0148 182.783 63.6612C183.288 63.2572 183.591 62.8026 183.793 62.2471C183.944 61.6411 183.944 61.035 183.742 60.3784C183.54 59.7219 183.136 59.1158 182.53 58.5603C182.076 58.1563 181.621 57.8027 181.167 57.4997C180.712 57.2472 180.308 56.9442 179.853 56.6411C179.449 56.3381 179.096 56.0351 178.742 55.7321C178.439 55.3785 178.187 54.9745 178.035 54.4695C177.884 54.0149 177.833 53.5099 177.934 53.0553C177.985 52.6008 178.187 52.1968 178.439 51.8432C178.742 51.4392 179.096 51.1362 179.5 50.9342C179.904 50.6816 180.359 50.5301 180.813 50.4796C181.116 50.4796 181.419 50.4796 181.722 50.5301C182.025 50.5806 182.328 50.6816 182.631 50.8331C182.884 50.9342 183.136 51.1362 183.389 51.3382C183.591 51.5402 183.793 51.7927 183.894 52.0958L183.944 52.7523H183.692Z" fill="black"/>
<path fill-rule="evenodd" clip-rule="evenodd" d="M65.4614 57.2976H71.0674V57.9037H65.4614V57.2976Z" fill="black"/>
<path fill-rule="evenodd" clip-rule="evenodd" d="M36.27 57.2976H41.876V57.9037H36.27V57.2976Z" fill="black"/>
<path fill-rule="evenodd" clip-rule="evenodd" d="M11.7754 57.2976H17.4319V57.9037H11.7754V57.2976Z" fill="black"/>
<path fill-rule="evenodd" clip-rule="evenodd" d="M42.1787 78.358V77.853H38.1383V75.1257H41.2696V74.6207H38.1383V71.843H42.1787V71.3379H37.6333V78.358H42.1787ZM47.6331 74.9742C47.9362 75.1762 48.1887 75.3783 48.3907 75.6813C48.5927 75.9338 48.6432 76.2368 48.6432 76.5399C48.6432 76.7924 48.5927 77.0449 48.4917 77.2974C48.3402 77.5499 48.1382 77.752 47.8857 77.9035C47.3806 78.257 46.8251 78.459 46.1685 78.459C45.815 78.459 45.512 78.4085 45.2089 78.3075C44.9059 78.2065 44.6029 78.1055 44.4009 77.9035C43.9968 77.6005 43.7443 77.2469 43.6433 76.7924L44.0978 76.5399C44.1483 76.9439 44.3504 77.2469 44.7039 77.4994C44.8554 77.651 45.1079 77.752 45.3604 77.853C45.613 77.9035 45.8655 77.954 46.1685 77.954C46.7241 77.954 47.2291 77.8025 47.5826 77.4994C47.9867 77.2469 48.1887 76.8934 48.1887 76.5399C48.1887 76.2873 48.0877 76.0853 47.9867 75.8833C47.8352 75.7318 47.6331 75.5298 47.3806 75.4288C47.1281 75.2773 46.7241 75.1762 46.118 75.1257C46.0675 75.1257 45.8655 75.0752 45.5625 75.0247C45.2594 74.9742 44.9564 74.8732 44.7544 74.7722C44.4009 74.6207 44.1483 74.3682 43.9463 74.1157C43.7443 73.8126 43.6433 73.5096 43.6433 73.1561C43.6433 72.9036 43.6938 72.651 43.8453 72.449C43.9463 72.1965 44.1483 71.9945 44.4009 71.7925C44.6029 71.641 44.9059 71.4894 45.2089 71.3884C45.512 71.3379 45.815 71.2874 46.1685 71.2874C46.8251 71.2874 47.3806 71.4389 47.8857 71.7925C48.3402 72.146 48.5927 72.4995 48.6432 72.9036L48.1887 73.1561C48.1887 73.0046 48.1382 72.8025 48.0372 72.651C47.9362 72.4995 47.7847 72.348 47.5826 72.1965C47.4311 72.045 47.1786 71.944 46.9261 71.8935C46.6736 71.7925 46.421 71.742 46.1685 71.742C45.8655 71.742 45.613 71.7925 45.3604 71.8935C45.1079 71.944 44.8554 72.045 44.7039 72.1965C44.5019 72.348 44.3504 72.4995 44.2494 72.651C44.1483 72.8025 44.0978 73.0046 44.0978 73.1561C44.0978 73.4086 44.1988 73.6106 44.3504 73.8631C44.5019 74.0652 44.7039 74.2167 44.9564 74.3682C45.1079 74.4187 45.3099 74.4692 45.4615 74.5197C45.6635 74.5702 45.916 74.5702 46.1685 74.6207C46.219 74.6207 46.3705 74.6207 46.5726 74.6712C46.7746 74.7217 46.9766 74.7217 47.1281 74.7722C47.3301 74.8227 47.4816 74.9237 47.6331 74.9742ZM55.8148 71.3379V71.843H53.0371V78.358H52.532V71.843H49.7543V71.3379H55.8148ZM61.9258 78.358V77.853H57.8855V75.1257H61.0168V74.6207H57.8855V71.843H61.9258V71.3379H57.3805V78.358H61.9258ZM59.0976 70.6309H59.6531L60.8652 69.5198H59.9562L59.0976 70.6309ZM69.653 71.3379V71.843H66.8752V78.358H66.3702V71.843H63.5925V71.3379H69.653ZM71.8247 78.358V71.3379H71.3701V78.358H71.8247ZM77.1276 78.459C77.6832 78.459 78.1882 78.3075 78.6932 78.1055C79.1478 77.853 79.5518 77.5499 79.9053 77.0954L79.5013 76.7924C79.2488 77.1459 78.8953 77.4489 78.4407 77.651C78.0367 77.853 77.5821 77.954 77.1276 77.954C76.5721 77.954 76.067 77.8025 75.6125 77.5499C75.1579 77.2469 74.7539 76.8934 74.5014 76.3883C74.1984 75.9338 74.0974 75.4288 74.0974 74.8732C74.0974 74.3177 74.1984 73.7621 74.5014 73.3076C74.7539 72.8026 75.1579 72.449 75.6125 72.146C76.067 71.8935 76.5721 71.742 77.1276 71.742C77.5821 71.742 77.9862 71.843 78.3902 72.045C78.7943 72.1965 79.0973 72.449 79.4003 72.8025L79.8043 72.449C79.4508 72.0955 79.0468 71.7925 78.5922 71.5904C78.1377 71.3884 77.6327 71.2874 77.1276 71.2874C76.5216 71.2874 75.9155 71.4389 75.36 71.742C74.8044 72.0955 74.4004 72.4995 74.0468 73.0551C73.7438 73.6106 73.5923 74.2167 73.5923 74.8732C73.5923 75.4793 73.7438 76.0853 74.0468 76.6409C74.4004 77.1964 74.8044 77.651 75.36 77.954C75.9155 78.3075 76.5216 78.459 77.1276 78.459ZM82.3295 76.5904L81.471 78.358H80.9154L84.2487 71.2874L87.38 78.358H86.8244L86.0669 76.5904H82.3295ZM84.1982 72.449L82.5316 76.0853H85.8143L84.1982 72.449ZM93.39 76.5904L92.5819 78.358H92.0264L95.3091 71.2874L98.4404 78.358H97.9353L97.1273 76.5904H93.39ZM95.3091 72.449L93.6425 76.0853H96.9253L95.3091 72.449ZM101.673 77.2974L104.299 71.3379H104.854L101.673 78.5095L98.4909 71.3379H98.9959L101.673 77.2974ZM106.218 76.5904L105.41 78.358H104.854L108.137 71.2874L111.268 78.358H110.763L109.955 76.5904H106.218ZM108.137 72.449L106.471 76.0853H109.753L108.137 72.449ZM118.137 78.5095V71.3379H117.682V77.0954L112.784 71.2874V78.358H113.289V72.651L118.137 78.5095ZM123.339 78.459C123.895 78.459 124.4 78.3075 124.854 78.1055C125.359 77.853 125.763 77.5499 126.117 77.0954L125.713 76.7924C125.41 77.1459 125.056 77.4489 124.652 77.651C124.248 77.853 123.794 77.954 123.339 77.954C122.783 77.954 122.278 77.8025 121.824 77.5499C121.319 77.2469 120.965 76.8934 120.662 76.3883C120.41 75.9338 120.258 75.4288 120.258 74.8732C120.258 74.3177 120.41 73.7621 120.662 73.3076C120.965 72.8026 121.319 72.449 121.824 72.146C122.278 71.8935 122.783 71.742 123.339 71.742C123.743 71.742 124.198 71.843 124.551 72.045C124.955 72.1965 125.309 72.449 125.612 72.8025L125.965 72.449C125.612 72.0955 125.208 71.7925 124.753 71.5904C124.299 71.3884 123.844 71.2874 123.339 71.2874C122.682 71.2874 122.076 71.4389 121.571 71.742C121.016 72.0955 120.561 72.4995 120.258 73.0551C119.955 73.6106 119.804 74.2167 119.804 74.8732C119.804 75.4793 119.955 76.0853 120.258 76.6409C120.561 77.1964 121.016 77.651 121.571 77.954C122.076 78.3075 122.682 78.459 123.339 78.459ZM123.288 79.9741C123.541 79.9741 123.743 79.9236 123.945 79.7721C124.046 79.7216 124.097 79.6206 124.147 79.5701C124.198 79.4691 124.198 79.3681 124.198 79.2671C124.198 79.1661 124.198 79.0651 124.147 78.9641C124.097 78.8631 124.046 78.762 123.945 78.7115C123.844 78.661 123.692 78.56 123.541 78.56V78.358H123.086V78.9641H123.288C123.44 78.9641 123.541 78.9641 123.642 79.0146C123.743 79.1156 123.794 79.1661 123.794 79.2671C123.794 79.3176 123.743 79.4186 123.642 79.4691C123.541 79.5196 123.44 79.5701 123.288 79.5701C123.187 79.5701 123.086 79.5196 122.985 79.4691C122.884 79.4186 122.834 79.3176 122.834 79.2671H122.379C122.379 79.3681 122.43 79.4691 122.48 79.5701C122.531 79.6206 122.581 79.7216 122.682 79.7721C122.884 79.9236 123.086 79.9741 123.288 79.9741ZM128.49 76.5904L127.682 78.358H127.127L130.41 71.2874L133.541 78.358H133.036L132.228 76.5904H128.49ZM130.41 72.449L128.743 76.0853H132.026L130.41 72.449ZM137.076 78.358C137.581 78.358 138.036 78.257 138.49 78.1055C138.894 77.9035 139.248 77.651 139.551 77.2974C139.854 76.9944 140.106 76.5904 140.258 76.1863C140.409 75.7823 140.51 75.3278 140.51 74.8732C140.51 74.3682 140.409 73.9641 140.258 73.5096C140.106 73.1056 139.854 72.752 139.551 72.3985C139.248 72.0955 138.894 71.7925 138.49 71.641C138.036 71.4389 137.581 71.3379 137.076 71.3379H135.056V78.358H137.076ZM135.561 71.843H137.076C137.935 71.843 138.642 72.146 139.197 72.752C139.45 73.0046 139.652 73.3581 139.803 73.7116C139.904 74.0652 140.005 74.4692 140.005 74.8732C140.005 75.2773 139.904 75.6308 139.803 76.0348C139.652 76.3884 139.45 76.6914 139.197 76.9944C138.642 77.6005 137.935 77.9035 137.076 77.9035H135.561V71.843ZM142.48 76.5904L141.672 78.358H141.116L144.399 71.2874L147.53 78.358H147.025L146.217 76.5904H142.48ZM144.399 72.449L142.733 76.0853H146.015L144.399 72.449Z" fill="black"/>
<path fill-rule="evenodd" clip-rule="evenodd" d="M11.3711 74.8228H31.2193V75.1258H11.3711V74.8228Z" fill="black"/>
<path fill-rule="evenodd" clip-rule="evenodd" d="M153.944 74.8228H173.843V75.1258H153.944V74.8228Z" fill="black"/>
<path fill-rule="evenodd" clip-rule="evenodd" d="M84.3499 0.076416C86.6731 12.753 100.208 12.955 101.471 21.6922C102.632 29.5204 86.8751 32.2476 84.3499 43.4596C83.9459 29.3689 99.9052 29.4194 101.471 21.7427V21.6922C100.612 15.6822 83.2388 15.1772 84.3499 0.076416Z" fill="black"/>
<path fill-rule="evenodd" clip-rule="evenodd" d="M100.259 0.884451C100.259 0.429913 100.663 0.0258789 101.168 0.0258789C101.622 0.0258789 102.026 0.429913 102.026 0.884451C101.976 1.38949 101.572 1.74302 101.117 1.74302C100.612 1.74302 100.259 1.38949 100.259 0.884451Z" fill="black"/>
<path fill-rule="evenodd" clip-rule="evenodd" d="M99.6021 3.96517C99.8546 3.51063 100.461 3.35912 100.915 3.61164C101.37 3.86416 101.521 4.47021 101.218 4.92475C100.966 5.37929 100.41 5.5308 99.9557 5.27828C99.5011 5.02576 99.3496 4.41971 99.6021 3.96517Z" fill="black"/>
<path fill-rule="evenodd" clip-rule="evenodd" d="M97.9358 6.84393C98.4408 6.54091 99.0469 6.69242 99.3499 7.14696C99.6529 7.652 99.5014 8.30855 98.9964 8.61158C98.4913 8.9146 97.8853 8.76309 97.5822 8.25805C97.2792 7.80351 97.4307 7.14696 97.9358 6.84393Z" fill="black"/>
<path fill-rule="evenodd" clip-rule="evenodd" d="M95.4104 9.41977C96.0164 9.31876 96.6225 9.72279 96.7235 10.3288C96.8245 10.9349 96.4205 11.5409 95.8144 11.642C95.2084 11.7935 94.6023 11.3894 94.5013 10.7834C94.4003 10.1773 94.8043 9.57128 95.4104 9.41977Z" fill="black"/>
<path fill-rule="evenodd" clip-rule="evenodd" d="M88.7439 14.4196C88.0873 14.4701 87.6328 15.0257 87.6328 15.6317C87.6833 16.2378 88.2389 16.7428 88.8449 16.6923C89.451 16.6418 89.956 16.0862 89.9055 15.4297C89.9055 14.8236 89.35 14.3691 88.7439 14.4196Z" fill="black"/>
<path fill-rule="evenodd" clip-rule="evenodd" d="M85.2588 17.2983C84.7538 17.6013 84.5518 18.2074 84.8548 18.7124C85.1578 19.2175 85.7639 19.369 86.2689 19.0659C86.7739 18.7629 86.9255 18.1569 86.6729 17.6518C86.3699 17.1468 85.7639 16.9953 85.2588 17.2983Z" fill="black"/>
<path fill-rule="evenodd" clip-rule="evenodd" d="M83.1883 21.5407C83.1378 22.0962 83.5419 22.5002 84.0974 22.5002C84.6025 22.5002 85.057 22.0962 85.057 21.5912C85.1075 21.0356 84.7035 20.6316 84.1479 20.6316C83.6429 20.6316 83.1883 21.0356 83.1883 21.5407Z" fill="black"/>
<path fill-rule="evenodd" clip-rule="evenodd" d="M84.7037 25.682C85.1077 25.9346 85.6633 25.783 85.9158 25.379C86.1683 24.975 86.0673 24.4194 85.6632 24.1669C85.2592 23.9144 84.7037 24.0659 84.4511 24.4699C84.1986 24.874 84.2996 25.4295 84.7037 25.682Z" fill="black"/>
<path fill-rule="evenodd" clip-rule="evenodd" d="M87.4812 28.1568C87.9357 28.2073 88.2893 27.9043 88.3903 27.4498C88.4408 26.9952 88.1378 26.6417 87.6832 26.5912C87.2792 26.5407 86.8751 26.8437 86.8246 27.2982C86.7236 27.7023 87.0267 28.1063 87.4812 28.1568Z" fill="black"/>
<path fill-rule="evenodd" clip-rule="evenodd" d="M90.2085 30.076C90.6125 30.076 90.9155 29.7729 90.9155 29.3689C90.966 28.9649 90.6125 28.6113 90.2085 28.6113C89.8044 28.6113 89.5014 28.9649 89.5014 29.3689C89.4509 29.7729 89.8044 30.076 90.2085 30.076Z" fill="black"/>
<path fill-rule="evenodd" clip-rule="evenodd" d="M95.0064 33.7123C95.3094 33.8133 95.663 33.6112 95.7135 33.2577C95.8145 32.9547 95.6125 32.6012 95.3095 32.5507C94.9559 32.4497 94.6529 32.6517 94.5519 33.0052C94.4509 33.3082 94.6529 33.6618 95.0064 33.7123Z" fill="black"/>
<path fill-rule="evenodd" clip-rule="evenodd" d="M96.9256 35.6819C97.2286 35.8334 97.5316 35.7324 97.6831 35.4294C97.8346 35.1769 97.7336 34.8233 97.4811 34.7223C97.2286 34.5708 96.875 34.6718 96.7235 34.9243C96.572 35.2274 96.673 35.5304 96.9256 35.6819Z" fill="black"/>
<path fill-rule="evenodd" clip-rule="evenodd" d="M98.4909 37.8534C98.6425 38.0555 98.996 38.0555 99.198 37.9039C99.4 37.7019 99.4 37.3484 99.2485 37.1464C99.0465 36.9444 98.7435 36.9444 98.5414 37.1464C98.2889 37.3484 98.2889 37.6514 98.4909 37.8534Z" fill="black"/>
<path fill-rule="evenodd" clip-rule="evenodd" d="M99.4508 40.2273C99.5013 40.4798 99.8043 40.5808 100.006 40.4798C100.259 40.4293 100.41 40.1263 100.309 39.8738C100.208 39.6718 99.9559 39.5203 99.7033 39.6213C99.4508 39.7223 99.3498 39.9748 99.4508 40.2273Z" fill="black"/>
<path fill-rule="evenodd" clip-rule="evenodd" d="M99.7539 42.7524C99.7034 42.9544 99.9054 43.1564 100.158 43.1564C100.36 43.1564 100.562 42.9544 100.562 42.7524C100.562 42.4999 100.41 42.2979 100.158 42.2979C99.9559 42.2979 99.7539 42.4999 99.7539 42.7524Z" fill="black"/>
<path fill-rule="evenodd" clip-rule="evenodd" d="M100.158 42.5503H85.4106V42.6008L85.3601 42.6513V42.7018V42.7523V42.8028H85.3096V42.8533V42.9038H100.158V42.5503Z" fill="black"/>
<path fill-rule="evenodd" clip-rule="evenodd" d="M99.451 39.8738H86.6229V39.9243H86.5724L86.5219 40.0253V40.0758H86.4714V40.1263V40.1768H86.4209V40.2273H99.451V39.8738Z" fill="black"/>
<path fill-rule="evenodd" clip-rule="evenodd" d="M98.9964 37.3484H88.4915H88.441V37.3989H88.3905V37.4494H88.34V37.4999L88.2895 37.5504V37.6009H88.239V37.6514H88.1885V37.7019H98.9964V37.3484Z" fill="black"/>
<path fill-rule="evenodd" clip-rule="evenodd" d="M97.481 35.0251H90.8145V35.0757H90.764H90.7135V35.1262H90.663V35.1767H90.6125V35.2272H90.5619V35.2777H90.5114V35.3282H90.4609V35.3787H97.481V35.0251Z" fill="black"/>
<path fill-rule="evenodd" clip-rule="evenodd" d="M95.1577 32.9546H93.3901L93.0366 33.2071L92.9355 33.3081H95.1577V32.9546Z" fill="black"/>
<path fill-rule="evenodd" clip-rule="evenodd" d="M87.582 27.5508H95.0567L95.6122 27.1973H87.582V27.5508Z" fill="black"/>
<path fill-rule="evenodd" clip-rule="evenodd" d="M85.2085 25.076H98.5416C98.6426 24.975 98.7941 24.874 98.8951 24.7729H85.2085V25.076Z" fill="black"/>
<path fill-rule="evenodd" clip-rule="evenodd" d="M84.1479 21.7427H100.713C100.713 21.6417 100.663 21.4902 100.612 21.3892H84.1479V21.7427Z" fill="black"/>
<path fill-rule="evenodd" clip-rule="evenodd" d="M85.7642 18.3589H97.5316C97.3801 18.2579 97.1781 18.1064 97.0266 18.0054H85.7642V18.3589Z" fill="black"/>
<path fill-rule="evenodd" clip-rule="evenodd" d="M88.7944 15.7327H92.9863C92.8348 15.5812 92.6328 15.4802 92.4307 15.3792H88.7944V15.7327Z" fill="black"/>
<path fill-rule="evenodd" clip-rule="evenodd" d="M92.3801 10.7327H95.6124V10.3792H91.9761C92.1276 10.4802 92.2286 10.6317 92.3801 10.7327Z" fill="black"/>
<path fill-rule="evenodd" clip-rule="evenodd" d="M89.1983 7.90455H98.4405V7.55103H88.8447C88.9457 7.65203 89.0467 7.75304 89.1983 7.90455Z" fill="black"/>
<path fill-rule="evenodd" clip-rule="evenodd" d="M86.7743 4.62184H100.41V4.26831H86.5723C86.6228 4.36932 86.6733 4.52083 86.7743 4.62184Z" fill="black"/>
<path fill-rule="evenodd" clip-rule="evenodd" d="M85.3601 1.08644H101.117V0.73291H85.3096C85.3096 0.833919 85.3601 0.934927 85.3601 1.08644Z" fill="black"/>
</g>
<defs>
<clipPath id="clip0_198_3490">
<rect width="185.149" height="80" fill="white" transform="translate(0.0078125)"/>
</clipPath>
</defs>
</svg>
