<svg width="90" height="80" viewBox="0 0 90 80" fill="none" xmlns="http://www.w3.org/2000/svg">
<g clip-path="url(#clip0_198_3535)">
<path d="M15.534 72.7649C14.8797 72.6463 14.2254 72.5277 13.6306 72.3498C13.0357 72.2312 12.5004 72.0533 11.9651 71.816C11.4297 71.5788 10.8944 71.2823 10.4185 70.9265C10.0616 70.63 9.64523 70.3335 9.28833 70.037C8.99092 69.7404 8.63403 69.4439 8.21765 69.1474C7.97972 68.9695 7.74179 68.7916 7.44438 68.6137C7.14696 68.4358 6.90903 68.2579 6.55214 68.0799C6.37369 68.3765 6.13576 68.6137 5.83835 68.7916C5.60042 69.0288 5.36248 69.266 5.06507 69.4439C4.58921 69.7997 4.05387 70.0963 3.45904 70.3928C2.86422 70.63 2.26939 70.7486 1.67456 70.6893C1.37715 70.63 1.07974 70.5707 0.841808 70.4521C0.663361 70.2742 0.484913 70.0963 0.365948 69.859C0.246983 69.6811 0.1875 69.4439 0.1875 69.2067C0.1875 68.9102 0.306465 68.673 0.484913 68.3765C0.663361 68.1392 0.841808 67.9613 1.13922 67.7834C1.37715 67.6055 1.61508 67.4276 1.91249 67.309C2.20991 67.1904 2.44784 67.1311 2.74525 67.0125C3.04266 66.9532 3.34008 66.8939 3.63749 66.8939C4.52973 66.7753 5.42197 66.7753 6.37369 66.8939C6.73058 66.3008 7.028 65.6485 7.32541 64.9369C7.56334 64.2845 7.80127 63.6322 8.0392 62.9799C8.33661 62.2682 8.57454 61.5566 8.81248 60.845C8.99092 60.1926 9.22885 59.481 9.46678 58.7693C9.64523 58.117 9.88316 57.3461 10.2401 56.5751C10.5375 55.8042 10.9538 55.0332 11.3702 54.2623C11.7866 53.4914 12.2625 52.7797 12.7978 52.1274C13.3926 51.4751 13.9875 50.9413 14.6418 50.5262C15.2961 50.1111 16.0099 49.8146 16.7831 49.696C17.5564 49.6367 18.3892 49.7553 19.2814 50.1111C19.4599 50.1704 19.6978 50.289 19.9357 50.4076C20.1736 50.4669 20.4116 50.6448 20.5305 50.7634C20.6495 50.882 20.6495 50.9413 20.6495 51.0006C20.6495 51.0599 20.6495 51.1192 20.59 51.1785C20.59 51.2378 20.5305 51.2971 20.4711 51.2971C20.4116 51.2971 20.3521 51.2971 20.2926 51.1785C20.1142 51.1192 19.9952 51.0006 19.8762 50.9413C19.7573 50.8227 19.6383 50.7634 19.5193 50.6448C19.2219 50.5262 18.9245 50.4076 18.6271 50.3483C18.3297 50.2297 17.9728 50.1704 17.6754 50.1704C17.0806 50.1704 16.4857 50.289 16.0099 50.5262C15.4745 50.8227 14.9987 51.1192 14.6418 51.5344C14.2254 51.9495 13.8685 52.4239 13.5711 52.9576C13.2142 53.4914 12.9763 53.9658 12.7978 54.4995C12.3814 55.4484 12.0245 56.4565 11.7271 57.4054C11.4892 58.4135 11.1918 59.3624 10.8944 60.3705C10.5375 61.5566 10.1211 62.6834 9.58575 63.7508C9.05041 64.8776 8.3961 65.8857 7.68231 66.8346L7.44438 67.1311C8.0392 67.2497 8.57454 67.4869 9.10989 67.7241C9.64523 67.9613 10.1806 68.2579 10.6564 68.6137C11.0728 68.9695 11.4892 69.3253 11.9056 69.7404C12.3219 70.0963 12.7383 70.4521 13.1547 70.8079C13.6306 71.1637 14.0469 71.5195 14.5823 71.7567C15.0581 71.994 15.534 72.1719 16.1288 72.2312C16.6047 72.2905 17.0806 72.2312 17.4969 72.1126C17.7349 72.0533 17.9133 71.9347 18.0323 71.7567C18.0918 71.6974 18.1512 71.6381 18.2702 71.6381C18.3297 71.6381 18.4487 71.6974 18.5081 71.7567C18.5081 71.8754 18.5081 71.9346 18.4487 72.0533C17.7349 72.7056 16.4857 72.8242 15.534 72.7649ZM1.61508 67.9613C1.43663 68.0799 1.25819 68.2579 1.07974 68.4358C0.901291 68.673 0.782326 68.8509 0.722843 69.0881C0.663361 69.3253 0.663361 69.5032 0.782326 69.6811C0.841808 69.9183 1.07974 70.0369 1.37715 70.1556C1.67456 70.2742 1.91249 70.2742 2.20991 70.2742C2.50732 70.2742 2.74525 70.1556 3.04266 70.0963C3.28059 69.9776 3.57801 69.859 3.81594 69.6811C4.05387 69.5625 4.2918 69.3846 4.47025 69.2067C4.94611 68.7916 5.42197 68.2579 5.77886 67.7241C5.12455 67.4869 4.41076 67.309 3.69697 67.309C2.98318 67.309 2.26939 67.5462 1.61508 67.9613Z" fill="black"/>
<path d="M21.7203 55.9822C21.4229 55.9822 21.1849 55.9229 21.0065 55.6857C20.8875 55.5078 20.7686 55.2705 20.7686 55.0333C20.7686 54.7961 20.8875 54.5589 21.0065 54.381C21.1849 54.1438 21.4229 54.0845 21.7203 54.0845C22.0177 54.0845 22.2556 54.1438 22.4341 54.381C22.6125 54.5589 22.672 54.7961 22.672 55.0333C22.672 55.2705 22.6125 55.5078 22.4341 55.6857C22.2556 55.9229 22.0177 55.9822 21.7203 55.9822Z" fill="black"/>
<path d="M23.6833 65.8266C23.4454 66.301 23.148 66.7754 22.91 67.2499C22.6126 67.7836 22.3152 68.1987 22.0178 68.6731C21.6609 69.0883 21.304 69.5627 20.9471 69.9185C20.5902 70.3336 20.1738 70.6895 19.698 70.9267C19.5195 71.0453 19.3411 71.1639 19.1626 71.2232C18.9842 71.3418 18.8057 71.4011 18.5678 71.4011C18.3894 71.4011 18.2109 71.3418 18.0325 71.2825C17.9135 71.1639 17.7351 71.0453 17.5566 70.8081C17.2592 70.3929 17.1402 69.9185 17.0807 69.3848C17.0213 68.8511 17.0213 68.3766 17.0807 67.8429C17.1402 66.7161 17.3782 65.5894 17.7351 64.4626C18.0919 63.3359 18.5083 62.2091 18.9842 61.1416C18.9842 61.0823 19.1032 60.9044 19.1626 60.6079C19.2816 60.3707 19.4006 60.1335 19.5195 59.8963C19.698 59.7184 19.8169 59.5405 19.9954 59.4219C20.1738 59.3032 20.4118 59.3625 20.5902 59.5998C20.6497 59.7184 20.7092 59.7777 20.7092 59.8963C20.7092 60.0149 20.7092 60.1335 20.7092 60.2521C20.6497 60.3707 20.6497 60.4893 20.5902 60.6079C20.5902 60.7265 20.5902 60.8451 20.5307 60.9044C20.4713 61.2009 20.4118 61.4382 20.3523 61.7347C20.2928 62.0312 20.2333 62.2684 20.1738 62.5649L19.3411 65.8266L18.8057 68.1394C18.7463 68.3173 18.6868 68.5545 18.6868 68.7325C18.6273 68.9104 18.5678 69.1476 18.5678 69.3255C18.5083 69.5034 18.5083 69.6813 18.4488 69.9185C18.4488 70.0964 18.4488 70.3336 18.5083 70.4522C18.5678 70.5709 18.6273 70.6895 18.7463 70.6895C18.8652 70.7488 18.9842 70.7488 19.1032 70.7488C19.2221 70.6895 19.3411 70.6895 19.46 70.6302C19.579 70.5708 19.698 70.5115 19.7575 70.4522C20.0549 70.215 20.3523 69.9778 20.5902 69.6813C20.8281 69.3848 21.0661 69.0883 21.304 68.7918C21.5419 68.4359 21.7799 68.0801 22.0178 67.7243C22.2557 67.4278 22.4937 67.0127 22.6721 66.6568L23.2669 65.6487C23.3264 65.4708 23.4454 65.4708 23.5643 65.5301C23.7428 65.5894 23.7428 65.708 23.6833 65.8266Z" fill="black"/>
<path d="M27.8469 66.0043C27.609 66.5381 27.3116 67.0718 27.0737 67.5462C26.7763 68.0799 26.4788 68.5544 26.1814 69.0288C26.0625 69.266 25.884 69.4439 25.7651 69.6811C25.5866 69.859 25.4082 70.0963 25.2297 70.2742C25.0513 70.4521 24.8133 70.6893 24.6349 70.8079C24.397 70.9858 24.2185 71.1044 23.9806 71.223C23.6832 71.2823 23.5047 71.2823 23.3263 71.1637C23.2073 71.0451 23.0289 70.9265 22.9694 70.7486C22.8504 70.5114 22.7909 70.2742 22.7909 70.037C22.7314 69.7997 22.7314 69.6218 22.7314 69.4439C22.7314 68.9102 22.7314 68.3172 22.8504 67.7834C22.9099 67.2497 23.0289 66.716 23.1478 66.1822C23.5047 64.2845 23.9211 62.3868 24.397 60.5484C24.8133 58.71 25.3487 56.9309 26.003 55.0925C26.2409 54.2623 26.5383 53.4321 26.8952 52.6018C27.1926 51.7716 27.609 51.0006 28.0849 50.2297C28.2038 50.0518 28.3823 49.8146 28.5013 49.5774C28.6797 49.3994 28.8582 49.1622 29.0366 48.9843C29.2745 48.7471 29.453 48.5692 29.6909 48.4506C29.9288 48.2727 30.1668 48.1541 30.4047 48.0948C30.5831 48.0355 30.7616 48.0355 30.94 48.0948C31.178 48.0948 31.2969 48.2134 31.4159 48.4506C31.5349 48.6285 31.5349 48.925 31.5349 49.1622C31.4754 49.4587 31.4159 49.7553 31.3564 49.9925C31.059 51.0599 30.6426 52.1274 30.1073 53.1948C29.6314 54.203 29.0961 55.2112 28.6202 56.2193C28.2038 57.0496 27.7875 57.8205 27.3711 58.5914C26.8952 59.4217 26.4788 60.1926 26.0625 60.9636C25.884 61.6752 25.6461 62.3275 25.4676 62.9799C25.2892 63.6915 25.0513 64.3438 24.8728 65.0555L24.4564 66.5974C24.278 67.1311 24.0995 67.7241 23.9211 68.2579C23.7426 68.7916 23.6832 69.3846 23.6237 69.9183V70.037C23.6237 70.0963 23.6832 70.1556 23.6832 70.2742C23.6832 70.3335 23.6832 70.3928 23.7426 70.4521C23.7426 70.5114 23.7426 70.5707 23.7426 70.5114C23.8021 70.5707 23.8021 70.5707 23.8616 70.5707C23.9211 70.5707 23.9806 70.5707 24.0401 70.5707C24.159 70.5114 24.2185 70.5114 24.278 70.4521C24.3375 70.4521 24.397 70.3928 24.397 70.3928C24.6944 70.2149 24.9918 69.9776 25.1702 69.6811C25.4082 69.3846 25.6461 69.0881 25.8245 68.7916C26.2409 68.1986 26.5978 67.5462 26.9547 66.8346L27.1926 66.3602C27.2521 66.2415 27.2521 66.1822 27.3116 66.0636C27.3116 65.945 27.3711 65.8264 27.4901 65.7671C27.5495 65.6485 27.6685 65.6485 27.728 65.7671C27.8469 65.8264 27.9064 65.8857 27.8469 66.0043ZM28.6797 55.5077C28.9176 54.9739 29.1556 54.4402 29.3935 53.9065C29.6314 53.3728 29.8694 52.839 30.1073 52.3053C30.2857 51.8309 30.4642 51.3565 30.7021 50.7634C30.8806 50.2297 30.9995 49.696 30.9995 49.1622C30.9995 49.1029 30.9995 48.9843 30.9995 48.8657C30.9995 48.7471 30.94 48.6878 30.8211 48.6878C30.7021 48.7471 30.6426 48.7471 30.5831 48.8657C30.4642 48.925 30.4047 48.9843 30.3452 49.0436C30.1668 49.3401 30.0478 49.5774 29.9288 49.8739C29.8099 50.1111 29.6909 50.4076 29.5719 50.7041C29.3935 51.2378 29.215 51.7123 28.9771 52.246C28.7987 52.7797 28.6202 53.3135 28.4418 53.7879C28.0849 54.7367 27.7875 55.6856 27.4901 56.5751C27.1926 57.524 26.8952 58.4728 26.5978 59.4217C26.5383 59.4217 26.5383 59.481 26.5383 59.5403L26.4788 59.5996C27.2521 58.2949 27.9659 56.8716 28.6797 55.5077Z" fill="black"/>
<path d="M31.7134 55.9822C31.416 55.9822 31.1781 55.9229 30.9996 55.6857C30.8807 55.5078 30.7617 55.2705 30.7617 55.0333C30.7617 54.7961 30.8807 54.5589 30.9996 54.381C31.1781 54.1438 31.416 54.0845 31.7134 54.0845C32.0109 54.0845 32.2488 54.1438 32.4272 54.381C32.6057 54.5589 32.6652 54.7961 32.6652 55.0333C32.6652 55.2705 32.6057 55.5078 32.4272 55.6857C32.2488 55.9229 32.0109 55.9822 31.7134 55.9822Z" fill="black"/>
<path d="M33.6762 65.8266C33.4383 66.301 33.1409 66.7754 32.9029 67.2499C32.6055 67.7836 32.3081 68.1987 32.0107 68.6731C31.6538 69.0883 31.2969 69.5627 30.94 69.9185C30.5831 70.3336 30.1667 70.6895 29.6909 70.9267C29.5124 71.0453 29.334 71.1639 29.1555 71.2232C28.9771 71.3418 28.7392 71.4011 28.5607 71.4011C28.3823 71.4011 28.2038 71.3418 28.0254 71.2825C27.9064 71.1639 27.7279 71.0453 27.5495 70.8081C27.2521 70.3929 27.1331 69.9185 27.0736 69.3848C27.0142 68.8511 27.0142 68.3766 27.0142 67.8429C27.1331 66.7161 27.3711 65.5894 27.728 64.4626C28.0848 63.3359 28.5012 62.2091 28.9771 61.1416C28.9771 61.0823 29.096 60.9044 29.1555 60.6079C29.2745 60.3707 29.3935 60.1335 29.5124 59.8963C29.6909 59.7184 29.8098 59.5405 29.9883 59.4219C30.1667 59.3032 30.3452 59.3625 30.5831 59.5998C30.6426 59.7184 30.7021 59.7777 30.7021 59.8963C30.7021 60.0149 30.7021 60.1335 30.7021 60.2521C30.6426 60.3707 30.6426 60.4893 30.5831 60.6079C30.5831 60.7265 30.5831 60.8451 30.5236 60.9044C30.4641 61.2009 30.4047 61.4382 30.3452 61.7347C30.2857 62.0312 30.2262 62.2684 30.1667 62.5649L29.334 65.8266L28.7986 68.1394C28.7392 68.3173 28.6797 68.5545 28.6797 68.7325C28.6202 68.9104 28.5607 69.1476 28.5607 69.3255C28.5012 69.5034 28.5012 69.6813 28.4417 69.9185C28.4417 70.0964 28.4417 70.3336 28.5012 70.4522C28.5607 70.5709 28.6202 70.6895 28.7392 70.6895C28.8581 70.7488 28.9771 70.7488 29.0961 70.7488C29.215 70.6895 29.334 70.6895 29.4529 70.6302C29.5719 70.5708 29.6909 70.5115 29.7504 70.4522C30.0478 70.215 30.3452 69.9778 30.5831 69.6813C30.821 69.3848 31.059 69.0883 31.2969 68.7918C31.5348 68.4359 31.7728 68.0801 32.0107 67.7243C32.2486 67.4278 32.4866 67.0127 32.665 66.6568L33.2598 65.6487C33.3193 65.4708 33.4383 65.4708 33.5572 65.5301C33.7357 65.5894 33.7357 65.708 33.6762 65.8266Z" fill="black"/>
<path d="M45.2755 60.9044C44.7402 60.8451 44.2048 60.7265 43.729 60.5486C43.2531 60.3114 42.8367 60.0148 42.4798 59.659C42.1229 59.3032 41.8255 58.8881 41.6471 58.4137C41.4686 57.8799 41.3497 57.4055 41.3497 56.8125C41.3497 56.2787 41.4686 55.745 41.6471 55.2113C41.8255 54.7369 42.1229 54.2624 42.4798 53.8473C42.7772 53.4322 43.1936 53.0764 43.61 52.7798C44.0859 52.424 44.5022 52.1868 45.0376 51.9496C45.9893 51.5938 46.941 51.3566 48.0117 51.238C49.0824 51.1194 50.1531 51.0601 51.1643 51.1787C52.235 51.2973 53.3057 51.5938 54.2574 52.1275C55.2091 52.6612 55.9229 53.4322 56.5177 54.4403C57.0531 55.3892 57.3505 56.338 57.5289 57.4055C57.6479 58.4137 57.7074 59.4811 57.5884 60.5486C57.4694 61.616 57.2315 62.6242 56.8746 63.6323C56.5177 64.6998 56.1013 65.6486 55.685 66.5382C55.2091 67.4277 54.6143 68.3173 53.96 69.1475C53.3057 69.9778 52.5324 70.7487 51.6996 71.401C50.8669 72.0534 49.9746 72.5278 49.0229 72.8836C48.0117 73.2394 47.0005 73.2987 45.8703 73.1208C45.3945 73.0615 44.8591 72.9429 44.3238 72.8243C43.7884 72.7057 43.3126 72.5278 42.8367 72.2906C42.3609 72.0534 41.885 71.7569 41.5281 71.401C41.1117 71.0452 40.8143 70.6301 40.5764 70.0964C40.3384 69.622 40.16 69.0882 40.16 68.4952C40.1005 67.9615 40.16 67.4277 40.3385 66.894C40.3979 66.7754 40.3979 66.6568 40.4574 66.5382C40.5169 66.4196 40.5764 66.301 40.6359 66.2417C40.6953 66.1824 40.7548 66.1231 40.8143 66.1231C40.9333 66.1231 40.9928 66.1824 40.9928 66.301C41.0522 66.3603 41.0522 66.4196 40.9333 66.5382C40.8738 66.5975 40.8143 66.7161 40.8143 66.7754C40.6359 67.0719 40.5764 67.3091 40.5169 67.5463C40.3979 68.1394 40.3979 68.6731 40.5169 69.2068C40.6359 69.6813 40.8738 70.1557 41.1712 70.5708C41.5281 70.9859 41.885 71.2824 42.3609 71.579C42.8367 71.8755 43.3721 72.0534 43.9074 72.1127C44.9186 72.2906 45.9298 72.2313 46.941 71.9348C47.9522 71.6383 48.9039 71.1638 49.7367 70.6301C50.6884 69.9778 51.4617 69.2661 52.116 68.3766C52.8298 67.487 53.3651 66.5975 53.9005 65.5893C54.3763 64.6998 54.7332 63.7509 55.0307 62.8021C55.3281 61.8532 55.566 60.8451 55.6255 59.8962C55.685 59.3032 55.7444 58.7695 55.685 58.1764C55.685 57.6427 55.566 57.109 55.447 56.5159C55.3281 55.9822 55.0901 55.5078 54.8522 54.9741C54.6143 54.4996 54.2574 54.0252 53.9005 53.6101C53.4841 53.2543 53.0677 52.9578 52.6513 52.6612C52.1755 52.424 51.6996 52.2461 51.1643 52.0682C50.6884 51.9496 50.1531 51.831 49.6177 51.7717C49.0824 51.7124 48.6065 51.7124 48.0712 51.7124C47.4169 51.7717 46.7626 51.831 46.0488 52.0089C45.3945 52.1868 44.7402 52.424 44.1453 52.7205C43.5505 53.0764 43.0746 53.4915 42.6583 54.0252C42.1824 54.4996 41.885 55.0927 41.7065 55.8043C41.5876 56.5159 41.5876 57.1683 41.7065 57.8206C41.885 58.473 42.1824 59.066 42.6583 59.5404C43.1341 59.9555 43.729 60.2521 44.3833 60.3707L44.9781 60.4893C45.0376 60.4893 45.1565 60.43 45.216 60.43C45.2755 60.43 45.3945 60.43 45.454 60.4893C45.5134 60.6079 45.5134 60.6672 45.5134 60.7858C45.454 60.8451 45.3945 60.9044 45.2755 60.9044ZM50.0341 54.7369C49.8557 55.9229 49.6177 57.0497 49.2608 58.1171C48.9634 59.2439 48.6065 60.3114 48.2496 61.4381C48.0117 62.3277 47.7143 63.1579 47.4169 64.0475C47.1195 64.8777 46.8221 65.7079 46.4652 66.5975C46.3462 67.0719 46.1083 67.6056 45.9298 68.0801C45.6919 68.6138 45.5134 69.0882 45.2755 69.5626C45.216 69.622 45.1565 69.7406 45.0971 69.8592C45.0376 69.9778 44.9781 70.0964 44.9186 70.215C44.8591 70.3336 44.7996 70.3929 44.7402 70.5115C44.6212 70.5708 44.5617 70.6301 44.4427 70.6301C44.2643 70.6301 44.1453 70.6301 44.0859 70.5115C44.0264 70.4522 43.9669 70.3929 43.9669 70.2743C43.9074 70.1557 43.9074 70.0371 43.9669 69.9185C43.9669 69.7406 43.9669 69.622 43.9669 69.5626C44.1453 68.7324 44.3238 67.9615 44.5022 67.1312C44.7402 66.3603 44.9781 65.5893 45.216 64.7591C45.5134 63.6916 45.8703 62.5649 46.2867 61.4974C46.6436 60.43 47.0005 59.3032 47.4169 58.2357C47.5953 57.7613 47.7738 57.2869 47.9522 56.8125C48.1307 56.2787 48.3686 55.8043 48.547 55.3892C48.6065 55.152 48.7255 54.9148 48.8445 54.6776C48.9039 54.4403 49.0824 54.2624 49.2608 54.1438C49.4988 54.0845 49.6772 54.0845 49.8557 54.2624C50.0341 54.381 50.0936 54.5589 50.0341 54.7369Z" fill="black"/>
<path d="M62.8228 55.9822C62.5254 55.9822 62.2875 55.9229 62.109 55.6857C61.9306 55.5078 61.8711 55.2705 61.8711 55.0333C61.8711 54.7961 61.9306 54.5589 62.109 54.381C62.2875 54.1438 62.5254 54.0845 62.8228 54.0845C63.1202 54.0845 63.3582 54.1438 63.5366 54.381C63.6556 54.5589 63.7745 54.7961 63.7745 55.0333C63.7745 55.2705 63.6556 55.5078 63.5366 55.6857C63.3582 55.9229 63.1202 55.9822 62.8228 55.9822Z" fill="black"/>
<path d="M64.7261 65.8266C64.4882 66.301 64.2502 66.7754 63.9528 67.2499C63.7149 67.7836 63.4175 68.1987 63.0606 68.6731C62.7632 69.0883 62.4063 69.5627 62.0494 69.9185C61.633 70.3336 61.2166 70.6895 60.8003 70.9267C60.6218 71.0453 60.4434 71.1639 60.2054 71.2232C60.027 71.3418 59.8485 71.4011 59.6701 71.4011C59.4916 71.4011 59.3132 71.3418 59.1347 71.2825C58.9563 71.1639 58.7778 71.0453 58.6589 70.8081C58.3615 70.3929 58.183 69.9185 58.1235 69.3848C58.1235 68.8511 58.1235 68.3766 58.1235 67.8429C58.2425 66.7161 58.421 65.5894 58.7778 64.4626C59.1347 63.3359 59.5511 62.2091 60.027 61.1416C60.0865 61.0823 60.1459 60.9044 60.2649 60.6079C60.3839 60.3707 60.5028 60.1335 60.6218 59.8963C60.7408 59.7184 60.9192 59.5405 61.0977 59.4219C61.2761 59.3032 61.4546 59.3625 61.633 59.5998C61.6925 59.7184 61.752 59.7777 61.752 59.8963C61.8115 60.0149 61.8115 60.1335 61.752 60.2521C61.752 60.3707 61.6925 60.4893 61.6925 60.6079C61.633 60.7265 61.633 60.8451 61.633 60.9044C61.5735 61.2009 61.514 61.4382 61.4546 61.7347C61.3951 62.0312 61.2761 62.2684 61.2166 62.5649L60.4434 65.8266L59.8485 68.1394C59.8485 68.3173 59.7891 68.5545 59.7296 68.7325C59.6701 68.9104 59.6701 69.1476 59.6106 69.3255C59.6106 69.5034 59.5511 69.6813 59.5511 69.9185C59.4916 70.0964 59.5511 70.3336 59.6106 70.4522C59.6701 70.5709 59.7296 70.6895 59.8485 70.6895C59.908 70.7488 60.027 70.7488 60.1459 70.7488C60.3244 70.6895 60.4434 70.6895 60.5623 70.6302C60.6813 70.5708 60.7408 70.5115 60.8003 70.4522C61.0977 70.215 61.3951 69.9778 61.633 69.6813C61.9304 69.3848 62.1684 69.0883 62.4063 68.7918C62.6442 68.4359 62.8821 68.0801 63.1201 67.7243C63.2985 67.4278 63.5364 67.0127 63.7744 66.6568L64.3692 65.6487C64.4287 65.4708 64.5477 65.4708 64.6666 65.5301C64.7856 65.5894 64.8451 65.708 64.7261 65.8266Z" fill="black"/>
<path d="M63.001 70.7487L65.6777 60.1927C65.7372 60.0148 65.7967 59.8369 65.8561 59.659C65.9156 59.4811 65.9751 59.3032 66.0941 59.1846C66.1536 59.0067 66.2725 58.8881 66.451 58.8288C66.5699 58.7695 66.8079 58.8288 67.0458 58.8881C67.2242 59.0067 67.4027 59.1253 67.4622 59.2439C67.5217 59.3625 67.5811 59.5404 67.5811 59.7183C67.5811 59.8369 67.5811 60.0148 67.5216 60.1927C67.4622 60.3706 67.4027 60.5486 67.3432 60.7265L65.3803 66.7754L65.1423 67.5463C65.3803 67.0719 65.6182 66.5975 65.9156 66.1231C66.1536 65.6486 66.451 65.1742 66.7484 64.6998C67.0458 64.166 67.3432 63.6916 67.6406 63.2172C67.9975 62.6835 68.2949 62.209 68.6518 61.7939C68.8303 61.5567 69.0087 61.3788 69.1872 61.1416C69.3656 60.9637 69.5441 60.7858 69.7225 60.6079C69.9604 60.3706 70.1389 60.1927 70.3768 60.0148C70.5553 59.8369 70.7932 59.659 71.0906 59.5404C71.2691 59.4811 71.507 59.4218 71.7449 59.4811C71.9828 59.4811 72.1613 59.5997 72.3397 59.7776C72.4587 60.0148 72.5777 60.252 72.6372 60.4893C72.6966 60.7858 72.6966 61.023 72.6966 61.2602C72.6371 61.8532 72.5777 62.387 72.4587 62.8614C72.2803 63.3951 72.1613 63.9288 71.9828 64.4626C71.8044 64.9963 71.5665 65.53 71.388 66.0638C71.1501 66.5975 70.9122 67.1312 70.7337 67.6649C70.6147 67.9615 70.5553 68.1987 70.4363 68.4359C70.3768 68.7324 70.2579 68.9696 70.1984 69.2068C70.1984 69.3254 70.1389 69.444 70.0794 69.5626C70.0794 69.6812 70.0199 69.7999 70.0199 69.9185C70.0199 70.0371 70.0199 70.0964 70.0794 70.215C70.1389 70.3336 70.1984 70.3929 70.3173 70.4522C70.6147 70.5708 70.9122 70.5115 71.2691 70.3929C71.5665 70.215 71.8639 70.0371 72.0423 69.8592C72.4587 69.5033 72.8156 69.0882 73.113 68.6731C73.4104 68.1987 73.7078 67.7835 73.9458 67.3091C74.0647 67.0719 74.1837 66.894 74.3027 66.6568C74.4216 66.4196 74.5406 66.1824 74.6001 65.9451C74.6596 65.8858 74.719 65.7672 74.7785 65.6486C74.7785 65.5893 74.838 65.53 74.957 65.53C75.0759 65.53 75.1354 65.5893 75.1949 65.6486C75.2544 65.7672 75.2544 65.8265 75.1949 65.9451C75.1949 66.0044 75.1354 66.1231 75.0759 66.1824C75.0165 66.301 74.957 66.4196 74.8975 66.4789C74.7785 66.7161 74.6001 67.0126 74.4811 67.2498C74.3621 67.487 74.2432 67.7242 74.0647 67.9615C73.7673 68.4359 73.4699 68.9103 73.113 69.3254C72.7561 69.7998 72.3992 70.1557 71.9234 70.5115C71.6854 70.6894 71.4475 70.8673 71.1501 71.0452C70.8527 71.1638 70.5553 71.2231 70.2578 71.2231C69.9604 71.2231 69.7225 71.1638 69.5441 71.0452C69.3656 70.9266 69.1872 70.7487 69.0682 70.5708C68.9492 70.3336 68.8897 70.1557 68.8303 69.8592C68.7708 69.6219 68.7708 69.3847 68.7708 69.1475C68.7708 68.6138 68.7708 68.0801 68.9492 67.5463C69.0682 67.0126 69.1872 66.4789 69.3656 65.9451C69.5441 65.2928 69.782 64.6405 70.0794 63.9881C70.3768 63.3358 70.6147 62.6835 70.9122 62.0311C70.9716 61.7939 71.0906 61.616 71.2096 61.3788C71.2691 61.1416 71.388 60.9637 71.4475 60.7265C71.507 60.6079 71.507 60.43 71.507 60.3706C71.5665 60.252 71.4475 60.1927 71.2691 60.1927C71.0311 60.1927 70.7932 60.252 70.6147 60.3706C70.4363 60.4893 70.1984 60.6079 70.0794 60.7858C69.901 60.9637 69.7225 61.1416 69.6035 61.3195C69.4251 61.4974 69.3061 61.6753 69.1872 61.8532C68.5329 62.6242 67.9975 63.4544 67.4622 64.344C66.9863 65.1742 66.451 66.0638 65.9751 66.9533C65.7372 67.3684 65.4992 67.8428 65.3208 68.258C65.0829 68.7324 64.8449 69.2068 64.6665 69.6219C64.5475 69.7999 64.4286 70.0371 64.3691 70.215C64.2501 70.3929 64.1906 70.5708 64.1311 70.7487L64.0122 70.9266C64.0122 71.1045 63.8932 71.2231 63.7742 71.2824C63.6553 71.3417 63.5363 71.401 63.3579 71.3417C63.2389 71.3417 63.1794 71.2824 63.0605 71.1638C63.001 71.0452 63.001 70.9266 63.001 70.7487Z" fill="black"/>
<path d="M79.0616 55.9822C78.7642 55.9822 78.5262 55.9229 78.3478 55.6857C78.1693 55.5078 78.1099 55.2705 78.1099 55.0333C78.1099 54.7961 78.1693 54.5589 78.3478 54.381C78.5262 54.1438 78.7642 54.0845 79.0616 54.0845C79.359 54.0845 79.5969 54.1438 79.7754 54.381C79.9538 54.5589 80.0133 54.7961 80.0133 55.0333C80.0133 55.2705 79.9538 55.5078 79.7754 55.6857C79.5969 55.9229 79.359 55.9822 79.0616 55.9822Z" fill="black"/>
<path d="M80.2511 67.2499C79.9537 67.7836 79.6563 68.1987 79.2994 68.6731C79.0019 69.0883 78.645 69.5627 78.2882 69.9185C77.9313 70.3336 77.5149 70.6895 77.039 70.9267C76.8606 71.0453 76.6821 71.1639 76.5037 71.2232C76.3252 71.3418 76.0873 71.4011 75.9088 71.4011C75.7304 71.4011 75.552 71.3418 75.3735 71.2825C75.1951 71.1639 75.0761 71.0453 74.8976 70.8081C74.6002 70.3929 74.4813 69.9185 74.4218 69.3848C74.3623 68.8511 74.3623 68.3766 74.3623 67.8429C74.4813 66.7161 74.7192 65.5894 75.0761 64.4626C75.433 63.3359 75.7899 62.2091 76.2657 61.1416C76.3252 61.0823 76.3847 60.9044 76.5037 60.6079C76.6226 60.3707 76.7416 60.1335 76.8606 59.8963C77.039 59.7184 77.158 59.5405 77.3364 59.4219C77.5149 59.3032 77.6933 59.3625 77.9313 59.5998C77.9907 59.7184 78.0502 59.7777 78.0502 59.8963C78.0502 60.0149 78.0502 60.1335 78.0502 60.2521C77.9907 60.3707 77.9907 60.4893 77.9313 60.6079C77.9313 60.7265 77.8718 60.8451 77.8718 60.9044C77.8123 61.2009 77.7528 61.4382 77.6933 61.7347C77.6338 62.0312 77.5744 62.2684 77.5149 62.5649L76.6821 65.8266L76.1468 68.1394C76.0873 68.3173 76.0278 68.5545 76.0278 68.7325C75.9683 68.9104 75.9088 69.1476 75.9088 69.3255C75.8494 69.5034 75.8494 69.6813 75.7899 69.9185C75.7899 70.0964 75.7899 70.3336 75.8494 70.4522C75.9089 70.5709 75.9683 70.6895 76.0873 70.6895C76.2063 70.7488 76.3252 70.7488 76.4442 70.7488C76.5632 70.6895 76.6821 70.6895 76.8011 70.6302C76.9201 70.5708 77.039 70.5115 77.0985 70.4522C77.3959 70.215 77.6338 69.9778 77.9313 69.6813C78.1692 69.3848 78.4071 69.0883 78.645 68.7918C78.883 68.4359 79.1209 68.0801 79.3588 67.7243C79.5968 67.4278 79.8347 67.0127 80.0131 66.6568C80.608 65.6487 80.6675 65.6487 81.0244 64.5812C81.1433 64.4033 81.2028 64.1661 81.2623 63.9289L82.214 61.4382C82.1545 61.1416 82.214 60.9044 82.2735 60.6672C82.3925 60.3707 82.5114 60.1335 82.6899 59.9556C82.8683 59.7184 83.1062 59.5998 83.3442 59.4812C83.5821 59.4218 83.7606 59.4812 83.939 59.5998C84.1174 59.7777 84.1174 59.9556 83.9985 60.1335C83.939 60.3114 83.8795 60.4893 83.82 60.6672C83.82 60.8451 83.82 60.9637 83.8795 61.1416C83.939 61.2603 84.058 61.3789 84.1769 61.4382C84.2959 61.4975 84.4743 61.5568 84.7123 61.5568C85.2476 61.4975 85.783 61.3789 86.3183 61.2009C86.8536 60.9637 87.3295 60.7265 87.7459 60.43C87.9838 60.3114 88.1623 60.1335 88.4002 59.9556C88.4597 59.8963 88.5192 59.837 88.5192 59.7184C88.5786 59.6591 88.6381 59.5998 88.7571 59.5998C88.8761 59.5405 88.9355 59.5405 88.995 59.6591C89.0545 59.7777 89.0545 59.8963 88.995 59.9556C88.8761 60.0742 88.8166 60.1335 88.7571 60.1928C88.6976 60.3114 88.6381 60.3707 88.5786 60.4893L84.4149 65.5894L83.2847 67.0127L83.7011 67.072C84.2959 67.1906 84.7718 67.4278 85.1881 67.7836C85.3666 67.9615 85.545 68.1394 85.664 68.3766C85.783 68.5545 85.9019 68.7918 86.0209 69.029L86.4373 68.7325C87.3295 68.0208 87.9838 67.1313 88.4597 66.1231C88.5192 66.0638 88.5786 65.9452 88.6381 65.8266C88.6381 65.708 88.7571 65.6487 88.8761 65.6487C88.9355 65.6487 88.995 65.708 89.0545 65.7673C89.114 65.8266 89.114 65.8859 89.0545 65.9452C89.0545 66.0638 88.995 66.1824 88.9355 66.301C88.8761 66.3603 88.8166 66.4789 88.7571 66.5382L88.2812 67.3092C87.6864 68.1394 87.0321 68.7918 86.1993 69.3848C86.3183 69.7999 86.4373 70.2743 86.4373 70.7488C86.4373 71.2232 86.3778 71.7569 86.2588 72.2906C86.1399 72.8244 85.9614 73.2988 85.664 73.7732C85.3666 74.1883 85.0692 74.6035 84.6528 74.9593C84.2364 75.3151 83.7606 75.5523 83.2847 75.6709C83.0468 75.7302 82.8088 75.7302 82.5114 75.7895C82.2735 75.7895 82.0356 75.7895 81.7381 75.7302C81.5002 75.6709 81.2623 75.6116 81.0244 75.5523C80.7864 75.4337 80.608 75.2558 80.4295 75.0779C80.2511 74.9 80.1321 74.6628 80.0726 74.4256C80.0131 74.129 80.0726 73.8918 80.1321 73.6546C80.1916 73.3581 80.2511 73.1209 80.4295 72.8837C80.5485 72.6465 80.6675 72.4092 80.8459 72.2313C81.3812 71.6383 81.9761 71.1639 82.6304 70.8081C83.3442 70.4522 83.9985 70.0964 84.7123 69.7999C84.7123 69.5627 84.6528 69.2662 84.5933 69.029C84.5933 68.7918 84.4743 68.5545 84.3554 68.3173C84.2364 68.0801 84.1174 67.9022 83.939 67.7836C83.7011 67.6057 83.5226 67.4871 83.2252 67.4278C83.1657 67.4278 83.1062 67.4278 82.9873 67.4278C82.9278 67.4278 82.8683 67.4278 82.7493 67.3685C82.6899 67.3685 82.6304 67.3092 82.5709 67.2499C82.5709 67.2499 82.5709 67.1313 82.6304 67.072L82.7493 66.9534C82.9873 66.6568 83.2252 66.3603 83.4631 66.0638C83.7011 65.8266 83.8795 65.5301 84.1174 65.2336L87.0916 61.6161L86.9131 61.794C86.5562 62.0905 86.1399 62.4463 85.7235 62.7428C85.3071 63.0393 84.8312 63.1579 84.3554 63.2173C83.939 63.2173 83.5226 63.0986 83.1657 62.9207C82.8683 62.7428 82.5709 62.4463 82.3924 62.0905C82.2735 62.5056 82.095 62.9207 81.9761 63.3359C81.7976 63.751 81.6787 64.1661 81.5597 64.5812C81.4407 64.7591 81.3812 64.8777 81.3218 65.0557C81.0244 66.0045 80.7269 66.3603 80.2511 67.2499ZM82.9278 71.0453C82.4519 71.3418 82.0356 71.6383 81.6192 71.9941C81.1433 72.3499 80.8459 72.8244 80.6675 73.3581C80.608 73.536 80.5485 73.7732 80.5485 74.0104C80.5485 74.2476 80.608 74.4256 80.7864 74.6035C80.9649 74.7814 81.1433 74.8407 81.3812 74.9C81.6787 74.9593 81.8571 74.9593 82.095 74.9C82.6304 74.8407 83.0468 74.6628 83.4037 74.3069C83.7605 74.0104 83.9985 73.5953 84.1769 73.1802C84.4149 72.7058 84.5338 72.172 84.5933 71.6976C84.7123 71.1639 84.7123 70.6895 84.7123 70.215C84.4149 70.3336 84.1174 70.5115 83.82 70.6302C83.5226 70.7488 83.2252 70.9267 82.9278 71.0453Z" fill="black"/>
<path d="M62.5846 78.1024V76.6791H63.6553C63.8932 76.6791 64.0717 76.7384 64.1906 76.9163C64.3096 77.0349 64.3691 77.2128 64.3691 77.3907C64.3691 77.628 64.3096 77.7466 64.1906 77.9245C64.0717 78.0431 63.8932 78.1024 63.6553 78.1024H62.5846ZM62.4062 76.4419C62.3467 76.4419 62.3467 76.4419 62.3467 76.5012V79.9408C62.3467 80.0001 62.3467 80.0001 62.4062 80.0001H62.5846C62.5846 80.0001 62.5846 80.0001 62.5846 79.9408V78.3396H63.6553C63.8932 78.3396 64.1312 78.2803 64.3691 78.1024C64.5475 77.8652 64.607 77.628 64.607 77.3907C64.607 77.1535 64.5475 76.9163 64.3691 76.7384C64.1312 76.5605 63.9527 76.4419 63.6553 76.4419H62.4062Z" fill="black"/>
<path d="M66.0943 75.8488L65.559 76.0267H65.4995L65.44 75.8488C65.44 75.8488 65.44 75.8488 65.4995 75.8488L66.0943 75.5522L66.6891 75.8488C66.7486 75.8488 66.7486 75.8488 66.7486 75.8488L66.6297 76.0267L66.0943 75.8488ZM66.7486 78.2802L66.0943 76.7383L65.44 78.2802H66.7486ZM66.2133 76.4418C66.2133 76.4418 66.2133 76.4418 66.2133 76.5011L67.7003 79.9407C67.7003 79.9407 67.7003 80 67.6409 80H67.4624C67.4624 80 67.4624 80 67.4029 80L66.8081 78.5174H65.321L64.7262 80H64.5478C64.4883 80 64.4883 80 64.4883 80V79.9407L65.9159 76.5011C65.9753 76.4418 65.9753 76.4418 65.9753 76.4418H66.2133Z" fill="black"/>
<path d="M67.3432 76.4419C67.2837 76.4419 67.2837 76.4419 67.2837 76.5012V76.6791C67.2837 76.6791 67.2837 76.6791 67.3432 76.6791H68.2949V79.9408C68.2949 80.0001 68.3544 80.0001 68.3544 80.0001H68.5328C68.5328 80.0001 68.5328 80.0001 68.5328 79.9408V76.6791H69.544C69.6035 76.6791 69.6035 76.6791 69.6035 76.6791V76.5012C69.6035 76.4419 69.6035 76.4419 69.544 76.4419H67.3432Z" fill="black"/>
<path d="M70.0199 80.0001C69.9605 80.0001 69.9604 80.0001 69.9604 79.9408V76.5012C69.9604 76.4419 69.9605 76.4419 70.0199 76.4419H70.1984C70.1984 76.4419 70.1984 76.4419 70.1984 76.5012V79.9408C70.1984 80.0001 70.1984 80.0001 70.1984 80.0001H70.0199Z" fill="black"/>
<path d="M72.8156 76.9756H72.7561C72.7561 76.9756 72.7561 76.9756 72.6966 76.9163C72.6371 76.857 72.5776 76.857 72.5181 76.7977C72.4587 76.7384 72.3397 76.7384 72.2207 76.6791C72.1612 76.6791 72.0423 76.6791 71.9828 76.6791H71.9233H71.8638C71.8638 76.6791 71.8638 76.6791 71.8044 76.6791H71.7449C71.6854 76.6791 71.5664 76.7384 71.5069 76.7384C71.4475 76.7977 71.388 76.7977 71.3285 76.857C71.269 76.9163 71.2095 77.0349 71.2095 77.0942L71.15 77.1535C71.15 77.2128 71.15 77.2128 71.15 77.2128V77.2721V77.3314V77.3907L71.2095 77.45C71.2095 77.45 71.2095 77.45 71.2095 77.5093V77.5687H71.269V77.628C71.3285 77.6873 71.4475 77.7466 71.5664 77.8059C71.6259 77.8652 71.7449 77.9245 71.8638 77.9838H71.9233L72.0423 78.0431L72.1612 78.1024C72.2802 78.1617 72.3992 78.221 72.5181 78.2803C72.6371 78.3989 72.7561 78.4582 72.8156 78.5175C72.875 78.6361 72.9345 78.7547 72.994 78.8733V78.9326C72.994 78.9919 72.994 78.9919 72.994 78.9919V79.0512V79.1105V79.1698V79.2291V79.2884C72.9345 79.4071 72.9345 79.5257 72.8156 79.6443C72.7561 79.7036 72.6371 79.8222 72.5181 79.8815C72.4587 79.8815 72.3397 79.9408 72.2207 79.9408V80.0001H72.1612C72.1018 80.0001 72.1018 80.0001 72.1018 80.0001H71.9828H71.9233H71.8638H71.8044H71.7449H71.6854C71.5664 80.0001 71.5069 79.9408 71.388 79.9408C71.269 79.8815 71.15 79.8815 71.0311 79.7629C70.9716 79.7629 70.9716 79.7036 70.9121 79.7036L70.8526 79.6443C70.7931 79.6443 70.7931 79.585 70.7931 79.585C70.7337 79.585 70.7337 79.585 70.7931 79.5257L70.9121 79.4071C70.9121 79.4071 70.9121 79.4071 70.9716 79.4071C70.9716 79.4664 70.9716 79.4664 70.9716 79.4664C70.9716 79.4664 71.0311 79.4664 71.0311 79.5257C71.0906 79.5257 71.15 79.585 71.15 79.585C71.269 79.6443 71.388 79.7036 71.5069 79.7036C71.5664 79.7629 71.6259 79.7629 71.6854 79.7629H71.7449H71.8044H71.8638H71.9233H71.9828H72.0423C72.1018 79.7629 72.1018 79.7629 72.1018 79.7629H72.1612C72.2802 79.7036 72.3992 79.7036 72.4587 79.6443C72.5181 79.6443 72.5776 79.585 72.6371 79.4664C72.6966 79.407 72.7561 79.3477 72.7561 79.2291V79.1698V79.1105V79.0512V78.9919V78.9326C72.7561 78.8733 72.6966 78.7547 72.6371 78.6954C72.5181 78.5768 72.3397 78.4582 72.1018 78.3396L71.9233 78.221H71.8638H71.8044L71.7449 78.1617C71.6259 78.1024 71.5069 78.0431 71.4475 77.9838C71.3285 77.9245 71.2095 77.8652 71.15 77.7466C71.0906 77.7466 71.0906 77.7466 71.0906 77.7466V77.6873C71.0311 77.6873 71.0311 77.628 71.0311 77.628V77.5687H70.9716V77.5093V77.45V77.3907V77.3314H70.9121V77.2721V77.2128C70.9716 77.2128 70.9716 77.1535 70.9716 77.1535C70.9716 77.0942 70.9716 77.0942 70.9716 77.0942V77.0349C71.0311 76.9163 71.0906 76.7977 71.15 76.7384C71.2095 76.6198 71.3285 76.5605 71.4475 76.5605C71.5069 76.5012 71.6259 76.5012 71.7449 76.4419H71.8044C71.8638 76.4419 71.8638 76.4419 71.8638 76.4419H71.9233H72.0423C72.1018 76.4419 72.1612 76.5012 72.2802 76.5012C72.3992 76.5012 72.5181 76.5605 72.6371 76.6198C72.6966 76.6791 72.7561 76.6791 72.7561 76.7384C72.8156 76.7384 72.8156 76.7384 72.875 76.7977C72.875 76.7977 72.875 76.7977 72.9345 76.7977C72.9345 76.857 72.9345 76.857 72.9345 76.857L72.8156 76.9756Z" fill="black"/>
<path d="M75.6113 76.9756C75.6113 76.9756 75.6113 76.9756 75.5518 76.9756C75.5518 76.9756 75.5518 76.9756 75.5518 76.9163C75.4923 76.9163 75.4923 76.9163 75.4923 76.9163C75.4328 76.857 75.3733 76.857 75.3733 76.7977C75.2544 76.7384 75.1354 76.7384 75.0164 76.6791C74.957 76.6791 74.8975 76.6791 74.838 76.6791H74.7785H74.719C74.6596 76.6791 74.6596 76.6791 74.6596 76.6791H74.6001C74.4811 76.6791 74.4216 76.7384 74.3621 76.7384C74.2432 76.7977 74.1837 76.7977 74.1242 76.857C74.0647 76.9163 74.0052 77.0349 74.0052 77.0942V77.1535C74.0052 77.2128 74.0052 77.2128 74.0052 77.2128L73.9458 77.2721L74.0052 77.3314V77.3907V77.45C74.0052 77.45 74.0052 77.45 74.0052 77.5093L74.0647 77.5687V77.628H74.1242C74.1837 77.6873 74.2432 77.7466 74.3621 77.8059C74.4216 77.8652 74.5406 77.9245 74.6596 77.9838H74.719L74.838 78.0431L75.0164 78.1024C75.1354 78.1617 75.2544 78.221 75.3139 78.2803C75.4328 78.3989 75.5518 78.4582 75.6113 78.5175C75.7302 78.6361 75.7897 78.7547 75.7897 78.8733V78.9326C75.7897 78.9919 75.7897 78.9919 75.7897 78.9919V79.0512V79.1105V79.1698V79.2291V79.2884C75.7897 79.4071 75.7302 79.5257 75.6113 79.6443C75.5518 79.7036 75.4923 79.8222 75.3733 79.8815C75.2544 79.8815 75.1949 79.9408 75.0759 79.9408L75.0164 80.0001H74.957H74.8975H74.838H74.7785H74.719H74.6596H74.6001C74.6001 80.0001 74.6001 80.0001 74.5406 80.0001H74.4811C74.4216 80.0001 74.3027 79.9408 74.2432 79.9408C74.1242 79.8815 74.0052 79.8815 73.8863 79.7629C73.8268 79.7629 73.7673 79.7036 73.7078 79.7036L73.6484 79.6443L73.5889 79.585C73.5889 79.585 73.5889 79.585 73.5889 79.5257L73.7078 79.4071H73.7673C73.7673 79.4664 73.7673 79.4664 73.7673 79.4664C73.8268 79.4664 73.8268 79.4664 73.8863 79.5257L73.9458 79.585C74.0647 79.6443 74.1837 79.7036 74.3027 79.7036C74.3621 79.7629 74.4216 79.7629 74.4811 79.7629H74.5406C74.6001 79.7629 74.6001 79.7629 74.6001 79.7629H74.6596H74.719H74.7785H74.8975C74.8975 79.7629 74.8975 79.7629 74.957 79.7629H75.0164C75.0759 79.7036 75.1949 79.7036 75.2544 79.6443C75.3139 79.6443 75.4328 79.585 75.4328 79.4664C75.4923 79.407 75.5518 79.3477 75.5518 79.2291L75.6113 79.1698V79.1105V79.0512V78.9919H75.5518V78.9326C75.5518 78.8733 75.4923 78.7547 75.4328 78.6954C75.3139 78.5768 75.1354 78.4582 74.8975 78.3396L74.719 78.221H74.6596H74.6001V78.1617C74.4216 78.1024 74.3027 78.0431 74.2432 77.9838C74.1242 77.9245 74.0052 77.8652 73.9458 77.7466C73.9458 77.7466 73.9458 77.7466 73.8863 77.7466V77.6873L73.8268 77.628V77.5687L73.7673 77.5093V77.45V77.3907V77.3314V77.2721V77.2128V77.1535C73.7673 77.0942 73.7673 77.0942 73.7673 77.0942V77.0349C73.8268 76.9163 73.8863 76.7977 73.9458 76.7384C74.0647 76.6198 74.1242 76.5605 74.2432 76.5605C74.3621 76.5012 74.4216 76.5012 74.5406 76.4419H74.6001C74.6596 76.4419 74.6596 76.4419 74.719 76.4419H74.7785H74.838C74.8975 76.4419 74.957 76.5012 75.0759 76.5012C75.1949 76.5012 75.3139 76.5605 75.4328 76.6198C75.4923 76.6791 75.5518 76.6791 75.6113 76.7384C75.6113 76.7384 75.6708 76.7384 75.6708 76.7977H75.7302C75.7302 76.857 75.7302 76.857 75.7302 76.857L75.6113 76.9756Z" fill="black"/>
<path d="M78.7638 76.6791H78.8232V76.5012L78.7638 76.4419H76.5629C76.5034 76.4419 76.5034 76.5012 76.5034 76.5012V79.9408C76.5034 80.0001 76.5034 80.0001 76.5629 80.0001H78.7638C78.7638 80.0001 78.8232 80.0001 78.8232 79.9408V79.8222C78.8232 79.7629 78.7638 79.7629 78.7638 79.7629H76.7413V78.3396H78.1095V78.1617C78.1095 78.1024 78.1095 78.1024 78.1095 78.1024H76.7413V76.6791H78.7638Z" fill="black"/>
<path d="M79.6564 78.1024H80.7271C80.965 78.1024 81.084 78.0431 81.2624 77.9245C81.3814 77.8059 81.4409 77.628 81.4409 77.3907C81.4409 77.2128 81.3814 77.0349 81.2624 76.9163C81.084 76.7384 80.965 76.6791 80.7271 76.6791H79.6564V78.1024ZM79.4185 78.3396V76.5012C79.4185 76.5012 79.4185 76.4419 79.4779 76.4419H80.7271C81.0245 76.4419 81.2029 76.5605 81.3814 76.7384C81.6193 76.9163 81.6788 77.1535 81.6788 77.3907C81.6788 77.6873 81.6193 77.8652 81.3814 78.1024C81.2029 78.2803 80.965 78.3396 80.7271 78.3396H79.4185ZM79.4779 80.0001C79.4185 80.0001 79.4185 80.0001 79.4185 79.9408V77.8652H79.6564V79.9408C79.6564 80.0001 79.6564 80.0001 79.6564 80.0001H79.4779ZM81.3814 80.0001L80.4297 78.3396L80.6676 78.221L81.6193 79.9408V80.0001C81.6193 80.0001 81.6193 80.0001 81.5598 80.0001H81.3814Z" fill="black"/>
<path d="M82.5116 80.0001C82.4521 80.0001 82.4521 80.0001 82.4521 79.9408V76.5012C82.4521 76.4419 82.4521 76.4419 82.5116 76.4419H82.6901C82.6901 76.4419 82.6901 76.4419 82.6901 76.5012V79.9408C82.6901 80.0001 82.6901 80.0001 82.6901 80.0001H82.5116Z" fill="black"/>
<path d="M85.9019 76.6791V76.5012V76.4419H83.6416V76.5012V79.9408C83.6416 80.0001 83.6416 80.0001 83.6416 80.0001H85.9019C85.9019 80.0001 85.9019 80.0001 85.9019 79.9408V79.8222C85.9019 79.7629 85.9019 79.7629 85.9019 79.7629H83.8795V78.3396H85.1882C85.2476 78.3396 85.2476 78.3396 85.2476 78.3396V78.1617C85.2476 78.1024 85.2476 78.1024 85.1882 78.1024H83.8795V76.6791H85.9019Z" fill="black"/>
<path fill-rule="evenodd" clip-rule="evenodd" d="M43.1342 31.5492C43.61 31.6678 44.0264 31.8457 44.5023 31.9643C44.8592 32.0829 45.5135 32.2608 45.9298 32.3201V41.5714H43.1342V31.5492ZM48.904 41.5714L49.7962 35.8783C49.9152 35.0481 50.0936 34.0399 50.2126 33.0911C50.2721 32.3201 50.391 32.498 51.1643 32.4387C51.5807 32.3201 52.235 32.2015 52.6514 32.2015L51.8186 37.9539C51.6996 38.8435 51.6402 39.9109 51.2238 40.5633C50.629 41.4528 49.9152 41.5714 48.904 41.5714ZM35.6988 30.1852C36.6506 30.1259 37.0075 29.5329 37.8997 29.5329L39.4462 40.0296C39.5057 40.504 39.6842 41.1563 39.6842 41.5714C36.8885 41.5714 37.0075 39.6144 36.6506 36.9458C36.5316 36.0562 35.6988 30.8969 35.6988 30.1852ZM35.7583 8.95469C35.4609 9.1326 35.104 9.1919 34.6876 9.36981C34.0333 9.72563 33.1411 10.2594 32.6057 10.8524C32.4868 10.9117 32.4273 10.971 32.3678 11.0896C32.2488 11.2675 32.1299 11.3268 31.9514 11.5047C31.1187 12.335 30.048 14.292 30.048 16.0118L28.8583 16.9013C26.8954 18.3839 25.8842 21.1118 26.1221 23.7212C26.4196 26.5084 28.5014 28.9992 31.0592 30.0073C31.2376 30.0666 31.4161 30.0666 31.5945 30.1852C32.1894 32.676 32.6652 38.7842 33.498 40.6226C34.2118 42.2238 36.0557 43.5284 38.0187 43.5284H50.51C52.5919 43.5284 54.3169 42.2238 55.0307 40.8598C55.8634 39.2586 56.2798 34.0992 56.7557 31.7864C56.8746 31.312 56.7557 31.6085 57.8264 31.0748C60.6815 29.5922 62.7039 26.8642 61.2169 23.6619C60.9789 23.1875 60.3841 22.3572 60.0272 22.12C60.1462 21.8235 60.3246 20.2816 60.3246 19.9851C60.2651 17.9688 59.6108 17.0792 59.4919 16.6048C59.0755 16.6048 57.291 17.7316 56.9341 17.9688C56.9936 18.206 57.0531 18.206 57.172 18.5025C57.2315 18.6804 57.291 18.9769 57.291 19.1548C57.6479 20.8153 57.172 21.8235 56.3393 23.0688C57.4695 23.6619 58.7781 24.3735 58.7781 25.9154C58.7781 27.3387 56.8151 28.4654 55.6255 28.8806C54.9712 29.1771 53.96 29.4143 53.1867 29.5329C52.7703 29.5922 52.235 29.7108 51.8781 29.7108C51.4022 29.8294 50.8074 29.7701 50.3316 29.8294L47.4764 29.6515C46.6436 29.5329 45.7514 29.355 44.9781 29.1178C43.7885 28.7026 41.6471 27.8131 41.2902 26.5084C40.3385 26.7456 40.9928 26.8642 39.3868 26.8642C38.9109 26.8642 38.4945 26.7456 38.1971 26.5677C37.8402 26.4491 37.5428 26.1526 37.2454 26.0933C36.948 26.3305 36.7695 26.5084 36.4721 26.7456C36.1152 26.9829 35.9368 27.1015 35.5204 27.2794C33.9738 27.8131 32.1894 27.6352 30.8807 26.627C30.2859 26.1526 29.929 25.6782 29.5721 25.0258C28.0256 21.9421 29.9885 18.6211 32.5463 18.0874C32.7247 18.0281 32.9626 18.0281 33.1411 17.9688C32.6652 16.9606 32.9032 15.1222 33.6169 14.0548C33.7359 13.8769 33.7954 13.8175 33.9144 13.6396C34.3307 13.1059 34.6281 12.8094 35.223 12.4536C36.4721 11.6233 37.4238 11.3861 39.0893 11.3861C39.0893 10.971 37.1264 8.00584 41.0523 5.93022C41.0523 5.09998 41.2307 3.6174 41.5876 2.90576C40.398 2.90576 38.4945 3.97322 37.6023 4.80346C37.4238 5.04068 37.1859 5.3965 37.0075 5.63371C36.71 5.98953 36.5911 6.16744 36.4126 6.58256C36.0557 7.23489 35.7583 8.00584 35.7583 8.95469Z" fill="black"/>
<path fill-rule="evenodd" clip-rule="evenodd" d="M43.9072 5.6338C43.9072 7.5315 44.621 8.42105 45.5133 10.0222L47.1788 12.9281C47.3572 13.2246 48.1305 14.47 48.7253 15.7746C49.5581 15.5967 50.4503 15.7746 51.2236 16.3677L51.2831 16.427C52.1158 16.0119 53.0675 16.0119 53.9598 16.3677C54.7331 15.9526 55.3279 15.656 55.6253 15.4781C55.8632 15.3002 56.0417 15.2409 56.2796 15.063L58.2425 13.9955C59.9675 13.0467 61.871 12.0978 62.6442 10.2594C64.1313 6.70126 62.2873 3.43958 59.4917 2.43143C58.421 2.07561 57.2313 1.957 56.0417 2.25352C55.2684 2.43143 54.852 2.72795 54.5546 2.78725C54.3762 2.13491 53.3055 1.30467 52.7701 0.889548C51.8779 0.296516 50.8072 0 49.796 0H49.5581C47.7736 0 45.9296 0.889548 44.9184 2.43143C44.74 2.72795 44.5021 3.02446 44.3831 3.32098C44.1452 3.97331 43.9072 4.74425 43.9072 5.6338Z" fill="black"/>
</g>
<defs>
<clipPath id="clip0_198_3535">
<rect width="88.9888" height="80" fill="white" transform="translate(0.15625)"/>
</clipPath>
</defs>
</svg>
