<svg width="142" height="80" viewBox="0 0 142 80" fill="none" xmlns="http://www.w3.org/2000/svg">
<g clip-path="url(#clip0_198_3561)">
<path d="M80.6095 66.2475C80.6095 66.0477 80.787 65.8729 80.9898 65.8729C81.1927 65.8729 81.3449 66.0477 81.3449 66.2475V76.8364C81.3449 77.6855 80.9898 78.4847 80.4066 79.0591C79.8233 79.6335 79.0118 79.9831 78.1496 79.9831H3.36516C2.47758 79.9831 1.66609 79.6335 1.08282 79.0591C0.499561 78.4847 0.144531 77.6855 0.144531 76.8364V3.18876C0.144531 2.31468 0.499561 1.51552 1.08282 0.941119H1.10818C1.69145 0.366723 2.47758 0.0170898 3.36516 0.0170898H78.1496C79.0118 0.0170898 79.8233 0.366723 80.4066 0.941119C80.9898 1.51552 81.3449 2.31468 81.3449 3.18876V13.7776C81.3449 13.9774 81.1927 14.1273 80.9898 14.1273C80.787 14.1273 80.6095 13.9774 80.6095 13.7776V3.18876C80.6095 2.51447 80.3305 1.9151 79.874 1.46557C79.4429 1.01604 78.8089 0.741329 78.1496 0.741329H3.36516C2.68046 0.741329 2.07183 1.01604 1.61537 1.44059V1.46557C1.1589 1.9151 0.87995 2.51447 0.87995 3.18876V76.8364C0.87995 77.4857 1.1589 78.1101 1.61537 78.5596C2.07183 78.9841 2.68046 79.2588 3.36516 79.2588H78.1496C78.8089 79.2588 79.4429 78.9841 79.874 78.5596C80.3305 78.1101 80.6095 77.4857 80.6095 76.8364V66.2475Z" fill="black"/>
<path d="M28.0397 40.4497L18.9104 28.0877L16.3491 24.6164V47.4424H14.7261V21.7444H16.0701L28.0143 37.9524L39.9839 21.7444H41.3279V47.4424H39.7049V24.5914L37.169 28.0627L28.0397 40.4497Z" fill="black"/>
<path d="M44.9541 47.4424L57.9127 21.7444H58.8003L71.7842 47.4424H70.0851L67.2956 41.8483H49.4427L46.6278 47.4424H44.9541ZM50.1527 40.3748H66.5602L60.6261 28.4873L58.3691 23.9421C57.583 25.5654 56.8476 27.0888 56.0615 28.5373L50.1527 40.3748Z" fill="black"/>
<path d="M80.2036 47.4424V34.9056L69.147 21.7444H71.125L77.9213 29.8858L81.0151 33.5819L84.1089 29.8359L90.8291 21.7444H92.8072L81.8012 34.8556V47.4424H80.2036Z" fill="black"/>
<path d="M90.1699 47.4424L103.154 21.7444H104.041L117 47.4424H115.326L112.511 41.8483H94.6585L91.869 47.4424H90.1699ZM95.3939 40.3748H111.801L105.867 28.4873L103.585 23.9421C102.824 25.5654 102.063 27.0888 101.303 28.5373L95.3939 40.3748Z" fill="black"/>
<path d="M120.626 47.4424V21.7444H122.249V32.6829H139.976V21.7444H141.573V47.4424H139.976V34.1813H122.249V47.4424H120.626Z" fill="black"/>
<path d="M17.4395 58.1811L20.0768 52.6619H20.6854L23.3228 58.1811H22.6127L22.1056 57.1072H18.6821L18.1495 58.1811H17.4395ZM18.9356 56.5328H21.8266L20.9137 54.5848L20.3811 53.4361C20.2036 53.8856 20.0515 54.2602 19.8739 54.6098L18.9356 56.5328Z" fill="black"/>
<path d="M24.0581 58.1811V52.6619H26.3404C27.1012 52.6619 27.6845 52.8617 28.1156 53.2612C28.5213 53.6358 28.7242 54.1353 28.7242 54.7347C28.7242 55.1343 28.6228 55.5089 28.3945 55.8335C28.1663 56.1832 27.862 56.4329 27.4562 56.5827L28.7749 58.1811H27.9127L26.7715 56.7825C26.6194 56.7825 26.2897 56.8075 25.7572 56.8075H24.7428V58.1811H24.0581ZM24.7428 56.1832H26.4165C26.873 56.1832 27.2787 56.0583 27.5577 55.7836C27.862 55.4839 28.0141 55.1343 28.0141 54.7347C28.0141 54.3101 27.862 53.9605 27.5577 53.6858C27.2787 53.4111 26.8983 53.2612 26.4165 53.2612H24.7428V56.1832Z" fill="black"/>
<path d="M30.3725 53.411C30.9304 52.8616 31.6405 52.5869 32.452 52.5869C33.2635 52.5869 33.9482 52.8616 34.5061 53.411C35.0893 53.9605 35.3683 54.6348 35.3683 55.409C35.3683 56.1082 35.14 56.7076 34.7089 57.232L35.2415 57.7565L34.785 58.206L34.2525 57.6816C33.7199 58.0562 33.1367 58.256 32.452 58.256C31.6151 58.256 30.9304 57.9812 30.3725 57.4318C29.8146 56.8824 29.5356 56.2081 29.5356 55.409C29.5356 54.6348 29.8146 53.9605 30.3725 53.411ZM32.452 57.6316C32.9591 57.6316 33.3903 57.4818 33.7706 57.1821L33.0099 56.4579L33.4663 56.0083L34.2017 56.7575C34.5061 56.358 34.6329 55.9084 34.6329 55.409C34.6329 54.8096 34.43 54.2851 33.9989 53.8356C33.5931 53.411 33.0606 53.2113 32.452 53.2113C31.8433 53.2113 31.3108 53.411 30.8797 53.8356C30.4739 54.2851 30.2457 54.8096 30.2457 55.409C30.2457 56.0333 30.4739 56.5577 30.8797 56.9823C31.3108 57.4318 31.8433 57.6316 32.452 57.6316Z" fill="black"/>
<path d="M38.6397 58.256C37.9804 58.256 37.4478 58.0562 36.9914 57.6316C36.5349 57.2321 36.332 56.7076 36.332 56.0583V52.6619H37.0167V56.0583C37.0167 56.5078 37.1689 56.8824 37.4732 57.1821C37.8029 57.4818 38.1833 57.6316 38.6397 57.6316C39.0962 57.6316 39.4766 57.4818 39.7809 57.1821C40.1106 56.8824 40.2627 56.5078 40.2627 56.0583V52.6619H40.9474V56.0583C40.9474 56.7076 40.7192 57.2321 40.2627 57.6316C39.8316 58.0562 39.2737 58.256 38.6397 58.256Z" fill="black"/>
<path d="M42.1646 58.1811V52.6619H42.8746V58.1811H42.1646Z" fill="black"/>
<path d="M45.766 58.1811V53.2612H43.6865V52.6619H48.5301V53.2612H46.4507V58.1811H45.766Z" fill="black"/>
<path d="M49.3413 58.1811V52.6619H53.6017V53.2612H50.0514V54.9345H53.3481V55.5338H50.0514V57.5817H53.7031V58.1811H49.3413Z" fill="black"/>
<path d="M56.2645 58.1811V53.2612H54.1851V52.6619H59.0287V53.2612H56.9492V58.1811H56.2645Z" fill="black"/>
<path d="M62.0719 58.256C61.4379 58.256 60.88 58.0562 60.4489 57.6316C59.9924 57.2321 59.7642 56.7076 59.7642 56.0583V52.6619H60.4489V56.0583C60.4489 56.5078 60.6264 56.8824 60.9307 57.1821C61.235 57.4818 61.6407 57.6316 62.0719 57.6316C62.5283 57.6316 62.9341 57.4818 63.2384 57.1821C63.5427 56.8824 63.6948 56.5078 63.6948 56.0583V52.6619H64.4049V56.0583C64.4049 56.7076 64.1767 57.2321 63.7202 57.6316C63.2637 58.0562 62.7312 58.256 62.0719 58.256Z" fill="black"/>
<path d="M65.6221 58.1811V52.6619H67.9044C68.6652 52.6619 69.2484 52.8617 69.6796 53.2612C70.0853 53.6358 70.3135 54.1353 70.3135 54.7347C70.3135 55.1343 70.1867 55.5089 69.9585 55.8335C69.7556 56.1832 69.426 56.4329 69.0202 56.5827L70.3389 58.1811H69.4767L68.3355 56.7825C68.2087 56.7825 67.8537 56.8075 67.3211 56.8075H66.3068V58.1811H65.6221ZM66.3068 56.1832H67.9805C68.4623 56.1832 68.8427 56.0583 69.147 55.7836C69.426 55.4839 69.5781 55.1343 69.5781 54.7347C69.5781 54.3101 69.426 53.9605 69.147 53.6858C68.8427 53.4111 68.4623 53.2612 67.9805 53.2612H66.3068V56.1832Z" fill="black"/>
<path d="M70.77 58.1811L73.4074 52.6619H74.016L76.6534 58.1811H75.9433L75.4361 57.1072H72.0126L71.4801 58.1811H70.77ZM72.2662 56.5328H75.1572L74.2442 54.5848L73.7117 53.4361C73.5342 53.8856 73.382 54.2602 73.2045 54.6098L72.2662 56.5328Z" fill="black"/>
<path d="M79.1133 56.6077C79.1133 56.308 79.1894 56.0333 79.3669 55.7586C79.5444 55.4839 79.8233 55.2591 80.153 55.0843C79.8741 54.6847 79.7473 54.3101 79.7473 53.9605C79.7473 53.6108 79.8741 53.2862 80.153 53.0115C80.4066 52.7118 80.787 52.5869 81.2688 52.5869C81.9789 52.5869 82.4607 52.9116 82.7397 53.5859L82.1817 53.9105C82.1057 53.6858 81.9789 53.5109 81.8014 53.3861C81.6239 53.2362 81.4463 53.1863 81.2688 53.1863C81.0152 53.1863 80.8124 53.2612 80.6602 53.411C80.5334 53.5859 80.4573 53.7607 80.4573 53.9605C80.4573 54.3601 80.7616 54.9095 81.421 55.5838L82.5621 56.7825C82.7397 56.5328 82.8157 56.2581 82.8157 55.9084H83.4751C83.4751 56.1831 83.4244 56.4329 83.3483 56.6826C83.2468 56.9324 83.1454 57.1072 83.044 57.257L83.6272 57.8564L83.1708 58.2809L82.6129 57.6816C82.1564 58.0562 81.6238 58.256 80.9899 58.256C80.4827 58.256 80.0262 58.1061 79.6712 57.8314C79.2908 57.5567 79.1133 57.1571 79.1133 56.6077ZM79.798 56.5827C79.798 56.9074 79.9248 57.1571 80.153 57.3569C80.4066 57.5317 80.7109 57.6316 81.0406 57.6316C81.4717 57.6316 81.8521 57.5067 82.1564 57.232L80.5334 55.5838C80.3052 55.6837 80.1023 55.8335 79.9755 56.0083C79.8487 56.1831 79.798 56.3829 79.798 56.5827Z" fill="black"/>
<path d="M86.5688 58.1811V52.6619H87.2535V58.1811H86.5688Z" fill="black"/>
<path d="M88.5723 58.1811V52.6619H89.257L91.8943 56.0833C91.9958 56.2331 92.1226 56.383 92.2494 56.5578C92.3762 56.7076 92.4776 56.8575 92.5283 56.9574L92.6298 57.1322V52.6619H93.3145V58.1811H92.6298L90.0685 54.8346C89.9417 54.6847 89.8149 54.5099 89.6627 54.3351C89.5359 54.1603 89.4345 54.0104 89.3584 53.9106L89.257 53.7357V58.1811H88.5723Z" fill="black"/>
<path d="M96.2308 58.1811V53.2612H94.1514V52.6619H98.995V53.2612H96.9155V58.1811H96.2308Z" fill="black"/>
<path d="M99.8062 58.1811V52.6619H104.041V53.2612H100.491V54.9345H103.813V55.5338H100.491V57.5817H104.168V58.1811H99.8062Z" fill="black"/>
<path d="M105.132 58.1811V52.6619H107.414C108.175 52.6619 108.784 52.8617 109.189 53.2612C109.62 53.6358 109.823 54.1353 109.823 54.7347C109.823 55.1343 109.722 55.5089 109.494 55.8335C109.265 56.1832 108.961 56.4329 108.555 56.5827L109.874 58.1811H108.986L107.871 56.7825C107.718 56.7825 107.389 56.8075 106.856 56.8075H105.817V58.1811H105.132ZM105.817 56.1832H107.49C107.972 56.1832 108.352 56.0583 108.657 55.7836C108.961 55.4839 109.088 55.1343 109.088 54.7347C109.088 54.3101 108.961 53.9605 108.657 53.6858C108.352 53.4111 107.972 53.2612 107.49 53.2612H105.817V56.1832Z" fill="black"/>
<path d="M110.888 58.1811V52.6619H111.573V58.1811H110.888Z" fill="black"/>
<path d="M113.982 56.9823C114.413 57.4318 114.92 57.6316 115.529 57.6316C116.163 57.6316 116.67 57.4318 117.101 56.9823C117.507 56.5577 117.735 56.0333 117.735 55.409C117.735 54.8096 117.507 54.2851 117.101 53.8356C116.67 53.411 116.163 53.2113 115.529 53.2113C114.92 53.2113 114.413 53.411 113.982 53.8356C113.551 54.2851 113.348 54.8096 113.348 55.409C113.348 56.0333 113.551 56.5577 113.982 56.9823ZM113.475 53.411C114.033 52.8616 114.718 52.5869 115.529 52.5869C116.366 52.5869 117.051 52.8616 117.609 53.411C118.166 53.9605 118.445 54.6348 118.445 55.409C118.445 56.2081 118.166 56.8824 117.609 57.4318C117.051 57.9812 116.366 58.256 115.529 58.256C114.718 58.256 114.033 57.9812 113.45 57.4318C112.892 56.8824 112.613 56.2081 112.613 55.409C112.613 54.6348 112.892 53.9605 113.475 53.411Z" fill="black"/>
<path d="M119.51 58.1811V52.6619H121.793C122.553 52.6619 123.137 52.8617 123.568 53.2612C123.973 53.6358 124.202 54.1353 124.202 54.7347C124.202 55.1343 124.075 55.5089 123.847 55.8335C123.644 56.1832 123.314 56.4329 122.908 56.5827L124.227 58.1811H123.365L122.224 56.7825C122.072 56.7825 121.742 56.8075 121.209 56.8075H120.195V58.1811H119.51ZM120.195 56.1832H121.869C122.35 56.1832 122.731 56.0583 123.035 55.7836C123.314 55.4839 123.466 55.1343 123.466 54.7347C123.466 54.3101 123.314 53.9605 123.035 53.6858C122.731 53.4111 122.35 53.2612 121.869 53.2612H120.195V56.1832Z" fill="black"/>
<path d="M125.242 58.1811V52.6619H129.477V53.2612H125.926V54.9345H129.248V55.5338H125.926V57.5817H129.603V58.1811H125.242Z" fill="black"/>
<path d="M130.313 57.4069L130.618 56.9074C131.1 57.3819 131.734 57.6316 132.494 57.6316C132.875 57.6316 133.204 57.5567 133.509 57.3819C133.813 57.2071 133.965 56.9573 133.965 56.6327C133.965 56.5078 133.94 56.4079 133.864 56.308C133.813 56.2081 133.762 56.1332 133.686 56.0583C133.61 56.0083 133.483 55.9334 133.357 55.8835C133.204 55.8335 133.078 55.7836 132.976 55.7586C132.875 55.7336 132.748 55.6837 132.57 55.6337C132.317 55.5838 132.114 55.5088 131.962 55.4839C131.835 55.4339 131.658 55.384 131.429 55.2841C131.226 55.2092 131.074 55.1093 130.973 55.0094C130.846 54.9095 130.745 54.7846 130.669 54.6348C130.592 54.46 130.542 54.2851 130.542 54.0853C130.542 53.6108 130.745 53.2612 131.125 52.9865C131.505 52.7118 131.962 52.5869 132.494 52.5869C133.204 52.5869 133.838 52.7867 134.396 53.2113L134.067 53.7357C133.61 53.3861 133.078 53.2113 132.494 53.2113C132.19 53.2113 131.936 53.2862 131.658 53.411C131.404 53.5609 131.277 53.7857 131.277 54.0604C131.277 54.1852 131.302 54.2851 131.353 54.3601C131.404 54.4599 131.48 54.5349 131.531 54.5848C131.607 54.6597 131.708 54.7097 131.86 54.7596C131.987 54.8096 132.114 54.8595 132.241 54.8845C132.342 54.9095 132.494 54.9594 132.672 55.0094C132.9 55.0593 133.103 55.1093 133.281 55.1592C133.433 55.2092 133.61 55.2841 133.813 55.359C134.016 55.4589 134.168 55.5588 134.27 55.6587C134.396 55.7836 134.498 55.9084 134.574 56.0832C134.65 56.2331 134.675 56.4329 134.675 56.6327C134.675 57.1571 134.472 57.5567 134.041 57.8314C133.585 58.1061 133.078 58.256 132.494 58.256C131.607 58.256 130.871 57.9812 130.313 57.4069Z" fill="black"/>
</g>
<defs>
<clipPath id="clip0_198_3561">
<rect width="141.429" height="80" fill="white" transform="translate(0.144531)"/>
</clipPath>
</defs>
</svg>
