<svg width="159" height="80" viewBox="0 0 159 80" fill="none" xmlns="http://www.w3.org/2000/svg">
<g clip-path="url(#clip0_198_3593)">
<path fill-rule="evenodd" clip-rule="evenodd" d="M88.0055 21.0771L87.4731 20.8782L87.8724 19.7515L88.4048 20.0166C92.065 21.4085 95.1928 23.7283 97.7216 26.5783C100.051 29.3621 101.848 32.6098 102.713 36.2552H158.081L158.614 36.8517V73.9685L158.081 74.5651H126.005V73.372H157.482V37.4482H102.247L101.715 36.9843C100.849 33.3389 99.1857 30.0912 96.7899 27.3737C94.4607 24.5899 91.3995 22.4689 88.0055 21.0771Z" fill="black"/>
<path fill-rule="evenodd" clip-rule="evenodd" d="M32.7039 73.372H33.2363V74.5651H1.22638L0.627441 73.9685V36.8517L1.22638 36.2552H56.5283C57.4599 32.6098 59.1902 29.3621 61.586 26.5783C64.0483 23.7283 67.2426 21.4085 70.8362 20.0166L71.3686 19.7515L71.8344 20.8782L71.3021 21.0771C67.8415 22.4689 64.8468 24.5899 62.4511 27.3737C60.1219 30.0912 58.3916 33.3389 57.5931 36.9843L56.9941 37.4482H1.82532V73.372H32.7039Z" fill="black"/>
<path d="M22.9878 48.9808L21.923 54.5484H23.853C25.1174 54.5484 25.8494 54.0844 26.0491 53.2228L26.8476 48.9808H22.9878ZM19.6604 45.2029H28.6445C29.5096 45.2029 30.1085 45.468 30.6409 45.9982C31.1068 46.5285 31.3064 47.1913 31.1068 47.9866L30.1085 53.2228C29.7758 54.7472 28.9772 56.0065 27.5797 57.0007C26.2487 57.8624 24.7846 58.3263 23.1209 58.3263H21.191L19.7935 65.6171H15.6675L19.6604 45.2029Z" fill="black"/>
<path d="M37.1625 57.6635H39.1589L39.8244 48.9808L37.1625 57.6635ZM35.6984 61.4415L34.0347 65.6171H29.9087L37.8945 45.2029H43.285V65.6171H39.1589V61.4415H35.6984Z" fill="black"/>
<path d="M46.147 65.6171L50.1399 45.2029H54.1994L50.2064 65.6171H46.147Z" fill="black"/>
<path d="M63.0502 62.767H68.1744L67.5755 65.6171H59.4565L62.4512 50.3064H70.5702L70.0378 53.1564H64.9801L64.3146 56.5367H68.5072L67.9748 59.3868H63.7156L63.0502 62.767Z" fill="black"/>
<path d="M81.0183 45.2029H91.8657L91.1337 48.9808H84.3457L83.4806 53.4879H89.1372L88.4052 57.2658H82.7486L81.0849 65.6171H77.0254L81.0183 45.2029Z" fill="black"/>
<path d="M90.668 65.6171L94.6609 45.2029H98.7203L94.794 65.6171H90.668Z" fill="black"/>
<path d="M99.186 65.6171L103.179 45.2029H107.238L103.978 61.8392H109.634L108.902 65.6171H99.186Z" fill="black"/>
<path d="M117.487 57.2658L115.823 65.6171H111.764L115.757 45.2029H119.816L118.219 53.4879H122.079L123.676 45.2029H127.735L123.742 65.6171H119.683L121.347 57.2658H117.487Z" fill="black"/>
<path d="M135.322 48.9808L132.793 61.8392H136.653L139.182 48.9808H135.322ZM140.978 45.2029C141.777 45.2029 142.443 45.468 142.908 45.9982C143.441 46.5285 143.574 47.1913 143.441 47.9866L140.513 62.8334C140.38 63.5624 139.914 64.2253 139.248 64.7555C138.516 65.352 137.784 65.6171 136.986 65.6171H130.996C130.198 65.6171 129.532 65.352 129.066 64.7555C128.534 64.2253 128.401 63.5624 128.534 62.8334L131.395 47.9866C131.595 47.1913 131.994 46.5285 132.726 45.9982C133.392 45.468 134.19 45.2029 134.989 45.2029H140.978Z" fill="black"/>
<path fill-rule="evenodd" clip-rule="evenodd" d="M80.4858 1.52444C80.5524 1.39188 80.6189 1.19304 80.6189 0.994201C80.6189 0.46396 80.2196 0 79.6207 0C79.0883 0 78.6225 0.46396 78.6225 0.994201C78.6225 1.19304 78.689 1.39188 78.7556 1.52444C76.8257 1.85584 75.295 3.51284 75.1619 5.56752H74.8292C74.4299 5.56752 74.0972 5.89892 74.0972 6.2966C74.0972 6.69428 74.4299 6.9594 74.8292 6.9594H75.295H83.8133H84.4122C84.8115 6.9594 85.1442 6.69428 85.1442 6.2966C85.1442 5.9652 84.878 5.6338 84.5453 5.56752H80.2862L83.9464 5.3024C83.6802 3.44656 82.2826 1.92212 80.4858 1.52444ZM76.3598 3.9768C76.5595 3.9768 76.626 4.04308 76.626 4.24192C76.626 4.37448 76.5595 4.44076 76.3598 4.44076C76.2267 4.44076 76.1602 4.37448 76.1602 4.24192C76.1602 4.04308 76.2267 3.9768 76.3598 3.9768ZM78.8887 1.9884C77.7573 2.12096 76.8922 2.91632 76.5595 3.6454C77.0253 3.04888 78.3563 2.38608 79.1549 2.38608C79.0883 2.25352 78.8887 2.12096 78.8887 1.9884Z" fill="black"/>
<path fill-rule="evenodd" clip-rule="evenodd" d="M78.8221 37.4481C78.689 37.5807 78.6225 37.7795 78.6225 37.9784C78.6225 38.5086 79.0883 38.9726 79.6207 38.9726C80.2196 38.9726 80.6189 38.5086 80.6189 37.9784C80.6189 37.7795 80.5524 37.5807 80.4858 37.4481C82.4823 37.1167 84.0129 35.4597 84.0795 33.4051H84.4122C84.8115 33.4051 85.1442 33.0737 85.1442 32.676C85.1442 32.2783 84.8115 32.0132 84.4122 32.0132H83.9464H75.4947H74.8292C74.4299 32.0132 74.0972 32.2783 74.0972 32.676C74.0972 33.0074 74.3634 33.3388 74.6961 33.4051H79.0218L75.3616 33.6702C75.5612 35.526 76.9588 37.0505 78.8221 37.4481ZM82.8816 34.9958C82.7485 34.9958 82.6154 34.8632 82.6154 34.7307C82.6154 34.5981 82.7485 34.5318 82.8816 34.5318C83.0147 34.5318 83.1478 34.5981 83.1478 34.7307C83.1478 34.8632 83.0147 34.9958 82.8816 34.9958ZM80.4193 36.9842C81.4841 36.8516 82.3492 35.99 82.6819 35.3272C82.2826 35.9237 80.9517 36.5865 80.0865 36.5865C80.2196 36.7191 80.3527 36.8516 80.4193 36.9842Z" fill="black"/>
<path d="M37.9614 79.9999L39.6251 71.251H43.6181C44.2835 71.251 44.8159 71.4498 45.0821 71.7812C45.4149 72.1126 45.548 72.5103 45.548 72.9743C45.548 73.4382 45.4149 73.8359 45.1487 74.2336C44.8825 74.565 44.5497 74.8301 44.1504 74.9627C44.6163 75.0289 44.949 75.2278 45.2152 75.5592C45.548 75.9569 45.6811 76.3545 45.6811 76.8848C45.6811 77.8127 45.3483 78.6081 44.6828 79.1383C44.0839 79.6685 43.0857 79.9999 41.7547 79.9999H37.9614ZM38.5604 79.4697H41.8878C42.8195 79.4697 43.6181 79.2709 44.217 78.8069C44.8159 78.4092 45.0821 77.7464 45.0821 76.8848C45.0821 76.3545 44.949 75.9569 44.6163 75.6917C44.2835 75.3603 43.7512 75.2278 43.0857 75.2278H39.3589L38.5604 79.4697ZM39.492 74.6975H43.2188C43.6846 74.6975 44.1504 74.565 44.4832 74.2336C44.8159 73.9022 44.949 73.5045 44.949 72.9743C44.949 72.6429 44.8825 72.3777 44.6163 72.1126C44.3501 71.9138 44.0173 71.7812 43.5515 71.7812H40.091L39.492 74.6975Z" fill="black"/>
<path d="M47.145 79.9999L53.2009 71.251H53.4671L56.1291 79.9999H55.5967L54.9978 78.0778H49.0749L47.8105 79.9999H47.145ZM49.4077 77.6139H54.8647L53.2009 72.0463L49.4077 77.6139Z" fill="black"/>
<path d="M58.5913 79.9999L60.3216 71.251H63.2497C64.4476 71.251 65.3793 71.5161 65.9117 72.0463C66.444 72.5103 66.7102 73.1731 66.7102 73.9685C66.7102 74.8301 66.444 75.6255 65.9117 76.222C65.3793 76.8185 64.7138 77.2825 63.8486 77.4813L65.5789 79.9999H64.8469L63.2497 77.6139C62.8504 77.6801 62.3846 77.6801 61.9853 77.6801H59.5895L59.1237 79.9999H58.5913ZM59.6561 77.1499H62.1184C63.4494 77.1499 64.4476 76.8848 65.1131 76.2883C65.7786 75.6917 66.1113 74.9627 66.1113 73.9685C66.1113 73.2394 65.9117 72.7091 65.4458 72.3777C64.98 71.9801 64.3145 71.7812 63.4494 71.7812H60.7209L59.6561 77.1499Z" fill="black"/>
<path d="M68.7065 79.9999L70.3703 71.251H74.3632C75.0287 71.251 75.5611 71.4498 75.8272 71.7812C76.16 72.1126 76.2931 72.5103 76.2931 72.9743C76.2931 73.4382 76.16 73.8359 75.8938 74.2336C75.6276 74.565 75.2949 74.8301 74.8956 74.9627C75.3614 75.0289 75.6941 75.2278 75.9603 75.5592C76.2931 75.9569 76.4262 76.3545 76.4262 76.8848C76.4262 77.8127 76.0934 78.6081 75.428 79.1383C74.829 79.6685 73.8308 79.9999 72.4998 79.9999H68.7065ZM69.3055 79.4697H72.6329C73.5646 79.4697 74.3632 79.2709 74.9621 78.8069C75.5611 78.4092 75.8272 77.7464 75.8272 76.8848C75.8272 76.3545 75.6941 75.9569 75.3614 75.6917C75.0287 75.3603 74.4963 75.2278 73.8308 75.2278H70.1041L69.3055 79.4697ZM70.2372 74.6975H73.9639C74.4297 74.6975 74.8956 74.565 75.2283 74.2336C75.5611 73.9022 75.6941 73.5045 75.6941 72.9743C75.6941 72.6429 75.6276 72.3777 75.3614 72.1126C75.0952 71.9138 74.7625 71.7812 74.2966 71.7812H70.8361L70.2372 74.6975Z" fill="black"/>
<path d="M78.8223 79.9999L80.5525 71.251H86.9412L86.8746 71.7812H80.9518L80.3529 75.0289H85.8099L85.6768 75.4929H80.2198L79.4212 79.4697H85.5437L85.4771 79.9999H78.8223Z" fill="black"/>
<path d="M87.8726 79.9999L93.8619 71.251H94.1281L96.7901 79.9999H96.2577L95.7253 78.0778H89.7359L88.4715 79.9999H87.8726ZM90.0687 77.6139H95.5257L93.8619 72.0463L90.0687 77.6139Z" fill="black"/>
<path d="M99.2524 79.9999L100.983 71.251H103.911C105.175 71.251 106.04 71.5161 106.573 72.0463C107.105 72.5103 107.371 73.1731 107.371 73.9685C107.371 74.8301 107.105 75.6255 106.573 76.222C106.107 76.8185 105.375 77.2825 104.51 77.4813L106.24 79.9999H105.575L103.911 77.6139C103.512 77.6801 103.112 77.6801 102.713 77.6801H100.251L99.7848 79.9999H99.2524ZM100.384 77.1499H102.846C104.11 77.1499 105.109 76.8848 105.774 76.2883C106.44 75.6917 106.772 74.9627 106.772 73.9685C106.772 73.2394 106.573 72.7091 106.107 72.3777C105.641 71.9801 104.976 71.7812 104.11 71.7812H101.382L100.384 77.1499Z" fill="black"/>
<path d="M109.368 79.9999L111.031 71.251H111.564L109.9 79.9999H109.368Z" fill="black"/>
<path d="M112.429 79.9999L118.419 71.251H118.685L121.347 79.9999H120.814L120.282 78.0778H114.293L113.028 79.9999H112.429ZM114.625 77.6139H120.082L118.419 72.0463L114.625 77.6139Z" fill="black"/>
<path fill-rule="evenodd" clip-rule="evenodd" d="M83.9462 10.0084L79.4209 7.75488H83.9462V10.0084Z" fill="black"/>
<path fill-rule="evenodd" clip-rule="evenodd" d="M75.3613 8.28516L83.9461 12.5934V15.1783L75.3613 10.8701V8.28516Z" fill="black"/>
<path fill-rule="evenodd" clip-rule="evenodd" d="M75.3613 13.4551L83.9461 17.7633V20.3482L75.3613 16.04V13.4551Z" fill="black"/>
<path fill-rule="evenodd" clip-rule="evenodd" d="M75.3613 18.6248L83.9461 22.933V25.5179L75.3613 21.2097V18.6248Z" fill="black"/>
<path fill-rule="evenodd" clip-rule="evenodd" d="M75.3613 23.7947L83.9461 28.1029V30.6878L75.3613 26.3133V23.7947Z" fill="black"/>
<path fill-rule="evenodd" clip-rule="evenodd" d="M75.3613 28.9646L79.8866 31.2181H75.3613V28.9646Z" fill="black"/>
</g>
<defs>
<clipPath id="clip0_198_3593">
<rect width="158.095" height="80" fill="white" transform="translate(0.573242)"/>
</clipPath>
</defs>
</svg>
