<svg width="170" height="70" viewBox="0 0 170 70" fill="none" xmlns="http://www.w3.org/2000/svg">
<g clip-path="url(#clip0_198_3664)">
<path d="M74.7654 19.5706H78.5062C79.2544 19.5706 79.9194 20.0268 79.9194 20.8149C79.9194 21.8933 79.0881 22.6398 77.8827 22.6398H73.8926L74.7654 19.5706Z" fill="black"/>
<path d="M93.1362 19.5706H96.6692C98.3733 19.5706 98.4149 20.7319 98.4149 21.0637C98.4149 21.8103 97.7498 23.3035 95.7132 23.3035H92.1387C92.1387 23.3035 93.1362 19.695 93.1362 19.5706Z" fill="black"/>
<path d="M72.978 25.792H76.22C77.7995 25.792 77.8826 26.2068 78.132 26.5801C78.3398 26.9533 78.2151 27.7414 78.0904 27.9903C77.8826 28.3221 77.5916 29.359 75.555 29.359H71.9805L72.978 25.792Z" fill="black"/>
<path d="M107.144 16.2524V44.5812H62.2959V16.2524H70.9412L66.1614 32.7602H75.9289C80.1685 32.7602 80.9167 31.7648 81.7895 31.0597C82.9117 30.1057 83.5352 27.783 83.0364 26.2069C82.6624 25.087 81.5817 24.4234 81.4986 24.3819C82.787 23.7598 83.5768 22.391 83.6599 22.2251C84.1587 21.1882 84.5327 19.3632 83.3274 17.87C82.2883 16.6257 80.3348 16.2939 78.88 16.2524H89.3958L84.5743 32.8017H89.4373L91.2246 26.5387H94.0094C96.0045 26.5387 95.8382 27.783 95.8798 28.3222L96.046 32.9261H100.535C100.535 32.9261 100.327 27.7415 100.327 27.3682C100.244 26.041 99.3712 25.4603 98.623 25.4603C100.078 25.0455 101.325 23.7598 101.823 22.8887C102.405 21.9348 102.821 20.4001 102.281 18.8655C101.449 16.6672 99.288 16.2939 97.7917 16.2524H107.144Z" fill="black"/>
<path d="M62.2959 10.8604H107.144V0.0349121H62.2959V10.8604Z" fill="black"/>
<path d="M32.4942 69.5088H18.6533L23.3501 53.001H36.9L35.7778 56.8168H27.7143L27.0493 59.2225H33.8658L32.7851 63.0799H25.9271L25.1789 65.6514H33.6164L32.4942 69.5088Z" fill="black"/>
<path d="M13.2498 58.6004C12.8757 59.9276 11.9198 60.4668 10.756 60.5083H8.26212L9.30123 56.8168H10.8391C12.0029 56.8168 13.6655 57.0242 13.2498 58.6004ZM12.9589 53.001H4.97855L0.240234 69.5088H5.68514L7.13989 64.3656H9.88313C10.1741 64.3656 10.465 64.3656 10.756 64.3242C14.9955 64.0753 17.4894 61.9185 18.4454 58.5589C19.3598 55.1578 17.6972 53.001 12.9589 53.001Z" fill="black"/>
<path d="M40.3079 53.001L39.1025 57.356H43.9655L40.4742 69.5088H45.8775L49.3689 57.356H54.2735L54.8969 55.1578L55.5204 53.001H40.3079Z" fill="black"/>
<path d="M67.5324 58.5589C67.1999 59.5958 66.3686 60.052 64.9554 60.135H62.3369L63.2929 56.8168H65.8283C67.0752 56.8168 67.8234 57.3975 67.5324 58.5589ZM66.7843 53.001H58.9702L54.8969 67.352L54.2734 69.5088H59.7183L61.3393 63.7435H62.9604C63.9579 63.7435 64.5814 63.8679 64.9554 64.1168C65.4958 64.5315 65.4126 65.3196 65.0386 66.6469C64.997 66.7298 64.997 66.8128 64.9554 66.9372C64.6229 68.223 64.4567 69.177 64.4982 69.5088H70.0263L70.151 69.011C69.4859 69.011 69.7769 68.2645 70.4003 66.1077C71.3563 62.7895 70.4003 62.3747 68.8625 61.7111C70.9407 61.2134 72.2292 59.5958 72.7695 57.6879C73.6839 54.4941 72.3123 53.001 66.7843 53.001Z" fill="black"/>
<path d="M87.3173 61.1719C86.6939 63.3287 85.6548 65.0707 84.0338 65.6928C83.6181 65.8173 83.1609 65.9002 82.7037 65.9002C80.0852 65.9002 80.2099 63.2872 80.8333 61.1719C81.2905 59.4713 82.3296 57.5219 84.0338 56.8168C84.4078 56.6924 84.8235 56.6094 85.3222 56.6094C87.733 56.5265 87.9408 58.9321 87.3173 61.1719ZM86.486 52.5447C85.6548 52.5447 84.8235 52.6691 84.0338 52.835C79.9605 53.706 76.6353 56.7753 75.3468 61.0889C73.809 66.7298 76.3444 69.965 81.5399 69.965C82.4128 69.965 83.244 69.8405 84.0338 69.6746C87.9408 68.8036 91.4322 65.8173 92.7622 61.1719C94.0092 56.8168 92.4297 52.5447 86.486 52.5447Z" fill="black"/>
<path d="M107.061 58.1856C106.811 59.0981 105.897 59.5958 104.775 59.5958H102.53L103.32 56.8168H105.232C106.396 56.8168 107.435 56.8583 107.061 58.1856ZM105.98 64.1168C105.647 65.3196 104.65 65.6099 103.444 65.6514H100.826L101.699 62.6236H103.444C105.149 62.6236 106.396 62.7066 105.98 64.1168ZM106.936 53.001H98.9555L94.2588 69.5088H102.364C102.738 69.5088 103.07 69.5088 103.444 69.4673C107.185 69.2599 109.97 67.9327 110.926 64.5315C111.425 62.748 110.926 61.2134 109.222 60.7572C110.469 60.0935 111.965 58.8492 112.422 57.1487C113.337 53.872 110.635 53.001 106.936 53.001Z" fill="black"/>
<path d="M131.708 69.011L131.375 69.5087H131.708V69.011Z" fill="black"/>
<path d="M126.554 58.5589C126.263 59.5958 125.39 60.052 124.018 60.135H121.4L122.356 56.8168H124.85C126.097 56.8168 126.886 57.3975 126.554 58.5589ZM131.708 54.7015C131.001 53.5402 129.172 53.001 125.806 53.001H117.992L113.295 69.5088H118.698L120.361 63.7435H122.023C123.021 63.7435 123.644 63.8679 124.018 64.1168C124.559 64.5315 124.476 65.3196 124.102 66.6469C124.06 66.7298 124.018 66.8128 124.018 66.9372C123.644 68.223 123.52 69.177 123.561 69.5088H129.048L129.172 69.011C128.549 69.011 128.84 68.2645 129.463 66.1077C130.419 62.7895 129.463 62.3747 127.884 61.7111C129.879 61.2134 131.168 59.7617 131.708 58.0197C131.791 57.8952 131.791 57.8123 131.833 57.6879C132.207 56.4436 132.207 55.4481 131.708 54.7015Z" fill="black"/>
<path d="M169.157 57.7708C169.199 57.4804 169.241 57.1486 169.241 56.8583C169.241 54.4111 167.62 52.5447 163.546 52.5447C159.39 52.5447 155.857 54.3282 154.859 57.8537C153.072 64.1167 163.089 62.4162 162.382 64.9463C162.175 65.6928 161.136 66.1491 159.764 66.1491C159.265 66.1491 158.725 65.9832 158.351 65.7343C157.977 65.444 157.769 65.0292 157.81 64.4485H152.615C151.908 67.3934 153.987 69.965 158.392 69.965C162.923 69.965 166.705 68.057 167.744 64.2412C169.49 58.2685 159.515 59.7617 160.221 57.3145C160.387 56.7338 161.011 56.3606 162.216 56.3606C162.715 56.3606 163.214 56.4435 163.546 56.6509C163.879 56.8583 164.087 57.2316 163.962 57.7708H169.157Z" fill="black"/>
<path d="M139.979 63.9094L141.683 60.8816L143.346 57.9782L143.429 63.9094H139.979ZM148.791 69.5088L147.586 53.001H142.057L141.683 53.5402L131.708 69.011V69.5088H136.696L137.984 67.352H143.388V69.5088H148.791Z" fill="black"/>
</g>
<defs>
<clipPath id="clip0_198_3664">
<rect width="169" height="70" fill="white" transform="translate(0.240234)"/>
</clipPath>
</defs>
</svg>
