<svg width="154" height="62" viewBox="0 0 154 62" fill="none" xmlns="http://www.w3.org/2000/svg">
<g clip-path="url(#clip0_198_3625)">
<path fill-rule="evenodd" clip-rule="evenodd" d="M17.9506 0.0380859C22.967 0.0380859 27.0214 4.07288 27.0214 9.06508C27.0214 12.0741 25.5439 14.7411 23.2762 16.3824C22.7265 16.0405 21.9019 16.485 21.3865 16.7243C17.8132 18.434 16.645 16.6901 15.786 17.7501C15.7517 17.7843 15.7517 17.8185 15.7173 17.8527C11.766 16.8611 8.87988 13.305 8.87988 9.06508C8.87988 4.07288 12.9342 0.0380859 17.9506 0.0380859Z" fill="black"/>
<path fill-rule="evenodd" clip-rule="evenodd" d="M69.0425 11.2877C68.0804 8.0735 66.0189 5.26966 63.2015 3.32065C60.7276 1.61099 57.5323 0.516814 54.5087 0.345848C51.8287 0.174882 49.1143 0.5852 46.6405 1.64519C44.4759 2.5684 42.6892 3.86774 41.3149 5.26966C40.0436 6.53481 38.9441 8.0735 38.2569 9.71477C36.7451 13.2367 37.0887 16.8953 37.0887 22.1269C37.0887 28.2817 37.02 34.4706 37.0887 40.5912C40.2841 40.6938 42.6892 39.0183 44.0292 37.3428C46.0564 34.8467 46.022 32.8293 45.9877 29.0681C47.3277 29.4784 47.3964 29.6836 49.08 30.0939C52.0692 30.8461 55.2646 30.8119 58.2194 29.9571C60.2122 29.41 61.7927 28.692 63.2702 27.5978C68.5958 23.7682 70.9666 17.545 69.0425 11.2877ZM46.0908 16.5876C46.5718 19.9727 50.3169 23.1527 54.5087 22.503C58.0133 21.9559 61.4148 18.6734 60.6933 14.365C60.1092 10.8773 56.6046 7.83415 52.3097 8.41543C48.6333 8.92833 45.4723 12.416 46.0908 16.5876Z" fill="black"/>
<path fill-rule="evenodd" clip-rule="evenodd" d="M143.635 20.9985L132.469 20.9643C133.431 19.4598 135.905 18.3999 138.275 18.3999C139.375 18.4341 140.543 18.7076 141.505 19.2205C142.33 19.6308 143.017 20.2121 143.635 20.9985ZM151.882 32.4191C151.332 32.1797 150.748 31.6668 150.095 31.3249C148.205 30.4017 145.903 30.1965 143.91 30.7436C142.639 31.0855 140.818 31.9745 139.306 32.4532C137.21 33.0003 134.977 32.0771 133.637 31.1539C132.434 30.2991 130.751 28.0765 130.854 26.572H153.634C154.012 20.7592 151.091 15.5618 146.384 12.6896C144.013 11.2535 141.471 10.5012 138.722 10.3987C130.682 10.1251 123.879 15.4934 122.573 23.3579C122.299 25.0333 122.264 26.9823 122.848 29.1365C123.879 32.932 126.319 36.2145 129.686 38.2319C134.393 41.0699 139.822 41.4802 144.975 39.0525C147.243 37.9925 151.057 34.9493 151.882 32.4191Z" fill="black"/>
<path fill-rule="evenodd" clip-rule="evenodd" d="M99.0379 28.0765C99.0723 25.6146 99.3128 19.5282 98.5913 17.5792C97.6979 14.2625 93.6436 11.1167 90.1046 11.4587C89.9672 13.1341 90.1046 23.3579 90.1046 25.9565C90.1046 29.2733 90.2764 32.932 85.9128 32.5216C80.6903 32.0771 84.0231 22.4005 82.5113 17.716C81.4118 14.3651 78.3883 11.4245 73.956 11.4587C73.9216 15.4934 73.956 19.5282 73.956 23.5972C73.956 25.5462 73.8529 27.7004 74.0247 29.6494C75.2272 44.8996 98.9005 44.6944 99.0379 28.0765Z" fill="black"/>
<path fill-rule="evenodd" clip-rule="evenodd" d="M4.6196 59.2607L6.47498 55.7046C6.74985 55.0891 7.02472 54.4394 7.29959 53.824C7.5401 53.2427 7.84933 52.3878 8.12421 51.875C8.60523 52.593 8.94882 56.7646 8.91446 57.9271C8.12421 58.1665 7.50575 58.2349 6.68113 58.5084C5.99396 58.782 5.3755 59.0897 4.6196 59.2607ZM15.5801 18.3999C15.5457 18.6392 15.5801 18.8102 15.7519 19.0495C16.0955 19.665 16.2329 19.2547 16.8857 21.3063C17.6416 23.6998 18.1226 26.6404 19.3939 28.8288C19.6001 29.2391 20.0467 29.6836 20.1842 30.1281C19.9093 30.6752 15.1678 33.3423 14.2401 33.9235C13.5529 34.3681 12.8657 34.7442 12.2473 35.2229C9.29241 37.4454 11.4227 36.1119 8.05549 37.5822C6.5437 38.2319 5.47857 39.3603 5.30678 41.3777C5.13498 43.566 6.50934 44.5576 7.23088 45.9937C8.33036 48.2163 7.29959 49.1737 6.3719 50.7808C4.75704 53.5162 3.14217 56.2859 1.49295 58.9871C0.118591 61.2439 0.290386 61.9619 3.38268 61.9619C5.58165 61.9619 7.74626 61.9277 9.94522 61.9277C12.0068 61.8935 14.2744 62.0987 16.1642 61.5174C19.978 60.3549 18.3975 61.5858 21.2836 61.8252C26.678 62.3039 27.537 53.824 21.7303 53.8923C20.2529 53.9265 20.3216 54.6446 19.2221 54.4394C17.5385 54.0975 18.2944 55.1575 17.4011 55.6704C16.336 56.2517 15.9924 55.9097 15.958 57.4484C15.4083 56.7646 16.1985 54.9865 14.8585 51.5672C14.2057 49.8234 13.175 48.4898 13.175 46.2331C13.175 45.2757 13.2093 43.7028 13.3468 42.848C13.5185 41.8564 14.618 41.2409 15.8893 40.3861C18.6724 38.5396 22.1083 34.9151 23.7575 32.1455C24.3072 31.1881 24.3759 30.5042 23.9293 29.3759C23.2421 27.7004 22.3831 26.3327 21.5585 24.7598C18.3631 18.776 18.2601 20.4856 21.696 18.5024C22.177 18.2289 22.5206 17.9895 22.9329 17.6818C23.3795 17.3741 23.7918 17.0663 23.3108 16.3825C22.7267 16.0405 21.9021 16.485 21.3867 16.7244C17.8134 18.434 16.6452 16.6902 15.7862 17.7502C15.6144 17.9895 15.6144 18.1263 15.5801 18.3999Z" fill="black"/>
<path fill-rule="evenodd" clip-rule="evenodd" d="M109.414 12.5186C105.909 14.1941 103.985 16.9637 103.435 21.2379C103.092 23.8708 103.264 37.0009 103.264 40.6254C107.902 40.5912 111.338 37.377 112.06 33.4106C112.437 31.4616 112.231 27.8714 112.231 25.7172C112.231 24.452 112.128 23.1527 112.403 21.9559C113.125 18.8444 115.427 19.0153 117.935 19.665L117.901 11.3219C115.495 10.9457 111.647 11.4244 109.414 12.5186Z" fill="black"/>
<path fill-rule="evenodd" clip-rule="evenodd" d="M124.704 61.5516H134.805C134.771 61.0387 134.771 60.9361 134.462 60.5941C133.843 59.8419 132.537 60.1154 131.266 60.1154C129.617 60.1154 127.899 60.1496 126.25 60.0812V55.3284L132.4 55.2942C133.087 55.3284 133.74 55.3968 133.809 54.6445C133.912 53.4136 131.404 53.8581 130.476 53.8581C129.102 53.8581 127.658 53.8923 126.284 53.8581L126.25 49.1736H134.702C134.633 48.353 134.358 47.9427 133.637 47.8059H124.704V61.5516Z" fill="black"/>
<path fill-rule="evenodd" clip-rule="evenodd" d="M36.9512 61.5858C39.2532 61.1071 38.3942 59.7052 38.566 56.6962C40.8681 56.5594 42.9296 57.0381 44.9224 56.0465C46.3999 55.3285 47.6368 53.8924 47.3619 51.5672C46.8122 46.9853 41.3147 47.635 36.9512 47.7376V61.5858ZM38.566 55.2259C41.0055 55.2601 45.747 55.8414 45.747 52.1827C45.747 48.6608 41.624 49.2079 38.566 49.2079V55.2259Z" fill="black"/>
<path fill-rule="evenodd" clip-rule="evenodd" d="M84.8818 61.5858C87.3213 61.2439 87.1152 59.8078 88.1459 57.9271H95.6018C96.4264 58.9871 96.5982 61.6542 99.0033 61.5174L92.6813 47.635L91.1695 47.6692L84.8818 61.5858ZM88.7987 56.4568H94.9833C94.6054 55.3285 93.9869 54.1317 93.5059 53.0375C93.1967 52.3879 92.2346 49.926 91.8567 49.6182L88.7987 56.4568Z" fill="black"/>
<path fill-rule="evenodd" clip-rule="evenodd" d="M142.983 59.4999C143.223 59.9102 143.017 59.6367 143.327 59.876C143.43 59.9786 143.567 60.047 143.739 60.1838C146.969 62.6457 153.016 62.4063 153.394 58.1322C153.703 54.3709 149.477 54.1658 147.312 53.4477C143.258 52.1142 145.148 48.2846 149.202 49.071C150.37 49.3103 152.329 50.7123 152.947 49.2078C152.088 48.3187 150.404 47.7375 149.133 47.5665C145.663 47.1562 142.811 49.2078 143.636 52.3877C144.598 56.2174 151.504 54.5077 151.779 57.6877C151.848 58.6109 151.47 59.158 151.023 59.5683C150.026 60.4573 148.102 60.4573 146.694 60.047C145.422 59.6367 144.117 58.1664 142.983 59.4999Z" fill="black"/>
<path fill-rule="evenodd" clip-rule="evenodd" d="M115.805 49.2079C115.667 48.0795 115.083 47.7375 114.087 47.7375H104.913C104.638 49.7208 108.04 49.2079 109.517 49.2079L109.552 61.5516C110.72 61.4832 111.166 60.7993 111.166 59.6368C111.166 57.2774 110.995 50.6098 111.201 49.2079H115.805Z" fill="black"/>
<path fill-rule="evenodd" clip-rule="evenodd" d="M67.8398 61.5516L77.2542 61.5858C77.1511 59.8419 75.6737 60.0813 74.1275 60.0813C72.547 60.0813 71.0009 60.0813 69.4547 60.0813C69.386 57.7561 69.4547 55.3968 69.4547 53.0717C69.4547 50.2337 69.9701 47.8743 67.8398 47.7375V61.5516Z" fill="black"/>
<path fill-rule="evenodd" clip-rule="evenodd" d="M56.2951 61.4833C57.8756 61.791 57.8756 59.9104 57.8756 59.1582V51.4989C57.8756 50.2337 58.2536 48.1138 56.7074 47.7718C56.2951 47.6693 56.2951 47.7718 56.2607 48.1138L56.2951 61.4833Z" fill="black"/>
</g>
<defs>
<clipPath id="clip0_198_3625">
<rect width="153" height="62" fill="white" transform="translate(0.668457)"/>
</clipPath>
</defs>
</svg>
