<svg width="113" height="94" viewBox="0 0 113 94" fill="none" xmlns="http://www.w3.org/2000/svg">
<g clip-path="url(#clip0_198_3640)">
<path fill-rule="evenodd" clip-rule="evenodd" d="M56.6442 0.0900879C71.3391 0.0900879 83.2303 12.0176 83.2303 26.7088C83.2303 41.4484 71.3391 53.3274 56.6442 53.3274C41.9977 53.3274 30.1064 41.4484 30.1064 26.7088C30.1064 12.0176 41.9977 0.0900879 56.6442 0.0900879ZM67.1336 18.3692L70.5657 16.3813C68.6321 12.8418 64.8134 10.4176 60.4629 10.4176C57.8043 10.4176 55.3391 11.3388 53.4055 12.8903C50.6986 14.9752 49.0067 18.2722 49.0067 21.9087C49.0067 24.139 49.5868 26.1754 50.6503 27.9209L67.1336 18.3692ZM51.5203 30.3937L50.1669 31.1694L44.9947 34.1756L42.7711 35.4847C45.2364 39.9939 50.0219 43.0485 55.4841 43.0485C63.2182 43.0485 69.5506 36.9877 70.0339 29.3755C70.0339 29.0361 70.0339 28.7452 70.0339 28.4542C70.0339 25.6906 69.2605 23.1208 67.9554 20.8905L51.5203 30.3937ZM43.3995 32.4301L49.4901 28.8906C48.9584 27.6785 47.7499 26.9027 46.3481 26.9027C44.3663 26.9027 42.8194 28.5027 42.8194 30.4422C42.8194 31.1694 43.0128 31.8482 43.3995 32.4301Z" fill="black"/>
<path d="M13.3815 81.6916C13.3815 77.9097 11.2546 76.843 8.49934 76.0672C6.51747 75.4854 5.98575 75.3399 5.98575 74.1763C5.98575 73.1581 6.66249 72.7702 7.77427 72.7702C8.64436 72.7702 9.41777 72.8671 10.1912 73.1096C10.9163 73.3035 11.738 72.9156 11.9797 72.1883L12.3181 71.1701C12.5598 70.4429 12.1731 69.6186 11.3996 69.3762C10.2879 68.9883 9.03107 68.7943 7.24255 68.7943C3.42381 68.7943 1.15191 70.6368 1.15191 74.2247C1.15191 77.6187 2.79542 78.9764 5.40569 79.7521C7.67759 80.4309 8.451 80.7218 8.451 81.9825C8.451 83.0492 7.67759 83.534 6.03409 83.534C4.97064 83.534 4.00387 83.2916 3.08545 82.9037C2.36037 82.5643 1.58696 82.9037 1.24859 83.631L0.765204 84.7946C0.475174 85.4734 0.813542 86.2977 1.53862 86.5886C2.89209 87.1704 4.72895 87.6068 6.85584 87.6068C11.3996 87.6068 13.3815 85.425 13.3815 81.6916ZM26.7712 87.1704C27.5447 87.1704 28.1731 86.5401 28.1731 85.7644V74.5641C28.1731 70.3944 26.2395 68.7943 21.7441 68.7943C19.4722 68.7943 17.6353 69.3277 15.9918 70.2489C15.3634 70.6368 15.1217 71.4611 15.4601 72.1399L15.8951 73.0611C16.2818 73.7399 17.1519 74.0308 17.8286 73.6914C18.8921 73.1581 20.0522 72.8187 21.2607 72.8187C22.9525 72.8187 23.2425 73.5459 23.2425 75.3399V76.0187H22.1791C16.8619 76.0187 14.3966 77.7157 14.3966 81.8855C14.3966 85.425 15.9435 87.6068 19.6655 87.6068C21.599 87.6068 22.9042 86.7826 23.8226 85.7644C23.9676 86.6856 24.4027 87.1704 25.1761 87.1704H26.7712ZM19.2788 81.7885C19.2788 79.8976 19.8105 79.0733 23.0009 79.0733H23.2425V83.2916C22.6625 83.7764 22.0341 84.2128 21.0673 84.2128C19.7622 84.2128 19.2788 83.5825 19.2788 81.7885ZM36.729 87.4129C37.5024 87.2674 37.9857 86.7341 37.9374 85.9583L37.8407 85.2795C37.7924 84.5037 37.2123 84.0189 36.4873 83.728C36.0039 83.534 35.8589 83.0976 35.8589 82.2734V62.9276C35.8589 62.1518 35.1821 61.5215 34.457 61.5215H32.2818C31.5567 61.5215 30.9283 62.1518 30.9283 62.9276V81.8855C30.9283 85.8128 31.5567 87.5583 35.2305 87.5583C35.8105 87.5583 36.2939 87.4614 36.729 87.4129ZM49.1036 85.3765L49.2486 85.8128C49.3936 86.5886 50.1187 87.1704 50.9404 87.1704H52.1489C52.9223 87.1704 53.5507 86.5401 53.5507 85.7644V70.6368C53.5507 69.9095 52.9223 69.2307 52.1489 69.2307H50.022C49.2486 69.2307 48.6202 69.9095 48.6202 70.6368V82.5158C47.8468 83.1946 47.17 83.631 46.1066 83.631C45.0431 83.631 44.3664 83.2431 44.3664 81.4976V70.6368C44.3664 69.9095 43.738 69.2307 42.9646 69.2307H40.8377C40.0643 69.2307 39.4359 69.9095 39.4359 70.6368V82.4188C39.4359 85.9583 41.5145 87.6068 44.4148 87.6068C46.7833 87.6068 47.8468 86.7341 49.1036 85.3765ZM68.0522 81.6916C68.0522 77.9097 65.9253 76.843 63.17 76.0672C61.1882 75.4854 60.6564 75.3399 60.6564 74.1763C60.6564 73.1581 61.3815 72.7702 62.445 72.7702C63.3151 72.7702 64.1368 72.8671 64.9102 73.1096C65.6353 73.3035 66.4087 72.9156 66.6987 72.1883L66.9888 71.1701C67.2305 70.4429 66.8438 69.6186 66.1187 69.3762C64.9586 68.9883 63.7018 68.7943 61.9132 68.7943C58.0945 68.7943 55.8226 70.6368 55.8226 74.2247C55.8226 77.6187 57.4661 78.9764 60.1247 79.7521C62.3966 80.4309 63.17 80.7218 63.17 81.9825C63.17 83.0492 62.3966 83.534 60.7531 83.534C59.6897 83.534 58.6746 83.2916 57.7561 82.9037C57.0794 82.5643 56.2577 82.9037 55.9676 83.631L55.4359 84.7946C55.1942 85.4734 55.5326 86.2977 56.2093 86.5886C57.6111 87.1704 59.3996 87.6068 61.5265 87.6068C66.0703 87.6068 68.0522 85.425 68.0522 81.6916ZM73.5628 93.91C74.3362 93.91 74.9646 93.2796 74.9646 92.5524V85.9583C75.8347 86.7826 77.1882 87.6068 79.0734 87.6068C83.0854 87.6068 85.019 85.328 85.019 77.8127C85.019 70.7823 82.8438 68.7943 79.0734 68.7943C77.2365 68.7943 75.7864 69.5701 74.4812 70.9762L74.4329 70.6368C74.1912 69.8125 73.4661 69.2307 72.6444 69.2307H71.4359C70.6625 69.2307 70.0341 69.9095 70.0341 70.6368V92.5524C70.0341 93.2796 70.6625 93.91 71.4359 93.91H73.5628ZM74.9646 82.7098V73.7884C75.6413 73.2065 76.3664 72.7702 77.4782 72.7702C79.3151 72.7702 79.7018 73.6914 79.7018 78.1036C79.7018 82.6613 79.2184 83.6795 77.3332 83.6795C76.2697 83.6795 75.4963 83.1946 74.9646 82.7098ZM101.792 78.2491C101.792 71.5096 98.9888 68.7943 94.0583 68.7943C89.1277 68.7943 86.3241 71.4126 86.3241 78.1036C86.3241 84.8431 89.1277 87.6068 94.0583 87.6068C98.9888 87.6068 101.792 84.9886 101.792 78.2491ZM91.593 78.2491C91.593 73.4975 92.1247 72.4793 94.0583 72.4793C95.9918 72.4793 96.5235 73.4005 96.5235 78.1036C96.5235 82.7098 95.9918 83.9704 94.1066 83.9704C92.1247 83.9704 91.593 82.8067 91.593 78.2491ZM104.403 73.0126V83.1461C104.403 86.5886 106.385 87.6068 109.43 87.6068C110.3 87.6068 110.977 87.5098 111.557 87.3644C112.33 87.122 112.765 86.3462 112.62 85.6189L112.33 84.2613C112.282 83.8734 111.895 83.631 111.508 83.728C111.267 83.8249 110.977 83.8734 110.687 83.8734C109.817 83.8734 109.333 83.534 109.333 81.9825V73.0126H111.218C111.992 73.0126 112.62 72.3823 112.62 71.6065V70.6368C112.62 69.9095 111.992 69.2307 111.218 69.2307H109.333V65.4488C109.333 64.7215 108.753 64.1882 108.028 64.2852L105.756 64.6246C104.983 64.7215 104.403 65.4488 104.403 66.2731V69.2307H104.016C103.243 69.2307 102.614 69.9095 102.614 70.6368V71.6065C102.614 72.3823 103.243 73.0126 104.016 73.0126H104.403Z" fill="black"/>
</g>
<defs>
<clipPath id="clip0_198_3640">
<rect width="112" height="94" fill="white" transform="translate(0.668457)"/>
</clipPath>
</defs>
</svg>
