<svg width="70" height="80" viewBox="0 0 70 80" fill="none" xmlns="http://www.w3.org/2000/svg">
<g clip-path="url(#clip0_198_3644)">
<path d="M6.38225 76.1703L1.64061 67.9028C1.51903 67.7812 1.51903 67.7812 1.39745 67.7812C1.39745 67.7812 1.39745 67.7812 1.27587 67.7812H0.667969V79.6961H1.39745V69.4834C1.39745 69.3618 1.39745 69.2402 1.39745 68.9971L6.26067 77.3861C6.26067 77.5077 6.38225 77.6293 6.62542 77.6293H6.747C6.86858 77.6293 6.99016 77.5077 6.99016 77.3861L11.7318 68.9971C11.7318 69.2402 11.7318 69.3618 11.7318 69.4834V79.6961H12.4613V67.7812H11.8534H11.7318C11.6102 67.7812 11.6102 67.7812 11.6102 67.9028L6.86858 76.1703C6.86858 76.2919 6.747 76.4135 6.747 76.4135C6.747 76.5351 6.62542 76.6566 6.62542 76.7782C6.62542 76.535 6.50383 76.4135 6.38225 76.1703Z" fill="black"/>
<path d="M33.8593 75.3192L36.291 69.3618C36.291 69.2402 36.4125 69.1186 36.4125 68.9971C36.4125 68.8755 36.5341 68.7539 36.5341 68.6323C36.5341 68.7539 36.6557 68.8755 36.6557 68.9971C36.6557 69.1186 36.7773 69.2402 36.7773 69.3618L39.2089 75.3192H33.8593ZM37.0204 67.7812H36.1694L31.1846 79.6961H31.9141H32.0356C32.1572 79.5746 32.1572 79.5746 32.1572 79.453L33.6162 76.0487H39.452L40.911 79.453C40.911 79.5746 40.911 79.5746 41.0326 79.6961H41.1542H41.8837L37.0204 67.7812Z" fill="black"/>
<path d="M45.1665 67.7812H44.8018V79.6961H45.5312V69.605C45.5312 69.4834 45.5312 69.3618 45.5312 69.1186L53.3124 79.5746C53.434 79.6961 53.5556 79.6961 53.6771 79.6961H54.0419V67.7812H53.3124V77.7509C53.3124 77.994 53.3124 78.1156 53.3124 78.2372L45.5312 67.9028C45.5312 67.7812 45.4097 67.7812 45.4097 67.7812C45.4097 67.7812 45.2881 67.7812 45.1665 67.7812Z" fill="black"/>
<path d="M18.2974 67.7812H17.4463V79.6961H18.2974V67.7812Z" fill="black"/>
<path d="M24.0112 67.7812H23.1602V79.6961H29.7255V78.9667H24.0112V67.7812Z" fill="black"/>
<path d="M67.9022 75.9271C67.6591 76.535 67.2943 77.143 66.9296 77.6293C66.4432 77.994 65.9569 78.3588 65.349 78.6019C64.8627 78.8451 64.1332 78.9667 63.4037 78.9667C62.7958 78.9667 62.0664 78.8451 61.58 78.6019C60.9721 78.3588 60.4858 77.994 59.9995 77.6293C59.6347 77.143 59.27 76.535 59.0268 75.9271C58.7837 75.3192 58.6621 74.5898 58.6621 73.8603C58.6621 73.1308 58.7837 72.4013 59.0268 71.7934C59.27 71.1855 59.6347 70.5776 59.9995 70.2129C60.4858 69.7265 60.9721 69.3618 61.58 69.1186C62.0664 68.8755 62.7958 68.7539 63.4037 68.7539C64.1332 68.7539 64.8627 68.8755 65.349 69.1186C65.9569 69.3618 66.4432 69.7265 66.9296 70.0913C67.2943 70.5776 67.6591 71.1855 67.9022 71.7934C68.1454 72.4013 68.267 73.1308 68.267 73.8603C68.267 74.5898 68.1454 75.3192 67.9022 75.9271ZM68.7533 71.3071C68.5101 70.5776 68.0238 69.9697 67.5375 69.3618C67.0512 68.8755 66.4433 68.5107 65.8354 68.146C65.1059 67.9028 64.2548 67.7812 63.4037 67.7812C62.5527 67.7812 61.8232 67.9028 61.0937 68.146C60.4858 68.5107 59.8779 68.8755 59.3916 69.3618C58.7837 69.9697 58.4189 70.5776 58.1758 71.3071C57.9326 72.1581 57.6895 72.8876 57.6895 73.8603C57.6895 74.8329 57.9326 75.5624 58.1758 76.4135C58.4189 77.143 58.7837 77.7509 59.3916 78.3588C59.8779 78.8451 60.4858 79.2098 61.0937 79.5746C61.8232 79.8177 62.5527 79.9393 63.4037 79.9393C64.2548 79.9393 65.1059 79.8177 65.8354 79.5746C66.4433 79.2098 67.0512 78.8451 67.5375 78.3588C68.0238 77.7509 68.5101 77.143 68.7533 76.4135C68.9964 75.5624 69.118 74.8329 69.118 73.8603C69.118 72.8876 68.9964 72.1581 68.7533 71.3071Z" fill="black"/>
<path d="M69.2395 39.5744V52.7051C69.2395 60.9726 65.9568 64.62 59.513 64.8632H59.1483H58.2972C51.8535 64.62 48.4492 60.9726 48.4492 52.7051V27.7811C48.5708 19.6352 51.8535 16.1094 58.2972 15.8662V15.7446H58.662H59.513V15.8662C65.9568 16.1094 69.2395 19.6352 69.2395 28.0243H67.7805C67.7805 20.2431 64.8626 17.2036 58.9051 17.2036C52.9477 17.2036 50.0298 20.2431 50.0298 28.0243V52.7051C50.0298 60.3647 52.9477 63.4042 58.9051 63.4042C61.8231 63.4042 64.1331 62.6747 65.5921 60.9726C67.051 59.2705 67.7805 56.5957 67.7805 52.7051V41.155H56.8383V39.5744H69.2395Z" fill="black"/>
<path d="M69.2391 0.303955L65.1054 8.32827V12.5836H64.6191V8.32827L60.4854 0.303955H60.9717L64.8623 7.84195L68.6312 0.303955H69.2391Z" fill="black"/>
<path d="M58.2967 0.303955V12.5836H57.8104V0.790277L51.9745 12.5836H51.7314L45.8955 0.790277V12.5836H45.4092V0.303955H46.1387L51.8529 11.8541L57.5672 0.303955H58.2967Z" fill="black"/>
<path d="M45.4094 41.155V64.8632H24.6191V41.155H45.4094ZM43.9504 63.2827V42.7356H26.1997V63.2827H43.9504Z" fill="black"/>
<path d="M45.4094 27.9027V39.5744H43.9504V27.9027C43.9504 20.2431 41.0325 17.2036 35.0751 17.2036C29.1176 17.2036 26.1997 20.2431 26.1997 27.9027V39.5744H24.6191V27.9027C24.6191 19.6352 27.9018 15.9878 34.4672 15.7446H34.7103H35.683C42.1267 15.9878 45.4094 19.6352 45.4094 27.9027Z" fill="black"/>
<path d="M37.8718 58.7841C37.8718 58.9057 37.9934 59.1488 37.5071 59.1488H34.9539H32.4007C31.9144 59.1488 32.036 58.9057 32.036 58.7841C32.1576 58.2978 32.5223 57.3251 32.7655 56.5956C33.1302 55.2582 33.2518 54.8935 33.2518 54.6503C32.2791 53.6777 32.4007 52.0971 33.2518 51.2461C33.7381 50.7598 34.346 50.5166 34.9539 50.5166C35.5618 50.5166 36.1697 50.7598 36.656 51.2461C37.5071 52.0971 37.6287 53.6777 36.656 54.6503C36.656 54.8935 36.7776 55.2582 37.1424 56.5956C37.3855 57.3251 37.7503 58.2978 37.8718 58.7841Z" fill="black"/>
<path d="M37.3852 12.0973V12.5836H30.6982V0.303955H37.3852V0.790277H31.1846V6.13982H37.3852V6.62614H31.1846V12.0973H37.3852Z" fill="black"/>
<path d="M28.5101 0.303955L23.2822 12.5836H22.9174L17.6895 0.303955H18.1758L23.1606 11.7325L28.0238 0.303955H28.5101Z" fill="black"/>
<path d="M22.0661 51.7325V52.8267C22.0661 55.9878 21.4582 58.541 20.4856 60.4863C19.0266 63.161 16.3519 64.62 12.7044 64.8632C12.5829 64.8632 12.3397 64.8632 12.2181 64.8632H11.0023H0.667969V41.155V39.5744V15.7446H11.3671L12.2181 15.8662C13.0692 15.8662 13.9202 15.9878 14.6497 16.1094C17.3245 16.7173 19.2698 18.0547 20.4856 20.2431C21.4582 22.1884 22.0661 24.7416 22.0661 28.0243V28.8753C22.0661 32.158 21.4582 34.7112 20.4856 36.6565C19.513 38.3586 18.054 39.5744 16.2303 40.3039C18.054 41.0334 19.513 42.2492 20.4856 44.0729C21.4582 45.8966 22.0661 48.4498 22.0661 51.7325ZM20.4856 52.7051V51.7325C20.4856 44.8024 18.054 41.6413 13.1908 41.0334H2.24852V41.155V63.4042H11.2455H12.0965C17.6892 63.2826 20.4856 60.2431 20.4856 52.7051ZM20.4856 28.8753V28.0243C20.4856 20.4863 17.6892 17.4468 12.0965 17.2036H2.24852V39.5744H13.1908C18.054 39.0881 20.4856 35.927 20.4856 28.8753Z" fill="black"/>
<path d="M14.6498 0.303955L19.8778 12.5836H19.3915L17.5678 8.32827H11.124L9.30028 12.5836H8.69238L14.0419 0.303955H14.6498ZM17.3246 7.84195L14.2851 0.790277L11.3672 7.84195H17.3246Z" fill="black"/>
<path d="M6.50383 6.62614C7.3549 7.23404 7.84122 8.20669 7.84122 9.42249C7.84122 11.3678 6.26067 12.8267 4.1938 12.8267C2.3701 12.8267 0.789549 11.4894 0.667969 9.54407H1.15429C1.39745 11.2462 2.61326 12.3404 4.1938 12.3404C6.01751 12.3404 7.3549 11.1246 7.3549 9.42249C7.3549 8.44985 6.86858 7.4772 5.89593 6.99088C5.40961 6.74772 5.28803 6.62614 4.1938 6.38298C2.73484 6.01824 2.12694 5.77508 1.64061 5.16717C1.15429 4.55927 0.91113 3.95137 0.91113 3.34347C0.91113 1.39818 2.3701 0.060791 4.31539 0.060791C6.01751 0.060791 7.23332 1.15502 7.47648 2.97872H6.99016C6.747 1.39818 5.77435 0.547113 4.31539 0.547113C2.61326 0.547113 1.51903 1.64134 1.51903 3.22188C1.51903 4.55927 2.24852 5.41034 4.1938 5.77508C5.65277 6.13982 5.89593 6.2614 6.50383 6.62614Z" fill="black"/>
</g>
<defs>
<clipPath id="clip0_198_3644">
<rect width="68.5714" height="80" fill="white" transform="translate(0.667969)"/>
</clipPath>
</defs>
</svg>
