<svg width="60" height="80" viewBox="0 0 60 80" fill="none" xmlns="http://www.w3.org/2000/svg">
<g clip-path="url(#clip0_198_3700)">
<path fill-rule="evenodd" clip-rule="evenodd" d="M33.3405 53.4513H48.3848L49.8007 42.3009L59.0042 35.5752C59.3582 33.6283 59.5352 31.6814 59.5352 29.7345C59.5352 13.2743 46.2609 0 29.9777 0C13.5175 0 0.243164 13.2743 0.243164 29.7345C0.243164 31.6814 0.420155 33.6283 0.774137 35.5752L9.97768 42.3009L11.3936 53.4513H26.4379L27.3228 53.9823C28.0308 54.5133 28.9157 54.8673 29.9777 54.8673C30.8626 54.8673 31.7476 54.5133 32.4556 53.9823L33.3405 53.4513ZM26.7918 47.9646H15.9954L14.9334 39.115L5.90688 32.5664C5.5529 31.5044 5.37591 30.4425 5.37591 29.3805C5.37591 27.6106 5.72989 25.8407 6.61485 24.2478L22.5441 40.354L6.96883 21.2389C7.4998 18.7611 8.91573 16.6372 10.8626 14.8673L24.6679 38.7611L12.4556 12.5664C14.0485 10.4425 16.1724 8.84956 18.8272 8.14159L27.3228 37.8761L21.1281 6.90265C22.898 5.84071 25.0219 5.30973 27.3228 5.30973C27.6768 5.30973 28.2078 5.30973 28.5618 5.30973L29.9777 37.5221L31.2166 5.30973C31.5706 5.30973 32.1016 5.30973 32.6325 5.30973C34.7564 5.30973 36.8803 5.84071 38.6502 6.90265L32.6325 37.8761L40.9511 8.14159C43.606 8.84956 45.7299 10.4425 47.3228 12.5664L35.1104 38.7611L48.9157 14.8673C50.8626 16.6372 52.2786 18.7611 52.8095 21.2389L37.2343 40.354L53.3405 24.2478C54.0485 25.8407 54.4025 27.6106 54.4025 29.3805C54.4025 30.4425 54.2255 31.5044 54.0485 32.5664L45.0219 39.115L43.783 47.9646H32.9865L31.2166 49.2035C30.8626 49.3805 30.3317 49.5575 29.9777 49.5575C29.4467 49.5575 28.9157 49.3805 28.5618 49.2035L26.7918 47.9646Z" fill="black"/>
<path d="M12.1011 66.0177C11.2162 65.3098 10.1542 64.7788 9.0923 64.7788C8.20734 64.7788 6.9684 65.3098 6.9684 66.1947C6.9684 67.2567 8.20734 67.7877 9.0923 67.9646L10.3312 68.3186C12.8091 69.2036 14.756 70.4425 14.756 73.4514C14.756 75.2213 14.402 76.9912 12.9861 78.2301C11.5702 79.4691 9.62327 80 7.67637 80C5.37548 80 3.25159 79.2921 1.30469 77.8762L3.42858 74.1593C4.49053 75.0443 5.90646 75.9292 7.49938 75.9292C8.73832 75.9292 9.80026 75.3983 9.80026 74.1593C9.80026 72.7434 8.03035 72.3894 6.9684 72.0354C3.95955 71.1505 2.01265 70.4425 2.01265 66.9027C2.01265 63.1859 4.66752 60.708 8.38433 60.708C10.1542 60.708 12.4551 61.416 14.048 62.3009L12.1011 66.0177Z" fill="black"/>
<path d="M21.1279 59.469V68.6725C22.1898 67.2566 23.4288 66.7256 25.1987 66.7256C28.3845 66.7256 29.8005 68.6725 29.8005 71.8584V79.469H25.3757V73.0973C25.3757 71.6814 25.1987 70.2655 23.4288 70.2655C21.6589 70.2655 21.1279 71.6814 21.1279 73.0973V79.469H16.7031V59.469H21.1279Z" fill="black"/>
<path d="M41.1278 71.5043C40.9508 70.2654 39.8889 69.5574 38.65 69.5574C37.411 69.5574 36.3491 70.2654 35.9951 71.5043H41.1278ZM45.1986 73.9822H35.9951C35.9951 75.7521 36.88 76.8141 38.65 76.8141C39.7119 76.8141 40.4199 76.4601 40.7739 75.7521H45.0216C44.3137 78.584 41.6588 79.9999 38.827 79.9999C34.5792 79.9999 31.5703 77.522 31.5703 73.2743C31.5703 69.2035 34.4022 66.7256 38.473 66.7256C42.7208 66.7256 45.1986 69.3805 45.1986 73.6282V73.9822Z" fill="black"/>
<path d="M46.9688 79.469H51.3935V59.469H46.9688V79.469Z" fill="black"/>
<path d="M54.0479 79.469H58.4726V59.469H54.0479V79.469Z" fill="black"/>
</g>
<defs>
<clipPath id="clip0_198_3700">
<rect width="59.2982" height="80" fill="white" transform="translate(0.240234)"/>
</clipPath>
</defs>
</svg>
