<svg width="255" height="255" viewBox="0 0 255 255" fill="none" xmlns="http://www.w3.org/2000/svg">
<g clip-path="url(#clip0_754_496)">
<path opacity="0.8" d="M0.0601552 3.09053C0.148696 3.23789 4.90039 0.143272 4.97909 0.251338C5.51034 1.16499 -0.461252 33.9483 0.0601552 34.8522C1.10297 36.65 59.0874 -1.55631 60.0712 0.251338C61.419 2.56985 -1.28763 64.2953 0.0601552 66.6138C2.02773 70.0621 113.196 -3.20678 115.163 0.241514C117.426 4.17119 -2.24191 94.4556 0.0601552 98.3755C3.01152 103.474 167.304 -4.86707 170.255 0.23169C173.463 5.79219 -3.19618 124.586 0.0601552 130.147C3.93628 136.896 221.491 -6.52736 225.397 0.23169C229.558 7.423 -4.10127 154.707 0.0601552 161.909C4.38882 169.395 245.554 10.3899 249.883 17.8661C254.468 25.7943 -4.52429 185.742 0.0601552 193.67C4.38882 201.156 245.564 42.1417 249.883 49.6278C254.477 57.5559 -4.52429 217.504 0.0601552 225.432C4.38882 232.918 245.564 73.9034 249.942 81.3894C254.32 88.8755 8.59943 242.212 12.9576 249.757C17.0698 256.859 245.791 106.097 249.883 113.151C253.297 119.046 64.6458 243.813 68.0595 249.707C71.2175 255.199 246.755 139.5 249.883 144.913C252.352 149.186 120.682 245.473 123.152 249.747C125.365 253.539 247.709 172.902 249.883 176.674C251.418 179.327 176.719 247.084 178.254 249.737C179.493 251.888 248.644 206.294 249.893 208.475C250.562 209.635 232.687 248.617 233.356 249.737C233.641 250.238 249.608 239.716 249.893 240.207" stroke="url(#paint0_linear_754_496)" stroke-width="5" stroke-linecap="round" stroke-linejoin="round"/>
<path fill-rule="evenodd" clip-rule="evenodd" d="M182.63 162.705C180.535 161.958 178.516 161.094 176.677 159.825C171.375 155.876 167.917 149.932 164.651 144.301C160.049 136.111 156.771 127.384 154.505 118.28C153.531 114.369 153.201 109.834 150.988 106.366C145.973 99.1046 131.268 100.045 123.459 101.32C118.23 102.246 117.66 108.167 116.473 112.5C115.484 116.1 114.325 119.676 113.782 123.366C112.489 124.217 111.029 124.907 109.638 125.509C94.4767 130.161 91.812 138.786 86.0211 152.108C76.2403 171.472 49.7001 179.054 45.6912 201.97C43.1082 217.1 50.4534 231.333 58.0263 243.911C65.0789 257.649 74.9248 264.243 90.6048 260.997C105.312 257.696 119.446 252.174 133.894 247.906C140.892 246.185 147.879 241.706 155.24 243.268C170.408 246.676 185.991 248.279 201.536 247.837C223.36 248.72 223.357 227.759 221.117 211.527C219.548 186.267 206.815 170.046 182.63 162.705Z" fill="#D08B5B"/>
<path fill-rule="evenodd" clip-rule="evenodd" d="M184.089 199.257C185.912 200.464 187.446 202.294 188.678 204.219C183.537 203.684 178.406 203.067 173.286 202.365C173.956 201.936 174.632 201.517 175.324 201.121C177.849 199.697 181.27 197.392 184.089 199.257ZM98.6845 214.462C97.7426 214.093 97.3782 212.656 97.0111 211.832C95.8601 209.249 94.8097 206.622 93.7168 204.013C97.8663 202.83 101.902 201.517 106.2 200.886C110.822 200.208 115.513 200.044 120.177 200.196C129.626 200.505 138.987 202.05 148.276 203.707C157.555 205.362 166.833 206.952 176.177 208.199C185.331 209.422 194.514 210.317 203.714 211.102C205.502 211.255 208.482 211.898 209.92 210.49C211.058 209.376 211.095 207.32 209.67 206.413C208.783 205.848 207.498 205.84 206.484 205.71C205.208 205.545 203.927 205.436 202.642 205.351C202.119 205.316 201.596 205.284 201.073 205.253C205.274 203.668 209.661 202.803 214.216 203.044C214.473 204.61 215.634 206.221 216.269 207.512C217.378 209.766 218.242 212.048 218.81 214.499C219.996 219.622 220.047 224.94 219.712 230.166C219.405 234.523 218.744 239.342 215.328 242.428C212.742 244.764 209.094 245.629 205.709 245.901C201.775 246.217 197.781 245.88 193.88 245.352C188.408 244.612 182.912 243.633 177.548 242.321C167.159 239.78 157.202 235.737 148.015 230.255C143.534 227.582 139.259 224.575 134.718 222.003C130.09 219.383 125.166 217.35 119.995 216.087C114.208 214.675 108.159 214.072 102.212 214.42C101.179 214.481 99.6883 214.855 98.6845 214.462ZM91.9787 211.839C92.5868 213.813 93.0521 216.068 94.3499 217.727C95.6355 219.371 97.575 219.951 99.5842 220.098C102.007 220.274 104.458 220.161 106.886 220.251C111.865 220.436 116.776 221.246 121.537 222.73C125.973 224.114 130.091 226.272 134.057 228.666C137.726 230.881 141.286 233.258 144.956 235.465C143.979 235.913 143.013 236.398 142.043 236.82C140.006 237.704 137.958 238.558 135.9 239.391C131.842 241.032 127.766 242.633 123.649 244.121C115.348 247.121 106.91 249.742 98.3702 251.974C94.2974 253.039 90.1666 254.283 85.9353 254.46C82.1832 254.617 78.7078 253.556 75.6818 251.323C69.4053 246.693 64.4118 240.01 60.3751 233.418C57.9769 229.501 55.8841 225.386 54.153 221.131C53.2774 218.979 52.4834 216.795 51.7687 214.584C51.4335 213.547 51.1156 212.503 50.8146 211.454C50.6822 210.993 50.5553 210.531 50.4296 210.068C56.8476 208.108 63.3419 206.339 69.9885 205.357C73.5373 204.833 77.1333 204.567 80.7208 204.606C82.5016 204.625 84.2814 204.721 86.0527 204.905C87.0062 205.004 87.9558 205.131 88.9013 205.289C89.292 205.354 89.6936 205.45 90.0964 205.521C90.7117 207.631 91.3321 209.739 91.9787 211.839ZM224.647 203.451C224.993 202.751 225.139 202.062 225.263 201.3C225.358 200.718 225.608 199.9 225.389 199.145C225.143 198.299 224.472 197.543 223.991 196.822C223.46 196.025 222.929 195.228 222.399 194.43C221.338 192.834 220.28 191.237 219.224 189.639C214.909 183.112 210.625 176.567 206.333 170.026C202.524 164.221 198.78 158.364 194.856 152.637C191.5 147.74 187.842 142.923 183.249 139.115C177.441 134.299 170.525 132.031 163.302 130.261C162.513 129.441 161.459 128.994 160.333 129.084C158.741 127.278 157.476 126.017 156.903 123.72C156.628 122.62 156.714 119.529 155.644 118.878C154.372 118.105 153.708 119.128 153.357 120.282C152.183 124.141 153.53 129.33 156.63 133.195C155.324 137.711 153.593 144.13 150.504 147.748C147.197 151.622 142.623 152.827 137.688 152.907C128.277 153.058 118.876 149.558 111.698 143.493C109.516 141.649 107.489 139.59 105.656 137.4C104.281 135.757 102.654 133.222 101.579 131.306C101.579 130.559 100.697 129.778 109.668 129.174C118.639 128.571 119.32 116.279 119.519 114.607C119.681 113.248 120.371 111.14 119.414 110.032C119.008 109.562 118.175 109.486 117.66 109.806C116.69 110.409 116.371 111.951 116.066 112.998C115.638 114.465 114.241 123.571 111.593 124.625C110.354 125.119 108.932 125.128 107.621 125.219C106.002 125.333 104.379 125.415 102.767 125.604C102.172 125.673 101.523 125.866 100.936 125.871C100.554 125.875 100.161 125.69 99.7916 125.559C98.546 125.119 97.3015 125.449 96.0183 125.622C84.6733 127.147 72.9919 130.629 63.3151 136.895C54.7859 142.417 48.7769 150.359 44.8119 159.644C40.7663 169.12 38.4474 179.368 36.5041 189.455C35.8531 192.835 35.2846 196.231 34.7962 199.638C34.3242 202.931 33.7337 206.297 33.5924 209.622C33.5364 210.938 33.8507 212.161 34.3343 213.363C34.8789 214.715 36.1662 215.249 37.4009 215.88C40.1112 217.268 42.9704 218.344 45.9161 219.106C47.7157 222.382 48.3556 225.335 49.5726 228.868C49.1211 229.763 49.9863 231.55 49.8995 232.42C49.6841 234.587 49.5919 236.765 49.5726 238.942C49.5338 243.304 49.796 247.662 50.0015 252.018C50.2099 256.436 50.9026 273.866 51.0155 275.995C51.1033 277.649 50.9851 279.961 51.8556 281.429C53.1933 283.686 56.4948 283.61 58.024 281.78C96.0183 289.954 167.437 287.492 196.201 283.38C199.943 282.844 198.768 283.438 199.72 282.492C200.434 281.781 201.042 280.565 201.239 279.587C201.503 278.282 201.077 277.1 200.331 276.044C199.545 274.934 199.402 273.136 199.111 271.816C198.421 268.695 198.078 254.988 197.756 253.469C197.656 252.996 197.559 252.495 197.441 251.995C202.718 252.495 208.215 252.495 213.235 250.729C216.081 249.728 218.736 248.155 220.779 245.909C223.253 243.19 224.63 239.766 225.338 236.193C226.251 231.585 226.445 226.812 226.266 222.128C226.016 216.593 225.099 210.979 222.821 205.896C223.571 205.2 224.199 204.36 224.647 203.451Z" fill="black"/>
<path fill-rule="evenodd" clip-rule="evenodd" d="M174.812 53.7041C172.634 44.4955 167.871 35.9258 160.247 29C137.302 6.25308 95.1666 18.5997 95.3575 52.8777C94.5346 56.8813 94.2005 60.9979 94.473 65.0809C94.5856 66.823 95.3375 69.2542 94.3274 70.8221C92.0488 73.7553 90.7245 75.9174 91.5 79.8191C92.1479 83.2259 94.46 85.6394 97.5803 86.9225C99.4516 87.461 101.227 88.634 101.92 90.4219C106.086 98.0691 109.172 104.43 115.738 109.641C117.433 110.983 134.812 119.03 140.538 119.03C157.302 119.03 178.431 112.941 178.782 94.1635C178.843 90.0391 178.121 85.8668 177.668 81.7751C176.566 72.4375 176.955 62.7617 174.812 53.7041Z" fill="#D08B5B"/>
<path fill-rule="evenodd" clip-rule="evenodd" d="M174.12 48.823C174.126 48.709 174.288 48.6835 174.32 48.7959C174.943 51.0128 175.296 53.2712 175.784 55.5225C176.253 57.6911 176.696 59.866 177.065 62.0537C177.761 66.1824 178.347 70.3219 178.892 74.4722L179.028 75.51C179.976 82.8128 181.541 90.4206 180.172 97.766C179.004 104.034 175.088 109.085 170.041 112.789C165.262 116.296 159.468 118.546 153.715 119.826C147.541 121.199 140.222 121.609 135.198 117.069C133.187 115.25 135.928 111.643 138.11 113.284C143.233 117.136 149.751 116 155.532 114.467L155.707 114.421C160.781 113.066 165.888 111.011 169.917 107.546C174.37 103.715 176.572 98.3969 176.827 92.5648C176.969 89.2881 176.665 86.0152 176.336 82.7578L176.299 82.3959C175.922 78.6708 175.527 74.9474 175.161 71.2209C174.828 67.8227 174.541 64.4048 174.389 60.9915L174.318 59.2699C174.17 55.7989 173.972 52.2772 174.12 48.823ZM114.034 19.9828C122.371 15.6304 131.953 14.0727 141.231 15.5334C150.15 16.9376 158.336 21.5528 164.455 28.1706C167.442 31.4016 170.093 35.139 171.788 39.2221C172.629 41.2504 173.288 43.3664 173.639 45.5396C173.82 46.6568 173.997 47.8144 174.031 48.947C174.062 49.9957 173.755 50.9793 173.792 52.0453C173.797 52.2121 173.542 52.2442 173.503 52.0844C173.214 50.8958 172.515 49.9969 172.077 48.8679C171.75 48.0248 171.379 47.2018 171 46.3812L170.676 45.6781C169.733 43.6345 168.605 41.675 167.49 39.7224C165.245 35.7897 162.364 32.2157 158.99 29.2C153.067 23.9051 145.469 20.4872 137.538 19.8718C129.306 19.2326 120.956 21.2002 113.926 25.5586C106.897 29.9168 101.581 36.6917 98.8217 44.4921C97.4293 48.4284 96.6603 52.5297 96.4815 56.6999C96.391 58.8108 96.4755 60.9393 96.623 63.0461L96.6963 64.0508C96.7822 65.2556 96.841 66.4558 96.6615 67.6314C97.9295 67.2349 99.2586 67.0705 100.592 67.2668C102.575 67.5583 103.759 68.3731 104.648 70.149C104.694 70.2417 104.601 70.3344 104.509 70.2883C103.356 69.7115 101.491 70.0151 100.271 70.3175C99.0003 70.6322 97.8561 71.1796 96.7766 71.9196C94.7796 73.2879 93.2142 75.4082 92.83 77.8408C92.4586 80.1907 93.4207 82.57 95.0366 84.2542C95.8685 85.1216 96.8627 85.8715 97.9759 86.3388C99.3269 86.9062 100.664 86.8886 101.859 87.8253C102.598 88.4043 102.42 89.3951 101.919 90.038C104.44 92.8108 106.677 95.8441 109.198 98.6277C110.367 99.9179 111.526 101.21 112.646 102.541L113.064 103.043C114.182 104.396 119.41 109.126 119.921 110.828C120.239 111.887 119.108 113.272 117.965 112.789C116.211 112.049 111.512 106.823 110.327 105.345L110.25 105.25C109.007 103.719 107.904 102.103 106.896 100.409L106.564 99.851C104.741 96.7755 102.933 93.5859 101.77 90.2072C101.693 90.2864 101.612 90.3586 101.526 90.4196C99.8509 91.6141 97.4156 90.6957 95.7426 89.92C94.1632 89.188 92.7152 88.0864 91.5866 86.7587C89.1321 83.8716 88.0006 80.1325 88.8204 76.3855C89.5148 73.2114 91.7086 70.1239 94.5849 68.5184C93.2572 66.9858 92.7075 64.9198 92.3417 62.8999C91.8747 60.3215 91.7816 57.6791 91.9084 55.0645C92.1614 49.8567 93.4979 44.7233 95.564 39.9546C99.2605 31.4219 105.796 24.2845 114.034 19.9828ZM96.4879 76.9215C98.2377 76.5928 99.8684 76.5134 101.556 77.2558C103.387 78.0617 104.675 79.392 105.873 80.9507C107.236 82.7237 103.743 84.6606 102.862 82.3069L102.837 82.2343C102.601 81.5375 102.178 80.8638 101.643 80.2438C101.483 80.4905 101.268 80.7077 101.016 80.832C100.71 80.9826 100.244 80.8783 100.17 80.4871C100.089 80.0529 100.179 79.5267 100.429 79.1591L100.463 79.1089C99.2491 78.1293 97.7888 77.4136 96.4879 77.1834C96.358 77.1602 96.3594 76.9456 96.4879 76.9215Z" fill="black"/>
<path fill-rule="evenodd" clip-rule="evenodd" d="M151.432 102.353C149.81 101.692 148.364 100.587 147.306 99.1771C146.938 98.6868 146.843 98.169 146.92 97.6955C147.007 97.163 147.322 96.6804 147.751 96.3567C148.182 96.032 148.72 95.8718 149.241 95.9535C149.694 96.0244 150.144 96.2724 150.501 96.7866L150.575 96.8894C151.204 97.7407 152.023 98.4391 152.957 98.8893C153.857 99.3232 154.863 99.5257 155.905 99.408C157.888 99.1838 159.255 98.1103 160.709 96.6526C160.889 96.4686 161.069 96.2787 161.25 96.0859C161.364 95.9111 161.523 95.7987 161.699 95.7397C161.895 95.6743 162.116 95.678 162.319 95.7488C162.515 95.8171 162.69 95.9465 162.807 96.1187C162.918 96.2824 162.981 96.4846 162.961 96.7171C162.828 98.2278 162.039 99.576 160.917 100.635C159.672 101.81 158.022 102.624 156.468 102.909C154.756 103.223 153.011 102.998 151.432 102.353ZM157.275 79.0481C159.097 80.156 161.872 82.7392 159.913 85.4857C157.606 87.9074 154.285 85.1308 152.649 83.875C151.132 82.9018 149.427 85.4048 150.835 86.5412C162.659 95.3013 167.458 79.3378 158.197 77.7456C157.177 77.5701 156.798 78.7054 157.275 79.0481ZM136.086 68.8579C136.287 66.3583 140.091 65.7907 140.47 68.2641C140.809 70.4798 140.41 72.5151 139.412 74.51C138.46 76.4157 136.064 75.5266 135.883 73.7912C135.64 71.4651 135.961 70.4127 136.086 68.8579ZM165.045 67.7513C165.575 67.0562 166.341 66.5817 167.259 66.8498C170.125 67.688 169.28 71.7605 168.274 73.7427C167.727 74.8192 165.958 75.0921 165.159 74.1443C163.857 72.5987 163.233 69.512 164.889 67.9895C164.934 67.9108 164.984 67.8314 165.045 67.7513ZM139.372 57.9206L139.825 57.8413C141.226 57.5988 142.968 57.3659 143.958 58.4928C144.484 59.0904 144.665 60.2012 143.958 60.7732C142.716 61.7796 141.342 61.3896 139.853 61.4748C138.626 61.5453 137.446 61.7485 136.264 62.0866C133.671 62.8283 131.558 64.1823 129.343 65.6691C129.052 65.8641 128.755 65.4922 128.894 65.2202C130.173 62.7142 132.65 60.6556 135.132 59.4008C136.457 58.731 137.907 58.1754 139.372 57.9206ZM162.432 56.798L162.778 56.869C166.55 57.6579 171.45 59.2338 173.236 62.9409C173.304 63.4651 173.232 63.5774 173.174 63.6508L173.155 63.6752C173.106 63.7379 173.068 63.8243 172.841 63.8957C172.778 63.8807 172.714 63.8647 172.65 63.8479C171.831 63.6332 171.183 63.3374 170.556 63.0305L169.876 62.6953C169.088 62.3083 168.292 61.9353 167.448 61.66C165.649 61.0725 163.797 60.6587 161.917 60.4377C161.51 60.3899 161.117 60.2523 160.808 60.0164C160.514 59.7926 160.29 59.4826 160.187 59.0706C160.055 58.5375 160.093 58.1338 160.379 57.6528C160.594 57.2916 160.901 57.0412 161.254 56.8974C161.614 56.7509 162.024 56.7163 162.432 56.798Z" fill="black"/>
<path fill-rule="evenodd" clip-rule="evenodd" d="M177.613 81.2086C175.989 83.3916 172.978 84.087 170.201 83.8468C164.212 83.27 162.327 76.4635 162.131 71.1732C166.147 72.3037 161.791 64.2969 175.52 63.4165C180.36 63.0129 179.025 65.9377 181.164 68.0747C181.12 72.5596 180.374 77.4328 177.613 81.2086ZM149.086 76.0551C145.55 92.625 126.187 88.6836 124.153 73.747C126.032 72.4205 125.537 69.1451 127.87 67.9583C131.568 65.594 136.191 65.6951 140.391 65.7506C145.758 66.1197 147.288 68.3447 150.045 70.7723C149.913 72.3937 149.53 74.3154 149.086 76.0551ZM185.283 60.6723C185.085 60.6392 184.886 60.6081 184.687 60.5788C184.532 60.4908 184.35 60.4229 184.138 60.3821C183.655 60.2593 183.174 60.1765 182.695 60.1319C175.813 58.5821 159.892 60.7826 159.235 66.6591C157.044 67.3911 155.148 66.7356 152.607 66.8008C150.674 58.7141 117.248 59.8555 115.641 64.7309C115.635 64.7292 115.629 64.7278 115.622 64.7258C114.078 64.2475 111.801 64.3628 110.033 64.2871C106.258 64.2079 102.478 64.5446 98.7848 65.3413C91.8685 66.4412 82.4292 67.7288 87.2394 76.3713L87.2423 76.3759L87.243 76.3752C88.072 77.2255 89.4789 76.5407 89.5313 75.3897C87.914 71.2953 91.5667 70.8037 94.3772 69.6271C101.37 67.1131 108.49 66.7646 115.722 67.5422C116.267 68.1833 117.092 68.7423 117.965 69.0348C122.801 69.838 120.252 73.4275 123.309 73.9495C122.747 86.4619 137.928 93.2919 146.725 85.0667C150.237 81.6307 151.074 76.5407 151.888 71.9528C152.319 71.856 152.593 71.6204 152.752 71.3086C153.788 70.2742 154.438 69.3189 156.486 69.0348C158.533 68.7509 160.11 69.3208 160.323 69.4953C160.377 69.6037 160.434 69.7123 160.501 69.8209C160.595 69.9828 160.722 70.112 160.867 70.2136C158.845 82.6734 168.512 90.5532 178.27 84.0909C182.51 80.0995 183.406 73.9889 183.583 68.5347C184.158 68.1876 184.522 67.515 184.323 66.6692C184.049 65.5035 184.692 64.4941 185.716 63.9873C187.047 63.3291 186.811 60.9254 185.283 60.6723Z" fill="black"/>
<path fill-rule="evenodd" clip-rule="evenodd" d="M157.541 88.4516C154.858 87.2427 150.042 88.2976 148.293 88.7171C144.228 89.6927 140.138 91.8009 138.874 95.1039C137.45 98.8263 140.292 99.9981 140.71 99.8067C143.524 100.005 146.875 98.2348 149.824 97.7779C152.219 97.4038 154.744 97.0772 156.987 95.8043C158.625 96.7058 162.324 97.1931 165.309 97.9814C167.852 98.6523 168.953 100.107 171.31 99.798C174.135 99.4273 172.979 93.482 169.831 91.0735C166.385 88.4376 160.557 87.3687 157.541 88.4516ZM162.852 113.873C160.505 114.445 160.348 109.298 160.085 107.48C159.879 106.059 158.721 102.396 155.784 102.554C152.847 102.712 151.743 105.781 151.892 107.69C151.989 108.928 153.129 115.199 149.49 115.992C147.17 115.984 144.486 115.828 142.047 115.377C139.175 114.727 135.442 112.449 134.456 116.935C134.101 118.55 146.748 123.347 152.361 123.781C158.053 124.935 164.712 123.161 168.765 118.804C169.687 117.812 172.283 113.698 172.468 112.69C172.857 110.572 171.957 109.209 169.338 109.956C167.488 110.944 164.361 113.504 162.852 113.873Z" fill="black"/>
</g>
<defs>
<linearGradient id="paint0_linear_754_496" x1="125" y1="0" x2="319.156" y2="187.234" gradientUnits="userSpaceOnUse">
<stop stop-color="#5800FF"/>
<stop offset="1" stop-color="#DD4CEB"/>
</linearGradient>
<clipPath id="clip0_754_496">
<rect width="255" height="255" fill="white"/>
</clipPath>
</defs>
</svg>
