<svg width="255" height="255" viewBox="0 0 255 255" fill="none" xmlns="http://www.w3.org/2000/svg">
<g clip-path="url(#clip0_1619_25485)">
<g opacity="0.8">
<path d="M249.94 246.909C249.851 246.762 245.1 249.857 245.021 249.749C244.49 248.835 250.461 216.052 249.94 215.148C248.897 213.35 190.913 251.556 189.929 249.749C188.581 247.43 251.288 185.705 249.94 183.386C247.972 179.938 136.804 253.207 134.837 249.758C132.574 245.829 252.242 155.544 249.94 151.625C246.988 146.526 82.696 254.867 79.7446 249.768C76.5375 244.208 253.196 125.414 249.94 119.853C246.064 113.104 28.5089 256.527 24.6033 249.768C20.4419 242.577 254.101 95.2926 249.94 88.0914C245.611 80.6054 4.44551 239.61 0.11684 232.134C-4.46761 224.206 254.524 64.2579 249.94 56.3298C245.611 48.8438 4.43567 207.858 0.11684 200.372C-4.47745 192.444 254.524 32.4963 249.94 24.5682C245.611 17.0821 4.43567 176.097 0.057815 168.611C-4.32004 161.125 241.401 7.78841 237.042 0.243423C232.93 -6.85947 4.2094 143.903 0.11684 136.849C-3.2969 130.954 185.354 6.18708 181.94 0.292562C178.782 -5.19917 3.24528 110.5 0.11684 105.087C-2.35247 100.814 129.318 4.52678 126.848 0.253257C124.635 -3.53888 2.29101 77.0982 0.11684 73.3257C-1.41787 70.6731 73.2811 2.91562 71.7464 0.263091C70.5068 -1.88841 1.3564 43.7057 0.106992 41.5247C-0.561983 40.3655 17.3134 1.38305 16.6445 0.263091C16.3592 -0.237944 0.392291 10.2838 0.106992 9.79256" stroke="url(#paint0_linear_1619_25485)" stroke-width="5" stroke-linecap="round" stroke-linejoin="round"/>
<path d="M249.94 246.909C249.851 246.762 245.1 249.857 245.021 249.749C244.49 248.835 250.461 216.052 249.94 215.148C248.897 213.35 190.913 251.556 189.929 249.749C188.581 247.43 251.288 185.705 249.94 183.386C247.972 179.938 136.804 253.207 134.837 249.758C132.574 245.829 252.242 155.544 249.94 151.625C246.988 146.526 82.696 254.867 79.7446 249.768C76.5375 244.208 253.196 125.414 249.94 119.853C246.064 113.104 28.5089 256.527 24.6033 249.768C20.4419 242.577 254.101 95.2926 249.94 88.0914C245.611 80.6054 4.44551 239.61 0.11684 232.134C-4.46761 224.206 254.524 64.2579 249.94 56.3298C245.611 48.8438 4.43567 207.858 0.11684 200.372C-4.47745 192.444 254.524 32.4963 249.94 24.5682C245.611 17.0821 4.43567 176.097 0.057815 168.611C-4.32004 161.125 241.401 7.78841 237.042 0.243423C232.93 -6.85947 4.2094 143.903 0.11684 136.849C-3.2969 130.954 185.354 6.18708 181.94 0.292562C178.782 -5.19917 3.24528 110.5 0.11684 105.087C-2.35247 100.814 129.318 4.52678 126.848 0.253257C124.635 -3.53888 2.29101 77.0982 0.11684 73.3257C-1.41787 70.6731 73.2811 2.91562 71.7464 0.263091C70.5068 -1.88841 1.3564 43.7057 0.106992 41.5247C-0.561983 40.3655 17.3134 1.38305 16.6445 0.263091C16.3592 -0.237944 0.392291 10.2838 0.106992 9.79256" stroke="black" stroke-opacity="0.2" stroke-width="5" stroke-linecap="round" stroke-linejoin="round"/>
</g>
<rect x="57" y="173" width="136" height="116" fill="#252525"/>
<path fill-rule="evenodd" clip-rule="evenodd" d="M122.175 112.759C126.982 109.408 142.584 111.933 149.016 112.759C152.396 113.193 154.391 117.577 156.166 124.243C165.427 121.973 177.581 119.823 186.311 125.976C189.008 128.324 189.512 132.325 186.401 134.557C185.388 135.24 183.435 135.821 183.126 136.413C181.875 139.596 180.479 143.804 180.701 147.19C184.677 182.741 192.647 218.389 198.254 253.712L198.402 255.049C199.059 261.059 199.591 268.15 195.508 272.935C192.763 275.261 188.858 274.941 185.503 275.612C153.877 279.848 121.943 275.798 90.1882 277.09C84.777 277.395 79.337 277.789 73.9129 277.829L73.9106 277.766C74.4953 277.762 75.0802 277.754 75.6657 277.742C75.066 260.081 73.8286 242.445 73.4292 224.777C73.3032 219.208 73.2664 213.637 73.3764 208.068C73.3988 206.939 71.6453 206.939 71.6229 208.068C71.5863 209.916 71.5701 211.763 71.5624 213.611C70.249 212.581 68.7885 211.765 67.387 210.846C66.4406 210.225 65.5612 211.743 66.502 212.36C68.1643 213.45 69.9336 214.365 71.3748 215.757C71.4331 215.814 71.494 215.857 71.556 215.894C71.5883 233.645 72.8037 251.383 73.5754 269.111C73.6896 271.735 73.7932 274.359 73.8843 276.983L73.9129 277.829C68.0413 277.873 62.1882 277.502 56.411 276.156C55.4349 277.516 53.1615 277.786 52.0057 276.03C51.4275 275.368 51.3111 274.24 50.4161 273.988C50.1755 273.8 50.547 273.666 50.7171 273.755C42.8133 251.108 50.026 208.906 56.3985 185.704C59.1864 173.742 65.8874 162.668 66.5851 150.284C66.6586 144.448 62.4729 137.417 67.7797 132.728C66.997 128.441 71.0498 124.869 75.1416 124.586C80.178 106.403 102.47 127.61 114.54 127.824C116.195 125.072 119.876 114.363 122.175 112.759ZM190.034 231.802C190.033 230.674 188.28 230.672 188.281 231.802C188.293 243.801 189.324 258.167 190.806 270.067C190.944 271.172 192.699 271.186 192.56 270.067C191.077 258.167 190.046 243.801 190.034 231.802ZM107.788 247.204C108.783 246.671 107.899 245.156 106.903 245.689C99.5951 249.603 92.7658 254.28 86.1975 259.324C85.3148 260.002 86.1872 261.526 87.0826 260.838C93.6508 255.794 100.48 251.117 107.788 247.204ZM171.205 244.964C170.514 244.134 169.033 244.996 169.715 245.879C171.302 247.935 173.274 249.554 175.585 250.738C176.575 251.246 177.454 249.776 176.505 249.243L176.47 249.224C174.498 248.213 172.719 246.874 171.338 245.132L171.205 244.964ZM83.4454 193.656C83.6902 192.557 82 192.087 81.7545 193.19C81.2383 195.508 81.6135 197.973 82.1503 200.269L82.1863 200.422L82.2595 200.726C82.356 201.121 82.7251 201.341 83.105 201.37C89.5552 201.847 95.9348 199.655 102.119 198.038L102.577 197.92L103.034 197.803C104.127 197.528 103.664 195.836 102.567 196.113L102.079 196.237C96.1338 197.768 90.0109 199.928 83.807 199.656L83.7419 199.371C83.335 197.555 83.0474 195.613 83.415 193.799L83.4454 193.656ZM182.459 189.383C182.468 188.255 180.714 188.254 180.706 189.383L180.704 189.605C180.683 191.384 180.536 193.91 178.793 194.853C177.242 195.692 175.183 195.062 173.54 194.421L173.207 194.289L172.725 194.093C171.682 193.665 171.227 195.361 172.259 195.783L172.517 195.888C174.751 196.78 177.62 197.63 179.825 196.282C181.98 194.963 182.395 192.169 182.452 189.822L182.456 189.643L182.459 189.383Z" fill="#F1C19A"/>
<path fill-rule="evenodd" clip-rule="evenodd" d="M177.59 121.761L177.769 121.794L182.731 122.717L177.699 123.096C177.465 123.114 177.232 123.136 176.997 123.162C176.513 123.215 176.038 123.281 175.572 123.362L175.27 123.416L175.4 123.409C177.238 123.324 179.078 123.474 180.891 123.855C182.68 124.23 184.268 124.74 185.688 125.435L185.858 125.519L186.077 125.631L186.182 125.682L186.266 125.721C186.655 125.9 186.813 125.993 186.978 126.216C187.304 126.658 187.165 127.157 186.744 127.536C186.429 127.82 186.023 127.961 185.489 128.041C185.41 128.053 185.329 128.064 185.242 128.073L184.77 128.12C183.89 128.212 183.31 128.688 183.222 129.427C183.136 130.15 183.56 130.884 184.169 131.064L184.214 131.077L184.27 131.09C184.349 131.107 184.419 131.127 184.486 131.151L184.537 131.171L184.646 131.216L184.652 131.217L184.655 131.219L184.76 131.262L184.787 131.315L184.804 131.328C184.866 131.378 184.892 131.414 184.933 131.492L184.968 131.561L184.997 131.661L185.005 131.693L185.01 131.72L185.011 131.728L185.04 131.911L185.048 131.973L185.05 132.014L185.05 134.825L184.329 133.383L184.305 133.404C183.955 133.685 183.507 133.916 182.938 134.141L182.822 134.186L182.522 134.296L181.928 134.508L181.792 134.559L181.67 134.606C181.574 134.644 181.491 134.679 181.416 134.713C181.303 134.765 181.203 134.824 181.116 134.889L181.066 134.929L180.78 135.165L180.077 134.92C179.994 134.891 179.919 134.864 179.847 134.838L179.165 134.584L178.581 134.369C177.822 134.092 177.141 133.851 176.478 133.627L175.673 133.359L175.086 133.168C174.882 133.102 174.667 133.033 174.429 132.957L171.112 131.909L170.473 131.704C170.114 131.588 169.792 131.482 169.458 131.371L168.838 131.163L168.238 130.956C166.284 130.277 164.415 129.551 161.086 128.207L161.808 128.618L162.344 128.921C162.987 129.283 163.691 129.675 164.479 130.111L168.061 132.09L168.778 132.491L170.382 133.392L171.23 133.865C172.748 134.708 173.825 135.277 174.974 135.837C175.861 136.271 176.774 136.687 177.724 137.092L178.082 137.244L178.631 137.473L179.064 137.661L179.358 137.789L179.551 137.871C180.587 138.305 181.195 138.418 181.87 138.242L181.918 138.228L181.964 138.212L183.279 137.707L182.821 139.039C182.769 139.191 182.718 139.345 182.666 139.5L182.574 139.782L182.499 139.93C182.058 140.806 181.623 141.709 181.185 142.654L180.951 143.164L180.815 143.264C180.765 143.301 180.72 143.355 180.682 143.428C180.508 143.768 180.339 144.107 180.176 144.446L180.004 144.806L179.827 145.187C179.053 146.854 178.35 148.565 177.438 150.951L176.058 154.608C174.583 158.498 173.193 162.398 171.889 166.305C169.311 174.013 167.03 181.837 165.054 189.751C161.086 205.65 158.439 221.788 157.141 238.03C156.896 241.092 156.719 244.138 156.612 247.175L156.585 247.963L156.501 248.661C156.436 249.211 156.374 249.745 156.316 250.267L156.282 250.579C155.86 254.446 155.658 257.488 155.679 260.401C155.69 261.846 155.733 263.193 155.816 264.49L155.835 264.789L156.161 269.558L154.56 265.054C154.446 264.735 154.337 264.411 154.213 264.034L154.057 263.552L153.982 263.31C153.915 263.088 153.85 262.859 153.77 262.559L153.487 261.487L153.416 261.23C153.343 260.964 153.282 260.76 153.211 260.542L153.126 260.288L153.064 260.11C152.95 259.792 152.816 259.453 152.604 258.939L152.279 258.149L152.214 257.988V257.859L152.224 257.434C152.247 256.42 152.241 255.352 152.211 254.154L152.184 253.215L152.156 252.41C152.152 252.327 152.149 252.241 152.146 252.153L151.995 248.534L151.705 240.496L151.659 239.138C151.627 238.128 151.6 237.215 151.578 236.324L151.558 235.509L151.552 235.233C151.375 227.257 151.441 219.053 151.735 210.52L151.765 209.693L151.794 208.879C152.289 195.624 153.144 184.341 155.172 162.129L155.509 158.454L156.014 153.015L156.13 151.738C156.364 149.138 156.533 147.111 156.675 145.126L156.737 144.241C156.976 140.732 157.12 137.088 157.191 133.086L157.202 132.367L156.886 133.466L156.612 129.81C156.529 128.703 156.39 127.68 156.183 126.726L156.138 126.523L156.049 126.135L155.98 125.877C155.863 125.442 156.6 123.439 156.6 123.439L157.017 123.339L157.522 123.22C165.565 121.343 171.83 120.727 177.59 121.761ZM98.3086 118.507L98.551 118.574L98.7044 118.617C99.9347 118.971 101.241 119.471 102.748 120.14L103.18 120.333C103.372 120.42 104.485 120.86 104.928 121.049L105.004 121.082C106.638 121.799 107.612 122.553 107.827 123.662L107.84 123.738C108.317 124.195 108.87 124.634 109.498 125.056L109.657 125.161L109.808 125.257C110.484 125.688 111.124 126.067 111.726 126.395L111.89 126.483L112.003 126.543L113.087 126.915L114.429 127.38L114.698 127.472C116.096 127.948 116.92 128.198 117.908 128.441L118.462 128.576C120.563 129.086 122.425 129.483 124.219 129.794C126.046 130.11 127.921 130.386 129.86 130.628L130.515 130.709C131.16 130.785 131.793 130.842 132.779 130.919L134.374 131.043L135.452 131.13L134.879 132.047C133.375 134.449 132.215 137.126 130.918 140.91L130.773 141.336C129.596 144.814 128.768 147.948 127.342 153.962C125.184 163.088 123.406 172.3 122.015 181.562C121.057 187.946 120.28 194.315 119.688 200.663L119.604 201.57L118.294 201.569C118.122 199.618 117.908 197.609 117.65 195.498C116.84 188.921 115.675 182.462 114.152 176.16L114.008 175.57L113.946 175.316L114.075 175.088C114.153 174.951 114.184 174.798 114.162 174.663C114.002 173.67 113.71 172.763 113.152 171.395L112.584 170.022L112.456 169.706L112.447 169.674C111.844 167.559 111.202 165.468 110.519 163.403L110.29 162.715L110.281 162.683C109.29 159.142 108.316 156.219 107.173 153.48C106.277 151.34 105.259 149.242 104.124 147.194L103.91 146.811L103.89 146.773C102.453 143.785 100.923 140.96 99.2996 138.312L99.0392 137.89L99.0152 137.821C98.9597 137.661 98.8761 137.518 98.7654 137.398L98.7226 137.354L98.6681 137.3L98.5489 137.113L97.5984 136.876C94.9236 136.207 92.1397 136.148 89.0324 136.611L88.8247 136.643L88.6161 136.676C86.3347 137.047 84.3746 137.552 80.8141 138.634L77.3116 139.706L76.8133 139.855L76.3424 139.994C74.6354 140.491 73.1402 140.866 71.6885 141.148L71.4908 141.186L70.9537 141.287L70.688 141.335C69.0886 141.62 67.9686 141.697 66.9097 141.495L66.8136 141.475L66.6959 141.449L66.5907 141.423C65.3546 141.093 64.8978 140.198 65.4668 138.95C65.9374 137.917 66.9582 137.184 68.4586 136.542L68.6762 136.451L68.7303 136.429L68.7874 136.417C69.1445 136.34 69.4865 136.204 69.8121 136.006C70.4686 135.608 70.7431 134.785 70.4457 134.105C70.1389 133.408 69.2998 132.95 68.7156 133.185L68.2746 133.36L67.7922 133.55L67.4949 133.125C67.4784 133.102 67.4627 133.077 67.4474 133.05L67.4248 133.008L67.4103 132.978L67.3739 132.946L67.3377 132.91C67.2471 132.812 67.1985 132.705 67.1742 132.595C67.165 132.554 67.1601 132.516 67.1579 132.479L67.1565 132.441C67.1552 132.363 67.1609 132.301 67.185 132.083C67.2912 131.137 67.9105 130.372 68.9829 129.494L69.156 129.354L69.2077 129.313C71.2599 127.687 73.8627 126.85 76.0742 127.364C76.1824 127.388 76.2885 127.416 76.3968 127.448L76.5059 127.481L76.635 127.524C77.3151 127.76 77.8464 127.47 78.094 126.823C78.3433 126.171 78.1758 125.452 77.648 125.063L77.6005 125.03L77.4393 124.923L77.2513 124.794L77.0431 124.647L76.9476 124.578L76.8098 124.475C75.7505 123.674 75.1688 122.927 75.3389 122.042L75.3508 121.986L75.3659 121.919L75.3942 121.857L75.4835 121.667L75.5761 121.477L75.6021 121.425L75.6369 121.378C76.0013 120.887 76.6119 120.514 77.4865 120.153L77.5886 120.111C77.9539 119.964 78.9743 119.606 79.1269 119.547L79.1383 119.543C82.1602 118.317 85.4431 117.61 88.7448 117.465C91.9859 117.324 95.2332 117.675 98.3086 118.507Z" fill="#252525"/>
<path d="M154.908 152.284L154.868 152.582L154.831 152.88C153.757 161.428 152.852 172.185 152.063 180.762C150.489 197.86 149.524 215.028 149.658 232.203C149.693 236.644 149.854 241.072 150.058 245.506L150.103 246.456C150.333 251.289 150.686 256.396 152.032 261.058C152.181 261.573 152.512 261.869 152.893 261.976C152.909 262.52 152.94 263.065 152.977 263.604L153.005 264.008C153.161 266.189 153.606 270.719 154.557 272.696C155.484 274.625 157.029 276.155 159 276.997C159.552 277.232 160.114 277.401 160.683 277.519C148.718 277.763 133.002 277.377 121.015 277.088C122.261 276.892 122.967 275.907 123.132 274.651C123.46 272.131 122.842 269.525 121.444 267.405C121.299 267.186 121.128 266.991 120.938 266.824L120.971 265.43C120.994 264.384 121.006 263.337 120.946 262.292C120.819 259.986 120.629 257.68 120.462 255.377C120.124 250.763 119.864 246.141 119.761 241.516C119.55 232.267 119.704 223.009 120.227 213.772C121.277 195.32 123.721 174.794 127.722 156.744C128.013 155.429 128.307 154.114 128.611 152.801C131.722 154.417 137.258 154.997 140.658 155.02C144.919 155.046 151.059 154.066 154.908 152.284Z" fill="#5800FF"/>
<path fill-rule="evenodd" clip-rule="evenodd" d="M190.775 270.13C189.293 258.23 188.262 243.865 188.25 231.865C188.249 230.735 190.003 230.737 190.004 231.865C190.016 243.865 191.047 258.23 192.529 270.13C192.668 271.249 190.913 271.235 190.775 270.13ZM179.794 196.345C177.503 197.746 174.496 196.774 172.229 195.847C171.196 195.424 171.651 193.729 172.695 194.156C174.42 194.862 176.941 195.901 178.762 194.917C180.58 193.934 180.662 191.23 180.675 189.447C180.684 188.317 182.437 188.318 182.429 189.447C182.41 191.874 182.086 194.943 179.794 196.345ZM175.554 250.801C173.243 249.617 171.271 247.998 169.685 245.942C168.995 245.049 170.519 244.177 171.199 245.057C172.595 246.866 174.415 248.25 176.439 249.288C177.445 249.803 176.557 251.315 175.554 250.801ZM164.447 189.607C160.481 205.495 157.82 221.668 156.516 237.992C156.251 241.306 156.065 244.616 155.959 247.928C155.854 248.791 155.753 249.657 155.659 250.523C155.302 253.797 155.028 257.124 155.052 260.421C155.063 261.9 155.109 263.373 155.21 264.848C155.035 264.355 154.872 263.86 154.714 263.367C154.392 262.356 154.18 261.308 153.851 260.305C153.579 259.474 153.228 258.678 152.902 257.874V257.872C153 254.577 152.777 251.253 152.663 247.974C152.516 243.726 152.334 239.483 152.24 235.233C152.051 226.733 152.146 218.227 152.452 209.732C153.068 192.614 154.625 175.577 156.194 158.529C156.63 153.788 157.099 149.05 157.424 144.3C157.75 139.5 157.882 134.691 157.919 129.879C157.921 129.532 157.395 129.44 157.299 129.775C157.213 128.633 157.062 127.494 156.81 126.391C160.591 128.802 164.578 130.887 168.486 133.078C170.544 134.233 172.594 135.408 174.716 136.443C175.882 137.012 177.059 137.536 178.26 138.032C179.505 138.545 180.695 139.25 182.065 138.893C182.183 138.862 182.295 138.819 182.403 138.762C182.247 139.057 182.091 139.351 181.942 139.649C181.425 140.677 180.932 141.71 180.454 142.751C180.327 142.845 180.215 142.974 180.127 143.143C179.895 143.597 179.669 144.055 179.45 144.519C179.406 144.478 179.362 144.436 179.319 144.394C179.134 144.221 178.88 144.482 179.042 144.671C179.117 144.756 179.189 144.839 179.262 144.925C177.832 148 176.671 151.233 175.474 154.389C174.003 158.268 172.609 162.176 171.296 166.111C168.708 173.85 166.424 181.69 164.447 189.607ZM107.757 247.267C100.449 251.18 93.6203 255.857 87.052 260.901C86.1566 261.589 85.2843 260.065 86.1669 259.387C92.7352 254.343 99.5645 249.666 106.873 245.753C107.868 245.22 108.753 246.734 107.757 247.267ZM83.0744 201.433C82.6945 201.404 82.3254 201.184 82.229 200.789C81.6369 198.366 81.1733 195.725 81.724 193.253C81.9694 192.151 83.6596 192.62 83.4148 193.719C82.9806 195.669 83.3256 197.776 83.7764 199.72C90.1503 199.999 96.4386 197.712 102.537 196.176C103.633 195.9 104.096 197.591 103.003 197.866C96.5342 199.495 89.8432 201.934 83.0744 201.433ZM209.964 266.082C209.97 266.067 209.977 266.049 209.981 266.034C210.356 264.899 210.365 263.579 210.406 262.389C210.479 260.272 210.402 258.15 210.211 256.039C209.808 251.597 208.94 247.226 207.903 242.893C205.849 234.31 202.947 225.959 201.371 217.26C198.279 200.184 199.013 182.404 192.943 165.933C190.421 159.086 186.817 152.504 181.92 147.064C182.278 145.977 182.626 144.888 182.966 143.794C183.56 141.891 184.167 139.928 184.533 137.968C184.542 137.916 184.553 137.861 184.559 137.806C186.644 136.907 188.54 135.213 188.864 132.96C189.005 131.987 188.842 130.908 188.422 129.968C189.281 129.175 189.833 128.145 189.702 126.764C189.456 124.164 186.42 123.496 184.307 122.987C181.905 122.411 179.413 122.251 176.956 122.523C175.715 122.659 174.488 122.887 173.289 123.228C172.248 123.524 171.114 123.829 170.279 124.544C170.181 124.627 170.262 124.789 170.38 124.789C172.07 124.783 173.753 124.162 175.461 124.081C177.249 123.998 179.034 124.145 180.787 124.513C182.501 124.872 184.211 125.398 185.769 126.211C186.208 126.442 186.85 126.597 186.335 127.062C185.958 127.402 185.217 127.43 184.733 127.481C183.661 127.592 182.736 128.219 182.6 129.363C182.479 130.374 183.082 131.518 184.156 131.746C184.215 131.759 184.27 131.774 184.318 131.794C184.347 131.849 184.391 131.895 184.386 131.82C184.386 131.82 184.388 131.818 184.388 131.82C184.415 131.98 184.424 132.044 184.424 132.055C184.417 132.042 184.406 131.987 184.397 131.943C184.404 131.982 184.417 132.046 184.434 132.14C184.41 132.037 184.43 132.29 184.41 132.329C183.84 133.381 182.155 133.677 181.173 134.13C180.982 134.218 180.818 134.321 180.678 134.437C180.445 134.356 180.209 134.275 179.97 134.185C178.793 133.745 177.618 133.317 176.425 132.92C174.124 132.151 171.794 131.465 169.492 130.694C165.135 129.234 160.922 127.391 156.646 125.721C156.51 125.216 156.352 124.723 156.166 124.243C156.128 124.143 155.949 124.11 155.929 124.243C155.863 124.668 155.81 125.096 155.767 125.525C155.749 125.565 155.745 125.609 155.753 125.65C155.506 128.149 155.572 130.707 155.444 133.203C155.287 136.316 154.846 139.406 154.721 142.521V142.577C154.261 145.236 153.844 147.904 153.467 150.58C153.044 150.448 152.56 150.474 152.064 150.74C148.562 152.609 144.625 153.65 140.664 153.883C138.67 153.999 136.695 153.933 134.711 153.703C133.407 153.554 132.123 153.282 130.836 153.024C131.513 150.185 132.241 147.36 133.063 144.563C133.74 142.264 134.494 139.976 135.426 137.764C136.366 135.531 137.537 133.398 138.626 131.233C139.128 130.231 138.536 128.699 137.232 128.804C136.846 128.835 136.46 128.859 136.072 128.877C132.298 129.057 128.372 128.636 124.646 128.261C120.405 127.831 116.106 127.386 111.902 126.687C111.591 126.637 111.464 127.06 111.771 127.163C113.765 127.833 115.736 128.592 117.781 129.094C119.885 129.613 122.003 130.087 124.137 130.457C126.183 130.81 128.236 131.106 130.297 131.356C131.64 131.52 132.999 131.603 134.352 131.713C132.53 134.624 131.274 137.907 130.181 141.139C128.776 145.291 127.743 149.563 126.733 153.826C124.571 162.963 122.789 172.193 121.395 181.479C120.396 188.138 119.587 194.823 118.98 201.525C118.8 199.489 118.581 197.46 118.333 195.432C117.505 188.701 116.295 182.014 114.677 175.428C114.822 175.174 114.89 174.869 114.842 174.573C114.55 172.763 113.783 171.187 113.11 169.508C112.441 167.163 111.72 164.833 110.944 162.521C110.063 159.371 109.075 156.27 107.81 153.241C106.843 150.933 105.741 148.684 104.513 146.503C103.047 143.454 101.436 140.471 99.6671 137.62C99.575 137.354 99.426 137.107 99.2134 136.899C98.8911 136.39 98.5645 135.888 98.2314 135.391C98.0144 135.066 97.3919 135.264 97.5563 135.676C97.633 135.869 97.7097 136.061 97.7886 136.252C90.5838 134.45 83.5193 137.205 76.6565 139.239C74.9249 139.754 73.1758 140.219 71.4003 140.554C70.0041 140.818 68.3777 141.138 66.9858 140.848C66.0543 140.655 65.6422 140.232 66.0959 139.237C66.565 138.207 67.8451 137.53 68.9563 137.074C69.375 136.984 69.7871 136.824 70.1838 136.583C71.1088 136.022 71.5143 134.851 71.0781 133.854C70.6814 132.953 69.524 132.177 68.5004 132.59C68.3536 132.649 68.2089 132.706 68.0642 132.763C68.0489 132.741 68.0314 132.71 68.016 132.666C67.8692 132.265 67.8056 132.745 67.8692 132.171C67.9744 131.233 68.9673 130.38 69.6468 129.843C71.3368 128.504 73.7785 127.513 75.9595 128.02C76.1239 128.057 76.2883 128.103 76.4505 128.16C78.6972 128.938 79.7909 125.703 77.9958 124.497C77.8862 124.425 77.7481 124.333 77.5968 124.226C76.8494 123.706 75.7556 122.832 76.0537 122.043C76.422 121.063 78.5941 120.5 79.4161 120.167C82.3883 118.961 85.5995 118.277 88.804 118.137C92.0283 117.997 95.2942 118.352 98.4045 119.222C99.9301 119.647 101.497 120.294 102.94 120.947C104.235 121.532 107.054 122.306 107.234 123.945C107.273 124.307 107.788 124.43 107.9 124.035C108.783 120.888 105.355 118.856 103.093 117.556C101.609 116.701 99.9257 116.169 98.2971 115.645C96.7365 115.141 95.143 114.77 93.5166 114.547C90.0249 114.069 86.4916 114.13 83.0284 114.801C79.8742 115.413 76.365 116.456 73.8158 118.485C72.2508 119.73 71.5428 121.712 72.1719 123.645C72.1938 123.708 72.2157 123.774 72.2376 123.838C69.421 124.342 66.7557 125.955 64.9737 128.204C63.5095 130.051 62.7423 132.622 64.0531 134.773C63.9983 134.812 63.9435 134.854 63.8909 134.897C62.6415 135.897 61.7121 137.348 61.4359 138.935C60.8945 142.065 62.7861 144.254 65.4318 145.091C64.7764 145.732 64.1473 146.411 63.5314 147.09C62.1527 148.614 60.8354 150.273 59.6736 151.965C57.3195 155.393 55.3074 159.125 53.5473 162.887C49.9284 170.61 47.6467 178.924 46.4368 187.353C45.8274 191.601 45.4197 195.871 45.2641 200.158C45.0843 205.045 45.2663 209.935 45.172 214.825C45.08 219.524 44.5605 224.11 43.5106 228.691C42.5045 233.072 41.163 237.365 39.9487 241.69C38.5788 246.56 37.0708 251.408 36.3474 256.43C35.9814 258.985 35.7184 261.547 35.9222 264.131C36.1282 266.764 37.0839 269.015 37.9651 271.463C38.1886 272.088 38.8703 272.34 39.4161 272.206C39.5388 273.379 39.9816 274.523 40.6414 275.513C42.042 277.613 44.1988 278.952 46.6691 279.439C49.4528 279.985 52.322 279.855 55.1408 279.754C58.1985 279.645 61.2584 279.546 64.3161 279.419C67.5174 279.287 70.7184 279.151 73.9197 279.015C73.8138 275.734 73.6876 272.454 73.5449 269.175C72.7731 251.447 71.5577 233.708 71.5255 215.957C71.4634 215.92 71.4025 215.877 71.3442 215.821C69.903 214.428 68.1337 213.513 66.4714 212.423C65.5306 211.806 66.41 210.288 67.3565 210.909C68.758 211.828 70.2184 212.645 71.5318 213.674C71.5395 211.827 71.5557 209.979 71.5923 208.131C71.6147 207.002 73.3682 207.002 73.3458 208.131C73.2358 213.7 73.2726 219.271 73.3987 224.84C73.8066 242.887 75.0888 260.9 75.6728 278.94C84.265 278.572 92.8577 278.203 101.451 277.889C108.441 277.635 115.431 277.381 122.421 277.127C123.888 277.074 124.712 276.026 124.891 274.656C125.22 272.136 124.602 269.53 123.204 267.41C123.059 267.191 122.888 266.996 122.697 266.83C122.73 265.319 122.792 263.807 122.706 262.297C122.579 259.991 122.388 257.685 122.222 255.382C121.884 250.768 121.623 246.146 121.52 241.521C121.31 232.272 121.463 223.014 121.987 213.778C123.037 195.325 125.481 176.991 129.481 158.941C129.773 157.626 130.067 156.311 130.371 154.998C133.482 156.614 137.265 157.194 140.664 157.216C144.925 157.243 149.092 156.263 152.941 154.481C152.915 154.681 152.889 154.878 152.865 155.077C151.79 163.625 150.885 172.19 150.096 180.767C148.522 197.865 147.558 215.033 147.692 232.208C147.729 236.967 147.911 241.71 148.137 246.461C148.367 251.294 148.72 256.401 150.065 261.063C150.215 261.578 150.546 261.874 150.927 261.981C150.947 262.661 150.99 263.342 151.039 264.013C151.194 266.194 151.639 270.724 152.591 272.701C153.518 274.63 155.063 276.16 157.034 277.002C159.537 278.069 162.244 277.762 164.887 277.591C176.381 276.842 187.867 275.838 199.355 274.957C200.955 274.834 202.555 274.713 204.153 274.588C205.575 274.479 207.046 274.382 208.309 273.644C209.744 272.804 210.864 268.682 210.369 266.976C210.279 266.665 210.143 266.358 209.964 266.082Z" fill="black"/>
<path fill-rule="evenodd" clip-rule="evenodd" d="M176.68 50.9797C176.607 48.3587 172.802 47.2705 171.703 49.8662C171.635 49.9357 171.561 50.0026 171.491 50.0624C171.835 49.7667 171.116 50.2559 170.999 50.3164C170.899 50.3682 170.796 50.4148 170.694 50.4631C169.987 43.8233 167.587 36.6654 161.386 33.3325C152.737 29.1296 142.742 28.3092 133.253 28.7267C128.446 29.0125 122.895 29.7827 118.625 27.3459C117.294 26.5867 116.227 25.3915 114.724 24.9222C109.976 23.6354 107.823 28.52 108.47 32.5369C106.445 32.5529 104.437 33.6762 103.563 35.5256C103.05 36.6202 103.059 37.8014 102.616 38.8999C101.258 41.6856 99.3159 43.688 100.414 47.0656C98.4826 49.2681 99.5838 52.6025 101.143 54.7112C101.912 55.8079 102.829 56.8609 103.393 58.0885C103.94 59.2639 103.114 60.6579 102.654 61.7722C99.2551 69.8487 99.4493 78.7432 101.278 87.1675C97.6081 88.7633 96.5066 93.7518 98.8999 96.8929C99.7234 98.0032 100.728 98.4153 101.867 99.0985C103.309 99.8936 102.132 103.079 102.593 104.617C103.221 108.372 106.633 110.685 110.007 108.246C112.148 107.921 113.874 114.163 115.429 115.73C116.387 116.993 117.45 118.126 118.607 119.172C122.052 128.055 139.704 132.559 148.432 132.044C157.571 131.086 163.737 123.308 168.871 116.405C171.507 112.727 173.222 108.61 173.846 104.12C174.472 99.608 174.198 95.0875 173.775 90.5696C172.885 80.9705 171.482 67.1412 170.575 57.4384C173.85 57.1682 176.779 54.3743 176.68 50.9797Z" fill="#F1C19A"/>
<path fill-rule="evenodd" clip-rule="evenodd" d="M111.391 26.1998C112.027 25.571 113.069 26.2162 113.758 26.7214L113.911 26.8349L114.347 27.1676C115.338 27.9329 116.265 28.7644 117.335 29.4263C118.503 30.1491 119.771 30.7238 121.059 31.1951C123.557 32.1088 126.244 32.5189 128.892 32.6484C139.727 33.1784 152.338 27.4739 162.171 34.2859C164.502 35.9006 166.111 38.2616 166.941 40.9619C167.877 44.0069 167.557 47.1604 168.323 50.216C168.655 51.5422 170.945 51.7263 171.201 50.2687L171.218 50.1558L171.419 50.0299L171.498 49.9826C171.579 49.9357 171.616 49.9222 171.546 49.9882L171.53 50.0023L171.561 49.9752C171.585 49.9539 171.609 49.9319 171.633 49.9095L171.703 49.8411C172.191 48.6881 173.213 48.262 174.204 48.3741L174.176 48.4427L173.881 49.2051L173.787 49.4443C173.44 50.3176 173.058 51.1443 172.397 51.8925C171.463 52.9514 170.3 53.8143 168.991 54.3456C168.721 54.4547 168.762 54.8205 169.059 54.8501C171.984 55.1419 175.279 53.3611 176.655 50.662C176.668 50.7571 176.677 50.8547 176.68 50.9545C176.689 51.2833 176.67 51.6065 176.626 51.9223C176.463 51.983 176.305 52.073 176.159 52.1948C175.209 52.9859 174.742 54.2788 173.849 55.1614C172.913 56.0863 171.764 56.944 170.516 57.3736C170.496 57.3804 170.48 57.3902 170.466 57.4012C170.372 57.0435 170.272 56.6878 170.158 56.3375C170.114 56.1999 169.931 56.2343 169.917 56.3704C169.892 56.6134 166.46 54.1671 163.817 54.5623C158.849 55.3053 157.701 58.2122 150.562 57.7829C147.078 57.5735 139.72 54.3028 133.283 54.0569C127.443 53.8339 117.007 57.1735 114.253 59.098C112.822 60.0985 116.864 63.4021 116.132 64.904C114.055 69.1645 114.897 74.8006 112.725 78.1696L112.641 78.2964C111.25 80.344 112.119 85.7925 111.577 87.4721C110.599 90.5047 108.98 89.1765 109.224 89.583C109.302 89.7114 109.509 89.6282 109.468 89.48C108.8 87.0473 106.973 85.2106 104.65 84.5404C104.751 83.9637 104.568 83.2398 104.21 82.7668L104.064 82.0823L103.929 81.4416C103.618 79.947 103.339 78.4537 103.189 76.9182C102.965 74.6156 102.957 72.2958 103.104 69.9874C103.298 66.9543 103.921 64.0321 104.607 61.1118L104.681 60.799L105.22 58.5283C106.567 58.9123 107.949 59.155 109.293 59.2753C110.857 59.4151 112.406 59.4022 113.943 59.2783C115.305 62.9857 115.253 67.2073 113.57 70.8282C111.601 75.0638 106.774 79.1096 108.099 84.246C108.677 86.4851 112.057 86.028 112.137 83.7671L112.138 83.6981C112.151 81.4641 112.909 79.6245 113.91 77.7044L114.048 77.442L114.277 77.014C115.475 74.768 116.49 72.5517 116.827 69.9966C117.317 66.2848 116.549 62.452 114.715 59.2069C121.249 58.5239 127.574 55.9317 133.954 54.5391L134.247 54.4764L134.541 54.4158C139.254 53.4633 144.449 53.3508 148.723 55.8375C148.804 55.8848 148.869 55.7662 148.795 55.7132C142.593 51.2308 134.56 51.8671 127.448 53.4467L127.038 53.5387L126.636 53.631C120.058 55.1534 113.166 57.3896 106.442 55.4197C104.694 54.9077 102.998 54.0667 101.63 52.8488L101.515 52.7462C100.937 52.2229 100.276 51.5456 100.165 50.7512C100.126 50.4716 100.138 50.28 100.303 50.0586C100.474 49.828 100.774 49.8291 100.601 49.7459C102.615 50.7186 104.342 47.9235 102.45 46.7125L102.317 46.6299C99.8963 45.0933 101.105 41.5964 103.882 41.6128L104.024 41.6153C105.597 41.62 106.079 39.7588 105.233 38.6694L105.152 38.5677C103.586 36.5479 106.221 34.1115 108.271 35.2534L108.383 35.318C109.356 35.8572 110.379 35.2569 110.747 34.3048C111.537 32.2617 111.132 30.1523 111.086 28.0378L111.083 27.8999L111.08 27.6699L111.079 27.4883L111.081 27.3679C111.091 26.9222 111.149 26.4388 111.391 26.1998ZM170.54 57.692L170.56 57.6964L170.602 57.6983L170.64 58.1098L170.591 57.9008L170.54 57.692ZM103.346 57.9654L103.299 57.8688L103.452 57.9306L103.378 58.0341L103.346 57.9654ZM146.251 46.2087C146.088 46.1622 145.97 46.4162 146.132 46.4903C150.156 48.3345 153.207 51.2776 155.589 54.9655C155.815 55.3146 156.156 55.417 156.548 55.356C156.74 55.3261 156.848 55.2326 156.951 55.1043L156.976 55.0715L157.055 54.9655C157.225 54.7318 157.202 54.3432 157.055 54.1072C154.637 50.238 150.591 47.4505 146.251 46.2087ZM155.828 45.0007C155.651 45.0013 155.557 45.2727 155.692 45.388C156.847 46.3734 157.976 47.4656 158.796 48.7548C159.195 49.3805 159.528 50.0477 159.769 50.7504C160.031 51.5171 160.116 52.3118 160.491 53.0369C161.12 54.252 162.805 53.5732 162.889 52.3859C163.017 50.595 161.525 48.5812 160.342 47.3608C159.141 46.1223 157.669 45.2682 155.97 45.0187L155.852 45.0022L155.828 45.0007ZM111.479 43.5988C110.986 43.4738 110.582 44.1046 110.97 44.4746C113.1 46.5079 115.979 47.4509 118.845 47.8628L118.991 47.8833C121.674 48.2519 125.577 48.461 127.601 46.2738C128.029 45.8107 127.895 44.923 127.207 44.7799C126.266 44.5838 125.299 44.6561 124.343 44.774L124.071 44.8088L123.393 44.8989C122.055 45.0741 120.712 45.1808 119.361 45.1411C116.657 45.0613 114.08 44.2587 111.479 43.5988ZM158.35 37.129C158.067 37.0192 157.767 37.4098 157.945 37.6572C158.761 38.7912 159.739 39.783 160.575 40.8997C161.414 42.02 162.114 43.1972 163.106 44.1938C163.639 44.7286 164.545 44.1846 164.357 43.4641C163.645 40.7369 160.936 38.1302 158.35 37.129ZM115.887 38.3599C115.589 38.2543 115.381 38.6676 115.588 38.8752C118.334 41.6228 123.276 43.0619 126.913 41.4749C127.732 41.1176 127.231 39.9695 126.494 39.9242C124.674 39.8117 122.846 40.0226 121.034 39.7451C119.266 39.474 117.57 38.9572 115.887 38.3599ZM120.504 34.6769C120.111 34.5128 119.946 35.101 120.235 35.3154C121.789 36.4665 123.697 36.9656 125.598 36.5511C126.217 36.4161 126.084 35.4156 125.448 35.4412C123.728 35.51 122.107 35.3456 120.504 34.6769ZM133.253 28.7016C135.607 28.598 137.993 28.5706 140.381 28.6522L139.321 28.7932L138.615 28.8855C135.905 29.2357 133.192 29.5319 130.457 29.5199C128.608 29.5118 126.762 29.3625 124.957 28.9973C127.722 29.1644 130.6 28.8593 133.253 28.7016Z" fill="#1F1F1F"/>
<path fill-rule="evenodd" clip-rule="evenodd" d="M105.29 45.2085C105.287 45.2221 105.292 45.2324 105.295 45.2468C105.295 45.2427 105.296 45.2405 105.297 45.2354C105.294 45.2245 105.292 45.2172 105.29 45.2085Z" fill="#4F66AF"/>
<path fill-rule="evenodd" clip-rule="evenodd" d="M105.289 45.348C105.277 45.3353 105.26 45.3259 105.243 45.3132L105.242 45.3145C105.258 45.325 105.273 45.3371 105.289 45.348Z" fill="#4F66AF"/>
<path fill-rule="evenodd" clip-rule="evenodd" d="M176.159 52.22C177.235 51.3244 178.929 52.149 178.565 53.6234C178.168 55.2291 176.451 56.3263 175.033 56.986C173.574 57.6648 172.152 57.7957 170.56 57.7216L170.541 57.7172C170.983 59.4932 171.233 61.3393 171.571 63.1261C172.001 65.3928 172.423 67.6606 172.839 69.9296C173.241 72.1227 173.749 74.3186 174.058 76.5227C174.37 78.7476 174.669 80.974 174.975 83.1995C175.487 86.9166 175.899 90.6507 176.334 94.3784L176.541 96.1428C176.977 99.8776 177.328 103.617 176.502 107.333C175.728 110.817 173.986 114.066 171.964 116.973C169.984 119.82 167.773 122.558 165.345 125.034C160.662 129.811 154.888 133.636 148.117 134.345C145.202 134.651 142.088 134.311 139.347 133.249L139.165 133.178C136.39 132.08 132.993 130.201 132.271 127.116C131.827 125.224 133.773 123.747 135.479 124.645C136.269 125.061 136.863 125.537 137.512 126.133L137.627 126.239C138.157 126.732 138.362 126.884 138.973 127.27C140.228 128.061 141.169 128.435 142.594 128.795C145.222 129.457 148.058 129.352 150.725 128.569C156.389 126.906 160.783 122.566 164.547 118.215C166.591 115.852 168.531 113.373 170.027 110.619C171.597 107.73 172.321 104.696 172.278 101.409C172.228 97.699 171.717 93.975 171.381 90.2829C171.039 86.519 170.723 82.7563 170.444 78.9871C170.183 75.4524 170.158 71.9018 170.067 68.3561L170.049 67.6913C169.995 65.809 169.958 63.9261 169.915 62.0433C169.873 60.1661 169.725 58.2649 169.918 56.3956C169.931 56.2594 170.114 56.225 170.159 56.3627C170.273 56.7129 170.372 57.0686 170.466 57.4263C170.481 57.4154 170.497 57.4055 170.517 57.3987C171.764 56.9691 172.913 56.1115 173.849 55.1866C174.743 54.3039 175.209 53.011 176.159 52.22ZM107.899 25.9192C108.683 22.6937 112.21 21.9733 114.818 23.5266C116.072 24.2736 117.077 25.3508 118.248 26.207C119.413 27.0582 120.701 27.7419 122.059 28.2247C124.758 29.1838 127.605 29.5325 130.457 29.545C137.4 29.5755 144.2 27.6204 151.153 27.8385C156.533 28.0073 162.243 29.6005 166.145 33.4975C168.247 35.5968 169.602 38.2957 170.329 41.161C170.668 42.5002 170.921 43.8718 171.121 45.2403L171.17 45.5823C171.282 46.3821 171.461 47.2288 171.478 48.0371C171.493 48.763 171.309 49.5227 171.21 50.2411C171.001 51.7557 168.66 51.5832 168.323 50.2411C167.557 47.1856 167.878 44.032 166.942 40.987C166.112 38.2867 164.503 35.9257 162.172 34.3111C152.338 27.499 139.728 33.2036 128.893 32.6736C126.245 32.544 123.557 32.134 121.06 31.2202C119.771 30.749 118.503 30.1743 117.336 29.4514C116.266 28.7896 115.339 27.958 114.348 27.1928L113.911 26.86C113.232 26.3481 112.076 25.5478 111.391 26.2249C111.093 26.5197 111.075 27.1861 111.08 27.6951L111.084 27.9251C111.115 30.0857 111.554 32.2425 110.747 34.3299C110.379 35.282 109.356 35.8824 108.383 35.3432L108.333 35.3142C106.275 34.0874 103.571 36.5526 105.152 38.5928L105.201 38.6545C106.091 39.7377 105.617 41.6453 104.025 41.6405L103.967 41.6395C101.131 41.5508 99.8724 45.1029 102.317 46.655L102.392 46.7014C104.377 47.8918 102.636 50.7536 100.602 49.771C100.774 49.8543 100.475 49.8532 100.303 50.0838C100.138 50.3051 100.126 50.4967 100.165 50.7764C100.284 51.6237 101.028 52.3378 101.63 52.8739C102.999 54.0919 104.695 54.9329 106.443 55.4449C113.444 57.4959 120.627 54.987 127.449 53.4718C134.561 51.8922 142.593 51.2559 148.796 55.7383C148.869 55.7914 148.805 55.91 148.723 55.8626C144.272 53.2724 138.82 53.5023 133.955 54.5642C127.575 55.9569 121.25 58.5491 114.716 59.232C116.55 62.4772 117.318 66.31 116.828 70.0217C116.491 72.5768 115.476 74.7932 114.277 77.0392L114.048 77.4672C112.98 79.4832 112.152 81.3877 112.139 83.7232C112.126 86.0437 108.683 86.5329 108.1 84.2712C106.775 79.1347 111.601 75.0889 113.571 70.8533C115.254 67.2325 115.306 63.0109 113.943 59.3035C112.407 59.4273 110.858 59.4403 109.294 59.3004C107.95 59.1801 106.568 58.9375 105.22 58.5535L104.681 60.8241C103.967 63.8486 103.305 66.8711 103.105 70.0125C102.957 72.3209 102.965 74.6407 103.19 76.9434C103.384 78.9322 103.794 80.8502 104.211 82.7919C104.569 83.2649 104.752 83.9889 104.651 84.5655C106.974 85.2358 108.801 87.0725 109.469 89.5051C109.509 89.6533 109.302 89.7366 109.225 89.6082C107.641 86.9749 103.563 86.006 100.983 87.7456C98.519 89.4065 97.5472 92.7599 98.9418 95.4146C99.6754 96.8104 100.763 97.7913 102.165 98.4668L102.447 98.5995C103.182 98.948 103.857 99.3278 104.33 100.028C104.943 100.935 104.963 101.895 104.905 102.933L104.88 103.353C104.842 104.048 104.833 104.764 105.04 105.433L105.086 105.582C105.141 105.749 105.198 105.896 105.298 106.055C105.328 106.102 105.607 106.377 105.698 106.476L105.812 106.511L105.94 106.516C106.083 106.518 106.27 106.456 106.208 106.499L106.225 106.49C106.279 106.456 106.328 106.42 106.37 106.389L106.45 106.327C106.635 106.058 106.868 105.835 107.154 105.666L107.426 105.544C108.135 104.795 109.349 105.189 109.857 105.935C110.222 106.472 110.419 107.018 110.435 107.557C110.492 107.465 110.619 107.415 110.7 107.518L111.181 108.133C113.024 110.491 114.834 112.865 116.928 115.015C118.081 116.2 119.322 117.314 120.619 118.339C121.726 119.215 123.826 120.057 123.858 121.652C123.868 122.17 123.501 122.537 123.053 122.713C121.592 123.284 119.787 121.339 118.732 120.393L118.645 120.317C117.354 119.183 116.176 117.939 115.088 116.609C112.976 114.024 111.21 111.05 110.431 107.778C110.395 108.349 110.15 108.908 109.674 109.436C109.041 110.139 108.173 110.632 107.247 110.835C105.148 111.294 103.099 110.537 101.85 108.785C100.795 107.304 100.484 105.348 100.62 103.558L100.637 103.343C100.656 103.056 100.681 102.529 100.755 102.305L100.094 101.942C99.2839 101.51 98.533 100.943 97.8591 100.321C95.1506 97.8186 93.7917 93.7522 95.0299 90.1938C95.8044 87.9678 97.432 86.0309 99.516 85.0243C99.1677 84.2176 99.0512 83.2596 98.9197 82.412L98.8977 82.2718C98.6748 80.8814 98.4882 79.4734 98.4171 78.0662C98.2841 75.4383 98.4458 72.7858 98.8578 70.1883C99.5272 65.9694 100.913 61.4951 103.453 57.9558C101.515 57.1847 99.7314 56.0684 98.3548 54.5184C96.9162 52.8987 95.9991 50.5798 97.1115 48.5228C97.395 47.9985 97.7644 47.5577 98.189 47.2077C97.4527 45.8146 97.2146 44.1682 97.6688 42.5945C98.2117 40.713 99.6857 39.2456 101.466 38.5605C101.034 36.7779 101.387 34.8605 102.709 33.375C104.019 31.9012 106.055 31.3644 107.938 31.7013C108.04 29.8054 107.445 27.789 107.899 25.9192ZM102.616 92.4835C104.343 91.6366 106.39 91.7712 108.115 92.5738L108.232 92.6294C110.115 93.5446 112.61 95.6829 112.011 97.957C111.661 99.287 110.186 99.7412 109.043 99.1671C108.088 98.6873 107.87 97.8297 107.39 96.9681C107.052 96.3588 106.633 95.8825 106.141 95.3927C105.104 94.3605 103.939 93.5939 102.616 92.9804C102.425 92.8918 102.432 92.574 102.616 92.4835ZM146.133 46.5154C145.971 46.4414 146.088 46.1873 146.251 46.2338C150.591 47.4757 154.637 50.2632 157.055 54.1323C157.203 54.3684 157.225 54.757 157.055 54.9906L156.977 55.0967C156.866 55.2417 156.757 55.3488 156.548 55.3812C156.156 55.4421 155.816 55.3398 155.59 54.9906C153.208 51.3027 150.156 48.3596 146.133 46.5154ZM175.185 47.2457C175.553 46.6217 176.528 46.7473 176.722 47.4469L176.75 47.5078C176.855 47.7463 176.807 47.7951 176.612 47.6602C177.096 48.0595 177.315 48.6544 177.167 49.2939C176.368 52.7482 172.463 55.2148 169.06 54.8753C168.763 54.8457 168.722 54.4799 168.991 54.3707C170.301 53.8395 171.463 52.9766 172.398 51.9177C173.306 50.8884 173.688 49.7108 174.177 48.4678C174.36 48.0012 174.645 47.6652 175.047 47.4818C175.1 47.4081 175.147 47.3296 175.185 47.2457ZM155.829 45.0259L155.852 45.0274C157.601 45.2538 159.114 46.1187 160.342 47.386C161.525 48.6063 163.018 50.6201 162.89 52.411C162.805 53.5983 161.121 54.2771 160.492 53.062C160.117 52.337 160.032 51.5422 159.769 50.7755C159.528 50.0729 159.195 49.4057 158.797 48.7799C157.976 47.4907 156.848 46.3986 155.693 45.4131C155.558 45.2978 155.652 45.0265 155.829 45.0259ZM110.971 44.4998C110.583 44.1298 110.986 43.499 111.48 43.6239C114.081 44.2839 116.657 45.0865 119.362 45.1663C120.713 45.2059 122.056 45.0992 123.394 44.9241L124.072 44.8339C125.115 44.6975 126.176 44.5903 127.208 44.8051C127.896 44.9482 128.03 45.8359 127.601 46.299C125.578 48.4862 121.675 48.2771 118.991 47.9084C116.077 47.5078 113.137 46.5675 110.971 44.4998ZM157.946 37.6824C157.768 37.4349 158.068 37.0443 158.351 37.1542C160.936 38.1554 163.646 40.762 164.358 43.4893C164.546 44.2097 163.639 44.7537 163.107 44.2189C162.115 43.2223 161.414 42.0451 160.576 40.9249C159.74 39.8082 158.762 38.8164 157.946 37.6824ZM115.589 38.9003C115.381 38.6928 115.59 38.2794 115.888 38.3851C117.571 38.9823 119.267 39.4991 121.035 39.7703C122.846 40.0477 124.674 39.8369 126.495 39.9493C127.231 39.9947 127.733 41.1428 126.914 41.5C123.276 43.0871 118.335 41.648 115.589 38.9003ZM120.236 35.3405C119.947 35.1262 120.111 34.5379 120.505 34.7021C122.108 35.3708 123.729 35.5352 125.449 35.4663C126.084 35.4407 126.218 36.4413 125.599 36.5763C123.697 36.9907 121.79 36.4917 120.236 35.3405Z" fill="black"/>
<path fill-rule="evenodd" clip-rule="evenodd" d="M149.52 113.025C148.047 112.424 146.732 111.421 145.771 110.14C145.437 109.695 145.35 109.225 145.42 108.795C145.499 108.311 145.785 107.873 146.175 107.579C146.567 107.284 147.056 107.139 147.529 107.213C147.941 107.277 148.35 107.503 148.674 107.97L148.742 108.063C149.313 108.836 150.058 109.47 150.906 109.879C151.724 110.273 152.639 110.457 153.585 110.35C155.388 110.146 156.63 109.172 157.951 107.848C158.114 107.681 158.278 107.508 158.443 107.333C158.547 107.175 158.691 107.072 158.851 107.019C159.029 106.959 159.23 106.963 159.414 107.027C159.592 107.089 159.751 107.207 159.857 107.363C159.959 107.512 160.016 107.695 159.997 107.907C159.876 109.278 159.159 110.503 158.14 111.464C157.009 112.532 155.509 113.27 154.097 113.53C152.541 113.815 150.956 113.61 149.52 113.025ZM154.831 91.8612C156.486 92.8672 159.008 95.2131 157.227 97.7072C155.131 99.9063 152.114 97.3849 150.627 96.2445C149.248 95.3607 147.698 97.6337 148.978 98.6657C159.723 106.621 164.084 92.1242 155.668 90.6783C154.741 90.519 154.397 91.5499 154.831 91.8612ZM135.575 82.6073C135.757 80.3374 139.215 79.822 139.559 82.0681C139.867 84.0802 139.504 85.9285 138.598 87.74C137.732 89.4706 135.555 88.6632 135.39 87.0873C135.17 84.9749 135.461 84.0193 135.575 82.6073ZM161.891 81.6024C162.373 80.9712 163.069 80.5403 163.903 80.7838C166.508 81.545 165.74 85.2432 164.825 87.0433C164.328 88.0208 162.721 88.2687 161.995 87.408C160.812 86.0044 160.245 83.2013 161.75 81.8187C161.79 81.7473 161.836 81.6752 161.891 81.6024ZM138.561 72.6751L138.972 72.603C140.245 72.3829 141.828 72.1713 142.729 73.1947C143.206 73.7374 143.371 74.7461 142.729 75.2655C141.6 76.1795 140.351 75.8253 138.998 75.9027C137.883 75.9667 136.811 76.1512 135.736 76.4583C133.38 77.1318 131.459 78.3614 129.447 79.7115C129.182 79.8886 128.913 79.5509 129.039 79.3039C130.201 77.0281 132.453 75.1588 134.708 74.0193C135.912 73.4111 137.229 72.9065 138.561 72.6751ZM159.517 71.6556L159.832 71.7201C163.259 72.4365 167.712 73.8676 169.335 77.234C169.397 77.7101 169.332 77.8121 169.279 77.8787L169.261 77.9009C169.217 77.9578 169.182 78.0363 168.976 78.1011C168.919 78.0875 168.861 78.073 168.802 78.0577C168.058 77.8627 167.47 77.5941 166.9 77.3154L166.282 77.011C165.565 76.6596 164.842 76.3209 164.075 76.0708C162.44 75.5374 160.757 75.1616 159.049 74.9609C158.679 74.9175 158.322 74.7925 158.041 74.5783C157.774 74.375 157.57 74.0936 157.477 73.7194C157.356 73.2353 157.391 72.8687 157.651 72.4319C157.846 72.1039 158.126 71.8765 158.447 71.7459C158.774 71.6128 159.146 71.5815 159.517 71.6556Z" fill="black"/>
</g>
<defs>
<linearGradient id="paint0_linear_1619_25485" x1="125" y1="250" x2="125" y2="0" gradientUnits="userSpaceOnUse">
<stop stop-color="#5800FF"/>
<stop offset="1" stop-color="#A500CF"/>
</linearGradient>
<clipPath id="clip0_1619_25485">
<rect width="255" height="255" fill="white"/>
</clipPath>
</defs>
</svg>
