<svg width="255" height="255" viewBox="0 0 255 255" fill="none" xmlns="http://www.w3.org/2000/svg">
<g clip-path="url(#clip0_754_504)">
<path opacity="0.8" d="M249.94 251.848C249.851 251.697 245.1 254.854 245.021 254.744C244.49 253.812 250.461 220.373 249.94 219.451C248.897 217.617 190.913 256.587 189.929 254.744C188.581 252.379 251.288 189.419 249.94 187.054C247.972 183.537 136.804 258.271 134.837 254.754C132.574 250.745 252.242 158.655 249.94 154.657C246.988 149.456 82.696 259.964 79.7446 254.764C76.5375 249.092 253.196 127.922 249.94 122.25C246.064 115.366 28.5089 261.658 24.6033 254.764C20.4419 247.429 254.101 97.1984 249.94 89.8533C245.611 82.2175 4.44551 244.402 0.11684 236.777C-4.46761 228.69 254.524 65.5431 249.94 57.4564C245.611 49.8206 4.43567 212.015 0.11684 204.38C-4.47745 196.293 254.524 33.1462 249.94 25.0595C245.611 17.4237 4.43567 179.619 0.057815 171.983C-4.32004 164.347 241.401 7.94417 237.042 0.248284C232.93 -6.99667 4.2094 146.781 0.11684 139.586C-3.2969 133.574 185.354 6.31082 181.94 0.298405C178.782 -5.30316 3.24528 112.71 0.11684 107.189C-2.35247 102.83 129.318 4.61731 126.848 0.258314C124.635 -3.60967 2.29101 78.6401 0.11684 74.7922C-1.41787 72.0866 73.2811 2.97393 71.7464 0.268344C70.5068 -1.92619 1.3564 44.5798 0.106992 42.3552C-0.561983 41.1728 17.3134 1.4107 16.6445 0.268344C16.3592 -0.24271 0.392291 10.4894 0.106992 9.98841" stroke="url(#paint0_linear_754_504)" stroke-width="5" stroke-linecap="round" stroke-linejoin="round"/>
<path d="M137.93 195.554H194.777V265.456H137.93V195.554Z" fill="#FFC600"/>
<path fill-rule="evenodd" clip-rule="evenodd" d="M121.349 127.182C127.477 122.523 142.861 120.427 149.401 124.914C155.861 129.419 156.565 136.704 159.575 143.407C162.415 142.069 167.106 143.984 167.929 146.616C168.95 147.857 168.996 151.344 169.7 153.013C200.344 157.883 204.996 181.739 208.684 208.822C213.563 236.304 224.64 263.726 219.831 292.006C220.458 292.911 220.952 293.791 221.409 294.836C222.503 296.696 221.094 299.328 218.886 299.226C216.028 298.975 213.199 298.633 210.328 298.526C202.37 298.25 194.404 298.283 186.443 298.384L185.357 298.399C145.233 298.897 105.112 299.88 64.9864 300.141C63.5308 300.143 62.8181 298.839 63.0124 297.553C63.4039 294.964 63.7671 292.374 64.1461 289.783C54.6555 292.287 44.566 292.916 35.1021 290.047C34.4401 289.373 36.6447 289.738 36.9945 289.636C28.2847 283.693 30.8858 271.173 31.6573 262.156C36.4548 231.258 38.146 197.07 56.6818 170.704C64.7007 159.944 76.4571 151.425 89.966 149.508L90.3408 149.457C94.2908 148.931 98.693 148.762 102.147 146.616C106.031 143.52 107.686 137.798 111.773 137.745C113.122 137.727 114.957 139.432 116.933 140.589C117.08 138.043 118.454 135.895 118.758 133.921L118.782 133.752C119.099 131.45 118.665 129.38 121.349 127.182ZM187.204 209.638C178.593 203.664 156.347 206.666 155.838 207C154.717 207.737 154.234 207.802 153.627 208.758C153.029 208.838 152.43 208.92 151.833 209.005C150.633 209.396 151.522 210.869 152.907 210.343C152.074 213.931 154.526 216.483 155.502 220.03C155.819 221.181 155.513 223.253 155.502 224.429C155.597 225.93 157.258 227.702 156.981 229.207C155.997 234.559 150.655 239.779 152.907 244.969C154.399 247.9 158.886 249.395 161.87 250.391C168.05 252.76 178.82 250.302 182.411 244.969C184.327 242.124 186.546 234.949 187.688 232.723L187.942 229.192C188.566 220.416 189.121 210.968 187.204 209.638Z" fill="#FFC094"/>
<path fill-rule="evenodd" clip-rule="evenodd" d="M111.454 137.761L113.918 139.271L128.231 146.336C131.006 147.112 132.394 148.042 132.394 149.125V160.161C132.394 161.637 134.998 164.984 140.205 170.201L145.017 165.412L144.909 164.785C144.451 162.083 144.222 160.276 144.222 159.363C144.222 158.381 148.929 154.654 158.343 148.182L162.462 144.31L162.023 142.976C164.562 143.096 167.316 144.658 167.929 146.616C168.95 147.857 168.996 151.344 169.7 153.013C200.344 157.883 204.996 181.739 208.684 208.822C213.563 236.304 224.64 263.726 219.831 292.006C220.458 292.911 220.952 293.791 221.409 294.836C222.503 296.696 221.094 299.328 218.886 299.226C216.028 298.975 213.199 298.633 210.328 298.526C202.37 298.25 194.404 298.283 186.443 298.384L185.357 298.399C145.233 298.897 105.112 299.88 64.9864 300.141C63.5308 300.143 62.8181 298.839 63.0124 297.553C63.4039 294.964 63.7671 292.374 64.1461 289.783C54.6555 292.287 44.566 292.916 35.1021 290.047C34.4401 289.373 36.6447 289.738 36.9945 289.636C28.2847 283.693 30.8858 271.173 31.6573 262.156C36.4548 231.258 38.146 197.07 56.6818 170.704C64.7007 159.944 76.4571 151.425 89.966 149.508L90.3408 149.457L90.7183 149.408C94.5694 148.918 98.8027 148.694 102.147 146.616C105.928 143.601 107.597 138.099 111.454 137.761ZM145.75 202.533C144.346 202.533 141.471 204.71 137.125 209.064L136.742 209.241C131.488 211.677 128.007 213.791 126.3 215.582L126.239 215.647C124.514 217.494 121.099 222.407 115.993 230.386L108.599 234.752H105.801L103.809 249.18L108.599 259.481L119.448 255.832L137.125 251.18L147.268 240.904L152.99 238.986C152.296 240.988 152.044 242.981 152.907 244.969C154.399 247.9 158.886 249.395 161.87 250.391C168.05 252.76 178.82 250.302 182.411 244.969C184.327 242.124 186.546 234.949 187.688 232.723L188.016 228.137C188.606 219.673 189.044 210.915 187.204 209.638C178.593 203.664 156.347 206.666 155.838 207C154.717 207.737 154.234 207.802 153.627 208.758L153.313 208.8L155.079 206.409L154.454 206.076C149.993 203.714 147.092 202.533 145.75 202.533ZM152.907 210.343C152.11 213.778 154.323 216.263 155.369 219.581L152.695 214.469L152.695 210.409C152.764 210.392 152.835 210.371 152.907 210.343Z" fill="#333333"/>
<path fill-rule="evenodd" clip-rule="evenodd" d="M110.272 137.227C110.867 136.702 111.746 137.362 111.369 138.072C110.52 139.668 109.649 141.181 108.509 142.592C107.819 143.447 107.079 144.256 106.329 145.056C108.253 146.719 109.904 148.783 111.462 150.717C113.456 153.191 115.34 155.77 117.577 158.034C119.784 160.267 122.224 161.828 125.174 162.868L125.77 163.075C128.733 164.114 131.9 165.517 133.571 168.319C133.9 168.871 133.237 169.554 132.679 169.209C129.777 167.415 126.366 167.054 123.207 165.868C120.155 164.722 117.494 162.959 115.143 160.709C112.796 158.463 110.826 155.907 108.77 153.406C106.738 150.932 104.549 148.82 102.145 146.727C98.435 149.219 94.2 150.304 89.8938 151.369L89.4237 151.485C85.1123 152.551 80.824 153.789 76.7792 155.645C73.213 157.281 69.7053 159.235 66.8004 161.898C63.7168 164.724 61.3168 168.333 59.1202 171.862C54.2065 179.759 50.752 188.41 47.7108 197.166C44.5478 206.273 41.902 215.564 39.7662 224.964C38.6799 229.745 37.7976 234.561 37.0725 239.41C36.7235 241.746 36.4135 244.086 36.1411 246.432C35.8504 248.937 35.7837 251.514 35.0141 253.922C34.6842 254.954 33.9052 255.383 33.1255 255.346L32.9672 257.324C32.7571 259.961 32.5614 262.599 32.4952 265.252C32.3855 269.664 32.4353 274.063 32.7531 278.465L32.7981 279.066C33.0478 282.279 33.6059 285.889 36.0255 288.241C38.5312 290.678 42.3846 291.444 45.7619 291.488C53.6279 291.591 61.1997 287.879 68.1603 284.623C75.329 281.27 82.3018 277.548 89.1075 273.512C92.5734 271.456 96.0018 269.332 99.3866 267.146C101.048 266.073 102.697 264.982 104.334 263.873C105.271 263.238 106.16 262.542 107.114 261.978C106.647 261.544 106.438 260.86 106.83 260.263C104.07 257.871 102.922 253.604 102.788 250.15C102.679 247.363 103.09 244.584 103.414 241.822C103.578 240.43 103.78 239.04 103.99 237.654C104.073 237.107 104.136 236.521 104.233 235.943C96.7823 240.031 89.1231 243.672 81.2611 246.906C77.2312 248.565 73.1497 250.055 69.0118 251.421L68.1731 251.697C64.2524 252.978 60.2379 254.189 56.1847 254.922C55.968 254.961 55.792 254.641 56.0234 254.539C59.9734 252.799 64.0601 251.331 68.0694 249.728L68.7283 249.46C68.6526 249.456 68.5741 249.446 68.4922 249.426C66.1409 248.86 63.8079 247.986 61.5018 247.251C59.3615 246.569 56.9568 246.14 54.9562 245.11C54.8023 245.031 54.8884 244.817 55.0384 244.807C57.2869 244.651 59.7279 245.305 61.9325 245.69L62.7607 245.835C64.1481 246.08 65.5663 246.342 66.9469 246.685C66.9968 246.223 67.2552 245.759 67.6229 245.487C71.6684 242.495 71.2576 236.453 71.6903 231.997L72.0111 228.689C72.5755 222.9 73.1725 217.112 74.0796 211.366C74.128 211.059 74.6034 211.147 74.6053 211.437C74.6521 218.559 74.1137 225.649 73.8438 232.761L73.802 233.928C73.6528 238.316 73.5358 242.872 70.7681 246.249C71.1551 246.023 71.6784 246.023 71.9919 246.395C72.3771 246.853 72.5996 247.367 72.5926 247.872C75.0936 246.825 77.5837 245.75 80.0616 244.654C88.0284 241.13 95.8281 237.186 103.421 232.918C104.239 232.459 105.015 232.82 105.42 233.426L105.478 233.417C105.488 233.416 105.497 233.415 105.508 233.415L105.566 233.412C105.568 233.412 105.57 233.412 105.572 233.412C106.641 232.826 108.097 233.244 109.014 234.099C109.041 234.125 109.064 234.153 109.089 234.18C110.25 233.659 111.334 232.957 112.318 232.066C114.332 230.243 116.038 227.99 117.524 225.73C120.263 221.568 122.589 216.94 126.288 213.514C129.293 210.731 133.019 208.998 136.928 207.91C136.912 207.796 136.956 207.674 137.035 207.594C137.235 207.388 137.379 207.317 137.638 207.442C137.659 207.452 137.671 207.466 137.68 207.481L138.061 206.83C138.269 206.477 138.483 206.121 138.557 206.028C139.001 205.47 139.458 204.916 139.921 204.374C140.708 203.456 141.603 202.55 142.641 201.914C144.912 200.52 147.3 201.309 149.635 202.07C151.046 202.53 152.452 203.006 153.861 203.473L154.006 203.52C155.057 203.857 156.286 204.152 156.755 205.263C156.941 205.703 156.97 206.159 156.883 206.602C166.859 204.069 177.938 205.233 187.672 208.206C188.046 208.32 188.419 208.627 188.498 209.03C189.613 214.742 190.11 220.599 189.605 226.408C189.17 231.422 188.057 236.335 185.96 240.926L185.841 241.185C183.871 245.439 180.748 250.684 175.978 252.017C173.099 252.822 169.913 252.347 166.976 252.2C164.122 252.056 161.204 252.036 158.376 251.587C155.858 251.188 153.652 250.061 152.096 248.017C150.753 246.253 150.046 244.121 149.467 242C149.202 242.085 148.939 242.174 148.679 242.276C147.586 242.702 146.659 243.391 145.821 244.201C144.051 245.912 142.678 247.991 140.826 249.624C139.15 251.102 137.24 252.252 135.192 253.136C130.946 254.968 126.392 255.7 121.902 256.67L121.589 256.738C118.208 257.479 114.758 258.389 111.774 260.146C111.715 260.663 111.479 261.15 111.101 261.469C111.627 261.962 111.85 262.744 111.388 263.477C110.096 265.524 107.871 266.689 105.873 267.998L105.743 268.084C103.778 269.385 101.796 270.66 99.7977 271.909C95.7352 274.449 91.5879 276.849 87.382 279.143C80.6172 282.833 73.7072 286.314 66.6721 289.472C67.0944 291.546 66.9401 293.685 67.2575 295.773L67.3061 296.071C67.4417 296.846 67.2585 297.495 66.7239 298.001L66.6674 298.053L66.6684 298.046L66.6182 298.092L66.6015 298.106L66.6071 298.101C66.5454 298.158 66.4819 298.21 66.4171 298.255L66.3345 298.308C65.8196 298.621 65.1567 298.617 64.6295 298.341L64.5693 298.308L64.468 298.25C63.7714 297.85 63.2911 296.859 63.58 296.071C64.2902 294.136 64.5586 292.07 65.2144 290.122L64.6941 290.354L64.0084 290.653C56.5915 293.855 48.3528 296.552 40.2716 294.369C36.7009 293.404 33.3636 291.363 31.577 288.036C29.819 284.762 29.5705 280.961 29.4772 277.32C29.362 272.826 29.6033 268.263 30.1968 263.807C30.5952 260.816 31.0771 257.769 31.8203 254.809C31.438 254.472 31.157 253.989 31.0828 253.391C30.732 250.563 31.3459 247.624 31.7217 244.812C32.0889 242.066 32.4945 239.325 32.9532 236.593C33.8794 231.076 34.9555 225.57 36.2084 220.117C38.4381 210.412 41.3825 200.88 44.9273 191.575L45.2378 190.765C48.5134 182.261 52.3061 173.937 57.5873 166.466C60.1136 162.892 62.7842 159.651 66.3539 157.075C69.6981 154.662 73.4704 152.924 77.3633 151.596C81.2604 150.267 85.266 149.376 89.3423 148.822C93.4822 148.26 97.852 147.915 101.714 146.219C101.225 145.345 101.645 144.164 102.467 143.622C105.234 141.796 107.792 139.421 110.272 137.227ZM198.845 216.604C198.961 216.428 199.237 216.539 199.186 216.747C197.84 222.252 196.577 227.768 195.752 233.379C194.263 243.505 194.537 253.763 194.658 263.963L194.665 264.491C194.727 269.985 194.814 275.48 194.996 280.973C195.088 283.748 195.269 286.551 195.171 289.329C195.117 290.835 194.715 292.26 194.572 293.749C194.447 295.051 194.559 296.372 194.621 297.676C194.663 298.542 193.382 298.505 193.295 297.676L193.183 296.602C193.038 295.244 192.859 293.895 192.414 292.595C191.878 291.031 191.621 289.496 191.435 287.855C191.15 285.339 191.023 282.799 190.913 280.266L190.838 278.514C190.379 267.928 190.395 257.293 191.138 246.719L191.193 245.963C191.928 235.968 193.205 225.168 198.845 216.604ZM170.16 153.606C169.809 153.462 169.932 152.931 170.321 153.023L171.029 153.192C176.216 154.432 181.308 155.777 186.15 158.085C190.994 160.395 195.096 163.843 198.354 168.083C204.689 176.326 207.322 186.342 209.4 196.35C211.71 207.47 213.813 218.631 216.142 229.747L216.575 231.818C218.731 242.172 220.766 252.532 222.266 263.008L222.374 263.768C223.886 274.541 224.796 285.688 223.145 296.489C222.819 298.626 219.258 298.094 219.397 295.982C219.799 289.879 220.087 283.807 219.809 277.69C219.53 271.572 218.956 265.48 218.099 259.415C217.378 254.311 216.303 249.271 215.352 244.207L215.203 243.408C214.407 239.101 213.586 234.799 212.767 230.496L211.542 224.054C209.708 214.409 207.837 204.755 205.723 195.169L205.598 194.605C203.529 185.384 200.48 175.724 194.275 168.401C187.978 160.969 178.965 157.227 170.16 153.606ZM147.281 251.419C147.432 251.082 147.962 251.119 148.125 251.419C148.763 252.594 148.834 254.095 148.954 255.422L148.967 255.559C149.12 257.178 149.256 258.803 149.339 260.427C149.497 263.511 149.572 266.59 149.563 269.678C149.553 272.841 149.489 276.002 149.318 279.161L149.272 280.007C149.116 282.753 148.854 285.815 147.548 288.215C147.073 289.088 145.781 288.831 145.506 287.949C144.605 285.06 145.068 281.634 145.299 278.675L145.479 276.366C145.656 274.056 145.826 271.746 145.96 269.434C146.144 266.271 146.296 263.105 146.443 259.941C146.49 258.913 146.541 257.884 146.596 256.857L146.679 255.315C146.75 254.026 146.744 252.611 147.281 251.419ZM45.9622 255.514L46.3611 255.129C47.5857 253.932 49.1332 252.089 50.9435 252.203C51.6654 252.249 52.1253 252.847 51.9757 253.557C51.6559 255.073 50.1072 255.859 48.9923 256.785C47.771 257.799 46.6199 258.882 45.471 259.976C44.4518 260.946 43.4716 261.943 42.515 262.972L42.1573 263.359C41.8144 263.733 39.3724 265.939 39.6364 266.511L39.6508 266.536C39.7243 266.646 39.6019 266.797 39.48 266.758C38.4255 266.426 38.4913 265.523 38.89 264.609C39.656 262.852 40.9975 261.226 42.169 259.726C43.3372 258.229 44.6017 256.835 45.9622 255.514ZM151.102 211.452C150.286 209.528 147.282 209.568 145.577 209.683C141.282 209.973 136.636 211.058 132.815 213.062C128.853 215.14 126.185 218.47 123.797 222.151L123.685 222.324C121.358 225.937 119.117 230.213 115.473 232.696C113.616 233.962 111.449 235.117 109.197 235.618C109.042 235.889 108.792 236.104 108.463 236.182L108.311 236.217C107.669 236.358 106.673 236.515 105.812 236.421C105.818 236.842 105.814 237.259 105.824 237.657C105.854 238.799 105.867 239.945 105.867 241.087C105.868 243.481 105.739 245.879 105.839 248.272C105.928 250.388 106.227 252.6 107.245 254.492C107.991 255.88 108.977 256.799 110.166 257.676C113.092 255.895 116.4 254.81 119.758 253.994C123.818 253.007 127.976 252.349 131.944 251.011C133.854 250.366 135.691 249.523 137.354 248.378C139.12 247.163 140.469 245.518 141.856 243.909L142.073 243.659C143.489 242.037 145.035 240.485 147.036 239.606C148.76 238.848 151.031 238.713 152.538 237.541C153.326 236.928 153.392 236.038 153.475 235.127C152.51 235.265 151.488 235.044 150.526 234.931L150.028 234.873C149.118 234.765 148.23 234.646 147.334 234.415C147.168 234.372 147.168 234.122 147.334 234.079C148.393 233.806 149.441 233.69 150.526 233.563L150.781 233.531C151.763 233.403 152.795 233.209 153.757 233.425C153.93 232.768 154.18 232.141 154.53 231.514C155.021 230.632 155.951 229.632 156.076 228.603C156.114 228.295 156.042 227.932 155.897 227.66L155.847 227.568C155.786 227.458 155.713 227.348 155.608 227.28C155.596 227.293 155.571 227.309 155.517 227.326C154.776 227.559 154.13 227.197 153.787 226.639C152.33 226.819 150.741 226.758 149.375 226.819L147.994 226.885C146.519 226.953 144.976 226.982 143.589 226.685C143.396 226.643 143.337 226.322 143.531 226.239C145.236 225.511 147.303 225.278 149.129 224.999C150.148 224.842 151.175 224.723 152.197 224.586C152.877 224.494 153.6 224.343 154.305 224.306C156.073 222.108 155.121 218.641 152.66 217.695C151.763 218.088 150.957 217.859 149.978 217.775C149 217.691 148.02 217.635 147.039 217.639C145.072 217.647 142.988 218.164 141.04 217.942C140.723 217.905 140.429 217.484 140.744 217.228C142.235 216.013 144.372 215.617 146.264 215.358L146.656 215.305C147.291 215.222 148.062 215.101 148.863 215.029C149.044 214.676 149.368 214.41 149.856 214.344C150.001 214.324 150.147 214.312 150.292 214.3L150.29 214.285C151.48 214.228 151.428 212.222 151.102 211.452ZM69.6621 248.987C69.6411 249.02 69.6181 249.051 69.5937 249.08L69.5559 249.124L69.7515 249.045L69.6621 248.987ZM171.86 207.152C166.853 206.615 161.839 206.728 156.817 206.872C156.415 208.184 155.017 209.302 153.663 209.344C154.724 210.956 154.833 213.139 154.089 214.849C155.669 215.477 157.03 216.605 157.856 218.211C159.001 220.438 158.851 222.915 157.719 224.973C158.686 225.847 159.256 227.265 159.199 228.603C159.135 230.094 158.245 231.367 157.505 232.602C156.706 233.937 156.679 235.112 156.434 236.607C156.075 238.796 154.597 240.123 152.695 240.952L152.796 241.349C153.286 243.254 153.896 245.265 155.298 246.659C157.1 248.452 159.897 248.435 162.279 248.549L162.394 248.554C164.575 248.663 166.755 248.791 168.935 248.914L170.57 249.005C173.08 249.143 175.491 249.16 177.54 247.503C180.886 244.798 183.179 240.321 184.631 236.358C187.678 228.041 187.714 218.912 186.316 210.249C181.625 208.74 176.758 207.677 171.86 207.152ZM130.221 220.952L130.258 220.954C131.288 221.072 131.997 221.905 132.249 222.894C132.615 224.331 132.436 225.631 133.317 226.928C134.224 228.262 134.781 229.33 134.913 230.978C134.967 231.657 134.943 232.333 135.094 232.997L135.203 233.462C135.32 233.958 135.415 234.436 135.357 234.968C135.304 235.454 135.067 235.832 134.58 235.988C132.99 236.495 131.763 235.326 131.352 233.847C130.998 232.569 131.471 231.047 130.971 229.847C130.693 229.182 130.182 228.626 129.893 227.956C129.607 227.293 129.463 226.599 129.417 225.878C129.33 224.514 130.539 222.874 129.864 221.638C129.721 221.374 129.883 220.944 130.221 220.952ZM109.107 206.872C110.184 206.654 111.405 206.154 112.466 206.57C113.012 206.784 113.281 207.448 112.82 207.91C112.02 208.711 110.857 208.756 109.779 208.945L109.684 208.962C108.409 209.197 107.132 209.42 105.854 209.632C103.448 210.03 101.037 210.382 98.6167 210.681C96.1313 210.988 93.639 211.261 91.1432 211.467L90.177 211.546C88.0687 211.714 85.875 211.841 83.8065 211.519C83.5058 211.472 83.5542 211.035 83.8065 210.958C86.0726 210.274 88.5585 210.09 90.9014 209.8C93.3922 209.492 95.8788 209.166 98.359 208.779C100.835 208.393 103.308 207.978 105.772 207.52C106.886 207.313 107.997 207.098 109.107 206.872ZM147.945 204.673C147.001 204.34 145.962 203.845 144.938 204.01C143.173 204.296 141.602 206.013 140.205 207.144L140.907 207.008C144.496 206.319 149.249 205.577 152.263 207.855C152.27 207.842 152.276 207.829 152.285 207.816C152.528 207.447 152.81 207.159 153.118 206.844C153.147 206.816 153.175 206.788 153.203 206.759L153.369 206.582L152.99 206.451C152.177 206.164 151.214 205.793 151.061 205.739L151.051 205.736C150.015 205.385 148.977 205.039 147.945 204.673ZM118.454 129.547C118.306 127.65 121.263 127.666 121.41 129.547C121.729 133.655 120.804 137.723 118.811 141.324C118.796 141.35 118.78 141.374 118.765 141.399C120.011 142.046 121.271 142.667 122.56 143.222C124.208 143.933 125.887 144.58 127.596 145.129C129.142 145.625 131.047 145.821 132.347 146.855C135.087 149.034 134.058 153.557 133.531 156.489L133.448 156.952C133.186 158.46 132.996 160.008 133.633 161.456C134.313 163.002 135.688 164.15 136.915 165.256L137.163 165.481C138.25 166.469 139.492 167.671 140.29 169.012C141.018 167.509 142.01 166.281 143.059 164.899C143.807 163.912 143.275 163.587 142.737 162.623C142.219 161.695 141.967 160.707 142.129 159.648C142.427 157.694 143.991 156.282 145.548 155.222C147.387 153.97 149.439 153.042 151.34 151.877C155.246 149.484 159.05 146.748 162.476 143.709C162.571 143.625 162.735 143.736 162.659 143.85C159.952 147.962 156.778 151.515 152.877 154.53C151.295 155.753 149.633 156.768 147.96 157.834L147.48 158.142C146.808 158.576 145.97 159.157 145.666 159.897C145.361 160.641 146.012 161.202 146.363 161.819C147.477 163.776 146.94 165.601 145.619 167.261L145.558 167.337C144.246 168.952 143.251 170.454 142.775 172.517C141.753 176.948 143.177 181.564 144.667 185.724L144.726 185.888C145.532 188.13 146.389 190.356 147.089 192.634L147.282 193.264C147.916 195.36 148.436 197.428 147.724 199.583C147.482 200.316 146.481 200.489 146.065 199.799C144.598 197.367 144.232 194.439 143.313 191.764C142.417 189.158 141.388 186.598 140.522 183.981C139.408 180.611 138.662 176.983 139.066 173.449C139.055 173.428 139.041 173.409 139.031 173.387L138.748 172.767C137.974 171.089 137.227 169.624 135.82 168.286C134.352 166.891 132.759 165.656 131.604 163.966C129.096 160.298 130.647 156.216 130.95 152.205L130.985 151.713C131.04 150.88 131.07 149.748 130.525 149.171C129.912 148.522 128.475 148.357 127.662 148.069C125.56 147.327 123.489 146.461 121.517 145.422C119.639 144.433 117.82 143.341 116.127 142.061L115.268 141.416C113.914 140.395 112.51 139.281 111.602 137.892C111.497 137.732 111.675 137.474 111.865 137.551C113.38 138.165 114.765 139.142 116.182 139.991C116.204 139.939 116.23 139.887 116.259 139.835C118.013 136.665 118.734 133.153 118.454 129.547ZM166.857 151.265C167.46 149.612 170.212 149.74 170.102 151.704C170.018 153.213 169.377 154.575 168.79 155.945L168.727 156.092C168.122 157.52 167.422 158.86 166.585 160.168C164.986 162.669 163.112 164.991 161.111 167.181C159.297 169.167 156.916 170.381 154.172 170.18C153.016 170.095 151.849 169.801 150.836 169.224C149.633 168.539 148.326 166.482 146.791 166.98C146.642 167.028 146.504 166.811 146.632 166.708C148.404 165.283 150.416 167.493 152.113 168.025C154.669 168.827 157.293 167.941 158.938 165.877C160.656 163.722 162.238 161.309 163.682 158.963C164.415 157.772 165.084 156.535 165.662 155.261C166.245 153.975 166.378 152.577 166.857 151.265ZM162.736 141.092C162.661 140.864 162.945 140.646 163.146 140.777C164.31 141.534 165.32 142.534 166.394 143.411C167.586 144.383 168.786 145.336 170.005 146.275C171.782 147.643 169.721 150.161 168.157 148.667C166.016 146.622 163.671 143.949 162.736 141.092ZM156.342 133.09C156.815 131.269 159.613 132.02 159.206 133.82L159.192 133.875C158.42 136.849 159.52 139.876 161.868 141.804L161.954 141.874C163.44 143.061 161.335 145.137 159.864 143.961C156.654 141.395 155.318 137.036 156.342 133.09Z" fill="black"/>
<path fill-rule="evenodd" clip-rule="evenodd" d="M179.801 87.9746C179.268 83.2859 179.958 73.4857 180.004 72.8903C180.297 69.1263 178.534 54.2627 175.202 55.6322C169.613 51.2048 162.169 50.2272 155.209 49.7602C140.75 48.79 125.369 51.0172 114.204 60.7539C108.683 65.8104 103.308 73.1648 103.74 80.8223C98.7232 88.0807 91.6511 98.0373 97.9014 106.523C100.026 109.234 103.403 110.244 106.072 112.297C111.44 116.63 114.808 122.848 120.227 127.155C134.585 140.066 158.965 142.762 173.071 128.078C183.979 117.443 182.215 101.533 180.297 87.9746C179.007 78.8594 180.842 97.1217 179.801 87.9746Z" fill="#FFC094"/>
<path fill-rule="evenodd" clip-rule="evenodd" d="M135.894 29.8771C139.761 29.0962 143.731 28.6104 147.68 28.7566L147.985 28.7685C150.956 28.8873 154.718 29.1501 157.31 30.879C157.46 30.7293 157.699 30.6524 157.917 30.7563C160.997 32.2275 164.385 33.2911 167.628 34.3481C170.856 35.3998 174.205 36.0941 177.589 36.374C178.862 36.4793 179.951 37.8548 179.145 39.0885C178.953 39.3825 178.767 39.6795 178.581 39.9772C178.892 39.9447 179.203 39.9112 179.514 39.8798C180.538 39.7766 181.561 40.87 181.5 41.8675C181.462 42.4949 181.394 43.1148 181.294 43.7273C181.684 43.7192 182.072 43.7777 182.446 43.9361C184.343 44.7375 184.211 46.9979 184.069 48.7177C183.872 51.1043 182.98 53.6321 181.324 55.4184C182.561 56.7036 183.436 58.2385 183.958 60.0614C184.337 61.3925 184.548 62.8104 184.444 64.196L184.411 64.6109C184.282 66.1146 184.026 67.7794 182.945 68.8611C182.39 69.4189 181.706 69.6221 181.055 69.5577C181.449 73.023 181.701 76.5082 181.939 79.981L182.051 81.6409C182.581 89.6672 182.98 97.7458 182.876 105.785C182.779 113.299 181.295 120.591 176.69 126.692C172.496 132.247 166.474 136.341 159.662 137.898C155.991 138.738 152.243 138.798 148.527 138.263C146.726 138.002 144.913 137.603 143.204 136.974C141.311 136.275 139.951 135.246 138.678 133.704C138.076 132.973 138.366 131.416 139.565 131.562C141.379 131.782 143.034 132.048 144.773 132.584L145.022 132.663C146.754 133.218 148.547 133.632 150.358 133.808C154.066 134.168 157.831 133.806 161.384 132.68C167.168 130.846 172.15 126.758 175.343 121.622C179.133 115.534 179.561 108.624 179.506 101.623C179.448 93.942 179.198 86.2562 178.791 78.5827L178.721 77.3039C178.506 73.3552 178.298 69.404 178.115 65.4528C178.058 64.2134 177.971 62.9641 177.815 61.7271C176.385 60.8893 175.105 59.7342 174.27 58.3089C172.593 59.0029 170.829 59.5037 169.206 59.9028C165.448 60.8278 161.545 61.0524 157.719 60.4731C156.687 60.8997 155.635 61.2748 154.566 61.5975C154.277 61.7257 153.988 61.8516 153.7 61.975C151.123 63.0781 148.51 64.0126 145.79 64.6968L145.122 64.8635C143.691 65.2165 142.136 65.5642 140.613 65.6734C140.363 65.7701 140.093 65.8519 139.798 65.9238C138.411 66.2609 136.971 66.3675 135.55 66.2485C134.165 66.132 133.164 64.7315 133.927 63.4202C134.484 62.4634 135.047 61.509 135.614 60.5572C133.64 61.3801 131.601 62.0643 129.545 62.6443C127.469 63.2293 125.363 63.7226 123.255 64.1762C122.128 64.4166 120.996 64.6298 119.872 64.8703C119.067 65.0413 117.83 65.1305 117.174 65.661C116.448 66.2435 116.243 67.6019 115.967 68.4397C115.606 69.5279 115.266 70.6211 114.957 71.7266C114.34 73.9328 113.835 76.1711 113.443 78.4318C113.052 80.6949 112.789 82.9804 112.643 85.2733C112.497 87.5637 112.561 89.869 112.326 92.1495C112.2 93.3591 110.902 93.9813 109.943 93.136C109.831 93.0369 109.717 92.9366 109.605 92.8353L109.438 92.6824C108.618 91.9388 107.822 91.1505 107.166 90.2631C107.047 90.0995 106.933 89.9284 106.827 89.7549C106.81 89.7549 106.795 89.75 106.777 89.7376L106.595 89.6006C104.592 88.1084 101.245 86.163 99.2914 88.642C98.6689 89.4317 98.3502 90.4373 98.0857 91.4074L97.6215 93.1436C97.3213 94.2771 97.0388 95.4168 96.8735 96.5766C96.4994 99.1744 96.6877 102.169 98.4739 104.251C99.1874 105.084 100.171 105.679 101.268 105.835C101.88 105.919 102.484 105.815 103.091 105.738C103.708 105.661 104.302 105.785 104.92 105.726C105.9 105.629 106.329 106.804 105.962 107.543C105.764 107.939 105.531 108.281 105.266 108.572C105.479 108.755 105.682 108.953 105.878 109.161C106.458 109.347 106.978 109.746 107.367 110.274C107.682 110.701 107.845 111.164 107.872 111.653C107.907 111.774 107.936 111.898 107.964 112.024L108.495 112.888C108.612 113.077 108.729 113.264 108.846 113.447C110.198 115.579 111.699 117.384 113.565 119.084C115.361 120.72 117.31 122.185 118.997 123.94L119.196 124.148C120.769 125.807 122.427 127.815 121.811 130.226C121.653 130.846 120.788 131.292 120.223 130.873C118.408 129.525 117.493 127.388 115.953 125.752C114.367 124.066 112.611 122.552 111.021 120.871C109.517 119.285 108.33 117.488 107.436 115.51C107.079 115.904 106.559 116.184 105.839 116.293C104.6 116.479 103.445 115.753 102.906 114.679C102.559 114.833 102.205 114.972 101.848 115.081C99.9699 115.656 98.7885 113.566 99.497 112.022C99.8758 111.194 100.349 110.475 100.936 109.87C99.1004 109.618 97.2326 108.668 96.0263 107.483C92.9994 104.506 92.5833 100.032 93.2645 96.0536C93.6261 93.9441 94.2501 91.8099 95.0604 89.8293C95.2014 89.4847 95.3527 89.1377 95.5184 88.7956C95.4268 88.7932 95.3327 88.7535 95.2732 88.6767C94.7258 87.9281 94.0597 87.3158 93.6532 86.478C93.2791 85.7095 92.8632 84.9312 92.5682 84.1305C91.9615 82.4921 91.6642 80.6429 91.4661 78.9102C91.0573 75.363 91.2156 71.8382 91.7584 68.3133C92.6821 62.3097 94.9135 56.5643 98.201 51.5229C98.022 51.4288 97.8504 51.3152 97.6906 51.1808L97.6116 51.1119L97.4833 50.9959C96.5452 50.1464 96.6262 48.5543 97.4833 47.6939L97.754 47.4224C98.0968 47.0816 98.3924 46.8117 98.9461 46.4406C99.0278 46.3859 99.1113 46.3343 99.1958 46.2862C98.906 45.7503 98.8054 45.1237 99.0073 44.4323C99.7108 42.0239 103.174 42.1092 105.369 43.1595C107.797 40.9908 110.49 39.1081 113.408 37.5836C120.36 33.9547 128.219 31.4238 135.894 29.8771ZM99.9628 93.3095C101.261 92.8856 102.985 93.7755 104.152 94.311C105.631 94.9902 106.889 95.9941 108.108 97.055C108.715 97.5855 108.823 98.453 108.672 99.1942C108.657 99.2686 108.643 99.3454 108.625 99.4222C108.464 100.213 107.582 100.835 106.802 100.813C105.17 100.768 104.392 99.3578 103.468 98.163C103.359 98.3564 103.223 98.5348 103.054 98.6687L102.94 98.7579C102.557 99.0501 102.134 99.2837 101.627 99.2611C101.268 99.2438 100.924 99.1521 100.607 98.986C99.8139 98.5671 99.4649 97.5408 99.6801 96.7055C99.8139 96.18 100.121 95.7685 100.522 95.4834L100.373 95.3811C100.053 95.1582 99.7608 94.9232 99.5333 94.5764L99.482 94.4944H99.5018C99.2541 94.068 99.4153 93.488 99.9628 93.3095Z" fill="black"/>
<path fill-rule="evenodd" clip-rule="evenodd" d="M161.275 118.255C159.446 118.784 157.483 118.831 155.619 118.285C153.928 117.789 152.192 116.699 150.948 115.256C149.843 113.974 149.127 112.417 149.155 110.754C149.158 110.564 149.226 110.406 149.331 110.283C149.443 110.15 149.601 110.06 149.769 110.02C149.942 109.979 150.125 109.994 150.281 110.065C150.423 110.129 150.544 110.237 150.619 110.396C150.81 110.647 151.001 110.894 151.192 111.135C152.73 113.031 154.219 114.447 156.531 114.956C157.785 115.231 159.038 115.109 160.188 114.688C161.418 114.238 162.531 113.446 163.402 112.433C163.796 111.975 164.261 111.788 164.716 111.785C165.232 111.781 165.741 112.02 166.125 112.402C166.502 112.778 166.755 113.288 166.777 113.823C166.797 114.291 166.644 114.781 166.237 115.218C164.895 116.656 163.156 117.71 161.275 118.255ZM161.218 94.5098C163.093 95.6476 165.949 98.3006 163.932 101.121C161.559 103.608 158.141 100.757 156.457 99.4671C154.895 98.4676 153.141 101.038 154.59 102.205C166.759 111.202 171.698 94.8073 162.166 93.172C161.117 92.9918 160.727 94.1578 161.218 94.5098ZM143.683 89.5033C143.08 89.1186 142.372 88.9865 141.586 89.3434C140.972 89.6221 139.896 90.5513 139.146 91.7728C138.634 92.6084 138.27 93.5887 138.346 94.6099C138.364 94.847 138.276 95.0219 138.138 95.1512C138.028 95.2533 137.87 95.3283 137.685 95.3518C137.527 95.3717 137.351 95.3537 137.208 95.3091C136.935 95.2241 136.791 95.0475 136.737 94.9034C136.212 93.5122 136.438 91.9598 137.026 90.5593C137.819 88.6692 139.26 87.0859 140.204 86.5755C141.82 85.7017 143.725 85.6615 145.343 86.5517C146.72 87.3093 147.581 88.5325 148.438 89.7793C148.62 90.0444 148.801 90.3075 148.987 90.5659C149.362 91.0839 149.399 91.5975 149.254 92.038C149.093 92.526 148.684 92.9378 148.172 93.1533C147.699 93.3525 147.15 93.3806 146.664 93.1759C146.253 93.003 145.876 92.666 145.638 92.0941C145.237 91.131 144.568 90.0684 143.683 89.5033ZM174.282 91.6461C173.87 91.8608 173.547 91.9255 173.089 91.7886C172.836 91.7126 172.586 91.5671 172.39 91.3716C172.196 91.1777 172.056 90.9367 172.001 90.6693C171.867 90.0094 171.506 89.3916 170.991 88.9889C170.55 88.6447 169.994 88.4623 169.378 88.5652C168.712 88.6761 168.078 89.1022 167.642 89.6046C167.496 89.7727 167.381 89.9637 167.266 90.1533C167.051 90.5079 166.842 90.8376 166.545 91.098C166.433 91.1971 166.263 91.2657 166.099 91.2657C166.033 91.2657 165.965 91.2549 165.9 91.2348C165.238 90.5711 165.111 90.0676 165.132 89.5681C165.154 89.0444 165.361 88.5142 165.695 88.0194C166.479 86.8588 167.967 85.9073 168.972 85.6918C170.347 85.3966 171.713 85.7509 172.808 86.518C173.935 87.3072 174.77 88.5326 175.03 89.9136C175.093 90.2462 175.066 90.6052 174.939 90.9165C174.815 91.2206 174.599 91.4811 174.282 91.6461ZM146.716 77.1298C145.891 77.9328 144.914 78.0572 143.925 78.1678C143.376 78.2299 142.938 78.2799 142.507 78.3771C141.321 78.6443 140.149 79.0469 139.08 79.6266C137.962 80.2326 136.744 80.9634 135.868 81.8997C135.659 82.1225 135.463 82.3563 135.266 82.5906C135.087 82.8042 134.914 83.0099 134.732 83.2082C134.523 83.436 134.324 83.6747 134.127 83.9128C134.004 84.1138 133.98 84.1632 133.956 84.2146C133.919 84.2919 133.876 84.3784 133.826 84.4712C133.759 84.5983 133.68 84.7375 133.598 84.8636C133.46 85.0942 133.386 85.1577 133.323 85.1861C133.217 85.2331 133.117 85.2563 133.019 85.2437C132.928 85.232 132.842 85.1882 132.757 85.1166C132.333 84.7591 132.208 84.1724 132.221 83.5495C132.241 82.6044 132.59 81.558 132.912 80.9148C133.66 79.4201 134.698 77.8664 135.945 76.7508C137.369 75.4775 138.927 74.5135 140.716 73.8492C141.828 73.4363 143.116 73.0573 144.327 73.1051C145.199 73.1396 146.032 73.3984 146.719 74.0448C147.141 74.4416 147.344 75.006 147.344 75.5699C147.344 76.1452 147.133 76.7238 146.716 77.1298ZM175.961 84.4831C175.908 84.5691 175.836 84.6283 175.755 84.6638C175.67 84.7011 175.576 84.7118 175.485 84.6965C175.394 84.6813 175.308 84.6404 175.24 84.5779C175.175 84.518 175.125 84.4385 175.103 84.3411C174.555 81.9378 173.491 80.1497 171.22 78.9966C170.103 78.4294 168.818 78.069 167.602 77.7816C167.248 77.6981 166.875 77.644 166.499 77.5892C165.32 77.4173 164.133 77.2205 163.365 76.2692C162.902 75.6962 162.708 74.9633 162.817 74.2931C162.921 73.6621 163.29 73.0834 163.961 72.7367C165.633 71.8738 167.71 72.7205 169.397 73.4418C169.523 73.4953 169.645 73.5478 169.766 73.5985C171.416 74.2941 172.921 75.2124 174.159 76.5256C175.141 77.5674 176.05 79.1075 176.417 80.6919C176.721 82.01 176.65 83.3557 175.961 84.4831Z" fill="black"/>
</g>
<defs>
<linearGradient id="paint0_linear_754_504" x1="125" y1="255" x2="-72.8581" y2="67.9375" gradientUnits="userSpaceOnUse">
<stop stop-color="#5800FF"/>
<stop offset="1" stop-color="#DD4CEB"/>
</linearGradient>
<clipPath id="clip0_754_504">
<rect width="255" height="255" fill="white"/>
</clipPath>
</defs>
</svg>
