<svg width="255" height="255" viewBox="0 0 255 255" fill="none" xmlns="http://www.w3.org/2000/svg">
<g clip-path="url(#clip0_754_518)">
<path opacity="0.8" d="M1.06016 3.09053C1.1487 3.23789 5.90039 0.143272 5.97909 0.251338C6.51034 1.16499 0.538748 33.9483 1.06016 34.8522C2.10297 36.65 60.0874 -1.55631 61.0712 0.251338C62.419 2.56985 -0.287634 64.2953 1.06016 66.6138C3.02773 70.0621 114.196 -3.20678 116.163 0.241514C118.426 4.17119 -1.24191 94.4556 1.06016 98.3755C4.01152 103.474 168.304 -4.86707 171.255 0.23169C174.463 5.79219 -2.19618 124.586 1.06016 130.147C4.93628 136.896 222.491 -6.52736 226.397 0.23169C230.558 7.423 -3.10127 154.707 1.06016 161.909C5.38882 169.395 246.554 10.3899 250.883 17.8661C255.468 25.7943 -3.52429 185.742 1.06016 193.67C5.38882 201.156 246.564 42.1417 250.883 49.6278C255.477 57.5559 -3.52429 217.504 1.06016 225.432C5.38882 232.918 246.564 73.9034 250.942 81.3894C255.32 88.8755 9.59943 242.212 13.9576 249.757C18.0698 256.859 246.791 106.097 250.883 113.151C254.297 119.046 65.6458 243.813 69.0595 249.707C72.2175 255.199 247.755 139.5 250.883 144.913C253.352 149.186 121.682 245.473 124.152 249.747C126.365 253.539 248.709 172.902 250.883 176.674C252.418 179.327 177.719 247.084 179.254 249.737C180.493 251.888 249.644 206.294 250.893 208.475C251.562 209.635 233.687 248.617 234.356 249.737C234.641 250.238 250.608 239.716 250.893 240.207" stroke="url(#paint0_linear_754_518)" stroke-width="5" stroke-linecap="round" stroke-linejoin="round"/>
<path fill-rule="evenodd" clip-rule="evenodd" d="M131.961 111.384C138.141 111.688 147.764 114.328 148.245 116.015C148.996 118.649 147.382 128.525 150.082 133.844C151.233 136.112 155.604 135.908 157.297 136.647C162.964 139.118 179.739 143.804 183.197 149.705C184.583 152.069 193.098 181.402 197.623 196.367C198.133 198.054 198.71 199.615 199.336 201.06L199.566 199.937C201.411 190.892 202.334 185.417 202.334 183.51C202.334 180.532 199.949 167.965 202.334 164.769C204.695 161.606 210.385 159.019 212.945 158.967L213.021 158.966C214.702 158.966 216.161 158.443 217.397 157.396L219.209 156.488C228.429 151.879 233.815 149.351 235.369 148.904C237.847 148.19 242.066 149.711 239.957 151.994C238.551 153.516 235.017 156.209 229.356 160.073L227.221 161.763L227.479 161.897C230.238 163.344 231.86 164.561 232.345 165.55C232.846 166.569 232.606 167.775 231.625 169.167L231.774 169.311C233.014 170.524 233.634 171.337 233.634 171.751V173.774C234.867 175.574 235.176 177.075 234.559 178.277C233.942 179.479 232.964 180.521 231.625 181.402C230.638 183.988 229.463 185.829 228.099 186.924C226.736 188.019 224.379 188.931 221.03 189.659L217.999 196.879L215.542 207.023L214.305 218.341L214.664 218.6C216.33 219.809 217.397 220.705 217.397 221.63C217.397 223.073 210.676 256.99 200.221 258.508C197.96 258.836 186.233 257.226 182.383 254.105L182.439 254.442C183.345 259.894 183.154 262.725 181.865 262.935C166.02 265.523 121.02 266.323 46.8641 265.334C46.4229 226.124 48.4178 200.011 52.849 186.994C64.1819 153.704 76.4724 143.098 80.8438 142.124C84.6729 141.271 98.1556 135.241 101.867 133.844C104.29 132.932 104.809 130.197 107.57 130.197L107.794 130.198C110.464 130.225 112.832 130.701 114.162 129.333C117.653 125.742 116.677 120.773 118.125 116.015C118.923 113.393 124.377 111.011 131.961 111.384Z" fill="#E1945E"/>
<path d="M107.57 130.197L107.794 130.198C108.453 130.205 109.095 130.239 109.707 130.266L108.418 134.642L108.39 135.102C107.553 150.191 114.969 157.414 130.64 156.772C146.311 156.129 154.106 151.191 154.025 141.958L154.02 141.676L154.02 135.931L154.267 135.978C155.456 136.199 156.602 136.344 157.297 136.647C162.964 139.118 179.739 143.804 183.197 149.705C184.583 152.069 193.098 181.402 197.623 196.367C197.789 196.914 197.961 197.448 198.14 197.968L198.14 200.926L198.09 201.105C196.505 207.014 198.616 211.846 204.425 215.599C208.542 218.259 212.771 219.986 217.111 220.78C217.297 221.067 217.397 221.347 217.397 221.63C217.397 223.073 210.676 256.99 200.221 258.508C197.96 258.836 186.233 257.226 182.383 254.105L182.439 254.442L182.493 254.766C183.337 260.006 183.128 262.729 181.865 262.935C166.02 265.523 121.02 266.323 46.8641 265.334C46.4229 226.124 48.4178 200.011 52.849 186.994C64.1819 153.704 76.4724 143.098 80.8438 142.124C84.6729 141.271 98.1556 135.241 101.867 133.844C104.29 132.932 104.809 130.197 107.57 130.197Z" fill="#FFC600"/>
<path fill-rule="evenodd" clip-rule="evenodd" d="M114.981 120.785C115.344 120.069 116.307 120.162 116.942 120.487C118.848 121.875 116.854 124.565 116.327 126.259C114.971 129.544 112.616 132.754 109.364 134.29C109.634 137.556 109.939 140.814 110.052 144.09C114.209 149.227 121.217 151.102 127.439 152.544C137.211 155.236 148.239 149.72 151.537 140.098C147.784 137.973 146.569 132.41 147.689 128.528C147.786 128.256 148.21 128.135 148.361 128.44C149.389 130.546 149.252 133.115 150.421 135.196C161.636 136.266 176.111 140.482 183.459 149.518C186.715 154.038 188.005 159.918 189.609 165.158C193.031 175.959 195.757 186.98 199.113 197.792L199.509 195.746C200.593 190.11 201.578 184.398 200.846 178.667L200.833 178.393C200.594 173.832 199.161 165.357 202.711 162.279C205.923 159.834 210.575 157.869 214.604 158.996C221.776 155.817 227.965 150.464 235.603 148.378C237.953 147.897 241.335 148.467 240.779 151.644C239.24 157.2 232.791 159.357 228.383 162.222C231.209 162.985 234.654 166.408 232.446 169.393C232.427 169.446 232.41 169.486 232.393 169.518C234.183 170.308 234.434 172.295 233.995 173.998C233.95 174.449 233.831 174.062 234.097 174.47C236.117 176.368 235.224 181.658 232.181 181.837C232.38 184.344 230.764 186.779 228.717 188.146C226.51 189.619 223.319 189.683 221.493 191.699C217.204 199.233 215.724 208.128 215.257 216.755C218.084 217.81 220.621 220.962 218.052 223.637C218.001 223.643 217.95 223.649 217.899 223.653C216.41 227.612 215.835 231.832 215.048 235.966C213.836 243.021 210.679 249.498 206.647 255.375C201.984 263.154 189.446 261.921 183.13 256.901C183.155 258.218 183.373 259.527 182.95 260.8C182.325 262.173 180.801 261.58 180.65 260.227C177.311 262.098 176.525 255.923 180.236 256.902C179.951 252.438 179.785 247.968 179.651 243.497C175.449 244.852 175.268 237.906 179.566 239.295L179.561 237.375C179.529 222.652 179.693 207.878 181.643 193.271C181.823 192.179 182.129 191.122 182.307 190.036C182.326 189.923 182.502 189.955 182.503 190.063C182.805 210.513 181.463 231.007 182.863 251.465C184.028 251.818 184.493 253.151 185.356 253.927C187.271 255.688 189.88 256.546 192.431 256.845C199.574 257.843 202.658 255.67 205.838 249.484C204.404 250.439 202.465 248.753 203.34 247.241L203.367 247.195C204.275 245.594 206.84 246.553 206.515 248.347C209.713 243.245 211.387 237.492 212.623 231.655L212.79 230.957C213.391 228.479 214.171 225.639 215.614 223.397C206.814 221.163 198.205 214.355 196.828 205.015C194.594 212.008 191.567 218.844 188.682 225.646C187.791 228.011 187.42 230.553 186.143 232.747C185.846 233.255 185.093 233.124 184.925 232.589C183.776 227.473 187.256 222.607 189.064 218.001C190.539 215.399 194.775 203.513 197.401 203.484C194.45 190.598 190.514 177.809 186.766 165.084C183.141 147.902 175.755 144.588 160.107 139.178C162.93 153.507 175.816 167.377 168.959 182.406L168.792 182.796C168.091 184.453 167.508 186.122 167.998 187.941C168.473 189.706 169.555 191.238 170.421 192.825C175.259 201.791 171.929 212.262 170.058 221.599C167.694 232.548 165.36 243.508 162.917 254.44C162.435 256.621 162.123 258.868 161.396 260.982C161.02 262.072 159.147 261.969 159.268 260.696C159.499 258.228 160.195 255.821 160.704 253.396C163.746 237.701 167.862 222.192 170.479 206.428C172.163 194.759 165.535 192.966 165.783 185.426C166.683 181.57 169.068 178.129 168.931 174.02C169.461 161.441 160.264 151.063 159.128 138.829L157.124 138.117C156.122 137.76 155.121 137.399 154.123 137.031C159.375 173.621 157.78 211.01 155.155 247.781C154.618 249.477 155.129 266.825 152.88 265.773C152.766 266.435 152.413 267.087 151.645 267.083C144.672 267.147 137.697 267.257 130.723 267.34C127.369 267.032 122.759 268.307 119.906 266.379C116.612 265.443 116.233 251.06 115.352 247.893L115.009 245.589C109.412 207.946 104.403 169.526 108.426 131.509C102.828 131.724 101.673 137.742 101.258 142.124C100.22 151.796 93.947 160.126 93.6462 169.909C93.6207 172.282 94.0705 174.581 95.0228 176.761C97.5495 182.1 101.919 188.272 98.6533 194.235C94.7907 198.877 95.1251 200.099 96.5424 205.836C100.53 224.801 107.153 243.033 113.452 261.318C112.084 268.425 103.85 242.041 103.076 240.052C99.4315 241.877 97.4407 235.819 101.621 235.387C98.9359 226.434 96.465 217.414 94.4078 208.294L94.3533 208.037C93.4446 203.824 91.6572 198.89 94.6755 195.152C102.458 187.311 89.5337 178.547 91.1641 169.049C89.7562 170.088 87.6252 168.994 87.6573 167.248C87.5934 165.281 90.2448 164.274 91.5207 165.775C92.8325 158.068 97.3963 151.34 98.7774 143.656L98.8398 143.296C99.3078 140.58 99.4397 137.722 100.779 135.247C98.956 136.427 97.0151 137.38 95.0188 138.221C98.5882 141.191 91.6762 143.902 92.2481 139.314C72.6737 144.955 68.2493 152.823 61.0624 170.892C62.4049 169.592 64.7045 171.274 63.9009 172.931C63.2598 174.677 60.4631 174.166 60.4641 172.305L60.1366 173.084C55.7785 183.465 51.8119 194.098 49.8186 205.208C53.7289 204.659 52.7333 210.884 49.1904 209.129C47.7686 219.01 47.7461 229.03 47.9198 238.99C51.2181 237.268 51.3174 243.122 47.9517 241.453C48.0747 249.615 48.255 257.778 48.3908 265.94C48.4184 267.677 45.7283 267.669 45.6859 265.94C45.3717 253.398 44.7991 240.834 45.0713 228.288C44.8153 206.514 51.0987 185.526 60.4607 166.021C68.7445 143.562 80.1869 141.008 101.239 134.478C103.182 131.604 107.334 128.886 110.721 130.691C112.616 127.643 113.579 124.032 114.981 120.785ZM78.9125 199.06C78.991 198.783 79.3877 198.853 79.4005 199.126C79.5766 202.649 79.4196 206.195 79.1777 209.733C79.0311 211.893 78.851 214.051 78.6983 216.197C78.2931 221.857 77.9664 227.523 77.7181 233.193C77.8051 233.157 77.8942 233.126 77.9876 233.1C78.4161 232.984 78.8449 232.984 79.2732 233.1C79.6553 233.207 79.9894 233.393 80.2772 233.661L80.3382 233.72C80.5737 233.937 80.7412 234.195 80.8388 234.493C80.9779 234.758 81.0482 235.042 81.048 235.345L81.0465 235.421C81.0446 235.856 80.9364 236.26 80.7158 236.636C80.5015 236.998 80.213 237.285 79.8502 237.5C79.4726 237.718 79.0672 237.826 78.6304 237.828C78.5837 237.832 78.5368 237.837 78.4904 237.839C78.1656 237.852 77.8624 237.784 77.5822 237.638L77.5399 237.625C77.4339 240.502 77.3469 243.38 77.2832 246.259C77.226 248.768 77.1496 251.276 77.0987 253.785L77.075 255.04L77.0289 257.813C77.0138 258.954 77.0212 260.046 76.632 261.122L76.5853 261.246C76.3052 261.964 76.0869 262.964 75.3376 263.364C74.7396 263.683 73.9334 263.564 73.5897 262.943C73.3012 262.423 73.5513 261.675 73.978 261.324C73.9695 261.301 73.9568 261.28 73.9462 261.256C73.8804 261.066 73.7805 260.887 73.7213 260.694C73.5344 260.086 73.5855 259.437 73.5834 258.805C73.5834 257.689 73.6214 256.573 73.6513 255.459C73.717 253.088 73.7934 250.719 73.8865 248.349C74.2019 240.401 74.7956 232.454 75.4757 224.528L75.7064 221.853C76.0139 218.296 76.3321 214.735 76.7826 211.196C76.8036 211.027 76.825 210.858 76.8483 210.689C76.6065 210.568 76.3816 210.401 76.2032 210.215C75.4885 209.468 75.055 208.35 74.6485 207.387L74.555 207.168C74.1138 206.141 73.7064 205.101 73.4964 203.997L73.4763 203.896C73.3805 203.426 73.1914 202.593 73.6916 202.366C73.9525 202.247 74.1178 202.332 74.2029 202.592C74.2137 202.626 74.2048 202.664 74.1859 202.693C74.3917 203.008 74.7141 203.302 74.9178 203.594L75.6148 204.587L75.9594 205.086C76.3965 205.726 76.8632 206.339 77.3448 206.944C77.7243 204.289 78.1891 201.645 78.9125 199.06ZM107.497 258.215C108.369 257.534 109.789 257.904 109.789 259.16C109.789 260.421 108.367 260.785 107.497 260.104L107.454 260.073L107.412 260.039C106.939 259.67 106.923 258.711 107.377 258.31L107.412 258.281C107.44 258.257 107.468 258.236 107.497 258.215ZM69.5886 255.763C69.9832 255.763 70.3502 255.863 70.6917 256.062C70.8402 256.174 70.9866 256.287 71.1351 256.402C71.4067 256.672 71.5934 256.994 71.6973 257.363L71.776 257.942C71.7864 258.242 71.7249 258.521 71.587 258.782C71.4979 259.052 71.3473 259.287 71.1351 259.483C70.9357 259.697 70.7023 259.847 70.431 259.933C70.1916 260.059 69.9364 260.123 69.6634 260.123L69.5886 260.122C69.1921 260.122 68.8248 260.022 68.4833 259.823C68.3348 259.712 68.1884 259.597 68.0399 259.483C67.7705 259.213 67.5817 258.891 67.4779 258.521C67.4522 258.329 67.427 258.135 67.3992 257.942C67.3888 257.642 67.4522 257.363 67.588 257.103C67.6771 256.833 67.8277 256.598 68.0399 256.402C68.2395 256.188 68.4727 256.038 68.7442 255.951C68.9834 255.826 69.2404 255.762 69.5137 255.762L69.5886 255.763ZM168.823 251.743L169.379 251.818C169.911 251.938 170.34 252.329 170.626 252.775C170.779 253.014 170.862 253.272 170.874 253.548C170.936 253.823 170.923 254.1 170.836 254.377C170.772 254.647 170.648 254.884 170.463 255.085C170.399 255.184 170.325 255.275 170.24 255.356C170.066 255.645 169.803 255.835 169.531 256.03C169.303 256.176 169.054 256.254 168.787 256.266C168.611 256.313 168.432 256.313 168.254 256.266C167.989 256.254 167.741 256.176 167.512 256.03C167.376 255.926 167.24 255.821 167.107 255.717C166.988 255.58 166.877 255.438 166.773 255.29C166.704 255.127 166.636 254.966 166.568 254.806C166.443 254.419 166.504 254.077 166.572 253.69C166.583 253.625 166.6 253.565 166.623 253.502L166.669 253.379C166.791 253.058 166.856 252.949 167.073 252.669L167.155 252.559C167.196 252.505 167.239 252.451 167.287 252.403C167.423 252.263 167.616 252.147 167.768 252.027C168.095 251.839 168.447 251.746 168.823 251.743ZM96.8665 250.391C97.1742 250.393 97.4629 250.469 97.73 250.623L98.0779 250.892C98.2901 251.105 98.4364 251.354 98.5192 251.644C98.5383 251.796 98.5597 251.949 98.5807 252.099C98.5892 252.333 98.5406 252.553 98.4322 252.758C98.3645 252.969 98.2455 253.151 98.0779 253.308C97.9233 253.472 97.7385 253.591 97.5263 253.66C97.3412 253.757 97.142 253.807 96.9304 253.808L96.8665 253.806C96.5568 253.806 96.2683 253.728 96.001 253.574L95.6531 253.308C95.4409 253.094 95.2945 252.843 95.2118 252.553C95.1927 252.401 95.1715 252.251 95.1503 252.099C95.1418 251.864 95.1906 251.644 95.2988 251.441C95.3688 251.23 95.4855 251.046 95.6531 250.892C95.8079 250.725 95.9925 250.606 96.2046 250.539C96.3898 250.442 96.5854 250.393 96.7958 250.39L96.8665 250.391ZM82.7949 249.691C83.238 249.687 83.688 249.812 84.0508 250.068C84.4029 250.317 84.67 250.585 84.8421 250.989C84.8888 251.099 84.9352 251.207 84.9757 251.317C85.1582 251.801 85.1921 252.287 84.9397 252.76C84.6957 253.219 84.1696 253.42 83.6984 253.557C83.2998 253.675 82.8479 253.694 82.4512 253.553C82.2539 253.483 82.0608 253.409 81.8826 253.301C81.5496 253.096 81.3692 252.853 81.1465 252.553C80.9725 252.257 80.8855 251.936 80.8855 251.593C80.8855 251.249 80.9725 250.93 81.1465 250.632C81.4878 250.051 82.1202 249.696 82.7949 249.691ZM60.3071 250.099C60.8674 250.099 61.3594 250.357 61.6969 250.792C62.0382 251.234 62.1634 251.784 62.0128 252.331C61.8537 252.91 61.3723 253.417 60.7759 253.563C60.3349 253.671 59.974 253.667 59.5349 253.593C59.1636 253.529 58.8796 253.309 58.5951 253.081C58.2705 252.817 58.1708 252.335 58.2238 251.946C58.2747 251.558 58.4553 251.304 58.7289 251.073L58.7308 251.067L58.629 251.145C58.6674 251.112 58.7054 251.076 58.7438 251.04C58.7563 251.019 58.7669 250.995 58.7775 250.972C58.9345 250.706 59.1467 250.497 59.4118 250.34C59.6898 250.18 59.9868 250.099 60.3071 250.099ZM190.903 243.697C191.211 243.615 191.521 243.615 191.828 243.697C192.055 243.75 192.252 243.854 192.42 244.008C192.59 244.118 192.729 244.259 192.834 244.435L192.868 244.494C193.11 244.904 193.148 245.373 193.044 245.83C192.915 246.394 192.393 246.908 191.828 247.041L191.809 247.044L191.79 247.05C191.561 247.121 191.33 247.132 191.101 247.079C190.869 247.069 190.655 247.001 190.458 246.874C190.208 246.713 189.998 246.506 189.836 246.257C189.709 246.058 189.641 245.845 189.63 245.614C189.59 245.462 189.59 245.31 189.63 245.158C189.641 244.927 189.709 244.714 189.836 244.515L190.108 244.166L190.135 244.143C190.352 243.928 190.608 243.78 190.903 243.697ZM169.544 232.513C172.325 232.513 172.321 236.812 169.544 236.812C166.763 236.812 166.767 232.513 169.544 232.513ZM67.7173 231.97C68.0103 231.904 68.303 231.917 68.5937 232.008C68.7698 232.082 68.9437 232.156 69.1177 232.227L69.5632 232.57C69.6459 232.64 69.6862 232.716 69.7626 232.815L69.8581 232.939C69.9961 233.123 69.9994 233.162 70.1508 233.555C70.2527 233.931 70.2527 234.307 70.1508 234.684C70.1018 234.865 70.0278 235.036 69.9323 235.195C69.8451 235.347 69.7406 235.481 69.6231 235.603L69.5632 235.664C69.3638 235.877 69.1283 236.028 68.8567 236.116C68.6849 236.216 68.5003 236.264 68.303 236.264C68.0103 236.33 67.7173 236.317 67.4269 236.226C67.2508 236.152 67.0768 236.078 66.9027 236.006L66.4574 235.664L66.1137 235.22L66.0041 234.96L65.893 234.698L65.8145 234.117C65.8039 233.815 65.8655 233.536 66.0031 233.274C66.0562 233.09 66.1497 232.927 66.2853 232.792C66.3831 232.627 66.5144 232.496 66.6801 232.399C66.8157 232.263 66.9792 232.17 67.1638 232.118C67.3356 232.018 67.5202 231.97 67.7173 231.97ZM205.278 228.899C205.51 228.89 205.726 228.939 205.925 229.044C205.995 229.068 206.064 229.097 206.129 229.131C206.386 229.281 206.589 229.484 206.74 229.738C206.863 229.932 206.931 230.142 206.942 230.367C206.988 230.571 206.984 230.777 206.928 230.981L206.91 231.042C206.863 231.209 206.793 231.363 206.7 231.505C206.691 231.521 206.681 231.538 206.668 231.553C206.526 231.777 206.337 231.961 206.104 232.099C205.845 232.246 205.567 232.322 205.266 232.325C204.665 232.325 204.148 232.001 203.832 231.505C203.787 231.435 203.762 231.346 203.73 231.274C203.702 231.207 203.658 231.12 203.634 231.042C203.554 230.742 203.554 230.442 203.634 230.142C203.687 229.922 203.787 229.729 203.938 229.566C204.058 229.383 204.217 229.237 204.415 229.131C204.66 228.989 204.923 228.913 205.202 228.9L205.278 228.899ZM87.8502 226.796C88.1439 226.716 88.4361 226.71 88.7279 226.777L88.8008 226.796C89.034 226.851 89.2357 226.956 89.4095 227.113C89.6025 227.24 89.7576 227.407 89.8698 227.614C90.0313 227.891 90.1119 228.191 90.1138 228.512C90.1119 228.833 90.0313 229.133 89.8698 229.41C89.7107 229.679 89.4965 229.89 89.2272 230.048L88.9939 230.16C88.7987 230.283 88.5908 230.349 88.3657 230.359C88.2153 230.399 88.0645 230.399 87.9162 230.359C87.7632 230.359 87.6211 230.321 87.4898 230.245C87.3455 230.205 87.2222 230.133 87.1162 230.027C86.9316 229.909 86.7875 229.753 86.6815 229.556L86.5094 229.152L86.4502 228.704L86.5094 228.258L86.603 228.039C86.6876 227.736 86.8406 227.474 87.0631 227.252C87.2859 227.032 87.5489 226.88 87.8502 226.796ZM193.059 223.23C193.368 223.133 193.676 223.12 193.984 223.188C194.191 223.188 194.387 223.241 194.567 223.347C194.764 223.401 194.934 223.499 195.078 223.643C195.331 223.805 195.528 224.021 195.675 224.289L195.908 224.841C196.048 225.198 195.997 225.724 195.912 226.084C195.842 226.379 195.706 226.637 195.505 226.857C195.403 227.028 195.267 227.164 195.095 227.265C194.899 227.443 194.672 227.57 194.415 227.645L194.344 227.664L194.319 227.671C194.314 227.673 194.31 227.673 194.306 227.673C194.304 227.675 194.3 227.675 194.297 227.675C194.196 227.7 194.092 227.715 193.984 227.719C193.676 227.787 193.368 227.774 193.059 227.677C192.876 227.601 192.692 227.523 192.507 227.445C192.35 227.326 192.195 227.206 192.038 227.085C191.917 226.929 191.796 226.772 191.676 226.618C191.506 226.354 191.415 226.067 191.402 225.76C191.347 225.555 191.347 225.352 191.402 225.147C191.402 224.938 191.455 224.746 191.559 224.566C191.652 224.279 191.811 224.031 192.038 223.822C192.195 223.701 192.35 223.581 192.507 223.463C192.692 223.384 192.876 223.306 193.059 223.23ZM57.7508 215.664C58.071 215.577 58.3915 215.577 58.7119 215.664L59.1423 215.844C59.3545 215.958 59.5223 216.112 59.6495 216.309C59.8108 216.482 59.9188 216.687 59.9739 216.921C60.0993 217.243 60.0845 217.752 59.9847 218.08C59.8723 218.452 59.6983 218.748 59.4289 219.027C58.9813 219.487 58.2937 219.62 57.6851 219.481C57.5173 219.443 57.3581 219.369 57.2139 219.278C56.7537 218.995 56.444 218.5 56.4461 217.953C56.4461 217.894 56.4504 217.835 56.4588 217.776C56.4291 217.655 56.4183 217.53 56.4228 217.399L56.4864 216.921L56.4905 216.909C56.5755 216.606 56.7283 216.344 56.9508 216.123C57.1566 215.92 57.3966 215.773 57.6709 215.685L57.7402 215.664H57.7508ZM217.835 168.205C217.256 163.472 215.077 158.379 208.431 161.159L207.937 161.343C206.293 161.963 204.376 162.778 203.376 164.211C202.686 165.198 202.919 167.11 202.824 168.262C202.391 172.007 202.623 175.747 203.075 179.477C203.657 188.218 201.813 197.275 198.14 205.219C201.816 211.144 206.735 216.671 213.446 219.14C213.73 212.404 215.054 205.791 216.463 199.217L216.518 198.93C217.082 195.966 217.364 192.923 219.318 190.458C223.293 186.159 228.761 188.592 231.377 181.685C230.827 181.408 231.131 180.461 231.793 180.643C234.087 181.049 234.46 176.812 232.89 175.791C231.253 174.797 232.901 172.963 232.204 171.639C231.816 171.069 230.978 171.05 230.598 170.393C229.591 167.973 234.63 166.422 228.704 163.694C227.492 163.265 226.136 163.531 224.913 163.526C223.113 163.694 221.683 164.957 220.038 165.354C221.829 169.976 217.308 174.427 213.228 170.735C211.007 172.826 208.524 177.592 213.922 175.37C216.563 173.614 218.838 171.343 221.905 170.261L221.969 170.241C223.108 169.87 228.09 167.458 227.843 169.545C225.977 171.34 222.899 171.318 220.738 172.775C217.742 174.155 215.826 177.5 212.239 177.454C211.412 182.456 217.11 179.412 219.231 178.033L219.82 177.715C222.812 176.104 225.85 174.612 229.34 174.592C230.303 174.586 230.299 176.065 229.34 176.078C224.792 176.106 221.09 178.939 217.28 181.045C216.905 183.964 221.196 182.686 222.825 182.255C224.533 182.016 227.275 180.176 228.77 181.148C229.354 182.644 226.782 182.533 225.886 182.987C229.975 184.943 226.393 186.175 225.297 183.169L224.976 183.278C222.238 184.194 215.599 186.081 216.389 181.461C215.387 181.903 214.165 182.167 213.058 181.922C210.297 185.99 205.892 184.416 212.294 181.643C210.852 180.974 210.37 178.393 211.755 177.433C206.716 177.126 210.458 171.859 212.543 170.104C212.346 169.906 212.156 169.704 211.978 169.499C210.775 170.069 209.511 170.416 208.159 170.539C206.865 170.655 206.577 168.461 207.854 168.281C209.222 168.089 210.483 167.725 211.687 167.041C213.514 166.255 214.137 169.631 215.964 169.75C216.961 169.947 217.636 169.076 217.835 168.205ZM175.41 211.762C175.852 211.762 176.244 211.946 176.564 212.238C176.884 212.53 177.022 212.967 177.041 213.386C177.05 213.61 177.003 213.819 176.901 214.013C176.836 214.214 176.723 214.387 176.564 214.535C176.267 214.829 175.828 215.011 175.41 215.011C174.969 215.011 174.577 214.827 174.256 214.535C173.936 214.241 173.798 213.806 173.779 213.386C173.77 213.164 173.817 212.954 173.919 212.76C173.978 212.579 174.075 212.419 174.21 212.283L174.256 212.238C174.553 211.942 174.992 211.762 175.41 211.762ZM188.781 201.739L188.852 201.74C189.225 201.742 189.571 201.835 189.893 202.021C190.033 202.129 190.173 202.235 190.312 202.343C190.568 202.6 190.744 202.902 190.842 203.251C190.942 203.615 190.942 203.981 190.842 204.344C190.808 204.553 190.729 204.756 190.606 204.932C190.424 205.234 190.182 205.477 189.876 205.656C189.56 205.84 189.219 205.931 188.852 205.933C188.485 205.931 188.143 205.84 187.827 205.656C187.522 205.477 187.28 205.234 187.099 204.932C186.974 204.756 186.896 204.553 186.862 204.344C186.762 203.981 186.762 203.615 186.862 203.251C186.952 202.927 187.111 202.644 187.338 202.398L187.392 202.343C187.579 202.142 187.799 202 188.056 201.918C188.282 201.8 188.523 201.74 188.781 201.739ZM86.7385 201.852C86.8957 201.81 87.0505 201.81 87.2075 201.852C87.4409 201.863 87.6592 201.932 87.861 202.059C87.9798 202.152 88.0986 202.243 88.2174 202.334L88.3209 202.458C88.5423 202.727 88.5479 202.772 88.7178 203.182C88.788 203.41 88.7986 203.638 88.7477 203.866C88.7477 204.021 88.7074 204.164 88.6308 204.298C88.5886 204.443 88.5165 204.57 88.4083 204.676C88.3317 204.805 88.2301 204.908 88.1005 204.984C87.9352 205.135 87.74 205.238 87.5152 205.291L87.0588 205.352C86.9996 205.344 86.9381 205.335 86.8787 205.329C86.8071 205.327 86.7375 205.319 86.6695 205.306L86.6006 205.291L86.5379 205.274C86.4548 205.25 86.3739 205.218 86.2953 205.177C86.1468 205.135 86.0174 205.061 85.9069 204.951C85.7161 204.828 85.5634 204.663 85.4531 204.458L85.4234 204.391C85.3831 204.318 85.3491 204.245 85.3235 204.164C85.2515 204.038 85.2155 203.902 85.2133 203.757C85.1712 203.562 85.174 203.37 85.2245 203.178L85.243 203.114L85.4064 202.727C85.4913 202.596 85.5804 202.463 85.6947 202.355C85.7636 202.294 85.9321 202.163 86.0269 202.098L86.0851 202.059C86.2868 201.932 86.5053 201.863 86.7385 201.852ZM63.9052 198.109C64.7642 198.965 64.3846 200.538 63.182 200.842L63.0439 200.876C61.8813 201.17 60.8333 200.123 61.1282 198.965L61.1621 198.83C61.4676 197.632 63.046 197.253 63.9052 198.109ZM206.774 189.055C206.766 188.936 206.918 188.894 206.995 188.964C208.017 189.877 208.668 190.972 209.91 191.68C211.157 192.39 212.443 192.333 213.743 192.792C214.184 192.948 214.186 193.536 213.743 193.69C211.282 194.546 206.961 191.644 206.774 189.055ZM91.1428 188.869C91.4167 188.784 91.6924 188.772 91.9661 188.833C92.1528 188.833 92.3266 188.88 92.4857 188.972C92.6618 189.021 92.8126 189.11 92.9418 189.237C93.0969 189.328 93.2199 189.452 93.313 189.606C93.4957 189.805 93.6188 190.038 93.6822 190.304L93.7543 190.851L93.6822 191.399C93.6122 191.561 93.5422 191.726 93.4743 191.889L93.2847 192.145C93.1311 192.349 93.1065 192.351 92.7339 192.627C92.4965 192.777 92.2398 192.859 91.9661 192.87C91.7835 192.921 91.601 192.921 91.4167 192.87C91.2321 192.87 91.0579 192.823 90.8969 192.73C90.7227 192.682 90.5702 192.593 90.4406 192.466C90.2159 192.32 90.0398 192.128 89.9102 191.889C89.8402 191.726 89.7704 191.561 89.7025 191.399L89.628 190.851L89.7025 190.304L89.7065 190.287C89.8041 189.945 89.9783 189.647 90.2284 189.395L90.6402 189.078C90.8012 188.975 90.9688 188.922 91.1428 188.869ZM190.176 189.279C190.763 189.118 191.408 189.287 191.839 189.717C192.27 190.146 192.439 190.786 192.278 191.371C192.119 191.942 191.659 192.405 191.084 192.559C190.912 192.605 190.738 192.631 190.562 192.623C190.267 192.62 189.991 192.546 189.734 192.399L189.403 192.143C189.242 191.995 189.13 191.819 189.064 191.617C188.96 191.422 188.913 191.213 188.922 190.987L188.92 190.947C188.913 190.866 188.924 190.786 188.949 190.708C188.949 190.625 188.962 190.545 188.983 190.467C189.138 189.896 189.605 189.435 190.176 189.279ZM63.4894 183.556C63.6782 183.549 63.8543 183.587 64.0176 183.674C64.1895 183.729 64.3359 183.822 64.4589 183.957C64.5947 184.08 64.688 184.228 64.7432 184.397C64.8302 184.56 64.8683 184.735 64.862 184.923C64.862 185.17 64.7983 185.401 64.6753 185.612C64.6032 185.705 64.531 185.798 64.4589 185.889C64.2892 186.06 64.0876 186.176 63.8543 186.242L63.7185 186.288C63.5191 186.36 63.3239 186.364 63.116 186.337C62.8975 186.307 62.6957 186.248 62.5177 186.113C62.3436 186.011 62.2059 185.874 62.1041 185.701L61.9874 185.426C61.9619 185.333 61.9513 185.194 61.9449 185.096C61.9449 185.082 61.9449 185.069 61.9428 185.054C61.9428 184.972 61.9683 184.771 61.9893 184.688C62.0362 184.515 62.1314 184.35 62.2398 184.211C62.3332 184.065 62.4605 183.951 62.6175 183.866L62.6314 183.856L62.6472 183.845C62.6957 183.811 62.7469 183.777 62.7978 183.741C63.0099 183.619 63.2412 183.556 63.4894 183.556ZM173.041 182.055C173.38 182.055 173.696 182.142 173.989 182.311C173.999 182.315 174.01 182.319 174.018 182.324C174.299 182.488 174.521 182.71 174.687 182.989C174.857 183.279 174.941 183.592 174.941 183.926C174.941 184.261 174.857 184.572 174.687 184.862C174.521 185.141 174.299 185.363 174.018 185.528C174.01 185.534 173.999 185.538 173.989 185.542C173.696 185.711 173.38 185.796 173.041 185.798C172.703 185.796 172.387 185.711 172.094 185.542C171.522 185.208 171.163 184.585 171.163 183.926C171.163 183.266 171.522 182.643 172.094 182.311C172.387 182.142 172.703 182.055 173.041 182.055ZM84.9393 179.611L84.997 179.61C85.2219 179.601 85.4317 179.648 85.6248 179.751C85.8263 179.817 86.0024 179.929 86.1511 180.087L86.4608 180.345L86.5507 180.418C86.5655 180.43 86.5801 180.442 86.5943 180.455C86.8024 180.664 86.9445 180.909 87.0252 181.193C87.0506 181.356 87.0716 181.516 87.0888 181.679C87.1353 182.101 86.8851 182.535 86.6093 182.835C86.4608 182.994 86.2845 183.105 86.0811 183.173C85.8859 183.275 85.6738 183.321 85.4487 183.312C84.9883 183.273 84.5515 183.175 84.2206 182.82C84.1822 182.778 84.1461 182.733 84.1081 182.689L83.8429 182.385C83.6414 182.182 83.5012 181.943 83.425 181.668C83.4036 181.522 83.3847 181.379 83.3656 181.235C83.3463 180.802 83.5584 180.396 83.8429 180.087C84.1056 179.802 84.5511 179.627 84.9393 179.611ZM74.2306 175.161C76.4367 175.161 76.4324 178.57 74.2306 178.57C72.0261 178.57 72.0304 175.161 74.2306 175.161ZM185.159 170.381L185.228 170.382C185.593 170.384 185.935 170.475 186.251 170.659L186.662 170.974C186.913 171.228 187.087 171.523 187.184 171.866C187.208 172.045 187.231 172.225 187.257 172.403C187.267 172.682 187.208 172.942 187.08 173.183C187 173.432 186.86 173.649 186.662 173.834C186.478 174.03 186.261 174.17 186.009 174.25C185.767 174.377 185.506 174.436 185.228 174.425C184.861 174.423 184.52 174.332 184.204 174.148C184.066 174.043 183.93 173.937 183.792 173.834C183.561 173.599 183.395 173.329 183.296 173.02L183.272 172.942L183.198 172.403C183.188 172.126 183.247 171.866 183.374 171.625C183.455 171.373 183.595 171.158 183.792 170.974C183.977 170.777 184.195 170.638 184.446 170.558C184.667 170.441 184.905 170.382 185.159 170.381ZM175.221 163.999C175.419 163.993 175.601 164.033 175.773 164.122C175.949 164.179 176.102 164.278 176.231 164.416C176.505 164.634 176.672 165.069 176.672 165.422C176.672 165.775 176.505 166.21 176.231 166.428C176.053 166.603 175.843 166.726 175.601 166.793L175.221 166.844C174.852 166.861 174.477 166.669 174.214 166.428C174.16 166.379 174.11 166.331 174.057 166.284C173.817 166.064 173.713 165.737 173.698 165.422C173.692 165.255 173.728 165.098 173.804 164.953C173.853 164.8 173.938 164.671 174.057 164.559C174.11 164.513 174.16 164.464 174.214 164.416C174.5 164.151 174.835 164.018 175.221 163.999ZM238.183 152.631C239.577 150.939 238.765 149.735 236.67 150.154C233.061 150.64 229.665 152.912 226.487 154.541C223.018 156.366 219.443 157.872 215.905 159.587C217.365 160.48 218.45 161.878 219.28 163.473C220.936 162.22 223.052 161.621 225.118 161.543C228.867 157.967 235.075 157.148 238.183 152.631ZM73.4881 158.247C73.8661 158.248 74.2203 158.337 74.5521 158.514L74.6229 158.553L75.0769 158.904C75.2975 159.107 75.4524 159.347 75.5436 159.624C75.6836 159.891 75.7473 160.18 75.7367 160.489C75.7473 160.797 75.6836 161.085 75.5436 161.351C75.4524 161.63 75.2975 161.869 75.0769 162.072C74.9517 162.235 74.7905 162.361 74.5974 162.455C74.4169 162.528 74.2389 162.604 74.0586 162.681C73.857 162.744 73.6237 162.752 73.4052 162.763C73.0085 162.761 72.6395 162.661 72.2954 162.463L71.8501 162.121C71.6359 161.922 71.4829 161.687 71.3938 161.415C71.2676 161.174 71.2036 160.918 71.2036 160.644L71.2052 160.569C71.2052 160.552 71.2052 160.533 71.2075 160.514C71.2328 160.316 71.2606 160.117 71.2877 159.918C71.3579 159.627 71.4916 159.371 71.691 159.155C71.7419 159.054 71.8098 158.971 71.897 158.904C72.1768 158.625 72.5076 158.434 72.8897 158.326C73.0891 158.301 73.2885 158.274 73.4881 158.247ZM171.988 152.648C172.274 152.648 172.54 152.72 172.786 152.861C172.894 152.944 173 153.026 173.106 153.108C173.304 153.305 173.439 153.538 173.513 153.804L173.571 154.222C173.577 154.44 173.533 154.641 173.433 154.829C173.369 155.023 173.261 155.192 173.106 155.336C172.964 155.49 172.794 155.598 172.597 155.662C172.41 155.761 172.207 155.805 171.988 155.797C171.704 155.797 171.436 155.725 171.19 155.581C171.084 155.501 170.976 155.419 170.87 155.336C170.691 155.156 170.562 154.946 170.485 154.707L170.465 154.641L170.408 154.222C170.399 154.005 170.444 153.804 170.543 153.616C170.607 153.419 170.718 153.25 170.87 153.108C171.014 152.954 171.184 152.846 171.379 152.783C171.549 152.694 171.731 152.649 171.924 152.647L171.988 152.648ZM85.8882 150.358L85.9622 150.359C86.3843 150.361 86.7768 150.467 87.1417 150.678C87.2987 150.799 87.4559 150.919 87.6127 151.042C87.9033 151.331 88.1027 151.673 88.2154 152.069L88.2979 152.686C88.3106 153.007 88.2428 153.305 88.0964 153.582C88.0032 153.872 87.8418 154.121 87.6127 154.332C87.4029 154.558 87.1523 154.719 86.8617 154.812C86.5838 154.958 86.2846 155.026 85.9622 155.013C85.54 155.013 85.1475 154.907 84.7826 154.696C84.6258 154.575 84.4689 154.453 84.3097 154.332C84.021 154.04 83.8216 153.698 83.7092 153.305L83.6264 152.686C83.6137 152.367 83.6816 152.067 83.828 151.79C83.9213 151.502 84.0825 151.251 84.3097 151.042C84.5219 150.813 84.772 150.653 85.0627 150.56C85.3192 150.425 85.5938 150.359 85.8882 150.358ZM164.442 144.547C164.635 144.496 164.828 144.496 165.021 144.547C165.31 144.559 165.579 144.646 165.83 144.804L166.269 145.143C166.275 145.149 166.281 145.155 166.288 145.164C166.553 145.43 166.737 145.745 166.839 146.107L166.916 146.675C166.926 146.969 166.865 147.243 166.731 147.497C166.651 147.741 166.52 147.953 166.339 148.137L166.269 148.205C166.071 148.416 165.84 148.566 165.571 148.653C165.401 148.753 165.216 148.801 165.021 148.801C164.733 148.867 164.442 148.854 164.153 148.763C163.982 148.689 163.808 148.617 163.634 148.546L163.579 148.514C162.923 148.157 162.518 147.408 162.518 146.675C162.518 145.941 162.923 145.191 163.579 144.834C163.598 144.826 163.615 144.815 163.634 144.804C163.884 144.646 164.153 144.559 164.442 144.547Z" fill="black"/>
<path fill-rule="evenodd" clip-rule="evenodd" d="M165.547 58.5456C159.184 49.8029 147.469 47.2887 137.31 49.4151C117.448 53.0296 98.4724 68.1574 94.963 88.7311C89.4878 101.178 92.9842 120.782 108.907 122.247C111.174 122.375 113.42 121.854 115.691 122.135C129.551 124.345 145.93 133.807 158.199 122.649C158.814 123.089 159.624 123.301 160.313 123.035C165.536 121.02 165.781 115.192 166.226 110.401C166.801 104.21 167.341 98.0161 167.844 91.8196C168.023 81.1333 172.266 67.7795 165.547 58.5456Z" fill="#E1945E"/>
<path fill-rule="evenodd" clip-rule="evenodd" d="M127.778 36.0352C136.14 35.5913 151.548 39.4151 158.843 43.898C170.73 51.2021 171.651 65.7721 171.166 68.2914C170.982 69.2529 170.92 70.1487 169.999 69.853C170.78 76.4723 170.192 80.2496 170.324 86.9072L170.414 91.3519C170.472 94.3152 170.523 97.2788 170.535 100.243C170.836 100.131 171.132 100.269 171.242 100.556C171.27 100.626 171.175 100.664 171.128 100.624C170.599 100.163 170.976 101.213 171.158 101.427C171.41 101.721 171.829 101.998 172.123 102.249L172.922 102.94L173.721 103.629C174.754 104.518 175.752 105.409 176.716 106.367L176.977 106.63C178.732 108.41 180.932 110.132 182.024 112.434C183.068 114.632 182.746 117.124 181.012 118.876C180.382 119.512 179.645 119.998 178.845 120.366C180.269 122.708 180.477 125.804 178.991 128.213C177.502 130.631 174.64 131.897 171.884 131.703C171.799 132.047 171.668 132.383 171.494 132.702C170.401 134.708 168.227 134.968 166.166 134.861L166.085 134.856C161.445 134.59 156.98 133.43 152.916 131.174C151.506 131.27 150.248 130.113 149.973 128.845C149.232 128.818 148.487 128.756 147.727 128.67C145.472 128.41 143.16 127.926 141.173 126.783C140.868 126.607 141.009 126.144 141.348 126.136C143.77 126.081 146.194 126.248 148.612 125.986C150.83 125.747 153.195 125.136 155.263 124.306C158.981 122.809 162.169 120.271 163.928 116.754C166.206 112.201 165.999 106.734 166.246 101.788C166.521 96.314 166.858 90.8447 167.22 85.3759L167.395 82.7545C167.746 77.645 168.036 74.9116 168.924 69.6082C166.246 69.847 155.122 65.8496 151.662 59.311C145.096 73.2209 111.831 67.5281 110.355 88.9425C110.343 89.1241 110.055 89.0735 110.044 88.9C110.067 88.9697 109.844 88.0352 110.044 88.9C109.551 87.5028 106.494 86.5413 105.471 86.8734C104.55 87.1733 103.682 87.634 102.903 88.2028C101.339 89.344 100.126 90.8806 99.7237 92.8015C98.9595 96.4496 101.286 100.165 104.375 101.926C106.322 103.035 108.456 103.752 110.324 105.009C111.973 106.119 113.51 107.419 114.841 108.896C120.117 114.748 123.22 123.625 120.724 131.35C120.534 131.94 120.03 132.614 119.363 132.709C118.26 132.867 117.157 132.707 116.539 131.658C116.298 131.248 116.183 130.781 116.209 130.321C115.781 131.787 114.395 133.237 113.116 133.783C111.374 134.527 109.411 134.304 107.874 133.345L107.68 133.488C105.181 135.325 102.388 136.999 99.186 136.661C96.8657 136.416 94.5879 135.237 93.3049 133.377C91.5986 134.334 89.7759 135.097 87.896 135.617L87.6959 135.672C85.1095 136.375 81.8104 137.019 79.3962 135.591C77.0781 134.22 76.3075 131.225 76.8516 128.725C76.9172 128.427 76.9998 128.137 77.1014 127.856C75.357 127.949 73.6147 127.782 71.9592 127.271C70.2677 126.749 68.6546 125.745 67.8438 124.118C66.9292 122.276 67.1727 120.184 67.8543 118.31C68.9446 115.302 70.6975 112.626 72.8801 110.295C74.979 108.052 77.5108 106.148 80.1421 104.562L80.5857 104.297C82.9543 102.886 85.8107 101.234 88.6094 101.342C88.601 101.306 88.5946 101.272 88.5904 101.237C88.167 98.1235 88.2157 94.949 88.1162 91.8105C88.0251 88.9235 87.9214 86.0364 87.8537 83.1472C87.7436 78.2353 87.7796 73.3026 88.421 68.4246C88.9905 64.0961 90.0151 59.8753 91.8844 55.9124C93.8469 51.7491 96.8022 48.1963 100.452 45.4022C108.111 39.5372 118.228 36.5424 127.778 36.0352ZM101.762 93.7274C102.596 92.157 104.495 91.6625 106.161 91.9457C108.497 92.343 110.084 94.3806 111.448 96.1327C112.879 97.9692 109.894 99.7001 109.125 97.9208L108.943 97.5004C108.326 96.0892 107.598 94.6012 106.339 93.6809C105.001 92.7044 103.113 92.5607 101.932 93.8584C101.847 93.9535 101.705 93.8309 101.762 93.7274Z" fill="black"/>
<path fill-rule="evenodd" clip-rule="evenodd" d="M156.925 108.349C156.225 109.261 154.957 109.959 153.538 110.293C152.185 110.612 150.69 110.599 149.4 110.109L149.289 110.065C148.324 109.666 147.398 108.86 147.047 108.019C146.907 107.684 146.86 107.345 146.955 107.027C147.041 106.742 147.243 106.479 147.579 106.254C147.685 106.183 147.826 106.178 147.961 106.202C148.128 106.231 148.293 106.309 148.393 106.414C148.945 106.999 149.746 107.569 150.694 107.559C151.425 107.552 152.022 107.264 152.601 106.939L153.008 106.707C153.401 106.484 153.799 106.274 154.25 106.178C155.056 106.007 156.035 106.32 156.631 106.837C156.891 107.063 157.08 107.328 157.131 107.614C157.174 107.853 157.114 108.104 156.925 108.349ZM152.732 92.4016C154.334 93.3717 156.775 95.6338 155.051 98.0388C153.023 100.159 150.102 97.728 148.663 96.6283C147.328 95.7761 145.829 97.968 147.067 98.9631C157.467 106.634 161.688 92.6552 153.542 91.2609C152.645 91.1073 152.312 92.1014 152.732 92.4016ZM134.659 77.4916L135.119 77.3659L135.588 77.2397L135.905 77.1562C138.085 76.5878 140.489 76.0875 142.651 76.3318C143.439 76.4209 144.079 76.8629 144.191 77.6857C144.285 78.38 143.834 79.2757 143.068 79.3991C140.529 79.8083 137.93 79.6755 135.38 80.0974C134.11 80.3073 132.849 80.5678 131.584 80.8027C130.622 80.9815 129.628 81.0442 128.657 81.1888L128.88 81.2197C128.958 81.2302 128.939 81.361 128.862 81.3558C128.542 81.324 128.222 81.319 127.901 81.3413L127.763 81.3526C127.554 81.382 127.43 81.133 127.617 81.0066C128.799 80.2075 129.803 79.3414 131.127 78.7523C132.271 78.243 133.45 77.823 134.659 77.4916ZM154.503 76.2661C156.179 74.5782 159.743 75.2269 161.737 75.9989C162.874 76.4398 163.956 76.9971 164.858 77.8309L164.945 77.9129L165.081 78.0426C165.689 78.6359 166.368 79.4524 166.271 80.3077C166.256 80.4381 166.185 80.5871 166.037 80.6133C165.239 80.7543 164.454 80.3346 163.717 80.082L163.229 79.915C162.495 79.6662 161.757 79.4284 161.001 79.2567C160.061 79.0436 159.102 78.9204 158.136 78.9327C157.161 78.9454 156.113 79.2197 155.183 78.8338C154.147 78.4037 153.609 77.166 154.503 76.2661ZM137.945 89.8786C137.518 90.3137 136.953 90.5591 136.23 90.4131C135.665 90.2991 134.59 89.7333 133.731 88.862C133.143 88.266 132.652 87.5211 132.518 86.6583C132.487 86.4579 132.381 86.3295 132.24 86.2486C132.13 86.1847 131.984 86.1526 131.825 86.1686C131.69 86.1822 131.547 86.2309 131.436 86.2955C131.225 86.4183 131.139 86.5926 131.122 86.7228C130.953 87.979 131.44 89.2254 132.199 90.2763C133.223 91.6946 134.728 92.734 135.612 92.9772C137.126 93.3938 138.721 93.0622 139.896 92.0128C140.837 91.1738 141.318 90.0806 141.766 88.9566L141.852 88.7387C141.952 88.4836 142.052 88.2304 142.158 87.9799C142.37 87.4779 142.302 87.0441 142.097 86.7059C141.869 86.3312 141.449 86.0675 140.981 85.9865C140.549 85.9116 140.086 85.9935 139.721 86.2566C139.412 86.4789 139.163 86.8311 139.075 87.3518C138.931 88.1986 138.597 89.1702 138.009 89.8112L137.945 89.8786ZM163.896 84.9775C163.544 84.7945 163.268 84.7393 162.877 84.856C162.66 84.9208 162.447 85.0448 162.279 85.2116C162.113 85.3768 161.994 85.5824 161.947 85.8104C161.833 86.373 161.524 86.8997 161.083 87.2431C160.707 87.5366 160.232 87.6921 159.705 87.6044C159.136 87.5098 158.594 87.1465 158.221 86.7181C158.117 86.5987 158.032 86.4657 157.95 86.3312L157.9 86.2503C157.717 85.9479 157.538 85.6669 157.284 85.4448C157.188 85.3603 157.043 85.3018 156.903 85.3018C156.846 85.3018 156.788 85.311 156.733 85.3282C156.167 85.8941 156.058 86.3234 156.077 86.7492C156.096 87.1958 156.272 87.6479 156.558 88.0697C157.228 89.0593 158.5 89.8706 159.358 90.0544C160.533 90.306 161.701 90.0039 162.637 89.3499C163.6 88.677 164.313 87.6321 164.536 86.4547C164.589 86.1711 164.566 85.865 164.458 85.5996C164.352 85.3403 164.167 85.1182 163.896 84.9775Z" fill="black"/>
<path fill-rule="evenodd" clip-rule="evenodd" d="M170.776 94.7582C169.348 96.6698 166.7 97.2787 164.257 97.0684C158.99 96.5633 157.332 90.603 157.159 85.9704C160.691 86.9604 156.86 79.9491 168.936 79.1781C173.192 78.8247 172.019 81.3858 173.899 83.2571C173.861 87.1844 173.205 91.4518 170.776 94.7582ZM145.685 90.2454C142.575 104.755 125.544 101.304 123.755 88.2243C125.407 87.0627 124.972 84.1945 127.025 83.1553C130.277 81.0849 134.343 81.1734 138.037 81.222C142.758 81.5452 144.104 83.4936 146.529 85.6194C146.412 87.0392 146.076 88.722 145.685 90.2454ZM177.523 76.775C177.348 76.7461 177.173 76.7188 176.999 76.6932C176.862 76.6161 176.702 76.5567 176.516 76.521C176.09 76.4134 175.668 76.3409 175.246 76.3018C169.193 74.9447 155.19 76.8716 154.612 82.0176C152.685 82.6586 151.017 82.0846 148.783 82.1416C147.082 75.0603 117.682 76.0598 116.268 80.3291C116.263 80.3276 116.257 80.3263 116.252 80.3246C114.893 79.9057 112.89 80.0068 111.335 79.9404C108.015 79.8711 104.691 80.1659 101.442 80.8636C95.3588 81.8267 87.0564 82.9543 91.2873 90.5223L91.2898 90.5263C92.019 91.2709 93.2571 90.6707 93.3031 89.6627C91.8806 86.0774 95.0934 85.6469 97.5654 84.6165C103.716 82.4151 109.978 82.1099 116.34 82.7909C116.818 83.3522 117.545 83.8417 118.312 84.0979C122.565 84.8012 120.324 87.9445 123.012 88.4016C122.519 99.3584 135.871 105.339 143.608 98.1366C146.697 95.1278 147.434 90.6707 148.15 86.6531C148.529 86.5683 148.769 86.3621 148.91 86.089C149.821 85.1832 150.393 84.3466 152.194 84.0979C153.995 83.8493 155.381 84.3483 155.569 84.5011C155.616 84.596 155.667 84.6911 155.726 84.7862C155.808 84.9281 155.92 85.0411 156.047 85.1301C154.269 96.0409 162.771 102.941 171.354 97.2821C175.084 93.787 175.872 88.4361 176.028 83.66C176.533 83.356 176.854 82.767 176.678 82.0264C176.437 81.0056 177.003 80.1217 177.904 79.6779C179.074 79.1016 178.867 76.9967 177.523 76.775Z" fill="black"/>
</g>
<defs>
<linearGradient id="paint0_linear_754_518" x1="126" y1="0" x2="320.156" y2="187.234" gradientUnits="userSpaceOnUse">
<stop stop-color="#5800FF"/>
<stop offset="1" stop-color="#DD4CEB"/>
</linearGradient>
<clipPath id="clip0_754_518">
<rect width="255" height="255" fill="white"/>
</clipPath>
</defs>
</svg>
