<svg width="255" height="255" viewBox="0 0 255 255" fill="none" xmlns="http://www.w3.org/2000/svg">
<g clip-path="url(#clip0_803_570)">
<path opacity="0.8" d="M254.939 251.848C254.848 251.697 250.002 254.854 249.921 254.744C249.379 253.812 255.47 220.373 254.939 219.451C253.875 217.617 194.731 256.587 193.727 254.744C192.353 252.379 256.313 189.419 254.939 187.054C252.932 183.537 139.54 258.271 137.533 254.754C135.225 250.745 257.287 158.655 254.939 154.657C251.928 149.456 84.3499 259.964 81.3395 254.764C78.0682 249.092 258.26 127.922 254.939 122.25C250.985 115.366 29.0791 261.658 25.0954 254.764C20.8507 247.429 259.183 97.1984 254.939 89.8533C250.523 82.2175 4.53442 244.402 0.119181 236.777C-4.55696 228.69 259.615 65.5431 254.939 57.4564C250.523 49.8206 4.52439 212.015 0.119181 204.38C-4.56699 196.293 259.615 33.1462 254.939 25.0595C250.523 17.4237 4.52439 179.619 0.0589761 171.983C-4.40644 164.347 246.229 7.94417 241.783 0.248284C237.589 -6.99667 4.29359 146.781 0.119181 139.586C-3.36284 133.574 189.061 6.31082 185.579 0.298405C182.358 -5.30316 3.31019 112.71 0.119181 107.189C-2.39951 102.83 131.904 4.61731 129.385 0.258314C127.128 -3.60967 2.33684 78.6401 0.119181 74.7922C-1.44622 72.0866 74.7467 2.97393 73.1813 0.268344C71.917 -1.92619 1.38354 44.5798 0.109137 42.3552C-0.573218 41.1728 17.6597 1.4107 16.9774 0.268344C16.6864 -0.24271 0.400141 10.4894 0.109137 9.98841" stroke="url(#paint0_linear_803_570)" stroke-width="5" stroke-linecap="round" stroke-linejoin="round"/>
<path fill-rule="evenodd" clip-rule="evenodd" d="M204.838 123.352C202.71 117.482 204.309 110.05 199.922 105.193C198.624 104.403 197.936 104.843 197.402 106.22C197.079 108.032 196.324 114.27 199.041 114.268C199.383 118.164 199.169 122.089 198.332 125.912C196.327 125.59 194.865 126.622 193.402 127.39C192.311 127.962 191.22 128.387 189.903 127.994C184.465 127.034 182.915 132.752 182.849 137.419C182.769 139.696 182.556 145.004 181.554 147.214C177.02 137.812 167.497 133.531 158.424 131.418C157.001 131.024 155.788 130.486 154.875 129.566C147.23 126.543 150.903 116.642 147.386 110.951C141.881 104.186 135.27 102.239 126.941 103.399C119.654 104.205 114.7 111.617 115.149 118.613C115.284 120.041 114.428 121.542 113.925 123.011C108.895 129.038 101.068 131.734 94.3358 135.375C71.8822 146.363 64.1008 154.76 55.3751 178.141C51.2931 186.937 46.4081 195.475 44.7857 205.163C42.8792 216.58 42.8732 228.267 43.5369 239.796C42.2978 239.944 43.6463 248.807 44.7331 251.877C45.1054 252.93 45.9977 253.688 47.1095 253.671C49.3458 254.759 54.5965 259.145 56.9356 258.999C64.4932 258.533 71.8393 259.254 79.1206 258.881C86.998 258.478 94.7995 257.007 102.711 257.197C116.506 257.53 106.629 258.35 120.902 258.999C129.913 259.415 162.785 254.488 171.77 255.292C179.078 256.832 182.412 254.237 181.297 246.592C180.885 243.662 179.569 237.146 183.899 236.869C185.947 237.107 187.642 239.156 189.177 240.354C202.731 250.457 216.577 243.182 217.669 226.573C219.723 212.642 222.603 209.351 216.342 195.439C196.533 143.651 226.378 150.687 206.227 126.431C204.653 127.802 205.053 124.141 204.838 123.352Z" fill="#AF6443"/>
<path fill-rule="evenodd" clip-rule="evenodd" d="M109.726 134.403C122.637 140.996 132.846 144.293 140.355 144.293C147.865 144.293 161.09 145.828 180.033 148.898L189.387 169.479L210.026 173.517L210.118 174.055C211.124 179.831 213.045 186.82 216.342 195.439C222.603 209.351 219.723 212.642 217.669 226.573C216.577 243.182 202.731 250.457 189.177 240.354C187.642 239.156 185.947 237.107 183.899 236.869C179.655 237.14 180.835 243.404 181.271 246.412L181.297 246.592C182.412 254.237 179.078 256.832 171.77 255.292C162.785 254.488 129.913 259.415 120.902 258.999C106.629 258.35 116.506 257.53 102.711 257.197C94.7995 257.007 86.998 258.478 79.1206 258.881C72.2224 259.234 65.2658 258.606 58.1265 258.935L47.1095 253.671C43.0349 224.46 43.654 205.306 48.9666 196.211C54.2526 187.161 61.3308 172.284 70.2013 151.579C70.3372 151.434 70.4744 151.29 70.6125 151.146L109.726 134.403Z" fill="#FFC600"/>
<path fill-rule="evenodd" clip-rule="evenodd" d="M197.311 104.805C198.392 103.742 200.11 104.006 201.164 104.952C202.237 105.913 202.883 107.422 203.434 108.724C205.905 114.576 205.33 120.983 206.58 127.106C208.868 128.343 210.933 129.958 212.396 132.131C214.617 135.432 215.672 139.276 214.558 143.188C213.982 145.213 213.004 147.088 212.307 149.069C211.562 151.178 211.106 153.37 210.887 155.597C210.673 157.782 210.644 159.98 210.706 162.173C210.739 163.31 210.799 164.444 210.859 165.578C210.912 166.594 211.092 167.655 210.849 168.65L210.819 168.765C210.914 168.75 211.007 168.732 211.1 168.711C211.897 168.533 212.598 168.257 213.429 168.366C214.077 168.451 214.413 168.992 214.139 169.603C214.019 169.87 213.86 170.093 213.668 170.283C215.34 182.656 218.259 194.831 220.179 207.164C221.05 212.76 221.58 218.373 221.281 224.038L221.25 224.6C220.945 229.802 220.195 235.535 217.555 240.084C216.322 242.214 214.626 244.104 212.571 245.465C211.63 246.089 210.621 246.576 209.526 246.82C203.848 249.084 197.845 248.528 192.491 245.535C190.084 244.19 187.682 242.623 185.716 240.677C184.761 239.731 183.839 238.527 183.274 237.211C183.276 237.506 183.222 237.808 183.282 238.099L183.401 238.675C184.293 242.95 187.691 258.753 187.736 260.079C187.76 260.795 181.743 260.778 181.09 260.799L181.072 260.8C171.327 261.207 161.576 260.99 151.836 260.586L151.067 260.554C141.622 260.154 131.343 259.616 121.887 259.34L121.907 259.182C122.02 258.331 122.571 254.549 122.632 254.26L122.634 254.25C122.902 253.168 123.419 249.805 123.147 248.689C122.446 245.815 119.288 246.472 117.066 246.776L116.597 246.838C116.238 246.887 115.362 247.016 115.371 247.025C115.134 246.778 115.696 246.079 115.834 245.893L115.945 245.739C116.542 244.902 117.083 244.033 117.023 242.955C116.88 240.322 113.122 240.47 111.275 240.653C111.145 240.666 111.091 240.869 111.241 240.9L111.606 240.976C112.777 241.228 115.38 241.869 115.321 242.84C115.288 243.391 114.701 243.798 114.343 244.145C113.948 244.529 113.555 244.941 113.264 245.411C112.702 246.317 112.575 247.538 113.13 248.481C113.771 249.568 114.906 249.695 116.044 249.596L116.109 249.59C116.359 249.566 116.609 249.542 116.86 249.518L118.362 249.371C118.734 249.335 119.929 249.021 120.278 249.237C120.772 249.544 120.177 250.902 120.066 251.35L120.06 251.382C119.964 252.029 119.907 258.818 119.897 259.266C112.528 259.095 105.158 257.455 97.7891 257.84C91.935 258.146 86.0967 258.675 80.2536 259.135L80.1061 257.879C78.4866 244.204 75.9473 226.159 77.166 212.633C77.2613 211.574 75.6103 211.58 75.5156 212.633C74.2555 226.62 77.0138 245.409 78.6182 259.261C76.1308 259.45 73.6423 259.622 71.151 259.753L70.5157 259.785C62.0381 260.21 53.288 260.235 44.9915 258.288C44.7357 258.228 44.6491 257.972 44.7027 257.759C44.6202 257.807 44.4964 257.78 44.4613 257.664C43.4948 254.475 43.0039 246.353 42.5659 242.838L42.5365 242.608C42.0868 239.194 41.8289 235.74 41.6432 232.305C41.2677 225.433 41.3131 218.552 41.8206 211.688C43.436 189.795 49.8686 167.676 63.3692 150.081C66.6329 145.828 70.3485 141.937 74.8067 138.927C79.1804 135.974 84.0863 133.893 89.0644 132.204C92.355 131.086 95.6971 130.13 99.0393 129.175C99.1658 129.112 99.2923 129.05 99.4195 128.988L99.6107 128.897C100.799 128.333 101.969 127.715 103.186 127.213L103.455 127.104C105.219 126.395 107.274 125.768 109.183 125.79C112.276 124.23 114.873 121.874 114.621 118.093C114.518 116.54 116.953 116.542 117.039 118.093C117.266 122.221 114.727 125.147 111.49 127.112L111.505 127.128L111.521 127.145C112.026 127.719 112.567 128.252 113.151 128.748C116.645 131.726 121.066 134.199 125.485 135.827C130.67 137.737 135.85 138.31 141.212 136.765C144.016 135.957 146.663 134.711 149.095 133.1C149.838 132.608 150.549 132.082 151.232 131.518C150.587 130.634 150.071 129.681 149.638 128.671C148.767 126.639 148.047 123.885 148.936 121.739C149.155 121.21 150.023 120.884 150.327 121.557C151.162 123.4 151.511 125.391 152.485 127.193C152.856 127.878 153.283 128.529 153.762 129.142C153.762 129.175 157.417 129.801 157.417 129.801C161.836 129.799 165.998 131.499 169.907 133.623C172.218 134.878 174.489 136.213 176.754 137.55L181.18 140.164C181.506 140.357 181.871 140.542 182.236 140.741C181.809 138.63 181.6 136.477 181.741 134.344C181.953 131.125 183.203 127.606 186.515 126.459C188.08 125.916 189.892 126.083 191.412 126.686C192.114 126.965 192.877 127.335 193.529 127.829C193.845 126.407 195.175 125.342 196.512 124.871C196.945 124.718 197.389 124.621 197.839 124.573C197.825 124.345 197.824 124.115 197.827 123.877L197.83 123.697C197.851 122.644 197.843 121.59 197.82 120.539C197.779 118.546 197.684 116.594 197.482 114.607C197.313 112.962 197.02 111.336 196.802 109.697L196.712 108.993C196.528 107.606 196.22 105.878 197.311 104.805ZM64.379 239.315L64.0101 239.096C62.802 238.382 61.5576 237.724 60.0941 238.054C58.6999 238.369 57.7108 239.502 57.1912 240.78C56.9457 241.383 56.8175 241.991 56.7228 242.634C56.6696 242.994 56.6337 243.357 56.5706 243.715L56.5495 243.826C56.5209 243.969 56.4772 244.168 56.4373 244.34C56.0569 244.173 55.6738 243.907 55.3625 243.749L55.1114 243.622C54.5222 243.329 53.9091 243.049 53.267 242.913C51.8761 242.619 50.3332 243.045 49.5381 244.292C48.858 245.359 48.8719 246.617 49.1321 247.812L49.1506 247.896C49.2635 248.392 49.8467 250.379 50.695 250.089C51.52 249.807 51.6302 248.709 51.6927 247.977L51.6974 247.907C51.7255 247.356 51.6163 246.196 52.2403 245.987C53.0199 245.725 54.5199 246.92 55.1989 247.233C56.413 247.791 57.7467 247.956 58.7347 246.87C59.6206 245.896 59.6953 244.471 59.9245 243.236L59.9838 242.925C60.1054 242.297 60.3407 241.295 61.0342 241.32C61.6009 241.341 62.2231 241.929 62.6902 242.208C63.2058 242.516 63.7411 242.773 64.3006 242.992C65.6063 243.503 67.0581 243.666 68.4472 243.515C69.2519 243.428 69.776 243.043 70.0605 242.286C70.1568 242.063 70.2302 241.834 70.281 241.596C70.732 239.9 68.2679 238.689 67.3593 240.207C66.3111 240.167 65.3352 239.884 64.379 239.315ZM216.033 227.971C215.281 227.434 214.261 227.549 213.589 228.154L213.549 228.191C213.363 228.371 212.943 228.84 212.672 229.252L212.586 229.186C212.573 229.175 212.56 229.164 212.547 229.154L212.51 229.124C211.955 228.654 211.374 228.223 210.66 228.031C208.798 227.53 207.105 228.778 206.292 230.379C205.907 231.138 205.742 231.922 205.549 232.74L205.533 232.816C205.455 233.197 205.355 233.971 205.021 234.159C204.898 234.229 204.619 234.092 204.344 233.932C203.715 233.569 203.151 233.106 202.535 232.724C201.089 231.826 199.447 231.455 197.824 232.102C196.217 232.742 195.066 234.254 195.039 236.016C195.019 237.315 195.887 239.581 197.522 239.423C197.849 239.391 198.271 239.189 198.324 238.811C198.465 237.809 197.675 236.577 198.581 235.749C199.456 234.948 200.364 235.622 201.156 236.177L201.725 236.576C202.647 237.218 203.597 237.805 204.766 237.875C206.244 237.964 207.608 237.147 208.352 235.887C209.024 234.748 209.034 233.46 209.56 232.291C209.675 232.035 209.971 231.8 209.872 231.682C210.271 231.89 210.785 232.489 211.033 232.656C212.268 233.491 213.921 233.485 215.004 232.378C215.435 231.938 215.71 231.394 216.03 230.876C216.145 230.688 216.29 230.515 216.395 230.322C216.434 230.251 216.497 229.987 216.549 229.752L216.629 229.379L216.637 229.318C216.706 228.753 216.507 228.309 216.033 227.971ZM168.435 223.039C167.015 222.293 165.265 222.577 163.986 223.481C162.552 224.495 161.849 226.053 161.37 227.699C161.022 228.898 160.855 230.551 159.854 231.419C158.689 232.429 156.737 231.357 155.507 230.958C154.019 230.477 152.232 230.28 150.78 230.992C149.358 231.69 148.672 233.115 148.525 234.641C148.388 236.065 148.592 237.94 149.403 239.132C149.483 239.249 149.636 239.219 149.686 239.094C150.219 237.78 150.117 236.275 150.55 234.915C151.012 233.463 152.096 233.155 153.471 233.546C154.906 233.953 156.22 234.716 157.696 234.987C159.269 235.277 160.827 234.978 162.067 233.937C163.111 233.062 163.742 231.786 164.17 230.515C164.586 229.276 164.654 227.617 165.54 226.588C165.763 226.329 166.153 226.015 166.515 225.982C167.053 225.932 167.247 226.332 167.681 226.639C168.827 227.448 170.656 227.464 171.357 226.041C171.587 225.575 171.7 224.913 171.357 224.456C170.755 223.657 170.26 223.664 169.466 223.836C169.44 223.815 169.412 223.788 169.38 223.751L169.356 223.721C169.146 223.454 168.738 223.199 168.435 223.039ZM112.209 214.637C112.162 213.567 110.875 212.54 109.86 213.288C109.697 213.407 109.535 213.529 109.377 213.656L109.313 213.726C109.124 213.725 108.948 213.676 108.761 213.616L108.435 213.511C107.578 213.239 106.755 213.02 105.841 213.221C104.268 213.567 103.27 214.926 102.757 216.368C102.28 217.712 102.436 219.083 102.212 220.462C102 221.768 101.329 222.278 100.07 221.998L100.005 221.984C97.5007 221.383 94.6468 219.704 92.4509 222.006C90.0786 224.493 91.6305 228.444 94.2272 230.042C94.3407 230.112 94.4661 229.997 94.4403 229.878C94.0954 228.271 93.0888 226.739 93.4261 225.033C93.6599 223.851 94.4801 223.292 95.6507 223.48C98.1128 223.877 100.416 225.841 102.941 224.416C104.202 223.703 104.897 222.365 105.211 220.994C105.494 219.761 105.414 218.369 105.956 217.206C106.55 215.932 107.549 216.855 108.626 217.029C110.15 217.275 112.29 216.475 112.209 214.637ZM194.809 176.582C194.814 175.519 193.163 175.517 193.158 176.582C193.098 190.054 186.803 202.507 185.672 215.845C185.583 216.905 187.233 216.899 187.322 215.845C188.454 202.503 194.748 190.076 194.809 176.582ZM58.5237 198.635C57.6547 197.649 56.3818 197.955 55.3478 198.449C53.7948 199.19 52.3085 200.023 50.8838 200.987C50.5333 201.224 50.7542 201.739 51.1668 201.659C52.2118 201.458 53.2289 201.233 54.2426 200.907C55.0045 200.662 55.7976 200.306 56.592 200.179C56.5423 200.362 56.4819 200.542 56.4107 200.718C56.2803 201.079 56.1289 201.432 56.0004 201.795C55.7447 202.516 55.5143 203.247 55.2909 203.98L55.1797 204.346C54.7153 205.881 54.2641 208.115 56.4072 208.588C57.2023 208.763 57.9904 208.416 58.7301 208.144L58.8824 208.088L61.5805 207.131C61.9019 207.017 62.4973 206.937 62.7639 206.738L62.7212 206.943C62.666 207.215 62.6119 207.482 62.4948 207.753L62.4295 207.903C61.7594 209.424 60.9144 210.946 61.696 212.628C62.3657 214.068 63.9487 214.752 65.4741 214.343C66.9238 213.955 67.9729 212.32 67.2223 210.898C66.9427 210.368 66.1243 210.109 65.6044 210.44L65.4647 210.533C65.301 210.64 65.019 210.824 65.0122 210.858C64.9734 210.868 64.9327 210.878 64.8915 210.888C64.979 210.63 65.038 210.234 65.1147 210.059L65.3971 209.417C65.9223 208.21 66.3776 206.983 65.9769 205.63C64.8292 201.756 60.9372 203.958 58.0663 205.064C58.1082 204.9 58.1496 204.739 58.1847 204.58C58.3085 204.019 58.4439 203.461 58.5778 202.903L58.8525 201.751C59.0997 200.689 59.2921 199.506 58.5237 198.635ZM205.41 194.31C205.413 194.219 205.3 194.148 205.221 194.202C203.386 195.437 202.158 198.017 202.847 200.214C203.182 201.281 203.894 202.217 204.894 202.735C206.137 203.379 207.51 203.134 208.816 202.859L209.37 202.74C209.761 202.658 210.147 202.597 210.545 202.707C210.682 202.745 210.84 202.864 210.97 202.89C210.916 202.981 210.859 203.139 210.83 203.198L210.736 203.389C210.641 203.582 210.548 203.783 210.49 203.986C210.295 204.666 210.343 205.397 210.659 206.032C211.248 207.215 212.483 207.882 213.769 207.996C214.535 208.064 216.465 207.392 216.921 208.206C217.827 209.821 220.406 208.735 219.904 206.946C219.565 205.737 218.604 204.956 217.412 204.629C216.777 204.455 216.12 204.479 215.475 204.55C215.222 204.578 214.97 204.617 214.717 204.644L214.527 204.661C214.576 204.657 214.002 204.644 213.771 204.628L213.821 204.496C213.828 204.477 213.834 204.461 213.84 204.448C214.097 203.899 214.287 203.351 214.272 202.737C214.243 201.629 213.528 200.663 212.587 200.13C211.72 199.638 210.687 199.442 209.702 199.552C208.618 199.673 207.078 200.532 206.013 200.079C205.21 199.738 204.937 198.548 204.925 197.768C204.906 196.594 205.378 195.48 205.41 194.31ZM130.65 186.607C127.697 185.28 125.161 187.547 123.428 189.715C123.339 189.827 123.451 190.015 123.592 189.928L123.822 189.785C125.237 188.896 126.806 187.846 128.559 188.149C130.147 188.423 130.54 189.463 130.224 190.88L130.131 191.279C129.795 192.738 129.538 194.249 130.374 195.606C131.164 196.887 132.704 197.447 134.147 197.482C135.811 197.521 137.247 196.746 138.769 196.205L138.889 196.163C139.535 195.94 141.893 195.356 141.926 196.686C141.941 197.293 141.291 198.007 141.041 198.553C140.714 199.268 140.496 200.019 140.5 200.812C140.51 202.791 142.159 204.399 144.111 203.439C144.869 203.065 145.065 201.994 144.669 201.306C144.112 200.336 143.886 200.386 144.277 199.368L144.39 199.081C144.87 197.853 145.253 196.59 144.713 195.301C143.635 192.728 140.402 192.417 138.092 193.269L138.008 193.301C136.57 193.858 132.265 196.092 132.562 192.933C132.679 191.689 133.056 190.495 132.792 189.237C132.547 188.069 131.733 187.094 130.65 186.607ZM116.42 176.04C115.881 175.089 114.072 175.429 114.222 176.636L114.27 177.011C114.331 177.525 114.344 178.008 113.99 178.465C113.559 179.02 112.823 179.188 112.154 179.103C110.738 178.923 109.836 177.609 108.278 177.916C107.013 178.165 106.14 179.202 105.634 180.331C105.099 181.528 105.11 182.825 104.711 184.057C104.252 185.473 103.273 185.408 102.05 184.912L101.786 184.804C100.616 184.317 99.4426 183.776 98.139 184.009C95.9738 184.395 94.1092 187.729 96.1378 189.338C96.504 189.629 97.144 189.477 97.1285 188.928L97.1265 188.824C97.1162 187.824 97.3681 186.533 98.5126 186.298C99.7263 186.048 101.098 187.157 102.225 187.476C105.144 188.303 106.806 186.103 107.302 183.501L107.32 183.402C107.479 182.491 107.604 180.806 108.555 180.38C109.062 180.152 109.603 180.712 110.027 180.937C110.686 181.287 111.393 181.509 112.138 181.566C114.895 181.777 118.027 178.874 116.42 176.04ZM185.403 172.446C184.495 172.052 183.14 172.271 182.919 173.458L182.784 174.205C182.52 175.648 182.1 177.452 180.683 177.971C179.798 178.296 178.78 177.727 177.986 177.379C177.032 176.962 176.101 176.604 175.056 176.505C172.936 176.304 171.357 177.532 170.607 179.451L170.542 179.622C169.937 181.235 169.119 184.319 170.444 185.628C170.637 185.819 171.027 185.912 171.264 185.734C172.046 185.146 172.244 184.18 172.513 183.274L172.536 183.196C172.821 182.256 173.055 181.219 173.57 180.372C174.527 178.796 177.023 180.595 178.224 181.011C180.196 181.693 182.241 181.294 183.748 179.835C184.7 178.913 185.263 177.746 185.65 176.511C185.897 176.639 186.154 176.75 186.43 176.824C187.482 177.11 188.73 176.959 189.531 176.161C191.035 174.663 190.219 171.977 187.927 172.411C187.475 172.497 187.179 172.928 187.125 173.369L187.095 173.439C186.518 173.248 185.887 172.656 185.403 172.446ZM79.1738 159.064C77.0319 156.858 73.3149 158.054 71.8499 160.394C71.5461 160.88 72.048 161.495 72.5815 161.347C73.8567 160.995 75.6561 159.611 77.0036 160.492C78.0026 161.145 77.4592 162.853 77.3678 163.808L77.3546 163.951C77.239 165.251 77.2128 167.031 78.2244 168.004C78.8067 168.564 79.6997 168.489 80.4677 168.409L80.7118 168.383C81.617 168.292 82.5163 168.132 83.3834 167.853C84.1806 167.597 84.9359 167.249 85.6849 166.881L85.8721 166.788C86.2036 166.623 87.3092 165.97 87.6403 166.381C87.813 166.595 87.3851 167.532 87.2962 167.741C86.9603 168.527 86.5333 169.268 86.2253 170.068C85.6825 171.478 85.6371 173.068 86.3994 174.413C87.138 175.717 88.7383 176.773 90.1566 175.772C90.9686 175.198 90.9664 174.155 90.1566 173.581C89.7281 173.278 89.2961 173.078 89.1191 172.568C88.888 171.904 89.1854 171.2 89.4732 170.585L89.8178 169.853C90.5811 168.22 91.3437 166.342 90.2773 164.672C89.176 162.948 86.9378 162.921 85.2447 163.639C84.2784 164.049 83.3966 164.599 82.3896 164.916C81.693 165.135 80.9936 165.282 80.28 165.362C80.1209 164.503 80.346 163.54 80.3483 162.686C80.352 161.389 80.1106 160.029 79.1738 159.064ZM189.622 128.374C186.007 127.843 184.258 131.08 184.008 134.197C183.783 137.027 184.241 139.865 184.957 142.617C185.225 143.637 185.526 144.645 185.842 145.636C186.35 147.229 186.9 148.819 187.571 150.352C187.775 150.815 187.981 151.279 188.212 151.726C189.004 152.375 189.681 153.251 190.297 154.092L190.701 154.647L190.81 154.797C191.856 156.231 192.749 157.718 193.479 159.335C194.175 160.876 194.693 162.482 195.095 164.121L195.194 164.53C195.504 165.792 195.96 167.298 195.408 168.472C196.492 168.806 197.568 169.11 198.72 169.271C200.308 169.494 201.961 169.508 203.564 169.451C205.112 169.394 206.66 169.273 208.202 169.108L209.313 168.986C209.428 168.973 209.543 168.959 209.658 168.945C209.615 168.891 209.577 168.831 209.551 168.765C209.155 167.815 209.206 166.713 209.162 165.691L209.157 165.578C209.099 164.444 209.064 163.31 209.049 162.173C209.022 160.042 209.08 157.904 209.313 155.782C209.515 153.926 209.831 152.069 210.324 150.265C210.821 148.437 211.581 146.721 212.282 144.965C212.975 143.23 213.547 141.447 213.485 139.555C213.446 138.353 213.182 137.184 212.734 136.079C212.713 136.095 212.687 136.108 212.656 136.106C211.251 136.054 209.92 135.647 208.562 135.304C207.122 134.939 205.647 134.639 204.174 134.461L203.861 134.425C202.634 134.287 201.296 134.219 200.162 134.746C198.934 135.319 198.161 136.591 197.694 137.812L197.642 137.952C196.814 140.267 197.004 143.355 199.565 144.451C200.36 144.791 202.173 145 202.582 143.922C202.765 143.43 202.388 142.703 202.245 142.239C202.078 141.685 201.969 141.139 201.981 140.561C201.991 140.054 202.378 139.671 202.871 139.63L202.916 139.627C203.811 139.588 205.658 138.556 205.837 140.043C205.872 140.332 205.651 140.635 205.418 140.776C204.948 141.055 204.457 141.241 203.945 141.354C204.015 141.664 204.114 141.968 204.212 142.269C204.269 142.24 204.333 142.222 204.401 142.216C205.158 142.154 205.907 142.274 206.664 142.282L207.078 142.285C207.666 142.29 208.178 142.322 208.748 142.627C209.274 142.908 209.181 143.612 208.748 143.914C207.611 144.703 205.687 144.24 204.502 143.438C204.554 143.845 204.529 144.261 204.356 144.696C203.844 145.99 202.377 146.634 201.066 146.69C199.9 146.739 198.786 146.372 197.855 145.727C197.665 146.407 197.36 147.059 197.228 147.764C197.055 148.689 197.261 149.772 196.939 150.641C196.617 151.517 195.373 152.104 194.653 151.244C193.599 149.988 193.927 147.999 194.853 146.727C195.347 146.053 196.242 145.281 197.154 145.159C196.52 144.562 196.013 143.825 195.693 143.011C195.67 143.021 195.644 143.023 195.615 143.015C192.65 142.203 191.037 139.514 190.938 136.69C190.719 136.847 190.492 136.988 190.255 137.114C189.688 137.419 188.959 137.151 188.784 136.517C188.623 135.926 189.091 135.197 189.749 135.246C190.125 135.277 190.502 135.279 190.876 135.217C190.927 135.209 190.977 135.199 191.029 135.188C191.062 134.972 191.105 134.755 191.159 134.54C190.038 134.668 188.866 134.484 187.783 134.244C186.851 134.04 187.068 132.555 188.006 132.59L188.157 132.596C189.389 132.656 191.207 132.855 192.262 132.073C192.448 131.805 192.654 131.551 192.877 131.311C192.906 131.251 192.931 131.188 192.953 131.121C193.521 129.485 190.833 128.552 189.622 128.374ZM157.176 151.389C155.768 151.012 154.288 151.525 153.32 152.589C152.507 153.483 152.085 154.581 151.709 155.704L151.494 156.35C151.181 157.264 150.822 157.989 149.704 157.641C148.271 157.194 147.029 156.416 145.47 156.477C144.054 156.533 142.668 157.143 141.682 158.165C140.673 159.211 140.191 160.668 140.406 162.104L140.419 162.192C140.531 162.853 141.497 165.214 142.521 164.127C142.978 163.643 142.888 163.106 142.997 162.49C143.1 161.904 143.321 161.328 143.682 160.853C144.323 160.01 145.355 159.681 146.363 159.979C147.693 160.373 148.867 161.184 150.3 161.203C151.807 161.223 153.086 160.441 153.918 159.212C154.589 158.221 154.828 157.06 155.3 155.982L155.346 155.879C155.742 154.992 156.013 154.671 156.921 155.095L157.238 155.248C158.598 155.895 160.127 156.487 161.533 155.575C162.839 154.728 163.396 153.025 162.297 151.786C161.691 151.101 160.288 151.218 159.894 152.096C159.825 152.247 159.761 152.4 159.698 152.553C159.578 152.516 159.461 152.472 159.35 152.409C158.613 152.077 157.973 151.602 157.176 151.389ZM116.096 141.366C114.491 140.5 113.151 142.204 113.408 143.742L113.42 143.809C113.429 143.856 113.451 143.957 113.478 144.073C113.396 144.063 113.315 144.049 113.234 144.028L112.861 143.982C112.275 143.914 111.707 143.879 111.12 144.067C109.735 144.512 109.054 145.86 109.021 147.241C108.988 148.618 109.699 149.728 109.908 151.043C110.122 152.388 108.731 152.004 107.824 151.905L107.788 151.902C106.526 151.774 105.198 151.771 104.149 152.595C103.065 153.446 102.585 154.917 102.738 156.263C102.877 157.479 103.636 159.35 105.013 159.542C105.149 159.561 105.304 159.531 105.373 159.395C105.93 158.311 105.155 157.115 105.243 155.971C105.339 154.714 106.14 154.505 107.244 154.586C108.315 154.665 109.384 154.893 110.442 154.573C111.59 154.225 112.423 153.239 112.658 152.076C112.918 150.794 112.441 149.601 112.131 148.382C112.028 147.978 111.978 147.571 112.049 147.157C112.064 147.067 112.141 146.985 112.17 146.95C112.346 146.916 112.609 147.001 112.76 147.017L112.974 147.038C114.137 147.143 115.257 147.073 116.087 146.111C116.513 145.618 116.67 145.016 116.628 144.38L116.606 144.124C116.584 143.877 116.54 143.551 116.412 143.415L116.41 143.408C116.453 143.351 116.494 143.291 116.532 143.23L116.568 143.167C116.924 142.573 116.717 141.701 116.096 141.366ZM198.332 126.29C196.733 126.29 195.223 126.812 194.014 128.236C194.445 128.647 194.79 129.124 194.98 129.684C195.571 129.359 196.199 129.105 196.84 128.925C198.798 128.378 201.476 128.386 203.122 129.731C203.985 130.433 203.038 131.693 202.109 131.476C201.278 131.282 200.556 130.923 199.683 130.882C198.926 130.844 198.183 130.944 197.457 131.163C196.349 131.497 195.342 132.131 194.602 133.005C194.354 133.298 194.138 133.616 193.956 133.96C192.574 136.587 193.616 140.354 195.524 142.517C194.775 140.026 195.522 137.089 197.013 135.025C198.809 132.541 201.495 132.259 204.325 132.647L204.418 132.66C207.155 133.047 210.545 133.722 212.592 135.736C212.387 135.271 212.152 134.821 211.888 134.385C210.337 131.828 207.764 129.832 205.094 128.409C204.647 128.167 204.195 127.944 203.745 127.738C202.035 126.951 200.129 126.29 198.332 126.29ZM199.206 106.774L199.2 106.803C199.199 106.808 199.198 106.814 199.196 106.819C199.102 107.659 199.325 108.623 199.439 109.471L199.454 109.591C199.693 111.521 200.009 113.452 200.112 115.396C200.213 117.265 200.174 119.204 199.95 121.065L199.916 121.33C199.784 122.344 199.706 123.534 199.363 124.575C200.679 124.701 201.996 125.125 203.192 125.575C203.621 125.738 204.048 125.91 204.473 126.092C203.941 123.26 203.656 120.386 203.079 117.563L202.965 117.001C202.337 113.877 201.748 110.733 200.125 107.939C199.908 107.567 199.675 107.255 199.411 106.923C199.353 106.846 199.285 106.797 199.206 106.774Z" fill="black"/>
<path fill-rule="evenodd" clip-rule="evenodd" d="M128.478 39.0516C140.167 39.0516 152.258 48.1428 156.543 53.9441C160.145 58.8215 162.085 80.8772 162.085 95.7826C162.085 98.9 163.799 104.776 163.299 107.758C161.465 118.685 153.477 127.849 137.667 127.849C121.856 127.849 110.52 121.561 98.7688 104.679C93.0669 104.679 90.3035 100.291 90.2634 93.3676C90.2232 86.444 95.7672 83.925 95.7672 83.925C95.7672 83.925 93.7905 56.6013 98.7688 49.4875C103.747 42.3737 116.788 39.0516 128.478 39.0516Z" fill="#AF6443"/>
<path fill-rule="evenodd" clip-rule="evenodd" d="M123.558 35.1882C130.939 34.4384 138.171 35.0684 145.444 36.372C146 36.473 146.315 36.8388 146.432 37.2786C149.858 37.4356 153.288 37.6878 156.709 37.8757C157.951 37.9439 158.655 39.1748 158.089 40.2863C157.976 40.5071 157.858 40.7219 157.739 40.9368L157.889 40.8871C158.918 40.5559 160.03 40.3925 161.033 40.9184C162.309 41.5876 162.809 43.0643 162.527 44.4235C162.455 44.7705 162.334 45.1031 162.196 45.4276C162.476 45.409 162.758 45.4152 163.038 45.4524C164.528 45.6507 165.636 46.7971 165.714 48.3236C165.83 50.6286 164.349 52.9671 162.606 54.6173C162.859 55.1401 162.956 55.7556 162.85 56.3795C162.64 57.6126 161.735 58.3511 160.685 58.8328C161.123 60.2273 161.33 61.6852 161.208 63.1751C161.167 63.6725 160.734 64.0833 160.276 64.1841C161.982 68.8966 162.845 73.9561 163.466 78.8861C163.909 82.3937 164.127 85.9218 164.154 89.4558C164.167 91.0514 164.14 92.6487 164.074 94.2446L164.047 94.8429C163.964 96.5679 163.96 98.3792 163.651 100.086C164.706 101.885 165.13 104.118 165.309 106.134C165.531 108.629 165.179 111.203 164.394 113.576C161.434 122.545 152.499 128.205 143.525 129.675C135.219 131.037 125.607 129.204 120.752 121.634C120.676 121.514 120.839 121.415 120.934 121.494C124.407 124.327 128.435 125.592 132.812 126.207C140.38 127.269 148.886 125.468 154.959 120.692C157.875 118.399 159.976 115.061 160.901 111.469C161.372 109.633 161.535 107.718 161.35 105.828C161.16 103.911 160.314 102.275 159.781 100.464C159.602 99.852 159.791 99.284 160.164 98.8793C160.269 97.4084 160.516 95.9253 160.611 94.4589C160.716 92.7918 160.78 91.1248 160.802 89.4558C160.845 85.9939 160.701 82.5257 160.411 79.0784C159.88 72.7657 158.47 66.6063 157.642 60.3473C157.336 60.623 156.896 60.7363 156.436 60.4953L156.388 60.4691L156.137 60.3248C156.123 60.3248 156.106 60.3268 156.092 60.3287C154.373 60.4962 152.59 60.2566 150.943 59.7421C149.22 59.2052 147.62 58.379 146.191 57.278C145.92 58.6597 145.806 60.056 145.805 61.4648C145.803 62.3447 144.874 62.8014 144.137 62.4255C140.87 60.7604 137.749 58.8417 134.786 56.6852C134.44 58.4636 134.095 60.2419 133.747 62.0225C133.613 62.7085 132.742 62.9853 132.184 62.6589C129.965 61.3636 128.048 59.6679 126.488 57.6517C126.176 58.2494 125.864 58.8471 125.549 59.4435L125.076 60.3369C124.608 61.2148 123.982 62.1859 122.959 62.4666C121.876 62.764 120.972 62.0599 120.608 61.0764C120.497 60.7709 120.394 60.4568 120.299 60.1407C119.377 62.254 118.335 64.3196 117.158 66.2902C115.391 69.2459 113.271 71.8796 111.157 74.5814C110.514 75.4016 109.415 74.6186 109.327 73.8214C109.275 73.3525 109.232 72.8816 109.195 72.4125C107.963 74.9069 106.677 77.378 105.277 79.7774L105.477 80.5659C106.055 82.8954 106.535 85.2416 107.057 87.5835C107.225 88.3391 106.825 89.4195 105.945 89.5481C104.894 89.7018 103.899 90.2407 102.823 89.87C101.648 89.4655 101.416 88.4474 100.862 87.4823C100.752 87.29 100.623 87.1134 100.485 86.9457L100.449 86.9915C100.363 87.1054 100.157 86.9814 100.209 86.8513L100.269 86.7009C99.7928 86.1938 99.2229 85.7708 98.699 85.3157C97.4539 85.1052 96.0533 85.3357 95.1955 85.8433C93.2418 86.9998 92.3444 89.3835 92.3259 91.5753C92.3032 94.1408 93.0956 97.0244 94.4338 99.2181C95.0228 100.183 95.8298 101.054 96.896 101.482C97.9543 101.907 99.101 101.775 100.178 102.176C100.89 102.442 101.329 103.236 100.898 103.954C100.869 104.004 100.837 104.049 100.805 104.097L101.126 104.523C101.346 104.819 101.576 105.135 101.79 105.464C102.337 106.097 102.914 106.706 103.472 107.328C104.503 108.474 105.504 109.651 106.518 110.814C107.476 111.911 108.489 112.942 109.532 113.956C110.519 114.917 111.75 115.724 112.655 116.749C113.536 117.749 113.775 119.494 112.326 120.072C110.722 120.714 109.303 119.21 108.223 118.208L108.178 118.166C106.199 116.339 104.412 114.251 102.993 111.952C101.587 112.912 99.5542 113.004 98.1544 112.044C97.4178 111.539 96.8527 110.69 96.5781 109.767C96.3191 109.825 96.0603 109.859 95.8079 109.855C95.678 109.931 95.5477 110.004 95.416 110.073C94.372 110.618 93.0896 110.374 92.612 109.215C92.1771 108.163 92.6253 106.968 93.017 105.955L93.0979 105.745C93.3202 105.167 93.5652 104.537 93.8699 103.944C93.0217 103.304 92.2968 102.508 91.6836 101.604C89.6228 98.5571 88.5934 94.1014 89.0484 90.4661C89.3222 88.2724 90.3493 86.0003 92.0313 84.5211L91.9697 84.36C91.4983 83.16 91.0699 81.9556 90.7921 80.6875C90.4669 79.2044 90.3081 77.6676 90.1642 76.1576C89.8595 72.9683 89.9419 69.7067 90.3475 66.5298C91.1092 60.5499 93.0402 54.6795 96.468 49.7034C95.496 48.5361 94.7263 47.1625 95.1275 45.5825C95.311 44.8573 95.7287 44.1696 96.3588 43.7543C96.7066 43.5252 97.1206 43.4901 97.4685 43.3L97.5731 43.2422C97.7259 43.1528 97.609 43.1622 97.5179 42.7464C97.1576 41.0855 97.4561 39.4807 99.2781 38.9292C100.993 38.4107 102.615 39.5117 103.63 40.8234C106.286 38.9331 109.786 37.9439 112.863 37.1032C116.363 36.1508 119.953 35.5561 123.558 35.1882ZM94.8726 90.8977C94.86 89.5447 96.1384 88.7102 97.3965 88.9314C98.2413 89.0789 98.946 89.5848 99.6077 90.1076L99.9303 90.3637C100.736 90.9985 101.661 91.6827 102.142 92.5813C102.846 93.9075 101.357 95.6919 99.9678 94.7624C99.0146 94.1215 98.4036 93.0945 97.7783 92.1404L97.7136 92.042C97.4295 91.6144 97.1804 91.16 96.7911 90.8171L96.707 90.7432C96.579 90.6338 96.4416 90.5339 96.2764 90.4866C95.9576 90.3947 95.3672 90.5234 95.2266 90.9042L95.2141 90.9431C95.1626 91.1354 94.8746 91.0939 94.8726 90.8977Z" fill="black"/>
<path fill-rule="evenodd" clip-rule="evenodd" d="M141.693 111.692C140.306 111.126 139.068 110.181 138.164 108.974C137.849 108.554 137.768 108.111 137.834 107.706C137.908 107.25 138.177 106.837 138.544 106.56C138.913 106.282 139.374 106.145 139.819 106.215C140.206 106.276 140.591 106.488 140.896 106.928L140.96 107.016C141.498 107.744 142.199 108.342 142.997 108.728C143.767 109.099 144.628 109.272 145.519 109.171C147.215 108.979 148.385 108.061 149.628 106.813C149.782 106.656 149.936 106.493 150.091 106.328C150.189 106.179 150.324 106.082 150.475 106.032C150.642 105.976 150.832 105.979 151.005 106.04C151.172 106.098 151.322 106.209 151.422 106.356C151.518 106.496 151.572 106.669 151.554 106.868C151.44 108.161 150.765 109.315 149.806 110.221C148.741 111.227 147.329 111.924 146 112.168C144.536 112.437 143.044 112.244 141.693 111.692ZM146.691 91.7468C148.249 92.6949 150.623 94.9058 148.947 97.2563C146.974 99.3288 144.134 96.9525 142.734 95.8778C141.436 95.0449 139.978 97.1871 141.182 98.1596C151.296 105.657 155.4 91.9947 147.479 90.632C146.607 90.4819 146.283 91.4535 146.691 91.7468ZM128.567 83.0257C128.739 80.8865 131.993 80.4007 132.317 82.5175C132.607 84.4137 132.265 86.1557 131.412 87.8629C130.597 89.4939 128.548 88.733 128.394 87.2478C128.186 85.257 128.46 84.3564 128.567 83.0257ZM153.337 82.0786C153.79 81.4837 154.445 81.0776 155.23 81.3071C157.682 82.0245 156.959 85.5098 156.098 87.2063C155.63 88.1275 154.118 88.3611 153.434 87.55C152.32 86.2272 151.787 83.5855 153.203 82.2825C153.242 82.2151 153.284 82.1472 153.337 82.0786ZM131.378 73.6652L131.765 73.5973C132.963 73.3898 134.453 73.1904 135.301 74.1549C135.75 74.6664 135.905 75.617 135.301 76.1065C134.238 76.9679 133.063 76.6341 131.789 76.707C130.739 76.7673 129.73 76.9412 128.719 77.2306C126.501 77.8654 124.694 79.0242 122.799 80.2966C122.551 80.4635 122.297 80.1452 122.415 79.9124C123.509 77.7677 125.628 76.0059 127.751 74.932C128.884 74.3588 130.124 73.8833 131.378 73.6652ZM151.102 72.7044L151.398 72.7652C154.624 73.4403 158.815 74.789 160.343 77.9617C160.401 78.4103 160.34 78.5065 160.29 78.5693L160.273 78.5902C160.232 78.6438 160.199 78.7178 160.005 78.7789C159.951 78.766 159.896 78.7524 159.841 78.7379C159.141 78.5542 158.587 78.3011 158.051 78.0384L157.469 77.7515C156.794 77.4203 156.114 77.1011 155.392 76.8655C153.853 76.3627 152.269 76.0086 150.661 75.8194C150.313 75.7785 149.977 75.6607 149.713 75.4589C149.461 75.2673 149.269 75.002 149.182 74.6494C149.068 74.1931 149.101 73.8477 149.345 73.436C149.529 73.1269 149.792 72.9126 150.094 72.7895C150.402 72.6641 150.753 72.6345 151.102 72.7044Z" fill="black"/>
<path fill-rule="evenodd" clip-rule="evenodd" d="M128.312 112.987C129.982 109.069 133.627 106.189 137.825 105.137C140.907 104.365 144.142 104.39 147.284 104.696C148.93 104.855 150.695 104.986 152.247 105.598C153.572 106.121 154.651 107.109 155.463 108.27C156.429 109.644 157.087 111.218 157.548 112.831C157.614 113.06 157.675 113.291 157.733 113.523C157.532 114.74 157.106 115.776 155.98 116.541C154.882 117.288 153.571 117.594 152.264 117.702C152.136 117.641 152.012 117.578 151.899 117.513C149.862 116.346 148.429 113.588 145.859 113.961C143.566 114.294 142.056 117.183 140.692 118.878C136.314 119.389 131.939 118.071 128.377 115.565C128.196 114.707 128.185 113.842 128.312 112.987ZM160.708 110.015C160.358 109.03 159.917 108.077 159.394 107.18C157.665 104.21 155.012 101.845 151.862 100.492C144.409 97.2975 134.767 99.5495 128.749 104.789C126.693 106.58 124.615 109.212 123.986 112.044C123.798 112.081 123.621 112.179 123.475 112.316C119.127 109.576 114.649 106.938 111.146 103.139C108.601 100.379 106.831 97.1116 105.748 93.5217C105.659 93.2262 105.183 93.2694 105.198 93.5963C105.202 93.6728 105.206 93.7491 105.21 93.8256C105.165 93.685 104.95 93.7574 104.934 93.8939C104.351 98.2549 103.621 102.879 104.293 107.262C104.695 109.878 105.882 111.793 107.468 113.861C109.168 116.077 111.092 118.139 113.06 120.116C114.308 121.371 115.612 122.818 117.141 123.739C118.919 124.808 120.936 125.621 122.834 126.445C124.764 127.287 126.724 128.065 128.72 128.739C132.711 130.091 136.836 131.026 141.033 131.435C144.393 131.762 148.233 132.118 151.454 130.852C153.922 129.882 155.914 128.129 157.494 126.019C159.215 123.722 160.575 121.105 161.327 118.346C162.108 115.479 160.873 110.477 160.708 110.015Z" fill="black"/>
</g>
<defs>
<linearGradient id="paint0_linear_803_570" x1="127.5" y1="255" x2="-70.5391" y2="64.0217" gradientUnits="userSpaceOnUse">
<stop stop-color="#5800FF"/>
<stop offset="1" stop-color="#DD4CEB"/>
</linearGradient>
<clipPath id="clip0_803_570">
<rect width="255" height="255" fill="white"/>
</clipPath>
</defs>
</svg>
