<svg width="41" height="55" viewBox="0 0 41 55" fill="none" xmlns="http://www.w3.org/2000/svg">
<path d="M0.859375 3.08765H11.5465C12.0211 3.08765 12.4058 3.47242 12.4058 3.94702V6.92307H28.5137V3.94702C28.5137 3.47242 28.8985 3.08765 29.3731 3.08765H40.0602C40.5348 3.08765 40.9196 3.47242 40.9196 3.94702V54.1406C40.9196 54.6152 40.5348 55 40.0602 55H0.859375C0.384774 55 0 54.6152 0 54.1406V3.94702C0 3.47242 0.384774 3.08765 0.859375 3.08765ZM10.6871 4.8064H1.71875V53.2813H39.2008V4.8064H30.2325V7.78244C30.2325 8.25704 29.8477 8.64182 29.3731 8.64182H11.5465C11.0719 8.64182 10.6871 8.25704 10.6871 7.78244V4.8064Z" fill="url(#paint0_linear_662_1325)"/>
<path d="M6.40893 16.174C6.17163 15.7643 5.64708 15.6245 5.23736 15.8618C4.82763 16.0991 4.68786 16.6236 4.92516 17.0334L6.97458 20.5831C7.21188 20.9941 7.73571 21.136 8.14675 20.8987C8.21974 20.8565 8.2842 20.8052 8.33956 20.7471L15.1079 13.9788C15.4434 13.6432 15.4434 13.0991 15.1079 12.7636C14.7724 12.428 14.2282 12.428 13.8927 12.7636L7.89989 18.7563L6.40893 16.174Z" fill="url(#paint1_linear_662_1325)"/>
<path d="M6.40893 30.0736C6.17163 29.6639 5.64708 29.5241 5.23736 29.7614C4.82763 29.9987 4.68786 30.5232 4.92516 30.933L6.97458 34.4827C7.21188 34.8937 7.73571 35.0356 8.14675 34.7983C8.21974 34.7561 8.2842 34.7048 8.33956 34.6467L15.1079 27.8784C15.4434 27.5428 15.4434 26.9987 15.1079 26.6632C14.7724 26.3276 14.2282 26.3276 13.8927 26.6632L7.89989 32.6559L6.40893 30.0736Z" fill="url(#paint2_linear_662_1325)"/>
<path d="M6.46387 41.6276H13.7033C14.1779 41.6276 14.5627 42.0123 14.5627 42.4869V49.7264C14.5627 50.201 14.1779 50.5858 13.7033 50.5858H6.46387C5.98927 50.5858 5.60449 50.201 5.60449 49.7264V42.4869C5.60449 42.0123 5.98927 41.6276 6.46387 41.6276ZM12.844 43.3463H7.32324V48.867H12.844V43.3463Z" fill="url(#paint3_linear_662_1325)"/>
<path d="M21.98 15.9033C21.5054 15.9033 21.1206 16.288 21.1206 16.7626C21.1206 17.2372 21.5054 17.622 21.98 17.622H35.2524C35.727 17.622 36.1118 17.2372 36.1118 16.7626C36.1118 16.288 35.727 15.9033 35.2524 15.9033H21.98Z" fill="url(#paint4_linear_662_1325)"/>
<path d="M21.98 29.803C21.5054 29.803 21.1206 30.1878 21.1206 30.6624C21.1206 31.137 21.5054 31.5217 21.98 31.5217H35.2524C35.727 31.5217 36.1118 31.137 36.1118 30.6624C36.1118 30.1878 35.727 29.803 35.2524 29.803H21.98Z" fill="url(#paint5_linear_662_1325)"/>
<path d="M21.98 45.2473C21.5054 45.2473 21.1206 45.632 21.1206 46.1066C21.1206 46.5812 21.5054 46.966 21.98 46.966H35.2524C35.727 46.966 36.1118 46.5812 36.1118 46.1066C36.1118 45.632 35.727 45.2473 35.2524 45.2473H21.98Z" fill="url(#paint6_linear_662_1325)"/>
<path d="M11.5459 0H29.3726C29.8472 0 30.2319 0.384773 30.2319 0.859375V7.78241C30.2319 8.25702 29.8472 8.64179 29.3726 8.64179H11.5459C11.0713 8.64179 10.6865 8.25702 10.6865 7.78241V0.859375C10.6865 0.384773 11.0713 0 11.5459 0ZM28.5132 1.71875H12.4053V6.92304H28.5132V1.71875Z" fill="url(#paint7_linear_662_1325)"/>
<defs>
<linearGradient id="paint0_linear_662_1325" x1="24.8522" y1="36.9694" x2="40.0838" y2="36.9585" gradientUnits="userSpaceOnUse">
<stop stop-color="#FFC600"/>
<stop offset="1" stop-color="#FF0000"/>
</linearGradient>
<linearGradient id="paint1_linear_662_1325" x1="11.217" y1="18.0609" x2="15.1441" y2="18.0565" gradientUnits="userSpaceOnUse">
<stop stop-color="#FFC600"/>
<stop offset="1" stop-color="#FF0000"/>
</linearGradient>
<linearGradient id="paint2_linear_662_1325" x1="11.217" y1="31.9605" x2="15.1441" y2="31.9561" gradientUnits="userSpaceOnUse">
<stop stop-color="#FFC600"/>
<stop offset="1" stop-color="#FF0000"/>
</linearGradient>
<linearGradient id="paint3_linear_662_1325" x1="11.0452" y1="47.4743" x2="14.3797" y2="47.4713" gradientUnits="userSpaceOnUse">
<stop stop-color="#FFC600"/>
<stop offset="1" stop-color="#FF0000"/>
</linearGradient>
<linearGradient id="paint4_linear_662_1325" x1="30.2254" y1="17.025" x2="35.8052" y2="16.9807" gradientUnits="userSpaceOnUse">
<stop stop-color="#FFC600"/>
<stop offset="1" stop-color="#FF0000"/>
</linearGradient>
<linearGradient id="paint5_linear_662_1325" x1="30.2254" y1="30.9248" x2="35.8052" y2="30.8804" gradientUnits="userSpaceOnUse">
<stop stop-color="#FFC600"/>
<stop offset="1" stop-color="#FF0000"/>
</linearGradient>
<linearGradient id="paint6_linear_662_1325" x1="30.2254" y1="46.369" x2="35.8052" y2="46.3246" gradientUnits="userSpaceOnUse">
<stop stop-color="#FFC600"/>
<stop offset="1" stop-color="#FF0000"/>
</linearGradient>
<linearGradient id="paint7_linear_662_1325" x1="22.5573" y1="5.64026" x2="29.8327" y2="5.62525" gradientUnits="userSpaceOnUse">
<stop stop-color="#FFC600"/>
<stop offset="1" stop-color="#FF0000"/>
</linearGradient>
</defs>
</svg>
