<svg width="581" height="619" viewBox="0 0 581 619" fill="none" xmlns="http://www.w3.org/2000/svg">
<path d="M17.2274 -3.05176e-05H558.727C568.242 -3.05176e-05 575.955 7.71973 575.955 17.2431V368.524C575.955 378.048 568.242 385.767 558.727 385.767H17.2274C7.71274 385.767 0 378.048 0 368.524V17.2431C0 7.71973 7.71274 -3.05176e-05 17.2274 -3.05176e-05Z" fill="#333333"/>
<path d="M42.3239 33.5594C45.6281 33.5594 48.307 36.2425 48.307 39.5497C48.307 42.8569 45.6281 45.5365 42.3239 45.5365C39.0197 45.5365 36.3408 42.8569 36.3408 39.5497C36.3408 36.2425 39.0197 33.5594 42.3239 33.5594Z" fill="#FB155B"/>
<path d="M61.4636 33.5595C64.7678 33.5595 67.4467 36.2426 67.4467 39.5498C67.4467 42.857 64.7678 45.5366 61.4636 45.5366C58.1593 45.5366 55.4805 42.857 55.4805 39.5498C55.4805 36.2426 58.1593 33.5595 61.4636 33.5595Z" fill="#FB9F15"/>
<path d="M80.6081 33.5595C83.9123 33.5595 86.5912 36.2426 86.5912 39.5498C86.5912 42.857 83.9123 45.5366 80.6081 45.5366C77.3039 45.5366 74.625 42.857 74.625 39.5498C74.625 36.2426 77.3039 33.5595 80.6081 33.5595Z" fill="#15FBA9"/>
<path d="M22.2696 467.193H165.365C174.88 467.193 182.593 474.913 182.593 484.436V601.656C182.593 611.18 174.88 618.9 165.365 618.9H22.2696C12.7548 618.9 5.04199 611.18 5.04199 601.656V484.436C5.04199 474.913 12.7548 467.193 22.2696 467.193Z" fill="#333333"/>
<path d="M94.5498 558.89L94.5739 558.89M107.149 518.425L81.8629 518.474C79.0705 518.48 76.8149 520.742 76.818 523.535L76.8618 563.991C76.8648 566.783 79.1253 569.037 81.9176 569.031L107.204 568.982C109.996 568.976 112.252 566.714 112.249 563.921L112.205 523.465C112.202 520.673 109.941 518.419 107.149 518.425Z" stroke="white" stroke-width="2"/>
<path d="M94.5557 558.895L94.5789 558.895" stroke="white" stroke-width="2" stroke-linecap="round" stroke-linejoin="round"/>
<path d="M221.47 467.194H364.565C374.079 467.194 381.793 474.913 381.793 484.437V601.657C381.793 611.18 374.079 618.9 364.565 618.9H221.47C211.955 618.9 204.242 611.18 204.242 601.657V484.437C204.242 474.913 211.955 467.194 221.47 467.194Z" fill="#333333"/>
<path d="M283.644 566.52H303.852M293.929 557.622V566.227M313.964 521.015H273.531C270.74 521.015 268.483 523.274 268.483 526.067V551.363C268.483 554.157 270.74 556.415 273.531 556.415H313.964C316.738 556.415 319.012 554.157 319.012 551.363V526.067C319.012 523.274 316.738 521.015 313.964 521.015Z" stroke="white" stroke-width="2"/>
<path d="M420.676 467.193H563.772C573.285 467.193 580.999 474.913 580.999 484.437V601.656C580.999 611.18 573.285 618.9 563.772 618.9H420.676C411.163 618.9 403.448 611.18 403.448 601.656V484.437C403.448 474.913 411.163 467.193 420.676 467.193Z" stroke="url(#paint0_linear_229_1304)" stroke-width="0.00268024"/>
<path d="M420.676 467.193H563.772C573.285 467.193 580.999 474.913 580.999 484.437V601.656C580.999 611.18 573.285 618.9 563.772 618.9H420.676C411.163 618.9 403.448 611.18 403.448 601.656V484.437C403.448 474.913 411.163 467.193 420.676 467.193Z" fill="#333333"/>
<path d="M467.69 543.771H518.212M492.946 569.06C506.9 569.06 518.219 557.732 518.219 543.765C518.219 529.797 506.9 518.486 492.946 518.486C479.009 518.486 467.69 529.797 467.69 543.765C467.69 557.732 479.009 569.06 492.946 569.06ZM493.141 518.374C493.984 522.043 493.771 570.214 492.98 569.135C465.345 570.106 455.868 521.827 493.141 518.374Z" stroke="white" stroke-width="2"/>
<path d="M283.507 385.286C284.203 388.622 287.691 390.438 291.38 389.385C295.07 388.332 297.45 384.842 296.754 381.505C296.061 378.184 292.57 376.352 288.881 377.405C285.191 378.458 282.814 381.965 283.507 385.286Z" fill="white"/>
<path d="M289.735 466.764C288.598 466.764 287.547 466.764 287.547 466.764V391.669C288.357 391.911 289.235 392.049 290.131 392.049C291.027 392.049 291.905 391.911 292.715 391.669V466.764C292.715 466.764 291.147 466.764 289.735 466.764Z" fill="#E900FF"/>
<path d="M494.811 449.762V467.194H489.643V449.762C489.643 441.675 483.079 435.106 474.999 435.106H324.585C304.136 435.106 287.546 418.5 287.546 398.033V392.103C288.356 392.344 289.234 392.48 290.13 392.48C291.026 392.48 291.906 392.344 292.714 392.103V398.033C292.714 415.655 306.98 429.933 324.585 429.933H474.999C485.94 429.933 494.811 438.811 494.811 449.762Z" fill="#FFC600"/>
<path d="M290.13 374.308C285.1 374.308 281.051 378.36 281.051 383.395C281.051 387.533 283.773 390.999 287.546 392.103C288.356 392.344 289.235 392.482 290.13 392.482C291.026 392.482 291.905 392.344 292.715 392.103C296.487 390.999 299.209 387.533 299.209 383.395C299.209 378.36 295.161 374.308 290.13 374.308ZM290.13 387.309C287.96 387.309 286.22 385.585 286.22 383.395C286.22 381.205 287.96 379.481 290.13 379.481C292.318 379.481 294.041 381.205 294.041 383.395C294.041 385.585 292.318 387.309 290.13 387.309ZM91.9443 465.732C91.9443 466.645 91.9443 467.197 91.9443 467.197H97.1126V449.764C97.1126 441.677 103.676 435.107 111.756 435.107H255.675C276.142 435.107 292.715 418.502 292.715 398.034V392.103C291.905 392.344 291.026 392.482 290.13 392.482C289.235 392.482 288.356 392.344 287.546 392.103V398.034C287.546 415.657 273.282 429.934 255.675 429.934H111.756C100.817 429.934 91.9443 438.815 91.9443 449.764C91.9443 449.764 91.9443 461.541 91.9443 465.732Z" fill="#5800FF"/>
<path d="M290.131 374.308C285.101 374.308 281.052 378.362 281.052 383.395C281.052 387.535 283.774 391.001 287.547 392.103C288.357 392.346 289.235 392.482 290.131 392.482C291.027 392.482 291.906 392.346 292.715 392.103C296.486 391.001 299.21 387.535 299.21 383.395C299.21 378.362 295.162 374.308 290.131 374.308ZM290.131 387.309C287.961 387.309 286.221 385.585 286.221 383.395C286.221 381.205 287.961 379.481 290.131 379.481C292.319 379.481 294.042 381.205 294.042 383.395C294.042 385.585 292.319 387.309 290.131 387.309Z" fill="#5800FF"/>
<path d="M134.698 87.7235H48.6685M199.41 87.9391H158.71M243.125 87.508H222.236M57.6096 123.934H48.6685M166.04 124.159L84.8464 123.934M254.331 123.728H193.604M105.382 162.732C79.4886 162.732 48.6685 162.732 48.6685 162.732" stroke="#454545" stroke-width="11" stroke-linecap="round"/>
<path d="M221.956 162.987H135.927M286.668 163.202H245.968M330.383 162.771H309.495M144.868 199.198H135.927M253.298 199.422L172.105 199.198M341.59 198.991H280.862M192.64 237.995C166.747 237.995 135.927 237.995 135.927 237.995" stroke="#454545" stroke-width="11" stroke-linecap="round"/>
<path d="M525.359 162.771H354.493M378.385 198.982H369.444M486.815 199.206L405.622 198.982" stroke="#454545" stroke-width="11" stroke-linecap="round"/>
<defs>
<linearGradient id="paint0_linear_229_1304" x1="416.396" y1="602.282" x2="551.784" y2="491.336" gradientUnits="userSpaceOnUse">
<stop stop-color="#5800FF"/>
<stop offset="0.5" stop-color="#A374CA"/>
<stop offset="1" stop-color="#E900FF"/>
</linearGradient>
</defs>
</svg>
