<svg width="463" height="405" viewBox="0 0 463 405" fill="none" xmlns="http://www.w3.org/2000/svg">
<g clip-path="url(#clip0_337_1237)">
<path d="M48.5567 382.763C48.5567 394.779 38.8152 404.52 26.7989 404.52C14.7826 404.52 5.04102 394.779 5.04102 382.763C5.04102 370.746 14.7826 361.005 26.7989 361.005C38.8152 361.005 48.5567 370.746 48.5567 382.763Z" fill="#5800FF"/>
<path d="M15.7804 186.951C23.7557 281.786 84.2824 352.772 170.889 350.91C240.234 349.419 314.029 332.169 373.279 286.423C426.97 244.969 476.57 164.578 454.62 89.4619C443.094 50.0168 411.577 2.10455 369.583 8.33383C325.67 14.8481 296.82 61.6971 253.195 68.0779C198.563 76.0684 1.41216 16.1048 15.7804 186.951Z" fill="#333333"/>
<path d="M98.208 201.702C98.208 154.057 98.208 72.7351 98.208 72.7351C98.208 60.6241 108.026 50.8062 120.137 50.8062H345.567C357.678 50.8062 367.496 60.6241 367.496 72.7351V235.399C367.496 247.51 357.678 257.328 345.567 257.328H120.137C114.043 257.328 108.53 254.842 104.556 250.829C100.631 246.867 98.208 241.416 98.208 235.399C98.208 235.399 98.208 221.44 98.208 201.702Z" stroke="white" stroke-width="6" stroke-miterlimit="10"/>
<path d="M436.229 156.36H311.197C308.17 156.36 305.715 153.905 305.715 150.878V132.437C305.715 129.41 308.17 126.955 311.197 126.955H436.229C439.257 126.955 441.711 129.41 441.711 132.437V150.878C441.711 153.905 439.257 156.36 436.229 156.36Z" stroke="#9E01FF" stroke-width="6" stroke-miterlimit="10"/>
<g clip-path="url(#clip1_337_1237)">
<path d="M424.924 116.072H261.299C258.271 116.072 255.816 113.617 255.816 110.589V92.1489C255.816 89.1212 258.271 86.6665 261.299 86.6665H424.924C427.952 86.6665 430.407 89.1212 430.407 92.1489V110.589C430.407 113.617 427.952 116.072 424.924 116.072Z" fill="#E900FF"/>
<path d="M278.524 8.74515C279.077 -10.4089 317.013 28.9677 287.074 115.057C280.557 133.795 292.498 163.447 294.791 175.987C297.015 188.151 294.826 216.513 291.233 228.345C288.287 238.043 280.38 250.773 276.436 260.109C271.54 271.697 273.095 284.831 273.811 297.39C275.482 326.692 272.053 356.279 263.724 384.423" stroke="#EF4AFF" stroke-width="3" stroke-miterlimit="10"/>
<path d="M255.531 12.2317C253.235 25.9379 240.216 61.9945 241.321 75.8476C241.705 80.658 242.318 85.539 244.295 89.9406C246.272 94.3423 253.764 115.848 258.155 117.827C267.171 122.06 277.267 100.787 278.56 92.5727C279.824 84.6046 269.035 75.5729 260.407 80.3449C252.908 84.2103 251.915 89.2966 249.585 94.9147C246.374 102.656 255.617 130.293 259.604 137.665C263.623 145.099 273.658 148.031 276.908 155.831C279.927 163.078 275.734 171.339 270.491 177.181C265.247 183.023 258.69 188.028 255.594 195.241C251.654 204.421 254.234 215.044 257.883 224.343C261.532 233.643 266.277 242.851 266.618 252.835C267.206 270.085 254.686 285.014 251.464 301.97C247.072 325.084 260.233 350.106 251.264 371.857" stroke="#EF4AFF" stroke-width="3" stroke-miterlimit="10"/>
<path d="M295.152 378.921C291.153 363.77 304.971 351.715 304.83 336.898C306.215 318.852 287.035 293.878 294.656 278.319C296.497 275.419 300.831 271.369 304.506 273.628C312.626 278.912 304.181 288.794 296.737 284.357C278.41 268.864 307.075 248.637 309.331 231.985C310.673 223.93 308.183 218.957 305.419 212.907C303.09 207.81 303.416 201.871 306.372 197.111C309.006 192.87 312.377 188.649 313.571 185.662C317.275 176.391 304.336 162.474 303.277 151.495C302.509 143.538 315.901 119.128 317.994 111.466C323.346 90.9424 339.05 23.9791 324.578 -12.4074C317.693 -21.1554 307.875 30.3549 300.502 21.3584C299.485 19.8339 299.485 17.8006 299.485 15.7672C301.01 4.58389 302.027 -6.59944 303.842 -17.7502" stroke="#EF4AFF" stroke-width="3" stroke-miterlimit="10"/>
<path d="M353.837 11.6519C363.799 17.8713 352.198 77.5387 348.307 88.6193C344.415 99.7 337.895 110.573 339.109 122.254C340.597 136.571 365.003 144.238 363.786 158.581C362.314 175.916 341.015 186.585 339.755 203.937C339.335 209.725 341.55 215.829 346.131 219.391C351.943 223.911 361.953 222.695 365.064 216.023C368.174 209.35 360.24 200.235 353.7 203.616C348.573 206.267 347.984 213.531 349.785 219.015C351.585 224.499 355.049 229.488 355.706 235.222C356.956 246.141 347.999 255.203 343.372 265.171C334.814 283.61 341.296 305.084 346.295 324.788C351.294 344.491 353.772 367.998 339.783 382.747" stroke="#EF4AFF" stroke-width="3" stroke-miterlimit="10"/>
<path d="M428.218 11.6519C427.695 31.0412 427.349 90.1427 416.772 118.796C414.21 125.736 409.173 133.824 402.805 131.844C398.393 130.473 392.336 118.368 393.862 113.449C395.388 108.53 399.785 105.299 404.302 104.486C413.931 102.754 423.42 107.518 426.129 113.908C428.837 120.297 428.297 127.6 426.825 134.382C425.354 141.164 423.001 147.771 422.19 154.663C420.942 165.275 423.535 176.297 429.384 185.24" stroke="#EF4AFF" stroke-width="3" stroke-miterlimit="10"/>
<path d="M388.772 16.512C395.279 23.9418 394.387 75.9712 391.295 85.3515C388.204 94.7318 383.271 103.743 382.814 113.61C381.917 132.982 398.325 149.631 398.822 169.018C398.868 170.839 398.945 172.957 399.037 175.137C399.367 183.014 401.055 190.747 403.694 198.176C407.056 207.64 406.267 218.424 400.798 226.99C397.281 232.497 392.081 237.165 390.46 243.495C388.941 249.424 391.472 256.478 396.981 259.145C402.49 261.811 410.316 258.605 411.462 252.593C411.887 250.361 411.366 247.775 408.806 246.786C407.132 246.14 405.232 246.52 403.819 247.626C401.074 249.773 400.63 253.506 401.157 256.802C401.621 259.705 402.728 262.474 403.219 265.373C405.773 280.449 391.745 293.191 388.799 308.196C386.72 318.783 390.325 329.534 392.879 340.017C395.433 350.501 396.734 362.376 390.784 371.377" stroke="#EF4AFF" stroke-width="3" stroke-miterlimit="10"/>
<path d="M374.743 11.1316C366.657 127.482 361.906 104.657 367.181 130.823C368.078 140.635 379.873 142.589 378.733 134.097C374.685 128.493 368.393 135.445 371.198 140.691C377.254 150.828 387.488 155.242 379.112 168.98C359.421 201.273 383.49 175.341 389.17 193.998C390.536 198.485 389.509 203.359 387.862 207.75C384.324 217.181 378.086 225.311 373.114 234.072C368.143 242.833 364.341 252.987 366.385 262.851C368.312 272.143 375.124 279.751 377.662 288.896C380.946 300.724 376.696 313.155 373.178 324.915C369.66 336.675 366.992 349.996 372.956 360.726" stroke="#EF4AFF" stroke-width="3" stroke-miterlimit="10"/>
</g>
<mask id="mask0_337_1237" style="mask-type:luminance" maskUnits="userSpaceOnUse" x="112" y="61" width="134" height="204">
<path d="M168.728 224.925L245.927 264.928L239.85 228.511L142.126 61.2507L112.323 87.902L168.728 224.925Z" fill="white"/>
</mask>
<g mask="url(#mask0_337_1237)">
<path d="M241.05 246.419L178.255 210.443C171.238 206.423 166.713 197.291 168.428 190.612L174.69 166.233C176.185 160.417 172.94 152.56 167.141 147.952L152.584 136.386C147.415 132.279 144.196 125.505 144.731 119.862C144.731 119.862 147.798 87.5154 148.354 81.6499" stroke="white" stroke-width="6.471" stroke-linecap="round" stroke-linejoin="round"/>
</g>
<path d="M333.499 214.062C333.499 226.819 323.158 237.16 310.401 237.16C297.644 237.16 287.303 226.819 287.303 214.062C287.303 201.305 297.644 190.964 310.401 190.964C323.158 190.964 333.499 201.305 333.499 214.062Z" fill="#FFC600"/>
<path d="M325.577 191.297C325.577 196.949 320.995 201.53 315.344 201.53C309.692 201.53 305.11 196.949 305.11 191.297C305.11 185.645 309.692 181.064 315.344 181.064C320.995 181.064 325.577 185.645 325.577 191.297Z" fill="white"/>
<g clip-path="url(#clip2_337_1237)">
<path d="M161.996 312.465H33.0519C26.3907 312.465 20.9912 307.065 20.9912 300.404V207.137C20.9912 200.476 26.3907 195.076 33.0519 195.076H161.996C168.657 195.076 174.056 200.476 174.056 207.137V300.404C174.056 307.065 168.657 312.465 161.996 312.465Z" fill="#E900FF"/>
<path d="M29.5794 139.901C34.8254 153.296 40.1644 193.08 37.1378 207.144C34.4731 219.526 25.4527 230.831 27.085 243.391C27.9248 249.852 31.5466 255.629 32.9756 261.987C35.5147 273.283 37.5434 283.469 33.3202 294.249C29.097 305.029 25.1106 316.961 28.7747 327.944C31.7301 336.803 32.6716 344.947 35.3785 353.885C37.9323 362.317 35.8105 371.443 32.788 379.719C29.7654 387.995 25.8187 396.059 24.6084 404.787" stroke="#EF4AFF" stroke-width="3" stroke-miterlimit="10"/>
<path d="M53.1199 114.417C59.2484 121.478 62.5424 130.585 63.0848 139.865C63.6678 149.842 60.5487 159.047 56.817 168.131C53.8687 175.308 51.2706 191.977 59.6779 196.993C60.9289 197.739 62.3848 198.072 63.8325 198.233C65.5344 198.421 67.3156 198.372 68.8762 197.667C70.4368 196.962 71.7341 195.493 71.8535 193.785C71.973 192.076 70.6335 190.286 68.9214 190.248C67.371 190.213 66.1129 191.465 65.1979 192.717C60.3616 199.331 58.8697 210.053 64.5147 216.53C71.6314 224.696 80.4901 233.028 82.5153 244.165C87.3297 270.641 48.0086 270.964 47.2232 258.409C46.8755 252.852 54.2733 250.249 57.5155 254.776C61.4876 260.322 60.4236 272.135 54.0481 275.681C47.4403 280.765 40.832 285.34 39.307 293.473C38.8998 297.546 40.7766 301.945 44.1529 304.056C44.9906 304.58 45.9214 304.963 46.932 305.165C52.0153 306.182 55.1949 301.271 58.6236 298.557C62.8606 295.203 67.798 300.599 66.2486 304.657C64.8029 308.442 63.3801 312.236 61.9303 316.019C60.72 319.178 60.0581 322.467 58.5809 325.535C55.5391 331.855 50.7745 337.189 47.9756 343.642C42.7372 355.719 47.3996 369.439 48.2496 382.029C48.8047 390.253 50.0206 404.887 41.1121 409.5" stroke="#EF4AFF" stroke-width="3" stroke-miterlimit="10"/>
<path d="M86.6097 144.037C92.4571 158.072 109.974 240.196 87.3056 280.311C84.2958 285.636 80.7837 291.058 80.4757 297.167C79.9978 306.643 83.3849 311.657 84.3141 315.527C89.6608 337.789 77.9884 395.581 70.9297 417.361" stroke="#EF4AFF" stroke-width="3" stroke-miterlimit="10"/>
<path d="M105.621 140.174C111.873 153.638 114.084 194.364 111.897 209.047C110.842 216.128 108.794 223.053 108.105 230.179C107.416 237.306 108.242 244.924 112.402 250.751C114.328 253.449 117.212 255.784 120.528 255.827C123.843 255.87 127.186 252.702 126.339 249.496C125.743 247.242 123.331 245.803 121 245.764C118.669 245.725 116.455 246.826 114.588 248.224C105.882 254.741 106.135 266.49 106.918 277.338C107.7 288.185 98.2737 292.291 97.0573 303.099C95.85 313.825 104.934 335.084 101.75 345.398C96.649 361.916 94.6962 396.601 100.365 412.933" stroke="#EF4AFF" stroke-width="3" stroke-miterlimit="10"/>
<path d="M118.096 141.495C138.851 149.648 139.744 256.964 124.081 273.802C112.994 285.72 134.278 291.31 134.353 300.423C134.38 303.633 133.277 306.503 131.689 309.241C124.274 322.021 122.704 338.501 126.188 352.86C131.839 376.152 132.679 395.059 110.555 412.933" stroke="#EF4AFF" stroke-width="3" stroke-miterlimit="10"/>
<path d="M156.343 140.174C153.367 157.462 138.954 263.833 135.803 281.072C135.398 283.289 135.143 285.603 135.611 287.805C136.08 290.006 137.4 292.087 139.303 292.779C140.907 293.362 149.477 296.998 150.54 298.264C157.682 307.025 152.692 315.823 150.11 319.785C142.23 331.778 134.595 331.527 134.321 342.727C134.226 346.576 139.71 354.277 142.654 356.678C145.563 359.02 150.709 362.703 149.67 370.85C149.125 376.472 136.735 378.831 136.737 384.924C136.739 392.236 145.234 395.203 145.369 402.524" stroke="#EF4AFF" stroke-width="3" stroke-miterlimit="10"/>
<path d="M175.156 152.924C178.899 166.577 179.663 259.728 177.845 273.595C176.434 284.345 162.724 299.676 160.549 322.166C158.725 342.91 175.301 363.413 176.335 370.232C177.377 377.111 167.054 389.738 163.613 396.158" stroke="#EF4AFF" stroke-width="3" stroke-miterlimit="10"/>
</g>
<path d="M444.654 291.112C445.514 289.698 446.98 289.418 447.294 290.608L453.37 313.681L459.446 336.755C459.759 337.945 458.685 339.713 457.512 339.937L434.768 344.287L412.024 348.636C410.851 348.861 410.459 347.373 411.319 345.959L427.987 318.535L444.654 291.112Z" fill="#F7AA17"/>
<path d="M45.1832 61.1246C45.4535 60.5553 46.3095 60.7643 46.7235 61.5005L54.7477 75.7733L62.7723 90.046C63.1863 90.7821 62.8478 91.4936 62.1634 91.3268L48.8943 88.091L35.6247 84.8553C34.9403 84.6884 34.4228 83.7679 34.6932 83.1986L39.9382 72.1616L45.1832 61.1246Z" fill="white"/>
<path d="M212.904 98.981C213.337 98.5692 214.098 98.9963 214.273 99.7494L217.657 114.349L221.043 128.949C221.217 129.702 220.675 130.216 220.067 129.875L208.277 123.257L196.486 116.639C195.878 116.298 195.66 115.356 196.093 114.945L204.498 106.963L212.904 98.981Z" fill="white"/>
</g>
<defs>
<clipPath id="clip0_337_1237">
<rect width="463" height="405" fill="white"/>
</clipPath>
<clipPath id="clip1_337_1237">
<rect width="174.59" height="29.4051" fill="white" transform="translate(255.816 86.6665)"/>
</clipPath>
<clipPath id="clip2_337_1237">
<rect width="153.065" height="117.388" fill="white" transform="translate(20.9912 195.076)"/>
</clipPath>
</defs>
</svg>
