<svg width="109" height="34" viewBox="0 0 109 34" fill="none" xmlns="http://www.w3.org/2000/svg">
<path d="M0.79757 0H58.2131C58.6507 0 59.0076 0.321224 59.0076 0.716561V32.3408C59.0076 32.7388 58.6507 33.0601 58.2131 33.0601H0.79757C0.356891 33.0601 0 32.7388 0 32.3408V0.716561C0 0.321224 0.356891 0 0.79757 0ZM57.4156 1.43585H1.59203V31.6215H57.4156V1.43585Z" fill="url(#paint0_linear_141_2)"/>
<path d="M16.491 16.5576C16.8013 16.8129 17.0341 17.1149 17.1893 17.4636C17.3444 17.8122 17.422 18.1966 17.422 18.6166V22.6798C17.422 23.1575 17.3103 23.605 17.09 24.0278C16.8665 24.4479 16.5686 24.813 16.19 25.126C15.8145 25.4362 15.3707 25.6833 14.8586 25.8672C14.3497 26.0484 13.8066 26.1418 13.2294 26.1418H8.23601C7.92568 26.1418 7.77051 26.0127 7.77051 25.7574V7.30286C7.77051 7.04479 7.92568 6.9185 8.23601 6.9185H13.2294C13.8066 6.9185 14.3497 7.0091 14.8586 7.19304C15.3707 7.37424 15.8145 7.62132 16.19 7.9343C16.5686 8.24453 16.8665 8.61241 17.09 9.03246C17.3103 9.4525 17.422 9.90275 17.422 10.3777V13.1231C17.422 13.9659 17.1117 14.6715 16.491 15.2398C16.1589 15.5308 15.7586 15.7697 15.2931 15.9536C15.7803 16.0991 16.1807 16.2995 16.491 16.5576ZM13.5273 18.1774C13.5273 17.9934 13.4497 17.8397 13.2945 17.7107C13.1394 17.5816 12.9501 17.5185 12.7297 17.5185H11.6653V23.2015H12.7297C12.9501 23.2015 13.1394 23.1383 13.2945 23.0093C13.4497 22.883 13.5273 22.7265 13.5273 22.5426V18.1774ZM13.5273 10.515C13.5273 10.331 13.4497 10.1773 13.2945 10.0483C13.1394 9.91922 12.9501 9.85608 12.7297 9.85608H11.6653V14.526H12.7297C12.9501 14.526 13.1394 14.4601 13.2945 14.3311C13.4497 14.2048 13.5273 14.0483 13.5273 13.8643V10.515ZM29.2366 25.7574C29.28 26.0127 29.1497 26.1418 28.8362 26.1418H25.8073C25.5218 26.1418 25.3542 26.0127 25.3108 25.7574L25.0439 22.7896H22.9802L22.7133 25.7574C22.6698 26.0127 22.5022 26.1418 22.2136 26.1418H19.1847C18.8744 26.1418 18.7409 26.0127 18.7875 25.7574L21.2826 7.30286C21.3261 7.04479 21.503 6.9185 21.8164 6.9185H26.2077C26.518 6.9185 26.6949 7.04479 26.7414 7.30286L29.2366 25.7574ZM24.777 19.7148L24.1439 12.272H23.877L23.247 19.7148H24.777ZM36.393 6.72632C36.9702 6.72632 37.5133 6.81692 38.0222 7.00086C38.5343 7.18205 38.9781 7.42914 39.3536 7.74212C39.7322 8.05235 40.0301 8.42023 40.2536 8.84028C40.4739 9.26032 40.5856 9.71057 40.5856 10.1855V11.2288C40.5856 11.4868 40.4398 11.6516 40.1511 11.7229L37.1254 12.3818C36.8367 12.456 36.6909 12.3654 36.6909 12.1073V10.3228C36.6909 10.1389 36.6133 9.98511 36.4581 9.85608C36.303 9.72704 36.1136 9.6639 35.8933 9.6639H35.6264C35.4061 9.6639 35.2168 9.72704 35.0616 9.85608C34.9064 9.98511 34.8288 10.1389 34.8288 10.3228V12.8211C34.8506 13.0243 34.894 13.1972 34.9623 13.3427C35.0275 13.491 35.1485 13.6365 35.3254 13.782L39.6856 16.4752C40.0425 16.7305 40.2691 16.9914 40.3684 17.2577C40.4677 17.524 40.5422 17.8205 40.5856 18.1499V22.872C40.5856 23.3497 40.4739 23.7972 40.2536 24.22C40.0301 24.64 39.7322 25.0052 39.3536 25.3181C38.9781 25.6284 38.5343 25.8755 38.0222 26.0594C37.5133 26.2406 36.9702 26.3339 36.393 26.3339H35.1268C34.5495 26.3339 34.0065 26.2406 33.4975 26.0594C32.9854 25.8755 32.5417 25.6284 32.1662 25.3181C31.7876 25.0052 31.4896 24.64 31.2662 24.22C31.0458 23.7972 30.9341 23.3497 30.9341 22.872V20.2364C30.9341 19.9811 31.0769 19.8164 31.3655 19.7422L34.3944 19.0834C34.683 19.0092 34.8288 19.1026 34.8288 19.3579V22.7347C34.8288 22.9187 34.9064 23.0752 35.0616 23.2015C35.2168 23.3305 35.4061 23.3936 35.6264 23.3936H35.8933C36.1136 23.3936 36.303 23.3305 36.4581 23.2015C36.6133 23.0752 36.6909 22.9187 36.6909 22.7347V19.1108C36.6691 18.872 36.6257 18.6633 36.5574 18.4794C36.4923 18.2954 36.3588 18.1307 36.1602 17.9852L31.8651 15.2673C31.5331 15.0092 31.2941 14.7539 31.1514 14.4985C31.0055 14.2405 30.9341 13.9028 30.9341 13.48V10.1855C30.9341 9.71057 31.0458 9.26032 31.2662 8.84028C31.4896 8.42023 31.7876 8.05235 32.1662 7.74212C32.5417 7.42914 32.9854 7.18205 33.4975 7.00086C34.0065 6.81692 34.5495 6.72632 35.1268 6.72632H36.393ZM50.7678 22.9269C51.0812 22.9269 51.2364 23.0559 51.2364 23.3112V25.7574C51.2364 26.0127 51.0812 26.1418 50.7678 26.1418H43.5462C43.2359 26.1418 43.0807 26.0127 43.0807 25.7574V7.30286C43.0807 7.04479 43.2359 6.9185 43.5462 6.9185H50.7678C51.0812 6.9185 51.2364 7.04479 51.2364 7.30286V9.74625C51.2364 10.0016 51.0812 10.1306 50.7678 10.1306H46.9755V14.084H50.2713C50.5816 14.084 50.7368 14.213 50.7368 14.4711V16.9145C50.7368 17.1698 50.5816 17.2988 50.2713 17.2988H46.9755V22.9269H50.7678Z" fill="white"/>
<path d="M73.9226 16.5575C74.233 16.8129 74.4657 17.1149 74.6209 17.4635C74.7761 17.8122 74.8537 18.1965 74.8537 18.6166V22.6798C74.8537 23.1575 74.7419 23.605 74.5216 24.0278C74.2982 24.4478 74.0002 24.813 73.6216 25.1259C73.2461 25.4362 72.8023 25.6832 72.2903 25.8672C71.7813 26.0484 71.2382 26.1417 70.661 26.1417H65.6677C65.3573 26.1417 65.2021 26.0127 65.2021 25.7574V7.30282C65.2021 7.04475 65.3573 6.91846 65.6677 6.91846H70.661C71.2382 6.91846 71.7813 7.00906 72.2903 7.193C72.8023 7.37419 73.2461 7.62128 73.6216 7.93426C74.0002 8.24449 74.2982 8.61237 74.5216 9.03242C74.7419 9.45246 74.8537 9.90271 74.8537 10.3777V13.1231C74.8537 13.9659 74.5433 14.6715 73.9226 15.2398C73.5906 15.5308 73.1903 15.7696 72.7247 15.9536C73.212 16.0991 73.6123 16.2995 73.9226 16.5575ZM70.9589 18.1773C70.9589 17.9934 70.8844 17.8396 70.7262 17.7106C70.571 17.5816 70.3848 17.5184 70.1614 17.5184H69.0969V23.2014H70.1614C70.3848 23.2014 70.571 23.1383 70.7262 23.0092C70.8844 22.8829 70.9589 22.7265 70.9589 22.5425V18.1773ZM70.9589 10.5149C70.9589 10.331 70.8844 10.1772 70.7262 10.0482C70.571 9.91918 70.3848 9.85603 70.1614 9.85603H69.0969V14.526H70.1614C70.3848 14.526 70.571 14.4601 70.7262 14.331C70.8844 14.2047 70.9589 14.0482 70.9589 13.8643V10.5149ZM87.4347 6.91846C87.5682 6.91846 87.6675 6.95964 87.7327 7.042C87.8009 7.12437 87.8103 7.20948 87.7668 7.30282L83.9403 18.6715V25.7574C83.9403 26.0127 83.7852 26.1417 83.4779 26.1417H80.5049C80.2008 26.1417 80.0456 26.0127 80.0456 25.7574V18.6715L76.2191 7.30282C76.1726 7.20948 76.185 7.12437 76.2533 7.042C76.3185 6.95964 76.4178 6.91846 76.5512 6.91846H80.0797C80.3839 6.91846 80.5608 7.04475 80.6073 7.30282L81.9262 14.224H82.0597L83.3786 7.30282C83.4252 7.04475 83.6021 6.91846 83.9062 6.91846H87.4347ZM98.0514 6.91846C98.3617 6.91846 98.5169 7.04475 98.5169 7.30282V9.74621C98.5169 10.0015 98.3617 10.1306 98.0514 10.1306H95.6897V25.7574C95.6897 26.0127 95.5315 26.1417 95.2211 26.1417H92.2605C92.1488 26.1417 92.0433 26.1033 91.944 26.0319C91.8447 25.9578 91.795 25.8672 91.795 25.7574V10.1306H89.4644C89.154 10.1306 88.9989 10.0015 88.9989 9.74621V7.30282C88.9989 7.04475 89.154 6.91846 89.4644 6.91846H98.0514ZM108.535 22.9269C108.845 22.9269 109 23.0559 109 23.3112V25.7574C109 26.0127 108.845 26.1417 108.535 26.1417H101.313C101.003 26.1417 100.848 26.0127 100.848 25.7574V7.30282C100.848 7.04475 101.003 6.91846 101.313 6.91846H108.535C108.845 6.91846 109 7.04475 109 7.30282V9.74621C109 10.0015 108.845 10.1306 108.535 10.1306H104.739V14.084H108.035C108.345 14.084 108.5 14.213 108.5 14.471V16.9145C108.5 17.1698 108.345 17.2988 108.035 17.2988H104.739V22.9269H108.535Z" fill="url(#paint1_linear_141_2)"/>
<defs>
<linearGradient id="paint0_linear_141_2" x1="35.5632" y1="4.02572e-05" x2="60.7763" y2="48.0358" gradientUnits="userSpaceOnUse">
<stop stop-color="#5800FF"/>
<stop offset="1" stop-color="#E900FF"/>
</linearGradient>
<linearGradient id="paint1_linear_141_2" x1="82.566" y1="6.95397" x2="99.1408" y2="39.3425" gradientUnits="userSpaceOnUse">
<stop stop-color="#5800FF"/>
<stop offset="1" stop-color="#E900FF"/>
</linearGradient>
</defs>
</svg>
