<svg class="vertical-logo-svg" width="100" height="104" viewBox="0 0 100 104" fill="none" xmlns="http://www.w3.org/2000/svg">
<path d="M1.34763 0H98.6499C99.3969 0 100.003 0.615763 100.003 1.37791V102.622C100.003 103.379 99.3969 104 98.6499 104H1.34763C0.60063 104 0 103.379 0 102.622V1.37791C0 0.615763 0.60063 0 1.34763 0ZM97.3023 2.75582H2.69527V101.244H97.3023V2.75582Z" fill="url(#paint0_linear_79_1030)"/>
<path d="M28.8265 73.1716C29.3313 73.641 29.7098 74.1962 29.9622 74.8372C30.2146 75.4782 30.3407 76.1848 30.3407 76.9571V84.4271C30.3407 85.3054 30.159 86.1281 29.8007 86.9054C29.4373 87.6776 28.9527 88.3489 28.3369 88.9243C27.7262 89.4946 27.0045 89.9489 26.1716 90.2871C25.3439 90.6202 24.4606 90.7918 23.5218 90.7918H15.4007C14.8959 90.7918 14.6436 90.5546 14.6436 90.0851V56.1571C14.6436 55.6826 14.8959 55.4504 15.4007 55.4504H23.5218C24.4606 55.4504 25.3439 55.617 26.1716 55.9552C27.0045 56.2883 27.7262 56.7426 28.3369 57.318C28.9527 57.8883 29.4373 58.5646 29.8007 59.3369C30.159 60.1091 30.3407 60.9369 30.3407 61.8101V66.8574C30.3407 68.4069 29.836 69.7041 28.8265 70.7489C28.2865 71.2839 27.6354 71.723 26.8783 72.0612C27.6707 72.3287 28.3218 72.6971 28.8265 73.1716ZM24.0064 76.1495C24.0064 75.8113 23.8852 75.5287 23.6278 75.2915C23.3754 75.0542 23.0726 74.9381 22.7092 74.9381H20.978V85.3861H22.7092C23.0726 85.3861 23.3754 85.27 23.6278 85.0328C23.8852 84.8006 24.0064 84.5129 24.0064 84.1748V76.1495ZM24.0064 62.0624C24.0064 61.7243 23.8852 61.4416 23.6278 61.2044C23.3754 60.9672 23.0726 60.8511 22.7092 60.8511H20.978V69.4366H22.7092C23.0726 69.4366 23.3754 69.3154 23.6278 69.0782C23.8852 68.846 24.0064 68.5583 24.0064 68.2202V62.0624ZM50.8026 55.4504C51.0196 55.4504 51.1811 55.5262 51.2871 55.6776C51.3982 55.829 51.4133 55.9855 51.3426 56.1571L45.1193 77.058V90.0851C45.1193 90.5546 44.8669 90.7918 44.3672 90.7918H39.5319C39.0373 90.7918 38.7849 90.5546 38.7849 90.0851V77.058L32.5615 56.1571C32.4858 55.9855 32.506 55.829 32.6171 55.6776C32.7231 55.5262 32.8846 55.4504 33.1016 55.4504H38.8404C39.335 55.4504 39.6228 55.6826 39.6985 56.1571L41.8436 68.8814H42.0606L44.2057 56.1571C44.2814 55.6826 44.5691 55.4504 45.0638 55.4504H50.8026ZM68.0695 55.4504C68.5742 55.4504 68.8266 55.6826 68.8266 56.1571V60.6492C68.8266 61.1186 68.5742 61.3558 68.0695 61.3558H64.2285V90.0851C64.2285 90.5546 63.971 90.7918 63.4663 90.7918H58.6511C58.4694 90.7918 58.2979 90.7211 58.1363 90.5899C57.9748 90.4536 57.894 90.287 57.894 90.0851V61.3558H54.1035C53.5988 61.3558 53.3464 61.1186 53.3464 60.6492V56.1571C53.3464 55.6826 53.5988 55.4504 54.1035 55.4504H68.0695ZM85.1193 84.8814C85.624 84.8814 85.8764 85.1186 85.8764 85.588V90.0851C85.8764 90.5546 85.624 90.7918 85.1193 90.7918H73.3742C72.8695 90.7918 72.6171 90.5546 72.6171 90.0851V56.1571C72.6171 55.6826 72.8695 55.4504 73.3742 55.4504H85.1193C85.624 55.4504 85.8764 55.6826 85.8764 56.1571V60.6492C85.8764 61.1186 85.624 61.3558 85.1193 61.3558H78.9464V68.624H84.3067C84.8114 68.624 85.0638 68.8612 85.0638 69.3356V73.8277C85.0638 74.2971 84.8114 74.5344 84.3067 74.5344H78.9464V84.8814H85.1193Z" fill="url(#paint1_linear_79_1030)"/>
<path d="M28.8215 31.4548C29.3262 31.9293 29.7098 32.4845 29.9622 33.1204C30.2145 33.7614 30.3407 34.468 30.3407 35.2453V42.7154C30.3407 43.5936 30.159 44.4163 29.7956 45.1885C29.4373 45.9658 28.9477 46.6371 28.3369 47.2075C27.7212 47.7829 26.9994 48.2371 26.1716 48.5703C25.3439 48.9084 24.4555 49.075 23.5167 49.075H15.4007C14.8959 49.075 14.6436 48.8428 14.6436 48.3684V14.4403C14.6436 13.9709 14.8959 13.7336 15.4007 13.7336H23.5167C24.4555 13.7336 25.3439 13.9053 26.1716 14.2384C26.9994 14.5765 27.7212 15.0308 28.3369 15.6062C28.9477 16.1766 29.4373 16.8479 29.7956 17.6251C30.159 18.3974 30.3407 19.2201 30.3407 20.0983V25.1457C30.3407 26.6952 29.831 27.9923 28.8215 29.0321C28.2814 29.5721 27.6303 30.0113 26.8732 30.3444C27.6707 30.6169 28.3168 30.9854 28.8215 31.4548ZM24.0063 34.4378C24.0063 34.0996 23.8802 33.8119 23.6278 33.5797C23.3754 33.3425 23.0675 33.2264 22.7092 33.2264H20.9729V43.6743H22.7092C23.0675 43.6743 23.3754 43.5583 23.6278 43.321C23.8802 43.0838 24.0063 42.8012 24.0063 42.463V34.4378ZM24.0063 20.3507C24.0063 20.0125 23.8802 19.7248 23.6278 19.4927C23.3754 19.2554 23.0675 19.1393 22.7092 19.1393H20.9729V27.7198H22.7092C23.0675 27.7198 23.3754 27.6037 23.6278 27.3665C23.8802 27.1292 24.0063 26.8466 24.0063 26.5084V20.3507Z" fill="white"/>
<path d="M50.0552 48.3684C50.1309 48.8428 49.9139 49.075 49.4091 49.075H44.483C44.0136 49.075 43.741 48.8428 43.6703 48.3684L43.2363 42.9173H39.8798L39.4508 48.3684C39.3751 48.8428 39.1076 49.075 38.6382 49.075H33.712C33.2072 49.075 32.9902 48.8428 33.0609 48.3684L37.1189 14.4403C37.1946 13.9709 37.4823 13.7336 37.987 13.7336H45.1341C45.6388 13.7336 45.9265 13.9709 45.9972 14.4403L50.0552 48.3684ZM42.8022 37.2642L41.7776 23.581H41.3435L40.3139 37.2642H42.8022Z" fill="white"/>
<path d="M61.8109 13.3804C62.7497 13.3804 63.6329 13.552 64.4607 13.8851C65.2935 14.2233 66.0153 14.6775 66.626 15.2479C67.2418 15.8232 67.7263 16.4945 68.0897 17.2718C68.4481 18.0441 68.6298 18.8668 68.6298 19.745V21.663C68.6298 22.1324 68.3976 22.4352 67.9282 22.5715L63.002 23.7829C62.5326 23.9192 62.2954 23.7476 62.2954 23.2782V19.9974C62.2954 19.6592 62.1692 19.3715 61.9168 19.1394C61.6645 18.9021 61.3566 18.786 60.9982 18.786H60.5642C60.2058 18.786 59.8979 18.9021 59.6455 19.1394C59.3932 19.3715 59.267 19.6592 59.267 19.9974V24.5905C59.3023 24.9589 59.373 25.2819 59.484 25.5495C59.59 25.817 59.7869 26.0895 60.0796 26.357L67.1661 31.3034C67.7465 31.7778 68.115 32.2573 68.2765 32.7419C68.438 33.2315 68.5591 33.7816 68.6298 34.3873V43.0687C68.6298 43.9419 68.4481 44.7696 68.0897 45.5419C67.7263 46.3192 67.2418 46.9905 66.626 47.5608C66.0153 48.1362 65.2935 48.5905 64.4607 48.9236C63.6329 49.2618 62.7497 49.4283 61.8109 49.4283H59.7516C58.8128 49.4283 57.9295 49.2618 57.1017 48.9236C56.2689 48.5905 55.5471 48.1362 54.9364 47.5608C54.3206 46.9905 53.8361 46.3192 53.4727 45.5419C53.1143 44.7696 52.9326 43.9419 52.9326 43.0687V38.2233C52.9326 37.7488 53.1648 37.446 53.6342 37.3148L58.5604 36.1034C59.0298 35.9671 59.267 36.1337 59.267 36.6081V42.8163C59.267 43.1545 59.3932 43.4422 59.6455 43.6744C59.8979 43.9116 60.2058 44.0277 60.5642 44.0277H60.9982C61.3566 44.0277 61.6645 43.9116 61.9168 43.6744C62.1692 43.4422 62.2954 43.1545 62.2954 42.8163V36.1539C62.2601 35.7148 62.1894 35.3261 62.0784 34.993C61.9724 34.6548 61.7553 34.352 61.4323 34.0845L54.4468 29.0826C53.9068 28.6132 53.5181 28.1438 53.2859 27.6693C53.0487 27.1999 52.9326 26.5741 52.9326 25.8018V19.745C52.9326 18.8668 53.1143 18.0441 53.4727 17.2718C53.8361 16.4945 54.3206 15.8232 54.9364 15.2479C55.5471 14.6775 56.2689 14.2233 57.1017 13.8851C57.9295 13.552 58.8128 13.3804 59.7516 13.3804H61.8109Z" fill="white"/>
<path d="M84.5141 43.1696C85.0188 43.1696 85.2712 43.4069 85.2712 43.8763V48.3684C85.2712 48.8428 85.0188 49.075 84.5141 49.075H72.7639C72.2592 49.075 72.0068 48.8428 72.0068 48.3684V14.4403C72.0068 13.9709 72.2592 13.7336 72.7639 13.7336H84.5141C85.0188 13.7336 85.2712 13.9709 85.2712 14.4403V18.9374C85.2712 19.4068 85.0188 19.6441 84.5141 19.6441H78.3412V26.9122H83.7015C84.2062 26.9122 84.4586 27.1494 84.4586 27.6188V32.111C84.4586 32.5854 84.2062 32.8176 83.7015 32.8176H78.3412V43.1696H84.5141Z" fill="white"/>
<defs>
<linearGradient id="paint0_linear_79_1030" x1="60.2704" y1="6.11907e-05" x2="141.127" y2="127.908" gradientUnits="userSpaceOnUse">
<stop stop-color="#5800FF"/>
<stop offset="1" stop-color="#E900FF"/>
</linearGradient>
<linearGradient id="paint1_linear_79_1030" x1="42.8841" y1="55.5157" x2="75.452" y2="111.815" gradientUnits="userSpaceOnUse">
<stop stop-color="#5800FF"/>
<stop offset="1" stop-color="#E900FF"/>
</linearGradient>
</defs>
</svg>
