<svg width="1059" height="1061" viewBox="0 0 1059 1061" fill="none" xmlns="http://www.w3.org/2000/svg">
<g clip-path="url(#clip0_350_1686)">
<path d="M279.232 87.443L539.576 11.7075" stroke="#5800FF" stroke-width="2"/>
<path d="M278.081 75.5466C284.439 75.5466 289.593 80.7012 289.593 87.0591C289.593 93.4171 284.439 98.5716 278.081 98.5716C271.723 98.5716 266.568 93.4171 266.568 87.0591C266.568 80.7012 271.723 75.5466 278.081 75.5466Z" fill="#5800FF"/>
<path d="M549.744 136.853L539.576 11.7075" stroke="#5800FF" stroke-width="2"/>
<path d="M267.722 138.199L549.744 137.635" stroke="#5800FF" stroke-width="2"/>
<path d="M550.512 137.621L822.104 145.398" stroke="#5800FF" stroke-width="2"/>
<path d="M822.104 146.166L539.576 11.7075" stroke="#5800FF" stroke-width="2"/>
<path d="M787.825 94.7143L541.111 13.2424" stroke="#5800FF" stroke-width="2"/>
<path d="M538.808 0.962402C545.166 0.962402 550.321 6.11693 550.321 12.4749C550.321 18.8329 545.166 23.9874 538.808 23.9874C532.45 23.9874 527.296 18.8329 527.296 12.4749C527.296 6.11693 532.45 0.962402 538.808 0.962402Z" fill="#5800FF"/>
<path d="M549.744 126.876C556.102 126.876 561.256 132.03 561.256 138.388C561.256 144.746 556.102 149.901 549.744 149.901C543.386 149.901 538.231 144.746 538.231 138.388C538.231 132.03 543.386 126.876 549.744 126.876Z" fill="#5800FF"/>
<path d="M979.201 770.846L791.878 989.141" stroke="#5800FF" stroke-width="2"/>
<path d="M1049.34 535.709L979.982 770.078" stroke="#5800FF" stroke-width="2"/>
<path d="M978.477 769.325L961.031 794.66" stroke="#5800FF" stroke-width="2"/>
<path d="M790.343 988.373L961.031 794.66" stroke="#5800FF" stroke-width="2"/>
<path d="M960.264 783.915C966.622 783.915 971.777 789.069 971.777 795.427C971.777 801.785 966.622 806.94 960.264 806.94C953.906 806.94 948.752 801.785 948.752 795.427C948.752 789.069 953.906 783.915 960.264 783.915Z" fill="#5800FF"/>
<path d="M1047.42 524.964C1053.78 524.964 1058.93 530.118 1058.93 536.476C1058.93 542.834 1053.78 547.989 1047.42 547.989C1041.06 547.989 1035.91 542.834 1035.91 536.476C1035.91 530.118 1041.06 524.964 1047.42 524.964Z" fill="#5800FF"/>
<path d="M791.11 976.861C797.468 976.861 802.623 982.015 802.623 988.373C802.623 994.731 797.468 999.886 791.11 999.886C784.752 999.886 779.598 994.731 779.598 988.373C779.598 982.015 784.752 976.861 791.11 976.861Z" fill="#5800FF"/>
<path d="M788.946 96.6187L986.542 271.262" stroke="#5800FF" stroke-width="2"/>
<path d="M788.562 96.6187L822.857 143.878" stroke="#5800FF" stroke-width="2"/>
<path d="M790.481 83.571C796.839 83.571 801.994 88.7256 801.994 95.0835C801.994 101.442 796.839 106.596 790.481 106.596C784.123 106.596 778.969 101.442 778.969 95.0835C778.969 88.7256 784.123 83.571 790.481 83.571Z" fill="#5800FF"/>
<path d="M12.2422 524.469L90.2694 429.255" stroke="#5800FF" stroke-width="2"/>
<path d="M11.4746 525.236L84.2582 258.971" stroke="#5800FF" stroke-width="2"/>
<path d="M88.0957 259.739L267.693 135.897" stroke="#5800FF" stroke-width="2"/>
<path d="M265.391 137.815L371.022 367.421" stroke="#5800FF" stroke-width="2"/>
<path d="M371.118 369.34L242.835 654.596" stroke="#5800FF" stroke-width="2"/>
<path d="M241.395 653.445L91.8955 762.075" stroke="#5800FF" stroke-width="2"/>
<path d="M93.5255 761.116L11.3789 524.469" stroke="#5800FF" stroke-width="2"/>
<path d="M538.439 13.5828L266.062 138.967" stroke="#5800FF" stroke-width="2"/>
<path d="M279.586 85.582L265.295 138.967" stroke="#5800FF" stroke-width="2"/>
<path d="M279.586 85.582L88 258.204" stroke="#5800FF" stroke-width="2"/>
<path d="M97.2842 759.034L90.2695 429.255" stroke="#5800FF" stroke-width="2"/>
<path d="M242.163 654.597L90.2695 429.255" stroke="#5800FF" stroke-width="2"/>
<path d="M552.104 684.081L240.628 654.596" stroke="#5800FF" stroke-width="2"/>
<path d="M365.802 927.465L241.588 655.172" stroke="#5800FF" stroke-width="2"/>
<path d="M364.842 923.819L94.4854 761.884" stroke="#5800FF" stroke-width="2"/>
<path d="M94.0805 760.786L93.082 791.05" stroke="#5800FF" stroke-width="2"/>
<path d="M90.6703 791.368L12.0498 525.428" stroke="#5800FF" stroke-width="2"/>
<path d="M373.421 368.189L90.2695 429.255" stroke="#5800FF" stroke-width="2"/>
<path d="M265.775 138.199L90.2695 429.255" stroke="#5800FF" stroke-width="2"/>
<path d="M88.0957 257.436L91.8043 430.79" stroke="#5800FF" stroke-width="2"/>
<path d="M89.5018 418.51C95.8597 418.51 101.014 423.665 101.014 430.023C101.014 436.38 95.8597 441.535 89.5018 441.535C83.1438 441.535 77.9893 436.38 77.9893 430.023C77.9893 423.665 83.1438 418.51 89.5018 418.51Z" fill="#5800FF"/>
<path d="M241.395 642.316C247.753 642.316 252.908 647.471 252.908 653.829C252.908 660.187 247.753 665.341 241.395 665.341C235.037 665.341 229.883 660.187 229.883 653.829C229.883 647.471 235.037 642.316 241.395 642.316Z" fill="#5800FF"/>
<path d="M93.5262 749.028C99.8841 749.028 105.039 754.182 105.039 760.54C105.039 766.898 99.8841 772.053 93.5262 772.053C87.1682 772.053 82.0137 766.898 82.0137 760.54C82.0137 754.182 87.1682 749.028 93.5262 749.028Z" fill="#5800FF"/>
<path d="M88.0955 247.075C94.4535 247.075 99.608 252.229 99.608 258.587C99.608 264.945 94.4535 270.1 88.0955 270.1C81.7375 270.1 76.583 264.945 76.583 258.587C76.583 252.229 81.7375 247.075 88.0955 247.075Z" fill="#5800FF"/>
<path d="M12.242 514.491C18.6 514.491 23.7545 519.645 23.7545 526.003C23.7545 532.361 18.6 537.516 12.242 537.516C5.88402 537.516 0.729492 532.361 0.729492 526.003C0.729492 519.645 5.88402 514.491 12.242 514.491Z" fill="#5800FF"/>
<path d="M266.926 125.919C273.284 125.919 278.438 131.073 278.438 137.431C278.438 143.789 273.284 148.944 266.926 148.944C260.568 148.944 255.413 143.789 255.413 137.431C255.413 131.073 260.568 125.919 266.926 125.919Z" fill="#5800FF"/>
<path d="M91.8846 780.459C98.2425 780.459 103.397 785.614 103.397 791.972C103.397 798.33 98.2425 803.484 91.8846 803.484C85.5266 803.484 80.3721 798.33 80.3721 791.972C80.3721 785.614 85.5266 780.459 91.8846 780.459Z" fill="#5800FF"/>
<path d="M989.214 267.938L989.824 441.48" stroke="#5800FF" stroke-width="2"/>
<path d="M1048.2 538.366L989.823 441.48" stroke="#5800FF" stroke-width="2"/>
<path d="M853.695 663.25L989.824 441.48" stroke="#5800FF" stroke-width="2"/>
<path d="M981.141 770.056L989.824 441.48" stroke="#5800FF" stroke-width="2"/>
<path d="M988.83 265.635L1049.74 539.901" stroke="#5800FF" stroke-width="2"/>
<path d="M988.83 265.635L824.406 146.933" stroke="#5800FF" stroke-width="2"/>
<path d="M822.871 145.398L989.823 441.48" stroke="#5800FF" stroke-width="2"/>
<path d="M989.056 430.735C995.414 430.735 1000.57 435.889 1000.57 442.247C1000.57 448.605 995.414 453.76 989.056 453.76C982.698 453.76 977.544 448.605 977.544 442.247C977.544 435.889 982.698 430.735 989.056 430.735Z" fill="#5800FF"/>
<path d="M988.446 254.123C994.804 254.123 999.959 259.278 999.959 265.636C999.959 271.994 994.804 277.148 988.446 277.148C982.088 277.148 976.934 271.994 976.934 265.636C976.934 259.278 982.088 254.123 988.446 254.123Z" fill="#5800FF"/>
<path d="M549.744 139.894L735.06 372.882" stroke="#5800FF" stroke-width="2"/>
<path d="M370.902 367.436L735.06 372.882" stroke="#5800FF" stroke-width="2"/>
<path d="M552.087 680.284L372.371 367.43" stroke="#5800FF" stroke-width="2"/>
<path d="M373.139 367.401L549.751 138.369" stroke="#5800FF" stroke-width="2"/>
<path d="M552.09 682.546L735.06 372.882" stroke="#5800FF" stroke-width="2"/>
<path d="M849.575 658.348L735.06 372.882" stroke="#5800FF" stroke-width="2"/>
<path d="M994.356 443.015L735.06 371.347" stroke="#5800FF" stroke-width="2"/>
<path d="M822.857 145.413L735.06 372.882" stroke="#5800FF" stroke-width="2"/>
<path d="M734.293 362.137C740.651 362.137 745.805 367.291 745.805 373.649C745.805 380.007 740.651 385.162 734.293 385.162C727.935 385.162 722.78 380.007 722.78 373.649C722.78 367.291 727.935 362.137 734.293 362.137Z" fill="#5800FF"/>
<path d="M372.118 356.872C378.476 356.872 383.63 362.026 383.63 368.384C383.63 374.742 378.476 379.897 372.118 379.897C365.76 379.897 360.605 374.742 360.605 368.384C360.605 362.026 365.76 356.872 372.118 356.872Z" fill="#5800FF"/>
<path d="M822.814 133.602C829.172 133.602 834.327 138.757 834.327 145.115C834.327 151.473 829.172 156.627 822.814 156.627C816.456 156.627 811.302 151.473 811.302 145.115C811.302 138.757 816.456 133.602 822.814 133.602Z" fill="#5800FF"/>
<path d="M550.656 670.802C557.014 670.802 562.169 675.956 562.169 682.314C562.169 688.672 557.014 693.827 550.656 693.827C544.298 693.827 539.144 688.672 539.144 682.314C539.144 675.956 544.298 670.802 550.656 670.802Z" fill="#5800FF"/>
<path d="M549.802 684.009L363.543 925.134" stroke="#5800FF" stroke-width="2"/>
<path d="M848.424 659.471L974.733 770.057" stroke="#5800FF" stroke-width="2"/>
<path d="M365.845 923.698L529.995 1049.59" stroke="#5800FF" stroke-width="2"/>
<path d="M530.849 1046.99L713.559 926.293" stroke="#5800FF" stroke-width="2"/>
<path d="M364.311 918.994L713.176 925.525" stroke="#5800FF" stroke-width="2"/>
<path d="M549.034 682.282L713.176 925.525" stroke="#5800FF" stroke-width="2"/>
<path d="M549.034 682.665L836.655 661.646" stroke="#5800FF" stroke-width="2"/>
<path d="M789.93 987.251L713.176 924.758" stroke="#5800FF" stroke-width="2"/>
<path d="M978.187 771.208L713.176 924.758" stroke="#5800FF" stroke-width="2"/>
<path d="M849.191 660.622L712.408 925.525" stroke="#5800FF" stroke-width="2"/>
<path d="M710.105 909.408C716.463 909.408 721.618 914.562 721.618 920.92C721.618 927.278 716.463 932.433 710.105 932.433C703.747 932.433 698.593 927.278 698.593 920.92C698.593 914.562 703.747 909.408 710.105 909.408Z" fill="#5800FF"/>
<path d="M528.929 1037.02C535.287 1037.02 540.442 1042.17 540.442 1048.53C540.442 1054.89 535.287 1060.04 528.929 1060.04C522.572 1060.04 517.417 1054.89 517.417 1048.53C517.417 1042.17 522.572 1037.02 528.929 1037.02Z" fill="#5800FF"/>
<path d="M363.543 912.94C369.901 912.94 375.055 918.094 375.055 924.452C375.055 930.81 369.901 935.965 363.543 935.965C357.185 935.965 352.03 930.81 352.03 924.452C352.03 918.094 357.185 912.94 363.543 912.94Z" fill="#5800FF"/>
<path d="M845.354 649.877C851.712 649.877 856.867 655.032 856.867 661.39C856.867 667.748 851.712 672.902 845.354 672.902C838.996 672.902 833.842 667.748 833.842 661.39C833.842 655.032 838.996 649.877 845.354 649.877Z" fill="#5800FF"/>
<path d="M972.814 761.23C979.172 761.23 984.327 766.385 984.327 772.743C984.327 779.101 979.172 784.255 972.814 784.255C966.456 784.255 961.302 779.101 961.302 772.743C961.302 766.385 966.456 761.23 972.814 761.23Z" fill="#5800FF"/>
<g opacity="0.688955">
<path d="M549.395 656.713C534.34 656.713 522.134 668.918 522.134 683.973C522.134 699.029 534.34 711.235 549.395 711.235C564.451 711.235 576.657 699.029 576.657 683.973C576.657 668.918 564.451 656.713 549.395 656.713Z" fill="#5800FF"/>
<path d="M549.395 656.713C534.34 656.713 522.134 668.918 522.134 683.973C522.134 699.029 534.34 711.235 549.395 711.235C564.451 711.235 576.657 699.029 576.657 683.973C576.657 668.918 564.451 656.713 549.395 656.713Z" stroke="#5800FF" stroke-width="3.30698"/>
</g>
<path d="M792.25 988.616L531.027 1051.16" stroke="#5800FF" stroke-width="2"/>
<path d="M96.376 791.207L266.6 984.984" stroke="#5800FF" stroke-width="2"/>
<path d="M261.301 981.33L94.3037 761.144" stroke="#5800FF" stroke-width="2"/>
<path d="M363.389 925.421L262.973 985.936" stroke="#5800FF" stroke-width="2"/>
<path d="M266.351 984.104L532.501 1049.61" stroke="#5800FF" stroke-width="2"/>
<path d="M267.857 973.559C274.215 973.559 279.37 978.714 279.37 985.072C279.37 991.43 274.215 996.584 267.857 996.584C261.499 996.584 256.345 991.43 256.345 985.072C256.345 978.714 261.499 973.559 267.857 973.559Z" fill="#5800FF"/>
</g>
<defs>
<clipPath id="clip0_350_1686">
<rect width="1059" height="1061" fill="white"/>
</clipPath>
</defs>
</svg>
